<?xml version="1.0" encoding="utf-8" standalone="no"?>
<!DOCTYPE svg PUBLIC "-//W3C//DTD SVG 1.1//EN"
  "http://www.w3.org/Graphics/SVG/1.1/DTD/svg11.dtd">
<svg xmlns:xlink="http://www.w3.org/1999/xlink" width="864pt" height="360pt" viewBox="0 0 864 360" xmlns="http://www.w3.org/2000/svg" version="1.1">
 <metadata>
  <rdf:RDF xmlns:dc="http://purl.org/dc/elements/1.1/" xmlns:cc="http://creativecommons.org/ns#" xmlns:rdf="http://www.w3.org/1999/02/22-rdf-syntax-ns#">
   <cc:Work>
    <dc:type rdf:resource="http://purl.org/dc/dcmitype/StillImage"/>
    <dc:date>2025-10-09T14:39:41.419116</dc:date>
    <dc:format>image/svg+xml</dc:format>
    <dc:creator>
     <cc:Agent>
      <dc:title>Matplotlib v3.9.2, https://matplotlib.org/</dc:title>
     </cc:Agent>
    </dc:creator>
   </cc:Work>
  </rdf:RDF>
 </metadata>
 <defs>
  <style type="text/css">*{stroke-linejoin: round; stroke-linecap: butt}</style>
 </defs>
 <g id="figure_1">
  <g id="patch_1">
   <path d="M 0 360 
L 864 360 
L 864 0 
L 0 0 
z
" style="fill: #ffffff"/>
  </g>
  <g id="axes_1">
   <g id="patch_2">
    <path d="M 41.15 315.16 
L 414.45 315.16 
L 414.45 26.88 
L 41.15 26.88 
z
" style="fill: #ffffff"/>
   </g>
   <g id="matplotlib.axis_1">
    <g id="xtick_1">
     <g id="line2d_1">
      <defs>
       <path id="m999b07dbef" d="M 0 0 
L 0 3.5 
" style="stroke: #000000; stroke-width: 0.8"/>
      </defs>
      <g>
       <use xlink:href="#m999b07dbef" x="58.118182" y="315.16" style="stroke: #000000; stroke-width: 0.8"/>
      </g>
     </g>
     <g id="text_1">
      <!-- 0.5 -->
      <g transform="translate(50.166619 329.758438) scale(0.1 -0.1)">
       <defs>
        <path id="DejaVuSans-30" d="M 2034 4250 
Q 1547 4250 1301 3770 
Q 1056 3291 1056 2328 
Q 1056 1369 1301 889 
Q 1547 409 2034 409 
Q 2525 409 2770 889 
Q 3016 1369 3016 2328 
Q 3016 3291 2770 3770 
Q 2525 4250 2034 4250 
z
M 2034 4750 
Q 2819 4750 3233 4129 
Q 3647 3509 3647 2328 
Q 3647 1150 3233 529 
Q 2819 -91 2034 -91 
Q 1250 -91 836 529 
Q 422 1150 422 2328 
Q 422 3509 836 4129 
Q 1250 4750 2034 4750 
z
" transform="scale(0.015625)"/>
        <path id="DejaVuSans-2e" d="M 684 794 
L 1344 794 
L 1344 0 
L 684 0 
L 684 794 
z
" transform="scale(0.015625)"/>
        <path id="DejaVuSans-35" d="M 691 4666 
L 3169 4666 
L 3169 4134 
L 1269 4134 
L 1269 2991 
Q 1406 3038 1543 3061 
Q 1681 3084 1819 3084 
Q 2600 3084 3056 2656 
Q 3513 2228 3513 1497 
Q 3513 744 3044 326 
Q 2575 -91 1722 -91 
Q 1428 -91 1123 -41 
Q 819 9 494 109 
L 494 744 
Q 775 591 1075 516 
Q 1375 441 1709 441 
Q 2250 441 2565 725 
Q 2881 1009 2881 1497 
Q 2881 1984 2565 2268 
Q 2250 2553 1709 2553 
Q 1456 2553 1204 2497 
Q 953 2441 691 2322 
L 691 4666 
z
" transform="scale(0.015625)"/>
       </defs>
       <use xlink:href="#DejaVuSans-30"/>
       <use xlink:href="#DejaVuSans-2e" x="63.623047"/>
       <use xlink:href="#DejaVuSans-35" x="95.410156"/>
      </g>
     </g>
    </g>
    <g id="xtick_2">
     <g id="line2d_2">
      <g>
       <use xlink:href="#m999b07dbef" x="100.538636" y="315.16" style="stroke: #000000; stroke-width: 0.8"/>
      </g>
     </g>
     <g id="text_2">
      <!-- 1.0 -->
      <g transform="translate(92.587074 329.758438) scale(0.1 -0.1)">
       <defs>
        <path id="DejaVuSans-31" d="M 794 531 
L 1825 531 
L 1825 4091 
L 703 3866 
L 703 4441 
L 1819 4666 
L 2450 4666 
L 2450 531 
L 3481 531 
L 3481 0 
L 794 0 
L 794 531 
z
" transform="scale(0.015625)"/>
       </defs>
       <use xlink:href="#DejaVuSans-31"/>
       <use xlink:href="#DejaVuSans-2e" x="63.623047"/>
       <use xlink:href="#DejaVuSans-30" x="95.410156"/>
      </g>
     </g>
    </g>
    <g id="xtick_3">
     <g id="line2d_3">
      <g>
       <use xlink:href="#m999b07dbef" x="142.959091" y="315.16" style="stroke: #000000; stroke-width: 0.8"/>
      </g>
     </g>
     <g id="text_3">
      <!-- 1.5 -->
      <g transform="translate(135.007528 329.758438) scale(0.1 -0.1)">
       <use xlink:href="#DejaVuSans-31"/>
       <use xlink:href="#DejaVuSans-2e" x="63.623047"/>
       <use xlink:href="#DejaVuSans-35" x="95.410156"/>
      </g>
     </g>
    </g>
    <g id="xtick_4">
     <g id="line2d_4">
      <g>
       <use xlink:href="#m999b07dbef" x="185.379545" y="315.16" style="stroke: #000000; stroke-width: 0.8"/>
      </g>
     </g>
     <g id="text_4">
      <!-- 2.0 -->
      <g transform="translate(177.427983 329.758438) scale(0.1 -0.1)">
       <defs>
        <path id="DejaVuSans-32" d="M 1228 531 
L 3431 531 
L 3431 0 
L 469 0 
L 469 531 
Q 828 903 1448 1529 
Q 2069 2156 2228 2338 
Q 2531 2678 2651 2914 
Q 2772 3150 2772 3378 
Q 2772 3750 2511 3984 
Q 2250 4219 1831 4219 
Q 1534 4219 1204 4116 
Q 875 4013 500 3803 
L 500 4441 
Q 881 4594 1212 4672 
Q 1544 4750 1819 4750 
Q 2544 4750 2975 4387 
Q 3406 4025 3406 3419 
Q 3406 3131 3298 2873 
Q 3191 2616 2906 2266 
Q 2828 2175 2409 1742 
Q 1991 1309 1228 531 
z
" transform="scale(0.015625)"/>
       </defs>
       <use xlink:href="#DejaVuSans-32"/>
       <use xlink:href="#DejaVuSans-2e" x="63.623047"/>
       <use xlink:href="#DejaVuSans-30" x="95.410156"/>
      </g>
     </g>
    </g>
    <g id="xtick_5">
     <g id="line2d_5">
      <g>
       <use xlink:href="#m999b07dbef" x="227.8" y="315.16" style="stroke: #000000; stroke-width: 0.8"/>
      </g>
     </g>
     <g id="text_5">
      <!-- 2.5 -->
      <g transform="translate(219.848437 329.758438) scale(0.1 -0.1)">
       <use xlink:href="#DejaVuSans-32"/>
       <use xlink:href="#DejaVuSans-2e" x="63.623047"/>
       <use xlink:href="#DejaVuSans-35" x="95.410156"/>
      </g>
     </g>
    </g>
    <g id="xtick_6">
     <g id="line2d_6">
      <g>
       <use xlink:href="#m999b07dbef" x="270.220455" y="315.16" style="stroke: #000000; stroke-width: 0.8"/>
      </g>
     </g>
     <g id="text_6">
      <!-- 3.0 -->
      <g transform="translate(262.268892 329.758438) scale(0.1 -0.1)">
       <defs>
        <path id="DejaVuSans-33" d="M 2597 2516 
Q 3050 2419 3304 2112 
Q 3559 1806 3559 1356 
Q 3559 666 3084 287 
Q 2609 -91 1734 -91 
Q 1441 -91 1130 -33 
Q 819 25 488 141 
L 488 750 
Q 750 597 1062 519 
Q 1375 441 1716 441 
Q 2309 441 2620 675 
Q 2931 909 2931 1356 
Q 2931 1769 2642 2001 
Q 2353 2234 1838 2234 
L 1294 2234 
L 1294 2753 
L 1863 2753 
Q 2328 2753 2575 2939 
Q 2822 3125 2822 3475 
Q 2822 3834 2567 4026 
Q 2313 4219 1838 4219 
Q 1578 4219 1281 4162 
Q 984 4106 628 3988 
L 628 4550 
Q 988 4650 1302 4700 
Q 1616 4750 1894 4750 
Q 2613 4750 3031 4423 
Q 3450 4097 3450 3541 
Q 3450 3153 3228 2886 
Q 3006 2619 2597 2516 
z
" transform="scale(0.015625)"/>
       </defs>
       <use xlink:href="#DejaVuSans-33"/>
       <use xlink:href="#DejaVuSans-2e" x="63.623047"/>
       <use xlink:href="#DejaVuSans-30" x="95.410156"/>
      </g>
     </g>
    </g>
    <g id="xtick_7">
     <g id="line2d_7">
      <g>
       <use xlink:href="#m999b07dbef" x="312.640909" y="315.16" style="stroke: #000000; stroke-width: 0.8"/>
      </g>
     </g>
     <g id="text_7">
      <!-- 3.5 -->
      <g transform="translate(304.689347 329.758438) scale(0.1 -0.1)">
       <use xlink:href="#DejaVuSans-33"/>
       <use xlink:href="#DejaVuSans-2e" x="63.623047"/>
       <use xlink:href="#DejaVuSans-35" x="95.410156"/>
      </g>
     </g>
    </g>
    <g id="xtick_8">
     <g id="line2d_8">
      <g>
       <use xlink:href="#m999b07dbef" x="355.061364" y="315.16" style="stroke: #000000; stroke-width: 0.8"/>
      </g>
     </g>
     <g id="text_8">
      <!-- 4.0 -->
      <g transform="translate(347.109801 329.758438) scale(0.1 -0.1)">
       <defs>
        <path id="DejaVuSans-34" d="M 2419 4116 
L 825 1625 
L 2419 1625 
L 2419 4116 
z
M 2253 4666 
L 3047 4666 
L 3047 1625 
L 3713 1625 
L 3713 1100 
L 3047 1100 
L 3047 0 
L 2419 0 
L 2419 1100 
L 313 1100 
L 313 1709 
L 2253 4666 
z
" transform="scale(0.015625)"/>
       </defs>
       <use xlink:href="#DejaVuSans-34"/>
       <use xlink:href="#DejaVuSans-2e" x="63.623047"/>
       <use xlink:href="#DejaVuSans-30" x="95.410156"/>
      </g>
     </g>
    </g>
    <g id="xtick_9">
     <g id="line2d_9">
      <g>
       <use xlink:href="#m999b07dbef" x="397.481818" y="315.16" style="stroke: #000000; stroke-width: 0.8"/>
      </g>
     </g>
     <g id="text_9">
      <!-- 4.5 -->
      <g transform="translate(389.530256 329.758438) scale(0.1 -0.1)">
       <use xlink:href="#DejaVuSans-34"/>
       <use xlink:href="#DejaVuSans-2e" x="63.623047"/>
       <use xlink:href="#DejaVuSans-35" x="95.410156"/>
      </g>
     </g>
    </g>
    <g id="text_10">
     <!-- Energy per particle $\varepsilon$ -->
     <g transform="translate(175.55 343.438125) scale(0.1 -0.1)">
      <defs>
       <path id="DejaVuSans-45" d="M 628 4666 
L 3578 4666 
L 3578 4134 
L 1259 4134 
L 1259 2753 
L 3481 2753 
L 3481 2222 
L 1259 2222 
L 1259 531 
L 3634 531 
L 3634 0 
L 628 0 
L 628 4666 
z
" transform="scale(0.015625)"/>
       <path id="DejaVuSans-6e" d="M 3513 2113 
L 3513 0 
L 2938 0 
L 2938 2094 
Q 2938 2591 2744 2837 
Q 2550 3084 2163 3084 
Q 1697 3084 1428 2787 
Q 1159 2491 1159 1978 
L 1159 0 
L 581 0 
L 581 3500 
L 1159 3500 
L 1159 2956 
Q 1366 3272 1645 3428 
Q 1925 3584 2291 3584 
Q 2894 3584 3203 3211 
Q 3513 2838 3513 2113 
z
" transform="scale(0.015625)"/>
       <path id="DejaVuSans-65" d="M 3597 1894 
L 3597 1613 
L 953 1613 
Q 991 1019 1311 708 
Q 1631 397 2203 397 
Q 2534 397 2845 478 
Q 3156 559 3463 722 
L 3463 178 
Q 3153 47 2828 -22 
Q 2503 -91 2169 -91 
Q 1331 -91 842 396 
Q 353 884 353 1716 
Q 353 2575 817 3079 
Q 1281 3584 2069 3584 
Q 2775 3584 3186 3129 
Q 3597 2675 3597 1894 
z
M 3022 2063 
Q 3016 2534 2758 2815 
Q 2500 3097 2075 3097 
Q 1594 3097 1305 2825 
Q 1016 2553 972 2059 
L 3022 2063 
z
" transform="scale(0.015625)"/>
       <path id="DejaVuSans-72" d="M 2631 2963 
Q 2534 3019 2420 3045 
Q 2306 3072 2169 3072 
Q 1681 3072 1420 2755 
Q 1159 2438 1159 1844 
L 1159 0 
L 581 0 
L 581 3500 
L 1159 3500 
L 1159 2956 
Q 1341 3275 1631 3429 
Q 1922 3584 2338 3584 
Q 2397 3584 2469 3576 
Q 2541 3569 2628 3553 
L 2631 2963 
z
" transform="scale(0.015625)"/>
       <path id="DejaVuSans-67" d="M 2906 1791 
Q 2906 2416 2648 2759 
Q 2391 3103 1925 3103 
Q 1463 3103 1205 2759 
Q 947 2416 947 1791 
Q 947 1169 1205 825 
Q 1463 481 1925 481 
Q 2391 481 2648 825 
Q 2906 1169 2906 1791 
z
M 3481 434 
Q 3481 -459 3084 -895 
Q 2688 -1331 1869 -1331 
Q 1566 -1331 1297 -1286 
Q 1028 -1241 775 -1147 
L 775 -588 
Q 1028 -725 1275 -790 
Q 1522 -856 1778 -856 
Q 2344 -856 2625 -561 
Q 2906 -266 2906 331 
L 2906 616 
Q 2728 306 2450 153 
Q 2172 0 1784 0 
Q 1141 0 747 490 
Q 353 981 353 1791 
Q 353 2603 747 3093 
Q 1141 3584 1784 3584 
Q 2172 3584 2450 3431 
Q 2728 3278 2906 2969 
L 2906 3500 
L 3481 3500 
L 3481 434 
z
" transform="scale(0.015625)"/>
       <path id="DejaVuSans-79" d="M 2059 -325 
Q 1816 -950 1584 -1140 
Q 1353 -1331 966 -1331 
L 506 -1331 
L 506 -850 
L 844 -850 
Q 1081 -850 1212 -737 
Q 1344 -625 1503 -206 
L 1606 56 
L 191 3500 
L 800 3500 
L 1894 763 
L 2988 3500 
L 3597 3500 
L 2059 -325 
z
" transform="scale(0.015625)"/>
       <path id="DejaVuSans-20" transform="scale(0.015625)"/>
       <path id="DejaVuSans-70" d="M 1159 525 
L 1159 -1331 
L 581 -1331 
L 581 3500 
L 1159 3500 
L 1159 2969 
Q 1341 3281 1617 3432 
Q 1894 3584 2278 3584 
Q 2916 3584 3314 3078 
Q 3713 2572 3713 1747 
Q 3713 922 3314 415 
Q 2916 -91 2278 -91 
Q 1894 -91 1617 61 
Q 1341 213 1159 525 
z
M 3116 1747 
Q 3116 2381 2855 2742 
Q 2594 3103 2138 3103 
Q 1681 3103 1420 2742 
Q 1159 2381 1159 1747 
Q 1159 1113 1420 752 
Q 1681 391 2138 391 
Q 2594 391 2855 752 
Q 3116 1113 3116 1747 
z
" transform="scale(0.015625)"/>
       <path id="DejaVuSans-61" d="M 2194 1759 
Q 1497 1759 1228 1600 
Q 959 1441 959 1056 
Q 959 750 1161 570 
Q 1363 391 1709 391 
Q 2188 391 2477 730 
Q 2766 1069 2766 1631 
L 2766 1759 
L 2194 1759 
z
M 3341 1997 
L 3341 0 
L 2766 0 
L 2766 531 
Q 2569 213 2275 61 
Q 1981 -91 1556 -91 
Q 1019 -91 701 211 
Q 384 513 384 1019 
Q 384 1609 779 1909 
Q 1175 2209 1959 2209 
L 2766 2209 
L 2766 2266 
Q 2766 2663 2505 2880 
Q 2244 3097 1772 3097 
Q 1472 3097 1187 3025 
Q 903 2953 641 2809 
L 641 3341 
Q 956 3463 1253 3523 
Q 1550 3584 1831 3584 
Q 2591 3584 2966 3190 
Q 3341 2797 3341 1997 
z
" transform="scale(0.015625)"/>
       <path id="DejaVuSans-74" d="M 1172 4494 
L 1172 3500 
L 2356 3500 
L 2356 3053 
L 1172 3053 
L 1172 1153 
Q 1172 725 1289 603 
Q 1406 481 1766 481 
L 2356 481 
L 2356 0 
L 1766 0 
Q 1100 0 847 248 
Q 594 497 594 1153 
L 594 3053 
L 172 3053 
L 172 3500 
L 594 3500 
L 594 4494 
L 1172 4494 
z
" transform="scale(0.015625)"/>
       <path id="DejaVuSans-69" d="M 603 3500 
L 1178 3500 
L 1178 0 
L 603 0 
L 603 3500 
z
M 603 4863 
L 1178 4863 
L 1178 4134 
L 603 4134 
L 603 4863 
z
" transform="scale(0.015625)"/>
       <path id="DejaVuSans-63" d="M 3122 3366 
L 3122 2828 
Q 2878 2963 2633 3030 
Q 2388 3097 2138 3097 
Q 1578 3097 1268 2742 
Q 959 2388 959 1747 
Q 959 1106 1268 751 
Q 1578 397 2138 397 
Q 2388 397 2633 464 
Q 2878 531 3122 666 
L 3122 134 
Q 2881 22 2623 -34 
Q 2366 -91 2075 -91 
Q 1284 -91 818 406 
Q 353 903 353 1747 
Q 353 2603 823 3093 
Q 1294 3584 2113 3584 
Q 2378 3584 2631 3529 
Q 2884 3475 3122 3366 
z
" transform="scale(0.015625)"/>
       <path id="DejaVuSans-6c" d="M 603 4863 
L 1178 4863 
L 1178 0 
L 603 0 
L 603 4863 
z
" transform="scale(0.015625)"/>
       <path id="DejaVuSans-Oblique-3b5" d="M 1263 1888 
Q 925 1963 778 2166 
Q 669 2309 669 2503 
Q 669 3034 1175 3344 
Q 1575 3588 2188 3588 
Q 2425 3588 2684 3550 
Q 2944 3513 3234 3438 
L 3134 2916 
Q 2847 3006 2606 3047 
Q 2359 3088 2138 3088 
Q 1766 3088 1522 2944 
Q 1228 2772 1228 2522 
Q 1228 2356 1381 2241 
Q 1563 2103 1925 2103 
L 2409 2103 
L 2319 1628 
L 1856 1628 
Q 1425 1628 1172 1469 
Q 828 1253 828 916 
Q 828 703 1013 563 
Q 1244 388 1716 388 
Q 2006 388 2284 444 
Q 2563 503 2806 619 
L 2700 84 
Q 2403 -3 2131 -47 
Q 1859 -91 1609 -91 
Q 866 -91 516 194 
Q 250 413 250 781 
Q 250 1278 600 1584 
Q 859 1813 1263 1888 
z
" transform="scale(0.015625)"/>
      </defs>
      <use xlink:href="#DejaVuSans-45" transform="translate(0 0.015625)"/>
      <use xlink:href="#DejaVuSans-6e" transform="translate(63.183594 0.015625)"/>
      <use xlink:href="#DejaVuSans-65" transform="translate(126.5625 0.015625)"/>
      <use xlink:href="#DejaVuSans-72" transform="translate(188.085938 0.015625)"/>
      <use xlink:href="#DejaVuSans-67" transform="translate(229.199219 0.015625)"/>
      <use xlink:href="#DejaVuSans-79" transform="translate(292.675781 0.015625)"/>
      <use xlink:href="#DejaVuSans-20" transform="translate(351.855469 0.015625)"/>
      <use xlink:href="#DejaVuSans-70" transform="translate(383.642578 0.015625)"/>
      <use xlink:href="#DejaVuSans-65" transform="translate(447.119141 0.015625)"/>
      <use xlink:href="#DejaVuSans-72" transform="translate(508.642578 0.015625)"/>
      <use xlink:href="#DejaVuSans-20" transform="translate(549.755859 0.015625)"/>
      <use xlink:href="#DejaVuSans-70" transform="translate(581.542969 0.015625)"/>
      <use xlink:href="#DejaVuSans-61" transform="translate(645.019531 0.015625)"/>
      <use xlink:href="#DejaVuSans-72" transform="translate(706.298828 0.015625)"/>
      <use xlink:href="#DejaVuSans-74" transform="translate(747.412109 0.015625)"/>
      <use xlink:href="#DejaVuSans-69" transform="translate(786.621094 0.015625)"/>
      <use xlink:href="#DejaVuSans-63" transform="translate(814.404297 0.015625)"/>
      <use xlink:href="#DejaVuSans-6c" transform="translate(869.384766 0.015625)"/>
      <use xlink:href="#DejaVuSans-65" transform="translate(897.167969 0.015625)"/>
      <use xlink:href="#DejaVuSans-20" transform="translate(958.691406 0.015625)"/>
      <use xlink:href="#DejaVuSans-Oblique-3b5" transform="translate(990.478516 0.015625)"/>
     </g>
    </g>
   </g>
   <g id="matplotlib.axis_2">
    <g id="ytick_1">
     <g id="line2d_10">
      <defs>
       <path id="m472506ae7c" d="M 0 0 
L -3.5 0 
" style="stroke: #000000; stroke-width: 0.8"/>
      </defs>
      <g>
       <use xlink:href="#m472506ae7c" x="41.15" y="279.005052" style="stroke: #000000; stroke-width: 0.8"/>
      </g>
     </g>
     <g id="text_11">
      <!-- 1 -->
      <g transform="translate(27.7875 282.804271) scale(0.1 -0.1)">
       <use xlink:href="#DejaVuSans-31"/>
      </g>
     </g>
    </g>
    <g id="ytick_2">
     <g id="line2d_11">
      <g>
       <use xlink:href="#m472506ae7c" x="41.15" y="219.332136" style="stroke: #000000; stroke-width: 0.8"/>
      </g>
     </g>
     <g id="text_12">
      <!-- 2 -->
      <g transform="translate(27.7875 223.131354) scale(0.1 -0.1)">
       <use xlink:href="#DejaVuSans-32"/>
      </g>
     </g>
    </g>
    <g id="ytick_3">
     <g id="line2d_12">
      <g>
       <use xlink:href="#m472506ae7c" x="41.15" y="159.659219" style="stroke: #000000; stroke-width: 0.8"/>
      </g>
     </g>
     <g id="text_13">
      <!-- 3 -->
      <g transform="translate(27.7875 163.458438) scale(0.1 -0.1)">
       <use xlink:href="#DejaVuSans-33"/>
      </g>
     </g>
    </g>
    <g id="ytick_4">
     <g id="line2d_13">
      <g>
       <use xlink:href="#m472506ae7c" x="41.15" y="99.986302" style="stroke: #000000; stroke-width: 0.8"/>
      </g>
     </g>
     <g id="text_14">
      <!-- 4 -->
      <g transform="translate(27.7875 103.785521) scale(0.1 -0.1)">
       <use xlink:href="#DejaVuSans-34"/>
      </g>
     </g>
    </g>
    <g id="ytick_5">
     <g id="line2d_14">
      <g>
       <use xlink:href="#m472506ae7c" x="41.15" y="40.313385" style="stroke: #000000; stroke-width: 0.8"/>
      </g>
     </g>
     <g id="text_15">
      <!-- 5 -->
      <g transform="translate(27.7875 44.112604) scale(0.1 -0.1)">
       <use xlink:href="#DejaVuSans-35"/>
      </g>
     </g>
    </g>
    <g id="text_16">
     <!-- Entropy density $s(\varepsilon)$ -->
     <g transform="translate(21.6875 221.32) rotate(-90) scale(0.1 -0.1)">
      <defs>
       <path id="DejaVuSans-6f" d="M 1959 3097 
Q 1497 3097 1228 2736 
Q 959 2375 959 1747 
Q 959 1119 1226 758 
Q 1494 397 1959 397 
Q 2419 397 2687 759 
Q 2956 1122 2956 1747 
Q 2956 2369 2687 2733 
Q 2419 3097 1959 3097 
z
M 1959 3584 
Q 2709 3584 3137 3096 
Q 3566 2609 3566 1747 
Q 3566 888 3137 398 
Q 2709 -91 1959 -91 
Q 1206 -91 779 398 
Q 353 888 353 1747 
Q 353 2609 779 3096 
Q 1206 3584 1959 3584 
z
" transform="scale(0.015625)"/>
       <path id="DejaVuSans-64" d="M 2906 2969 
L 2906 4863 
L 3481 4863 
L 3481 0 
L 2906 0 
L 2906 525 
Q 2725 213 2448 61 
Q 2172 -91 1784 -91 
Q 1150 -91 751 415 
Q 353 922 353 1747 
Q 353 2572 751 3078 
Q 1150 3584 1784 3584 
Q 2172 3584 2448 3432 
Q 2725 3281 2906 2969 
z
M 947 1747 
Q 947 1113 1208 752 
Q 1469 391 1925 391 
Q 2381 391 2643 752 
Q 2906 1113 2906 1747 
Q 2906 2381 2643 2742 
Q 2381 3103 1925 3103 
Q 1469 3103 1208 2742 
Q 947 2381 947 1747 
z
" transform="scale(0.015625)"/>
       <path id="DejaVuSans-73" d="M 2834 3397 
L 2834 2853 
Q 2591 2978 2328 3040 
Q 2066 3103 1784 3103 
Q 1356 3103 1142 2972 
Q 928 2841 928 2578 
Q 928 2378 1081 2264 
Q 1234 2150 1697 2047 
L 1894 2003 
Q 2506 1872 2764 1633 
Q 3022 1394 3022 966 
Q 3022 478 2636 193 
Q 2250 -91 1575 -91 
Q 1294 -91 989 -36 
Q 684 19 347 128 
L 347 722 
Q 666 556 975 473 
Q 1284 391 1588 391 
Q 1994 391 2212 530 
Q 2431 669 2431 922 
Q 2431 1156 2273 1281 
Q 2116 1406 1581 1522 
L 1381 1569 
Q 847 1681 609 1914 
Q 372 2147 372 2553 
Q 372 3047 722 3315 
Q 1072 3584 1716 3584 
Q 2034 3584 2315 3537 
Q 2597 3491 2834 3397 
z
" transform="scale(0.015625)"/>
       <path id="DejaVuSans-Oblique-73" d="M 3200 3397 
L 3091 2853 
Q 2863 2978 2609 3040 
Q 2356 3103 2088 3103 
Q 1634 3103 1373 2948 
Q 1113 2794 1113 2528 
Q 1113 2219 1719 2053 
Q 1766 2041 1788 2034 
L 1972 1978 
Q 2547 1819 2739 1644 
Q 2931 1469 2931 1166 
Q 2931 609 2489 259 
Q 2047 -91 1331 -91 
Q 1053 -91 747 -37 
Q 441 16 72 128 
L 184 722 
Q 500 559 806 475 
Q 1113 391 1394 391 
Q 1816 391 2080 572 
Q 2344 753 2344 1031 
Q 2344 1331 1650 1516 
L 1591 1531 
L 1394 1581 
Q 956 1697 753 1886 
Q 550 2075 550 2369 
Q 550 2928 970 3256 
Q 1391 3584 2113 3584 
Q 2397 3584 2667 3537 
Q 2938 3491 3200 3397 
z
" transform="scale(0.015625)"/>
       <path id="DejaVuSans-28" d="M 1984 4856 
Q 1566 4138 1362 3434 
Q 1159 2731 1159 2009 
Q 1159 1288 1364 580 
Q 1569 -128 1984 -844 
L 1484 -844 
Q 1016 -109 783 600 
Q 550 1309 550 2009 
Q 550 2706 781 3412 
Q 1013 4119 1484 4856 
L 1984 4856 
z
" transform="scale(0.015625)"/>
       <path id="DejaVuSans-29" d="M 513 4856 
L 1013 4856 
Q 1481 4119 1714 3412 
Q 1947 2706 1947 2009 
Q 1947 1309 1714 600 
Q 1481 -109 1013 -844 
L 513 -844 
Q 928 -128 1133 580 
Q 1338 1288 1338 2009 
Q 1338 2731 1133 3434 
Q 928 4138 513 4856 
z
" transform="scale(0.015625)"/>
      </defs>
      <use xlink:href="#DejaVuSans-45" transform="translate(0 0.015625)"/>
      <use xlink:href="#DejaVuSans-6e" transform="translate(63.183594 0.015625)"/>
      <use xlink:href="#DejaVuSans-74" transform="translate(126.5625 0.015625)"/>
      <use xlink:href="#DejaVuSans-72" transform="translate(165.771484 0.015625)"/>
      <use xlink:href="#DejaVuSans-6f" transform="translate(206.884766 0.015625)"/>
      <use xlink:href="#DejaVuSans-70" transform="translate(268.066406 0.015625)"/>
      <use xlink:href="#DejaVuSans-79" transform="translate(331.542969 0.015625)"/>
      <use xlink:href="#DejaVuSans-20" transform="translate(390.722656 0.015625)"/>
      <use xlink:href="#DejaVuSans-64" transform="translate(422.509766 0.015625)"/>
      <use xlink:href="#DejaVuSans-65" transform="translate(485.986328 0.015625)"/>
      <use xlink:href="#DejaVuSans-6e" transform="translate(547.509766 0.015625)"/>
      <use xlink:href="#DejaVuSans-73" transform="translate(610.888672 0.015625)"/>
      <use xlink:href="#DejaVuSans-69" transform="translate(662.988281 0.015625)"/>
      <use xlink:href="#DejaVuSans-74" transform="translate(690.771484 0.015625)"/>
      <use xlink:href="#DejaVuSans-79" transform="translate(729.980469 0.015625)"/>
      <use xlink:href="#DejaVuSans-20" transform="translate(789.160156 0.015625)"/>
      <use xlink:href="#DejaVuSans-Oblique-73" transform="translate(820.947266 0.015625)"/>
      <use xlink:href="#DejaVuSans-28" transform="translate(873.046875 0.015625)"/>
      <use xlink:href="#DejaVuSans-Oblique-3b5" transform="translate(912.060547 0.015625)"/>
      <use xlink:href="#DejaVuSans-29" transform="translate(966.113281 0.015625)"/>
     </g>
    </g>
   </g>
   <g id="line2d_15">
    <path d="M 58.118182 302.056364 
L 61.520324 292.84923 
L 64.922465 284.301805 
L 68.324607 276.325838 
L 71.726749 268.849683 
L 75.979426 260.11849 
L 80.232103 251.982746 
L 84.48478 244.366392 
L 88.737457 237.207075 
L 92.990134 230.453033 
L 97.242812 224.060832 
L 102.346024 216.816383 
L 107.449237 209.98663 
L 112.552449 203.526654 
L 117.655662 197.398463 
L 123.60941 190.62525 
L 129.563158 184.21588 
L 135.516906 178.133248 
L 141.470654 172.345649 
L 143.171725 170.84186 
L 269.901504 111.418204 
L 270.752039 106.398143 
L 279.257393 100.57879 
L 287.762748 95.030047 
L 297.118638 89.210372 
L 306.474527 83.661336 
L 315.830417 78.358882 
L 326.036842 72.831024 
L 336.243267 67.547912 
L 347.300228 62.076717 
L 358.357188 56.845384 
L 370.264684 51.456829 
L 383.022716 45.941216 
L 395.780747 40.669288 
L 397.481818 39.983636 
L 397.481818 39.983636 
" clip-path="url(#pb1c6314278)" style="fill: none; stroke: #0000ff; stroke-width: 2; stroke-linecap: square"/>
   </g>
   <g id="line2d_16">
    <path d="M 142.959091 315.16 
L 142.959091 26.88 
" clip-path="url(#pb1c6314278)" style="fill: none; stroke-dasharray: 5.55,2.4; stroke-dashoffset: 0; stroke: #808080; stroke-opacity: 0.5; stroke-width: 1.5"/>
   </g>
   <g id="line2d_17">
    <path d="M 270.220455 315.16 
L 270.220455 26.88 
" clip-path="url(#pb1c6314278)" style="fill: none; stroke-dasharray: 5.55,2.4; stroke-dashoffset: 0; stroke: #808080; stroke-opacity: 0.5; stroke-width: 1.5"/>
   </g>
   <g id="patch_3">
    <path d="M 41.15 315.16 
L 41.15 26.88 
" style="fill: none; stroke: #000000; stroke-width: 0.8; stroke-linejoin: miter; stroke-linecap: square"/>
   </g>
   <g id="patch_4">
    <path d="M 414.45 315.16 
L 414.45 26.88 
" style="fill: none; stroke: #000000; stroke-width: 0.8; stroke-linejoin: miter; stroke-linecap: square"/>
   </g>
   <g id="patch_5">
    <path d="M 41.15 315.16 
L 414.45 315.16 
" style="fill: none; stroke: #000000; stroke-width: 0.8; stroke-linejoin: miter; stroke-linecap: square"/>
   </g>
   <g id="patch_6">
    <path d="M 41.15 26.88 
L 414.45 26.88 
" style="fill: none; stroke: #000000; stroke-width: 0.8; stroke-linejoin: miter; stroke-linecap: square"/>
   </g>
   <g id="text_17">
    <!-- linear segment -->
    <g style="fill: #0000ff" transform="translate(193.863636 148.461406) scale(0.1 -0.1)">
     <defs>
      <path id="DejaVuSans-6d" d="M 3328 2828 
Q 3544 3216 3844 3400 
Q 4144 3584 4550 3584 
Q 5097 3584 5394 3201 
Q 5691 2819 5691 2113 
L 5691 0 
L 5113 0 
L 5113 2094 
Q 5113 2597 4934 2840 
Q 4756 3084 4391 3084 
Q 3944 3084 3684 2787 
Q 3425 2491 3425 1978 
L 3425 0 
L 2847 0 
L 2847 2094 
Q 2847 2600 2669 2842 
Q 2491 3084 2119 3084 
Q 1678 3084 1418 2786 
Q 1159 2488 1159 1978 
L 1159 0 
L 581 0 
L 581 3500 
L 1159 3500 
L 1159 2956 
Q 1356 3278 1631 3431 
Q 1906 3584 2284 3584 
Q 2666 3584 2933 3390 
Q 3200 3197 3328 2828 
z
" transform="scale(0.015625)"/>
     </defs>
     <use xlink:href="#DejaVuSans-6c"/>
     <use xlink:href="#DejaVuSans-69" x="27.783203"/>
     <use xlink:href="#DejaVuSans-6e" x="55.566406"/>
     <use xlink:href="#DejaVuSans-65" x="118.945312"/>
     <use xlink:href="#DejaVuSans-61" x="180.46875"/>
     <use xlink:href="#DejaVuSans-72" x="241.748047"/>
     <use xlink:href="#DejaVuSans-20" x="282.861328"/>
     <use xlink:href="#DejaVuSans-73" x="314.648438"/>
     <use xlink:href="#DejaVuSans-65" x="366.748047"/>
     <use xlink:href="#DejaVuSans-67" x="428.271484"/>
     <use xlink:href="#DejaVuSans-6d" x="491.748047"/>
     <use xlink:href="#DejaVuSans-65" x="589.160156"/>
     <use xlink:href="#DejaVuSans-6e" x="650.683594"/>
     <use xlink:href="#DejaVuSans-74" x="714.0625"/>
    </g>
    <!-- (flat slope) -->
    <g style="fill: #0000ff" transform="translate(193.863636 159.659219) scale(0.1 -0.1)">
     <defs>
      <path id="DejaVuSans-66" d="M 2375 4863 
L 2375 4384 
L 1825 4384 
Q 1516 4384 1395 4259 
Q 1275 4134 1275 3809 
L 1275 3500 
L 2222 3500 
L 2222 3053 
L 1275 3053 
L 1275 0 
L 697 0 
L 697 3053 
L 147 3053 
L 147 3500 
L 697 3500 
L 697 3744 
Q 697 4328 969 4595 
Q 1241 4863 1831 4863 
L 2375 4863 
z
" transform="scale(0.015625)"/>
     </defs>
     <use xlink:href="#DejaVuSans-28"/>
     <use xlink:href="#DejaVuSans-66" x="39.013672"/>
     <use xlink:href="#DejaVuSans-6c" x="74.21875"/>
     <use xlink:href="#DejaVuSans-61" x="102.001953"/>
     <use xlink:href="#DejaVuSans-74" x="163.28125"/>
     <use xlink:href="#DejaVuSans-20" x="202.490234"/>
     <use xlink:href="#DejaVuSans-73" x="234.277344"/>
     <use xlink:href="#DejaVuSans-6c" x="286.376953"/>
     <use xlink:href="#DejaVuSans-6f" x="314.160156"/>
     <use xlink:href="#DejaVuSans-70" x="375.341797"/>
     <use xlink:href="#DejaVuSans-65" x="438.818359"/>
     <use xlink:href="#DejaVuSans-29" x="500.341797"/>
    </g>
   </g>
   <g id="text_18">
    <!-- Microcanonical entropy $s(\varepsilon)$ (first-order transition) -->
    <g transform="translate(77.62 20.88) scale(0.12 -0.12)">
     <defs>
      <path id="DejaVuSans-4d" d="M 628 4666 
L 1569 4666 
L 2759 1491 
L 3956 4666 
L 4897 4666 
L 4897 0 
L 4281 0 
L 4281 4097 
L 3078 897 
L 2444 897 
L 1241 4097 
L 1241 0 
L 628 0 
L 628 4666 
z
" transform="scale(0.015625)"/>
      <path id="DejaVuSans-2d" d="M 313 2009 
L 1997 2009 
L 1997 1497 
L 313 1497 
L 313 2009 
z
" transform="scale(0.015625)"/>
     </defs>
     <use xlink:href="#DejaVuSans-4d" transform="translate(0 0.015625)"/>
     <use xlink:href="#DejaVuSans-69" transform="translate(86.279297 0.015625)"/>
     <use xlink:href="#DejaVuSans-63" transform="translate(114.0625 0.015625)"/>
     <use xlink:href="#DejaVuSans-72" transform="translate(169.042969 0.015625)"/>
     <use xlink:href="#DejaVuSans-6f" transform="translate(210.15625 0.015625)"/>
     <use xlink:href="#DejaVuSans-63" transform="translate(271.337891 0.015625)"/>
     <use xlink:href="#DejaVuSans-61" transform="translate(326.318359 0.015625)"/>
     <use xlink:href="#DejaVuSans-6e" transform="translate(387.597656 0.015625)"/>
     <use xlink:href="#DejaVuSans-6f" transform="translate(450.976562 0.015625)"/>
     <use xlink:href="#DejaVuSans-6e" transform="translate(512.158203 0.015625)"/>
     <use xlink:href="#DejaVuSans-69" transform="translate(575.537109 0.015625)"/>
     <use xlink:href="#DejaVuSans-63" transform="translate(603.320312 0.015625)"/>
     <use xlink:href="#DejaVuSans-61" transform="translate(658.300781 0.015625)"/>
     <use xlink:href="#DejaVuSans-6c" transform="translate(719.580078 0.015625)"/>
     <use xlink:href="#DejaVuSans-20" transform="translate(747.363281 0.015625)"/>
     <use xlink:href="#DejaVuSans-65" transform="translate(779.150391 0.015625)"/>
     <use xlink:href="#DejaVuSans-6e" transform="translate(840.673828 0.015625)"/>
     <use xlink:href="#DejaVuSans-74" transform="translate(904.052734 0.015625)"/>
     <use xlink:href="#DejaVuSans-72" transform="translate(943.261719 0.015625)"/>
     <use xlink:href="#DejaVuSans-6f" transform="translate(984.375 0.015625)"/>
     <use xlink:href="#DejaVuSans-70" transform="translate(1045.556641 0.015625)"/>
     <use xlink:href="#DejaVuSans-79" transform="translate(1109.033203 0.015625)"/>
     <use xlink:href="#DejaVuSans-20" transform="translate(1168.212891 0.015625)"/>
     <use xlink:href="#DejaVuSans-Oblique-73" transform="translate(1200 0.015625)"/>
     <use xlink:href="#DejaVuSans-28" transform="translate(1252.099609 0.015625)"/>
     <use xlink:href="#DejaVuSans-Oblique-3b5" transform="translate(1291.113281 0.015625)"/>
     <use xlink:href="#DejaVuSans-29" transform="translate(1345.166016 0.015625)"/>
     <use xlink:href="#DejaVuSans-20" transform="translate(1384.179688 0.015625)"/>
     <use xlink:href="#DejaVuSans-28" transform="translate(1415.966797 0.015625)"/>
     <use xlink:href="#DejaVuSans-66" transform="translate(1454.980469 0.015625)"/>
     <use xlink:href="#DejaVuSans-69" transform="translate(1490.185547 0.015625)"/>
     <use xlink:href="#DejaVuSans-72" transform="translate(1517.96875 0.015625)"/>
     <use xlink:href="#DejaVuSans-73" transform="translate(1559.082031 0.015625)"/>
     <use xlink:href="#DejaVuSans-74" transform="translate(1611.181641 0.015625)"/>
     <use xlink:href="#DejaVuSans-2d" transform="translate(1650.390625 0.015625)"/>
     <use xlink:href="#DejaVuSans-6f" transform="translate(1686.474609 0.015625)"/>
     <use xlink:href="#DejaVuSans-72" transform="translate(1747.65625 0.015625)"/>
     <use xlink:href="#DejaVuSans-64" transform="translate(1788.769531 0.015625)"/>
     <use xlink:href="#DejaVuSans-65" transform="translate(1852.246094 0.015625)"/>
     <use xlink:href="#DejaVuSans-72" transform="translate(1913.769531 0.015625)"/>
     <use xlink:href="#DejaVuSans-20" transform="translate(1954.882812 0.015625)"/>
     <use xlink:href="#DejaVuSans-74" transform="translate(1986.669922 0.015625)"/>
     <use xlink:href="#DejaVuSans-72" transform="translate(2025.878906 0.015625)"/>
     <use xlink:href="#DejaVuSans-61" transform="translate(2066.992188 0.015625)"/>
     <use xlink:href="#DejaVuSans-6e" transform="translate(2128.271484 0.015625)"/>
     <use xlink:href="#DejaVuSans-73" transform="translate(2191.650391 0.015625)"/>
     <use xlink:href="#DejaVuSans-69" transform="translate(2243.75 0.015625)"/>
     <use xlink:href="#DejaVuSans-74" transform="translate(2271.533203 0.015625)"/>
     <use xlink:href="#DejaVuSans-69" transform="translate(2310.742188 0.015625)"/>
     <use xlink:href="#DejaVuSans-6f" transform="translate(2338.525391 0.015625)"/>
     <use xlink:href="#DejaVuSans-6e" transform="translate(2399.707031 0.015625)"/>
     <use xlink:href="#DejaVuSans-29" transform="translate(2463.085938 0.015625)"/>
    </g>
   </g>
  </g>
  <g id="axes_2">
   <g id="patch_7">
    <path d="M 479.9 315.16 
L 853.2 315.16 
L 853.2 26.88 
L 479.9 26.88 
z
" style="fill: #ffffff"/>
   </g>
   <g id="matplotlib.axis_3">
    <g id="xtick_10">
     <g id="line2d_18">
      <g>
       <use xlink:href="#m999b07dbef" x="506.294949" y="315.16" style="stroke: #000000; stroke-width: 0.8"/>
      </g>
     </g>
     <g id="text_19">
      <!-- 0.25 -->
      <g transform="translate(495.162137 329.758438) scale(0.1 -0.1)">
       <use xlink:href="#DejaVuSans-30"/>
       <use xlink:href="#DejaVuSans-2e" x="63.623047"/>
       <use xlink:href="#DejaVuSans-32" x="95.410156"/>
       <use xlink:href="#DejaVuSans-35" x="159.033203"/>
      </g>
     </g>
    </g>
    <g id="xtick_11">
     <g id="line2d_19">
      <g>
       <use xlink:href="#m999b07dbef" x="553.428788" y="315.16" style="stroke: #000000; stroke-width: 0.8"/>
      </g>
     </g>
     <g id="text_20">
      <!-- 0.50 -->
      <g transform="translate(542.295975 329.758438) scale(0.1 -0.1)">
       <use xlink:href="#DejaVuSans-30"/>
       <use xlink:href="#DejaVuSans-2e" x="63.623047"/>
       <use xlink:href="#DejaVuSans-35" x="95.410156"/>
       <use xlink:href="#DejaVuSans-30" x="159.033203"/>
      </g>
     </g>
    </g>
    <g id="xtick_12">
     <g id="line2d_20">
      <g>
       <use xlink:href="#m999b07dbef" x="600.562626" y="315.16" style="stroke: #000000; stroke-width: 0.8"/>
      </g>
     </g>
     <g id="text_21">
      <!-- 0.75 -->
      <g transform="translate(589.429814 329.758438) scale(0.1 -0.1)">
       <defs>
        <path id="DejaVuSans-37" d="M 525 4666 
L 3525 4666 
L 3525 4397 
L 1831 0 
L 1172 0 
L 2766 4134 
L 525 4134 
L 525 4666 
z
" transform="scale(0.015625)"/>
       </defs>
       <use xlink:href="#DejaVuSans-30"/>
       <use xlink:href="#DejaVuSans-2e" x="63.623047"/>
       <use xlink:href="#DejaVuSans-37" x="95.410156"/>
       <use xlink:href="#DejaVuSans-35" x="159.033203"/>
      </g>
     </g>
    </g>
    <g id="xtick_13">
     <g id="line2d_21">
      <g>
       <use xlink:href="#m999b07dbef" x="647.696465" y="315.16" style="stroke: #000000; stroke-width: 0.8"/>
      </g>
     </g>
     <g id="text_22">
      <!-- 1.00 -->
      <g transform="translate(636.563652 329.758438) scale(0.1 -0.1)">
       <use xlink:href="#DejaVuSans-31"/>
       <use xlink:href="#DejaVuSans-2e" x="63.623047"/>
       <use xlink:href="#DejaVuSans-30" x="95.410156"/>
       <use xlink:href="#DejaVuSans-30" x="159.033203"/>
      </g>
     </g>
    </g>
    <g id="xtick_14">
     <g id="line2d_22">
      <g>
       <use xlink:href="#m999b07dbef" x="694.830303" y="315.16" style="stroke: #000000; stroke-width: 0.8"/>
      </g>
     </g>
     <g id="text_23">
      <!-- 1.25 -->
      <g transform="translate(683.697491 329.758438) scale(0.1 -0.1)">
       <use xlink:href="#DejaVuSans-31"/>
       <use xlink:href="#DejaVuSans-2e" x="63.623047"/>
       <use xlink:href="#DejaVuSans-32" x="95.410156"/>
       <use xlink:href="#DejaVuSans-35" x="159.033203"/>
      </g>
     </g>
    </g>
    <g id="xtick_15">
     <g id="line2d_23">
      <g>
       <use xlink:href="#m999b07dbef" x="741.964141" y="315.16" style="stroke: #000000; stroke-width: 0.8"/>
      </g>
     </g>
     <g id="text_24">
      <!-- 1.50 -->
      <g transform="translate(730.831329 329.758438) scale(0.1 -0.1)">
       <use xlink:href="#DejaVuSans-31"/>
       <use xlink:href="#DejaVuSans-2e" x="63.623047"/>
       <use xlink:href="#DejaVuSans-35" x="95.410156"/>
       <use xlink:href="#DejaVuSans-30" x="159.033203"/>
      </g>
     </g>
    </g>
    <g id="xtick_16">
     <g id="line2d_24">
      <g>
       <use xlink:href="#m999b07dbef" x="789.09798" y="315.16" style="stroke: #000000; stroke-width: 0.8"/>
      </g>
     </g>
     <g id="text_25">
      <!-- 1.75 -->
      <g transform="translate(777.965167 329.758438) scale(0.1 -0.1)">
       <use xlink:href="#DejaVuSans-31"/>
       <use xlink:href="#DejaVuSans-2e" x="63.623047"/>
       <use xlink:href="#DejaVuSans-37" x="95.410156"/>
       <use xlink:href="#DejaVuSans-35" x="159.033203"/>
      </g>
     </g>
    </g>
    <g id="xtick_17">
     <g id="line2d_25">
      <g>
       <use xlink:href="#m999b07dbef" x="836.231818" y="315.16" style="stroke: #000000; stroke-width: 0.8"/>
      </g>
     </g>
     <g id="text_26">
      <!-- 2.00 -->
      <g transform="translate(825.099006 329.758438) scale(0.1 -0.1)">
       <use xlink:href="#DejaVuSans-32"/>
       <use xlink:href="#DejaVuSans-2e" x="63.623047"/>
       <use xlink:href="#DejaVuSans-30" x="95.410156"/>
       <use xlink:href="#DejaVuSans-30" x="159.033203"/>
      </g>
     </g>
    </g>
    <g id="text_27">
     <!-- Inverse temperature $\beta$ -->
     <g transform="translate(610.2 343.538125) scale(0.1 -0.1)">
      <defs>
       <path id="DejaVuSans-49" d="M 628 4666 
L 1259 4666 
L 1259 0 
L 628 0 
L 628 4666 
z
" transform="scale(0.015625)"/>
       <path id="DejaVuSans-76" d="M 191 3500 
L 800 3500 
L 1894 563 
L 2988 3500 
L 3597 3500 
L 2284 0 
L 1503 0 
L 191 3500 
z
" transform="scale(0.015625)"/>
       <path id="DejaVuSans-75" d="M 544 1381 
L 544 3500 
L 1119 3500 
L 1119 1403 
Q 1119 906 1312 657 
Q 1506 409 1894 409 
Q 2359 409 2629 706 
Q 2900 1003 2900 1516 
L 2900 3500 
L 3475 3500 
L 3475 0 
L 2900 0 
L 2900 538 
Q 2691 219 2414 64 
Q 2138 -91 1772 -91 
Q 1169 -91 856 284 
Q 544 659 544 1381 
z
M 1991 3584 
L 1991 3584 
z
" transform="scale(0.015625)"/>
       <path id="DejaVuSans-Oblique-3b2" d="M 872 216 
L 572 -1331 
L -6 -1331 
L 928 3478 
Q 1206 4903 2538 4903 
Q 3888 4903 3659 3700 
Q 3503 2844 2894 2531 
Q 3713 2250 3553 1416 
Q 3272 -69 1759 -66 
Q 1097 -63 872 216 
z
M 1019 966 
Q 1259 422 1875 425 
Q 2775 425 2966 1406 
Q 3138 2288 1675 2219 
L 1778 2750 
Q 2909 2731 3106 3750 
Q 3241 4438 2509 4434 
Q 1691 4434 1503 3459 
L 1019 966 
z
" transform="scale(0.015625)"/>
      </defs>
      <use xlink:href="#DejaVuSans-49" transform="translate(0 0.390625)"/>
      <use xlink:href="#DejaVuSans-6e" transform="translate(29.492188 0.390625)"/>
      <use xlink:href="#DejaVuSans-76" transform="translate(92.871094 0.390625)"/>
      <use xlink:href="#DejaVuSans-65" transform="translate(152.050781 0.390625)"/>
      <use xlink:href="#DejaVuSans-72" transform="translate(213.574219 0.390625)"/>
      <use xlink:href="#DejaVuSans-73" transform="translate(254.6875 0.390625)"/>
      <use xlink:href="#DejaVuSans-65" transform="translate(306.787109 0.390625)"/>
      <use xlink:href="#DejaVuSans-20" transform="translate(368.310547 0.390625)"/>
      <use xlink:href="#DejaVuSans-74" transform="translate(400.097656 0.390625)"/>
      <use xlink:href="#DejaVuSans-65" transform="translate(439.306641 0.390625)"/>
      <use xlink:href="#DejaVuSans-6d" transform="translate(500.830078 0.390625)"/>
      <use xlink:href="#DejaVuSans-70" transform="translate(598.242188 0.390625)"/>
      <use xlink:href="#DejaVuSans-65" transform="translate(661.71875 0.390625)"/>
      <use xlink:href="#DejaVuSans-72" transform="translate(723.242188 0.390625)"/>
      <use xlink:href="#DejaVuSans-61" transform="translate(764.355469 0.390625)"/>
      <use xlink:href="#DejaVuSans-74" transform="translate(825.634766 0.390625)"/>
      <use xlink:href="#DejaVuSans-75" transform="translate(864.84375 0.390625)"/>
      <use xlink:href="#DejaVuSans-72" transform="translate(928.222656 0.390625)"/>
      <use xlink:href="#DejaVuSans-65" transform="translate(969.335938 0.390625)"/>
      <use xlink:href="#DejaVuSans-20" transform="translate(1030.859375 0.390625)"/>
      <use xlink:href="#DejaVuSans-Oblique-3b2" transform="translate(1062.646484 0.390625)"/>
     </g>
    </g>
   </g>
   <g id="matplotlib.axis_4">
    <g id="ytick_6">
     <g id="line2d_26">
      <g>
       <use xlink:href="#m472506ae7c" x="479.9" y="302.056364" style="stroke: #000000; stroke-width: 0.8"/>
      </g>
     </g>
     <g id="text_28">
      <!-- −0.50 -->
      <g transform="translate(442.254687 305.855582) scale(0.1 -0.1)">
       <defs>
        <path id="DejaVuSans-2212" d="M 678 2272 
L 4684 2272 
L 4684 1741 
L 678 1741 
L 678 2272 
z
" transform="scale(0.015625)"/>
       </defs>
       <use xlink:href="#DejaVuSans-2212"/>
       <use xlink:href="#DejaVuSans-30" x="83.789062"/>
       <use xlink:href="#DejaVuSans-2e" x="147.412109"/>
       <use xlink:href="#DejaVuSans-35" x="179.199219"/>
       <use xlink:href="#DejaVuSans-30" x="242.822266"/>
      </g>
     </g>
    </g>
    <g id="ytick_7">
     <g id="line2d_27">
      <g>
       <use xlink:href="#m472506ae7c" x="479.9" y="266.448656" style="stroke: #000000; stroke-width: 0.8"/>
      </g>
     </g>
     <g id="text_29">
      <!-- −0.25 -->
      <g transform="translate(442.254687 270.247875) scale(0.1 -0.1)">
       <use xlink:href="#DejaVuSans-2212"/>
       <use xlink:href="#DejaVuSans-30" x="83.789062"/>
       <use xlink:href="#DejaVuSans-2e" x="147.412109"/>
       <use xlink:href="#DejaVuSans-32" x="179.199219"/>
       <use xlink:href="#DejaVuSans-35" x="242.822266"/>
      </g>
     </g>
    </g>
    <g id="ytick_8">
     <g id="line2d_28">
      <g>
       <use xlink:href="#m472506ae7c" x="479.9" y="230.840949" style="stroke: #000000; stroke-width: 0.8"/>
      </g>
     </g>
     <g id="text_30">
      <!-- 0.00 -->
      <g transform="translate(450.634375 234.640167) scale(0.1 -0.1)">
       <use xlink:href="#DejaVuSans-30"/>
       <use xlink:href="#DejaVuSans-2e" x="63.623047"/>
       <use xlink:href="#DejaVuSans-30" x="95.410156"/>
       <use xlink:href="#DejaVuSans-30" x="159.033203"/>
      </g>
     </g>
    </g>
    <g id="ytick_9">
     <g id="line2d_29">
      <g>
       <use xlink:href="#m472506ae7c" x="479.9" y="195.233241" style="stroke: #000000; stroke-width: 0.8"/>
      </g>
     </g>
     <g id="text_31">
      <!-- 0.25 -->
      <g transform="translate(450.634375 199.03246) scale(0.1 -0.1)">
       <use xlink:href="#DejaVuSans-30"/>
       <use xlink:href="#DejaVuSans-2e" x="63.623047"/>
       <use xlink:href="#DejaVuSans-32" x="95.410156"/>
       <use xlink:href="#DejaVuSans-35" x="159.033203"/>
      </g>
     </g>
    </g>
    <g id="ytick_10">
     <g id="line2d_30">
      <g>
       <use xlink:href="#m472506ae7c" x="479.9" y="159.625534" style="stroke: #000000; stroke-width: 0.8"/>
      </g>
     </g>
     <g id="text_32">
      <!-- 0.50 -->
      <g transform="translate(450.634375 163.424752) scale(0.1 -0.1)">
       <use xlink:href="#DejaVuSans-30"/>
       <use xlink:href="#DejaVuSans-2e" x="63.623047"/>
       <use xlink:href="#DejaVuSans-35" x="95.410156"/>
       <use xlink:href="#DejaVuSans-30" x="159.033203"/>
      </g>
     </g>
    </g>
    <g id="ytick_11">
     <g id="line2d_31">
      <g>
       <use xlink:href="#m472506ae7c" x="479.9" y="124.017826" style="stroke: #000000; stroke-width: 0.8"/>
      </g>
     </g>
     <g id="text_33">
      <!-- 0.75 -->
      <g transform="translate(450.634375 127.817045) scale(0.1 -0.1)">
       <use xlink:href="#DejaVuSans-30"/>
       <use xlink:href="#DejaVuSans-2e" x="63.623047"/>
       <use xlink:href="#DejaVuSans-37" x="95.410156"/>
       <use xlink:href="#DejaVuSans-35" x="159.033203"/>
      </g>
     </g>
    </g>
    <g id="ytick_12">
     <g id="line2d_32">
      <g>
       <use xlink:href="#m472506ae7c" x="479.9" y="88.410119" style="stroke: #000000; stroke-width: 0.8"/>
      </g>
     </g>
     <g id="text_34">
      <!-- 1.00 -->
      <g transform="translate(450.634375 92.209337) scale(0.1 -0.1)">
       <use xlink:href="#DejaVuSans-31"/>
       <use xlink:href="#DejaVuSans-2e" x="63.623047"/>
       <use xlink:href="#DejaVuSans-30" x="95.410156"/>
       <use xlink:href="#DejaVuSans-30" x="159.033203"/>
      </g>
     </g>
    </g>
    <g id="ytick_13">
     <g id="line2d_33">
      <g>
       <use xlink:href="#m472506ae7c" x="479.9" y="52.802411" style="stroke: #000000; stroke-width: 0.8"/>
      </g>
     </g>
     <g id="text_35">
      <!-- 1.25 -->
      <g transform="translate(450.634375 56.60163) scale(0.1 -0.1)">
       <use xlink:href="#DejaVuSans-31"/>
       <use xlink:href="#DejaVuSans-2e" x="63.623047"/>
       <use xlink:href="#DejaVuSans-32" x="95.410156"/>
       <use xlink:href="#DejaVuSans-35" x="159.033203"/>
      </g>
     </g>
    </g>
    <g id="text_36">
     <!-- $\phi(\beta)$ -->
     <g transform="translate(436.154687 181.42) rotate(-90) scale(0.1 -0.1)">
      <defs>
       <path id="DejaVuSans-Oblique-3d5" d="M 2991 4863 
L 2738 3572 
Q 3363 3572 3684 3094 
Q 4016 2606 3850 1747 
Q 3681 888 3159 400 
Q 2653 -78 2028 -78 
L 1784 -1331 
L 1213 -1331 
L 1456 -78 
Q 834 -78 509 400 
Q 178 888 347 1747 
Q 513 2606 1034 3094 
Q 1544 3572 2166 3572 
L 2419 4863 
L 2991 4863 
z
M 2128 434 
Q 2481 434 2784 756 
Q 3116 1116 3244 1747 
Q 3369 2372 3169 2738 
Q 2991 3059 2638 3059 
L 2128 434 
z
M 1556 434 
L 2066 3059 
Q 1716 3059 1413 2738 
Q 1072 2372 953 1747 
Q 834 1116 1028 756 
Q 1203 434 1556 434 
z
" transform="scale(0.015625)"/>
      </defs>
      <use xlink:href="#DejaVuSans-Oblique-3d5" transform="translate(0 0.390625)"/>
      <use xlink:href="#DejaVuSans-28" transform="translate(65.966797 0.390625)"/>
      <use xlink:href="#DejaVuSans-Oblique-3b2" transform="translate(104.980469 0.390625)"/>
      <use xlink:href="#DejaVuSans-29" transform="translate(168.798828 0.390625)"/>
     </g>
    </g>
   </g>
   <g id="line2d_34">
    <path d="M 496.868182 39.983636 
L 647.412953 130.968022 
L 649.114024 132.424458 
L 836.231818 302.056364 
L 836.231818 302.056364 
" clip-path="url(#pf6e3de4738)" style="fill: none; stroke: #ff0000; stroke-width: 2; stroke-linecap: square"/>
   </g>
   <g id="line2d_35">
    <path d="M 647.696465 315.16 
L 647.696465 26.88 
" clip-path="url(#pf6e3de4738)" style="fill: none; stroke-dasharray: 5.55,2.4; stroke-dashoffset: 0; stroke: #808080; stroke-opacity: 0.5; stroke-width: 1.5"/>
   </g>
   <g id="patch_8">
    <path d="M 479.9 315.16 
L 479.9 26.88 
" style="fill: none; stroke: #000000; stroke-width: 0.8; stroke-linejoin: miter; stroke-linecap: square"/>
   </g>
   <g id="patch_9">
    <path d="M 853.2 315.16 
L 853.2 26.88 
" style="fill: none; stroke: #000000; stroke-width: 0.8; stroke-linejoin: miter; stroke-linecap: square"/>
   </g>
   <g id="patch_10">
    <path d="M 479.9 315.16 
L 853.2 315.16 
" style="fill: none; stroke: #000000; stroke-width: 0.8; stroke-linejoin: miter; stroke-linecap: square"/>
   </g>
   <g id="patch_11">
    <path d="M 479.9 26.88 
L 853.2 26.88 
" style="fill: none; stroke: #000000; stroke-width: 0.8; stroke-linejoin: miter; stroke-linecap: square"/>
   </g>
   <g id="text_37">
    <!-- kink at $\beta_c$ -->
    <g style="fill: #ff0000" transform="translate(657.123232 59.923953) scale(0.1 -0.1)">
     <defs>
      <path id="DejaVuSans-6b" d="M 581 4863 
L 1159 4863 
L 1159 1991 
L 2875 3500 
L 3609 3500 
L 1753 1863 
L 3688 0 
L 2938 0 
L 1159 1709 
L 1159 0 
L 581 0 
L 581 4863 
z
" transform="scale(0.015625)"/>
      <path id="DejaVuSans-Oblique-63" d="M 3431 3366 
L 3316 2797 
Q 3109 2947 2876 3022 
Q 2644 3097 2394 3097 
Q 2119 3097 1870 3000 
Q 1622 2903 1453 2725 
Q 1184 2453 1037 2087 
Q 891 1722 891 1331 
Q 891 859 1127 628 
Q 1363 397 1844 397 
Q 2081 397 2348 469 
Q 2616 541 2906 684 
L 2797 116 
Q 2547 13 2283 -39 
Q 2019 -91 1741 -91 
Q 1044 -91 669 257 
Q 294 606 294 1253 
Q 294 1797 489 2255 
Q 684 2713 1069 3078 
Q 1331 3328 1684 3456 
Q 2038 3584 2456 3584 
Q 2700 3584 2940 3529 
Q 3181 3475 3431 3366 
z
" transform="scale(0.015625)"/>
     </defs>
     <use xlink:href="#DejaVuSans-6b" transform="translate(0 0.390625)"/>
     <use xlink:href="#DejaVuSans-69" transform="translate(57.910156 0.390625)"/>
     <use xlink:href="#DejaVuSans-6e" transform="translate(85.693359 0.390625)"/>
     <use xlink:href="#DejaVuSans-6b" transform="translate(149.072266 0.390625)"/>
     <use xlink:href="#DejaVuSans-20" transform="translate(206.982422 0.390625)"/>
     <use xlink:href="#DejaVuSans-61" transform="translate(238.769531 0.390625)"/>
     <use xlink:href="#DejaVuSans-74" transform="translate(300.048828 0.390625)"/>
     <use xlink:href="#DejaVuSans-20" transform="translate(339.257812 0.390625)"/>
     <use xlink:href="#DejaVuSans-Oblique-3b2" transform="translate(371.044922 0.390625)"/>
     <use xlink:href="#DejaVuSans-Oblique-63" transform="translate(434.863281 -16.015625) scale(0.7)"/>
    </g>
   </g>
   <g id="text_38">
    <!-- Canonical free energy density $\phi(\beta)$ (kink at $\beta_c$) -->
    <g transform="translate(526.87 20.88) scale(0.12 -0.12)">
     <defs>
      <path id="DejaVuSans-43" d="M 4122 4306 
L 4122 3641 
Q 3803 3938 3442 4084 
Q 3081 4231 2675 4231 
Q 1875 4231 1450 3742 
Q 1025 3253 1025 2328 
Q 1025 1406 1450 917 
Q 1875 428 2675 428 
Q 3081 428 3442 575 
Q 3803 722 4122 1019 
L 4122 359 
Q 3791 134 3420 21 
Q 3050 -91 2638 -91 
Q 1578 -91 968 557 
Q 359 1206 359 2328 
Q 359 3453 968 4101 
Q 1578 4750 2638 4750 
Q 3056 4750 3426 4639 
Q 3797 4528 4122 4306 
z
" transform="scale(0.015625)"/>
     </defs>
     <use xlink:href="#DejaVuSans-43" transform="translate(0 0.390625)"/>
     <use xlink:href="#DejaVuSans-61" transform="translate(69.824219 0.390625)"/>
     <use xlink:href="#DejaVuSans-6e" transform="translate(131.103516 0.390625)"/>
     <use xlink:href="#DejaVuSans-6f" transform="translate(194.482422 0.390625)"/>
     <use xlink:href="#DejaVuSans-6e" transform="translate(255.664062 0.390625)"/>
     <use xlink:href="#DejaVuSans-69" transform="translate(319.042969 0.390625)"/>
     <use xlink:href="#DejaVuSans-63" transform="translate(346.826172 0.390625)"/>
     <use xlink:href="#DejaVuSans-61" transform="translate(401.806641 0.390625)"/>
     <use xlink:href="#DejaVuSans-6c" transform="translate(463.085938 0.390625)"/>
     <use xlink:href="#DejaVuSans-20" transform="translate(490.869141 0.390625)"/>
     <use xlink:href="#DejaVuSans-66" transform="translate(522.65625 0.390625)"/>
     <use xlink:href="#DejaVuSans-72" transform="translate(557.861328 0.390625)"/>
     <use xlink:href="#DejaVuSans-65" transform="translate(598.974609 0.390625)"/>
     <use xlink:href="#DejaVuSans-65" transform="translate(660.498047 0.390625)"/>
     <use xlink:href="#DejaVuSans-20" transform="translate(722.021484 0.390625)"/>
     <use xlink:href="#DejaVuSans-65" transform="translate(753.808594 0.390625)"/>
     <use xlink:href="#DejaVuSans-6e" transform="translate(815.332031 0.390625)"/>
     <use xlink:href="#DejaVuSans-65" transform="translate(878.710938 0.390625)"/>
     <use xlink:href="#DejaVuSans-72" transform="translate(940.234375 0.390625)"/>
     <use xlink:href="#DejaVuSans-67" transform="translate(981.347656 0.390625)"/>
     <use xlink:href="#DejaVuSans-79" transform="translate(1044.824219 0.390625)"/>
     <use xlink:href="#DejaVuSans-20" transform="translate(1104.003906 0.390625)"/>
     <use xlink:href="#DejaVuSans-64" transform="translate(1135.791016 0.390625)"/>
     <use xlink:href="#DejaVuSans-65" transform="translate(1199.267578 0.390625)"/>
     <use xlink:href="#DejaVuSans-6e" transform="translate(1260.791016 0.390625)"/>
     <use xlink:href="#DejaVuSans-73" transform="translate(1324.169922 0.390625)"/>
     <use xlink:href="#DejaVuSans-69" transform="translate(1376.269531 0.390625)"/>
     <use xlink:href="#DejaVuSans-74" transform="translate(1404.052734 0.390625)"/>
     <use xlink:href="#DejaVuSans-79" transform="translate(1443.261719 0.390625)"/>
     <use xlink:href="#DejaVuSans-20" transform="translate(1502.441406 0.390625)"/>
     <use xlink:href="#DejaVuSans-Oblique-3d5" transform="translate(1534.228516 0.390625)"/>
     <use xlink:href="#DejaVuSans-28" transform="translate(1600.195312 0.390625)"/>
     <use xlink:href="#DejaVuSans-Oblique-3b2" transform="translate(1639.208984 0.390625)"/>
     <use xlink:href="#DejaVuSans-29" transform="translate(1703.027344 0.390625)"/>
     <use xlink:href="#DejaVuSans-20" transform="translate(1742.041016 0.390625)"/>
     <use xlink:href="#DejaVuSans-28" transform="translate(1773.828125 0.390625)"/>
     <use xlink:href="#DejaVuSans-6b" transform="translate(1812.841797 0.390625)"/>
     <use xlink:href="#DejaVuSans-69" transform="translate(1870.751953 0.390625)"/>
     <use xlink:href="#DejaVuSans-6e" transform="translate(1898.535156 0.390625)"/>
     <use xlink:href="#DejaVuSans-6b" transform="translate(1961.914062 0.390625)"/>
     <use xlink:href="#DejaVuSans-20" transform="translate(2019.824219 0.390625)"/>
     <use xlink:href="#DejaVuSans-61" transform="translate(2051.611328 0.390625)"/>
     <use xlink:href="#DejaVuSans-74" transform="translate(2112.890625 0.390625)"/>
     <use xlink:href="#DejaVuSans-20" transform="translate(2152.099609 0.390625)"/>
     <use xlink:href="#DejaVuSans-Oblique-3b2" transform="translate(2183.886719 0.390625)"/>
     <use xlink:href="#DejaVuSans-Oblique-63" transform="translate(2247.705078 -16.015625) scale(0.7)"/>
     <use xlink:href="#DejaVuSans-29" transform="translate(2288.925781 0.390625)"/>
    </g>
   </g>
  </g>
 </g>
 <defs>
  <clipPath id="pb1c6314278">
   <rect x="41.15" y="26.88" width="373.3" height="288.28"/>
  </clipPath>
  <clipPath id="pf6e3de4738">
   <rect x="479.9" y="26.88" width="373.3" height="288.28"/>
  </clipPath>
 </defs>
</svg>
