<?xml version="1.0" encoding="UTF-8" standalone="no"?>
<svg
   width="496.29688pt"
   height="209.33984pt"
   viewBox="0 0 496.29689 209.33984"
   version="1.1"
   id="svg67"
   sodipodi:docname="MGEP_logo.svg"
   inkscape:version="1.3.2 (091e20e, 2023-11-25, custom)"
   xmlns:inkscape="http://www.inkscape.org/namespaces/inkscape"
   xmlns:sodipodi="http://sodipodi.sourceforge.net/DTD/sodipodi-0.dtd"
   xmlns="http://www.w3.org/2000/svg"
   xmlns:svg="http://www.w3.org/2000/svg">
  <defs
     id="defs67" />
  <sodipodi:namedview
     id="namedview67"
     pagecolor="#ffffff"
     bordercolor="#000000"
     borderopacity="0.25"
     inkscape:showpageshadow="2"
     inkscape:pageopacity="0.0"
     inkscape:pagecheckerboard="0"
     inkscape:deskcolor="#d1d1d1"
     inkscape:document-units="pt"
     inkscape:zoom="0.62239447"
     inkscape:cx="419.3482"
     inkscape:cy="331.78315"
     inkscape:window-width="1920"
     inkscape:window-height="1009"
     inkscape:window-x="-8"
     inkscape:window-y="-8"
     inkscape:window-maximized="1"
     inkscape:current-layer="svg67" />
  <g
     id="g67"
     transform="translate(-162.28516,-167.50391)">
    <path
       fill-rule="nonzero"
       fill="#008295"
       fill-opacity="1"
       d="m 165.23047,167.50391 v 115.83984 h 24.84765 l -2.42187,-91.15625 30.65625,91.15625 h 25.8125 l 29.6875,-90.1875 -1.9375,90.1875 h 23.87891 V 167.50391 h -35.65625 l -29.52344,88.89453 -29.52344,-88.89453 z m 0,0"
       id="path1" />
    <path
       fill-rule="nonzero"
       fill="#008295"
       fill-opacity="1"
       d="m 361.66797,235.10547 h 32.58984 v 27.26562 h -27.42969 c -19.67968,0 -27.42578,-11.29297 -27.42578,-35.98047 0,-26.45703 7.90625,-38.8789 27.42578,-38.8789 h 52.4375 v -20.00781 h -52.4375 c -37.10546,0 -54.53125,19.03906 -54.53125,60.01953 0,20.97265 5.8086,36.13672 17.7461,45.65625 11.61719,9.35937 22.75,10.16406 36.78515,10.16406 h 52.4375 v -68.73047 h -57.59765 z m 0,0"
       id="path2" />
    <path
       fill-rule="nonzero"
       fill="#008295"
       fill-opacity="1"
       d="m 486.97266,187.67187 h 40.01171 v -20.16796 h -40.49609 c -37.26953,0 -54.53516,19.03906 -54.53516,60.01953 0,20.97265 5.8125,36.13672 17.75,45.65625 11.29297,9.03515 22.10157,10.16406 36.13672,10.16406 h 41.14453 v -20.16797 h -40.01171 c -19.19922,0 -27.42969,-7.57812 -27.58985,-28.39453 h 67.60156 v -20.16797 h -67.4414 c 0.96875,-18.23047 9.84375,-26.94141 27.42969,-26.94141"
       id="path3" />
    <path
       fill-rule="evenodd"
       fill="#008295"
       fill-opacity="1"
       d="M 548.26172,167.50391 V 283.34375 H 572.625 v -40.49219 h 29.52344 c 14.51953,0 25.8164,-0.48437 35.65625,-7.42578 9.03515,-6.45312 13.39062,-16.29297 13.39062,-30.16797 0,-14.35937 -5.64844,-25.33203 -15.97265,-31.94531 -7.09766,-4.51563 -18.23047,-5.80859 -34.03907,-5.80859 z m 52.59765,20.65234 c 16.13282,0 23.23047,4.19531 23.23047,17.10156 0,11.61719 -7.09765,17.10156 -21.77734,17.10156 H 572.625 v -34.20312 z m 0,0"
       id="path4" />
    <path
       fill="none"
       stroke-width="0.905"
       stroke-linecap="butt"
       stroke-linejoin="miter"
       stroke="#1d1d1b"
       stroke-opacity="1"
       stroke-miterlimit="3.864"
       d="M -0.00190625,0.0018625 H 486.17778"
       transform="matrix(1,0,0,-1,162.373,310.6503)"
       id="path5" />
    <path
       fill-rule="nonzero"
       fill="#1d1d1b"
       fill-opacity="1"
       d="m 162.96484,320.88672 h 4.05469 l 5.37891,15.04687 5.28125,-15.04687 h 4.05468 v 18.10547 h -2.45703 v -15.66797 h -0.0469 l -5.67578,15.66797 h -2.40625 l -5.67578,-15.66797 h -0.0508 v 15.66797 h -2.45703 z m 0,0"
       id="path6" />
    <path
       fill-rule="nonzero"
       fill="#1d1d1b"
       fill-opacity="1"
       d="m 193.49609,337.01953 c 3.95703,0 5.65235,-3.47266 5.65235,-7.07812 0,-3.6836 -1.86719,-7.10938 -5.65235,-7.08204 -3.78125,-0.0273 -5.64843,3.39844 -5.64843,7.08204 0,3.60546 1.69531,7.07812 5.64843,7.07812 m 0,-16.44141 c 5.21094,0 8.25391,3.99219 8.25391,9.36329 0,5.49609 -3.01953,9.36328 -8.25391,9.36328 -5.23047,0 -8.2539,-3.86719 -8.2539,-9.36328 0,-5.3711 3.04687,-9.36329 8.2539,-9.36329"
       id="path7" />
    <path
       fill-rule="nonzero"
       fill="#1d1d1b"
       fill-opacity="1"
       d="m 205.21094,320.88672 h 3.34375 l 7.5625,14.57812 h 0.0508 v -14.57812 h 2.45703 v 18.10547 h -3.14453 l -7.76172,-14.88672 h -0.0508 v 14.88672 h -2.45703 z m 0,0"
       id="path8" />
    <path
       fill-rule="nonzero"
       fill="#1d1d1b"
       fill-opacity="1"
       d="m 225.27734,336.71094 h 2.58203 c 4.22266,0 6.5586,-2.15235 6.5586,-6.82032 0,-4.23046 -2.72656,-6.72265 -6.26563,-6.72265 h -2.875 z m -2.45703,-15.82422 h 5.0625 c 5.08594,0 9.13672,3.32031 9.13672,8.89844 0,6.07031 -3.48828,9.20703 -9.13672,9.20703 h -5.0625 z m 0,0"
       id="path9" />
    <path
       fill-rule="nonzero"
       fill="#1d1d1b"
       fill-opacity="1"
       d="m 243.01172,328.66797 h 2.08984 c 2.33203,0 3.70703,-1.08985 3.70703,-2.82422 0,-1.63672 -1.17968,-2.67578 -3.4375,-2.67578 h -2.35937 z m -2.45703,-7.78125 h 4.19922 c 3.39453,0 6.66015,0.57031 6.66015,4.90234 0,2.20313 -1.54687,3.76172 -3.53906,4.125 v 0.0508 c 0.76172,0.3125 1.12891,0.69922 1.67187,1.81641 l 3.24219,7.21094 h -2.80078 l -2.62891,-6.27735 c -0.76171,-1.76172 -1.57031,-1.76172 -2.875,-1.76172 h -1.47265 v 8.03907 h -2.45703 z m 0,0"
       id="path10" />
    <path
       fill-rule="nonzero"
       fill="#1d1d1b"
       fill-opacity="1"
       d="m 262.34375,323.32422 -3.41797,8.97656 h 6.83203 z m -1.20703,-2.4375 h 2.58203 l 7.24609,18.10547 h -2.67578 l -1.74609,-4.5625 h -8.40235 l -1.74218,4.5625 h -2.58203 z m 0,0"
       id="path11" />
    <path
       fill-rule="nonzero"
       fill="#1d1d1b"
       fill-opacity="1"
       d="m 286.46484,324.10156 c -1.20703,-0.82812 -2.50781,-1.24219 -4.71875,-1.24219 -3.95703,0 -6.58203,3.03516 -6.58203,7.08204 0,4.2539 2.89844,7.07812 6.46094,7.07812 1.69141,0 2.13672,-0.17969 2.75,-0.30859 v -5.5 h -3.60938 v -2.12891 h 6.06641 V 338.5 c -0.93359,0.33594 -2.55469,0.80469 -5.23437,0.80469 -5.42969,0 -9.03907,-3.6836 -9.03907,-9.44141 0,-5.57812 3.83203,-9.28516 9.06641,-9.28516 2.50391,0 3.60937,0.38672 5.03516,0.90625 z m 0,0"
       id="path12" />
    <path
       fill-rule="nonzero"
       fill="#1d1d1b"
       fill-opacity="1"
       d="m 298.54687,337.01953 c 3.95313,0 5.64844,-3.47266 5.64844,-7.07812 0,-3.6836 -1.86719,-7.10938 -5.64844,-7.08204 -3.78515,-0.0273 -5.65234,3.39844 -5.65234,7.08204 0,3.60546 1.69531,7.07812 5.65234,7.07812 m 0,-16.44141 c 5.20704,0 8.25391,3.99219 8.25391,9.36329 0,5.49609 -3.02344,9.36328 -8.25391,9.36328 -5.23437,0 -8.2539,-3.86719 -8.2539,-9.36328 0,-5.3711 3.04687,-9.36329 8.2539,-9.36329"
       id="path13" />
    <path
       fill-rule="nonzero"
       fill="#1d1d1b"
       fill-opacity="1"
       d="m 310.26172,320.88672 h 3.33984 l 7.56641,14.57812 h 0.0508 v -14.57812 h 2.45312 v 18.10547 h -3.14062 l -7.76563,-14.88672 h -0.0469 v 14.88672 h -2.45703 z m 0,0"
       id="path14" />
    <path
       fill-rule="nonzero"
       fill="#1d1d1b"
       fill-opacity="1"
       d="m 347.86719,324.10156 c -1.20313,-0.82812 -2.50782,-1.24219 -4.71875,-1.24219 -3.95313,0 -6.58203,3.03516 -6.58203,7.08204 0,4.2539 2.89843,7.07812 6.46093,7.07812 1.69532,0 2.13672,-0.17969 2.75,-0.30859 v -5.5 h -3.60937 v -2.12891 h 6.0664 V 338.5 c -0.93359,0.33594 -2.55468,0.80469 -5.23046,0.80469 -5.42969,0 -9.04297,-3.6836 -9.04297,-9.44141 0,-5.57812 3.83203,-9.28516 9.0664,-9.28516 2.50391,0 3.60938,0.38672 5.03516,0.90625 z m 0,0"
       id="path15" />
    <path
       fill-rule="nonzero"
       fill="#1d1d1b"
       fill-opacity="1"
       d="m 359.94922,337.01953 c 3.95703,0 5.65234,-3.47266 5.65234,-7.07812 0,-3.6836 -1.86719,-7.10938 -5.65234,-7.08204 -3.78516,-0.0273 -5.64844,3.39844 -5.64844,7.08204 0,3.60546 1.69141,7.07812 5.64844,7.07812 m 0,-16.44141 c 5.20703,0 8.2539,3.99219 8.2539,9.36329 0,5.49609 -3.01953,9.36328 -8.2539,9.36328 -5.23438,0 -8.25391,-3.86719 -8.25391,-9.36328 0,-5.3711 3.04688,-9.36329 8.25391,-9.36329"
       id="path16" />
    <path
       fill-rule="nonzero"
       fill="#1d1d1b"
       fill-opacity="1"
       d="m 371.6875,320.88672 h 2.45703 v 18.10547 h -2.45703 z m 0,0"
       id="path17" />
    <path
       fill-rule="nonzero"
       fill="#1d1d1b"
       fill-opacity="1"
       d="m 385.46875,320.88672 h 9.60547 v 2.28125 h -7.14844 v 5.29297 h 6.50781 v 2.28125 h -6.50781 v 5.96875 h 7.14844 v 2.28125 h -9.60547 z m 0,0"
       id="path18" />
    <path
       fill-rule="nonzero"
       fill="#1d1d1b"
       fill-opacity="1"
       d="m 406.78906,323.60937 c -1.2539,-0.51953 -1.9414,-0.75 -3.21875,-0.75 -1.375,0 -2.99609,0.51954 -2.99609,2.41016 0,3.47656 7.37109,2.67188 7.37109,8.64063 0,3.86328 -2.82812,5.39453 -6.26562,5.39453 -1.20313,0 -2.38282,-0.36328 -3.51563,-0.75391 l 0.2461,-2.41016 c 0.83593,0.36329 2.30859,0.87891 3.5625,0.87891 1.40234,0 3.36718,-0.82812 3.36718,-2.95703 0,-4.04688 -7.37109,-2.92969 -7.37109,-8.55859 0,-3.21485 2.40625,-4.92579 5.50391,-4.92579 1.1289,0 2.48046,0.20704 3.66015,0.64454 z m 0,0"
       id="path19" />
    <path
       fill-rule="nonzero"
       fill="#1d1d1b"
       fill-opacity="1"
       d="m 411.40625,320.88672 h 2.45312 v 7.96484 l 7.32422,-7.96484 h 3.26563 l -8.0586,8.5625 8.69922,9.54297 H 421.5 l -7.64063,-8.8711 v 8.8711 h -2.45312 z m 0,0"
       id="path20" />
    <path
       fill-rule="nonzero"
       fill="#1d1d1b"
       fill-opacity="1"
       d="m 435.03516,337.01953 c 3.95312,0 5.64843,-3.47266 5.64843,-7.07812 0,-3.6836 -1.86718,-7.10938 -5.64843,-7.08204 -3.78516,-0.0273 -5.65235,3.39844 -5.65235,7.08204 0,3.60546 1.69531,7.07812 5.65235,7.07812 m 0,-16.44141 c 5.20703,0 8.2539,3.99219 8.2539,9.36329 0,5.49609 -3.02344,9.36328 -8.2539,9.36328 -5.23438,0 -8.25391,-3.86719 -8.25391,-9.36328 0,-5.3711 3.04687,-9.36329 8.25391,-9.36329"
       id="path21" />
    <path
       fill-rule="nonzero"
       fill="#1d1d1b"
       fill-opacity="1"
       d="m 446.75,320.88672 h 2.45312 v 15.82422 h 7.17579 v 2.28125 H 446.75 Z m 0,0"
       id="path22" />
    <path
       fill-rule="nonzero"
       fill="#1d1d1b"
       fill-opacity="1"
       d="m 465.6875,323.32422 -3.41406,8.97656 h 6.82812 z m -1.20313,-2.4375 h 2.57813 l 7.24609,18.10547 h -2.67578 l -1.74609,-4.5625 h -8.40235 l -1.74218,4.5625 h -2.57813 z m 0,0"
       id="path23" />
    <path
       fill-rule="nonzero"
       fill="#1d1d1b"
       fill-opacity="1"
       d="m 485.92578,329.47266 h 2.42969 c 1.52344,0 3.4414,-0.80469 3.4414,-3.19141 0,-2.28125 -2.26171,-3.11328 -3.78515,-3.11328 h -2.08594 z m -2.45703,-8.58594 h 4.49609 c 3.51172,0 6.4375,1.29687 6.4375,5.42187 0,4.01953 -2.97265,5.44532 -6.07031,5.44532 h -2.40625 v 7.23828 h -2.45703 z m 0,0"
       id="path24" />
    <path
       fill-rule="nonzero"
       fill="#1d1d1b"
       fill-opacity="1"
       d="m 504.64062,337.01953 c 3.95704,0 5.65235,-3.47266 5.65235,-7.07812 0,-3.6836 -1.86719,-7.10938 -5.65235,-7.08204 -3.78125,-0.0273 -5.64843,3.39844 -5.64843,7.08204 0,3.60546 1.69531,7.07812 5.64843,7.07812 m 0,-16.44141 c 5.20704,0 8.25391,3.99219 8.25391,9.36329 0,5.49609 -3.01953,9.36328 -8.25391,9.36328 -5.23046,0 -8.2539,-3.86719 -8.2539,-9.36328 0,-5.3711 3.04687,-9.36329 8.2539,-9.36329"
       id="path25" />
    <path
       fill-rule="nonzero"
       fill="#1d1d1b"
       fill-opacity="1"
       d="m 516.35547,320.88672 h 2.45703 v 15.82422 h 7.17578 v 2.28125 h -9.63281 z m 0,0"
       id="path26" />
    <path
       fill-rule="nonzero"
       fill="#1d1d1b"
       fill-opacity="1"
       d="m 528.66016,320.88672 h 2.45703 v 18.10547 h -2.45703 z m 0,0"
       id="path27" />
    <path
       fill-rule="nonzero"
       fill="#1d1d1b"
       fill-opacity="1"
       d="m 538.90625,323.16797 h -5.33203 v -2.28125 h 13.11719 v 2.28125 h -5.33204 v 15.82422 h -2.45312 z m 0,0"
       id="path28" />
    <path
       fill-rule="nonzero"
       fill="#1d1d1b"
       fill-opacity="1"
       d="m 549.26953,320.88672 h 9.60547 v 2.28125 h -7.14844 v 5.29297 h 6.51172 v 2.28125 h -6.51172 v 5.96875 h 7.14844 v 2.28125 h -9.60547 z m 0,0"
       id="path29" />
    <path
       fill-rule="nonzero"
       fill="#1d1d1b"
       fill-opacity="1"
       d="m 562.92578,320.88672 h 2.45703 v 7.96484 l 7.32031,-7.96484 h 3.26954 l -8.0625,8.5625 8.69921,9.54297 h -3.58593 l -7.64063,-8.8711 v 8.8711 h -2.45703 z m 0,0"
       id="path30" />
    <path
       fill-rule="nonzero"
       fill="#1d1d1b"
       fill-opacity="1"
       d="M 579.16016,320.88672 H 582.5 l 7.56641,14.57812 h 0.0508 v -14.57812 h 2.45703 v 18.10547 h -3.14453 l -7.76172,-14.88672 h -0.0508 v 14.88672 h -2.45703 z m 0,0"
       id="path31" />
    <path
       fill-rule="nonzero"
       fill="#1d1d1b"
       fill-opacity="1"
       d="m 596.91797,320.88672 h 2.45703 v 18.10547 h -2.45703 z m 0,0"
       id="path32" />
    <path
       fill-rule="nonzero"
       fill="#1d1d1b"
       fill-opacity="1"
       d="m 603.86719,320.88672 h 2.45703 v 7.96484 l 7.32031,-7.96484 h 3.26953 l -8.05859,8.5625 8.69922,9.54297 h -3.58985 l -7.64062,-8.8711 v 8.8711 h -2.45703 z m 0,0"
       id="path33" />
    <path
       fill-rule="nonzero"
       fill="#1d1d1b"
       fill-opacity="1"
       d="m 627.5,337.01953 c 3.95312,0 5.64844,-3.47266 5.64844,-7.07812 0,-3.6836 -1.86719,-7.10938 -5.64844,-7.08204 -3.78516,-0.0273 -5.65234,3.39844 -5.65234,7.08204 0,3.60546 1.69531,7.07812 5.65234,7.07812 m 0,-16.44141 c 5.20703,0 8.25391,3.99219 8.25391,9.36329 0,5.49609 -3.02344,9.36328 -8.25391,9.36328 -5.23438,0 -8.25781,-3.86719 -8.25781,-9.36328 0,-5.3711 3.04687,-9.36329 8.25781,-9.36329"
       id="path34" />
    <path
       fill-rule="nonzero"
       fill="#1d1d1b"
       fill-opacity="1"
       d="m 645.87109,323.32422 -3.41406,8.97656 h 6.82813 z m -1.20312,-2.4375 h 2.57812 l 7.2461,18.10547 h -2.67578 l -1.7461,-4.5625 h -8.40234 l -1.74219,4.5625 h -2.57812 z m 0,0"
       id="path35" />
    <path
       fill-rule="nonzero"
       fill="#1d1d1b"
       fill-opacity="1"
       d="m 162.28516,374.30469 c 0.55468,0.20703 1.10937,0.25781 1.58984,0.25781 2.27344,0 2.875,-1.32031 2.875,-3.52734 v -12.60938 h 2.52734 v 13.44141 c 0,2.53906 -1.13672,4.97656 -4.94922,4.97656 -0.80468,0 -1.51171,-0.10156 -2.04296,-0.30859 z m 0,0"
       id="path36" />
    <path
       fill-rule="nonzero"
       fill="#1d1d1b"
       fill-opacity="1"
       d="m 181.39062,374.5625 c 4.06641,0 5.80469,-3.47656 5.80469,-7.08203 0,-3.6836 -1.91797,-7.10547 -5.80469,-7.08203 -3.88281,-0.0234 -5.80468,3.39843 -5.80468,7.08203 0,3.60547 1.74218,7.08203 5.80468,7.08203 m 0,-16.44531 c 5.35157,0 8.48047,3.99609 8.48047,9.36328 0,5.5 -3.10156,9.36328 -8.48047,9.36328 -5.375,0 -8.48046,-3.86328 -8.48046,-9.36328 0,-5.36719 3.13281,-9.36328 8.48046,-9.36328"
       id="path37" />
    <path
       fill-rule="nonzero"
       fill="#1d1d1b"
       fill-opacity="1"
       d="m 201.46094,361.15234 c -1.28516,-0.51953 -1.99219,-0.7539 -3.30469,-0.7539 -1.41406,0 -3.07813,0.51953 -3.07813,2.41406 0,3.47656 7.57032,2.67187 7.57032,8.63672 0,3.86719 -2.90235,5.39453 -6.4375,5.39453 -1.23438,0 -2.44922,-0.36328 -3.60938,-0.75 l 0.25391,-2.41406 c 0.85937,0.36328 2.37109,0.88281 3.66015,0.88281 1.4375,0 3.45704,-0.83203 3.45704,-2.95703 0,-4.04688 -7.57032,-2.92969 -7.57032,-8.5586 0,-3.21875 2.47266,-4.92968 5.65235,-4.92968 1.16015,0 2.54687,0.20703 3.76172,0.64843 z m 0,0"
       id="path38" />
    <path
       fill-rule="nonzero"
       fill="#1d1d1b"
       fill-opacity="1"
       d="m 206.21094,358.42578 h 9.86718 v 2.28516 h -7.34375 v 5.29297 h 6.6875 v 2.28125 h -6.6875 V 374.25 h 7.34375 v 2.28516 h -9.86718 z m 0,0"
       id="path39" />
    <path
       fill-rule="nonzero"
       fill="#1d1d1b"
       fill-opacity="1"
       d="m 227.16016,358.42578 h 4.16406 l 5.52734,15.04688 5.42969,-15.04688 h 4.16406 v 18.10938 h -2.52344 v -15.66797 h -0.0508 l -5.83203,15.66797 h -2.47265 l -5.83204,-15.66797 h -0.0469 v 15.66797 h -2.52734 z m 0,0"
       id="path40" />
    <path
       fill-rule="nonzero"
       fill="#1d1d1b"
       fill-opacity="1"
       d="m 257.78125,360.86719 -3.50781,8.97656 h 7.01562 z m -1.23828,-2.4375 h 2.65234 l 7.44531,18.10547 h -2.7539 l -1.78906,-4.56641 h -8.63282 l -1.79297,4.56641 h -2.64843 z m 0,0"
       id="path41" />
    <path
       fill-rule="nonzero"
       fill="#1d1d1b"
       fill-opacity="1"
       d="m 271.56641,366.21094 h 2.14453 c 2.39843,0 3.80859,-1.08985 3.80859,-2.82813 0,-1.63672 -1.21094,-2.67187 -3.53125,-2.67187 h -2.42187 z m -2.52344,-7.78125 h 4.3125 c 3.48437,0 6.83984,0.57031 6.83984,4.90234 0,2.20313 -1.58984,3.76172 -3.63281,4.12109 v 0.0547 c 0.78125,0.3086 1.16016,0.69922 1.71484,1.81641 l 3.33203,7.21094 h -2.8789 l -2.69922,-6.27735 c -0.78125,-1.76562 -1.61328,-1.76562 -2.95313,-1.76562 h -1.51171 v 8.04297 h -2.52344 z m 0,0"
       id="path42" />
    <path
       fill-rule="nonzero"
       fill="#1d1d1b"
       fill-opacity="1"
       d="m 284.61719,358.42969 h 2.52343 v 18.10547 h -2.52343 z m 0,0"
       id="path43" />
    <path
       fill-rule="nonzero"
       fill="#1d1d1b"
       fill-opacity="1"
       d="m 298.44922,360.86719 -3.50781,8.97656 h 7.01562 z m -1.23828,-2.4375 h 2.65234 l 7.44531,18.10547 h -2.7539 l -1.78907,-4.56641 h -8.63281 l -1.79297,4.56641 h -2.64843 z m 0,0"
       id="path44" />
    <path
       fill-rule="nonzero"
       fill="#1d1d1b"
       fill-opacity="1"
       d="m 323.69531,360.86719 -3.51172,8.97656 h 7.01953 z m -1.23828,-2.4375 h 2.64844 l 7.44531,18.10547 h -2.75 l -1.79297,-4.56641 h -8.6289 l -1.79297,4.56641 h -2.65235 z m 0,0"
       id="path45" />
    <path
       fill-rule="nonzero"
       fill="#1d1d1b"
       fill-opacity="1"
       d="m 337.47656,366.21094 h 2.14453 c 2.39844,0 3.8125,-1.08985 3.8125,-2.82813 0,-1.63672 -1.21093,-2.67187 -3.53515,-2.67187 h -2.42188 z m -2.52344,-7.78125 h 4.31641 c 3.48438,0 6.83984,0.57031 6.83984,4.90234 0,2.20313 -1.58984,3.76172 -3.63671,4.12109 v 0.0547 c 0.78515,0.3086 1.16406,0.69922 1.71875,1.81641 l 3.32812,7.21094 h -2.875 l -2.69922,-6.27735 c -0.78515,-1.76562 -1.61719,-1.76562 -2.95312,-1.76562 h -1.51563 v 8.04297 h -2.52344 z m 0,0"
       id="path46" />
    <path
       fill-rule="nonzero"
       fill="#1d1d1b"
       fill-opacity="1"
       d="m 350.52734,358.42969 h 2.52735 v 18.10547 h -2.52735 z m 0,0"
       id="path47" />
    <path
       fill-rule="nonzero"
       fill="#1d1d1b"
       fill-opacity="1"
       d="m 356.10937,374.19922 9.13672,-13.48828 h -8.83593 v -2.28125 h 11.73828 v 2.33203 l -9.11328,13.49219 h 9.26171 v 2.28125 h -12.1875 z m 0,0"
       id="path48" />
    <path
       fill-rule="nonzero"
       fill="#1d1d1b"
       fill-opacity="1"
       d="m 371.60937,358.42578 h 4.16407 l 5.52734,15.04688 5.42578,-15.04688 h 4.16406 v 18.10938 h -2.52343 v -15.66797 h -0.0508 l -5.83204,15.66797 h -2.47265 l -5.82813,-15.66797 h -0.0508 v 15.66797 h -2.52344 z m 0,0"
       id="path49" />
    <path
       fill-rule="nonzero"
       fill="#1d1d1b"
       fill-opacity="1"
       d="m 395.53906,358.42578 h 9.86719 v 2.28516 h -7.34375 v 5.29297 h 6.6875 v 2.28125 h -6.6875 V 374.25 h 7.34375 v 2.28516 h -9.86719 z m 0,0"
       id="path50" />
    <path
       fill-rule="nonzero"
       fill="#1d1d1b"
       fill-opacity="1"
       d="m 409.42187,358.42578 h 3.4336 l 7.77344,14.57813 h 0.0508 v -14.57813 h 2.52343 v 18.10938 h -3.23046 l -7.97657,-14.89063 h -0.0508 v 14.89063 h -2.52344 z m 0,0"
       id="path51" />
    <path
       fill-rule="nonzero"
       fill="#1d1d1b"
       fill-opacity="1"
       d="m 430.04687,374.25 h 2.64844 c 4.34375,0 6.74219,-2.15234 6.74219,-6.82031 0,-4.23047 -2.80469,-6.71875 -6.4375,-6.71875 h -2.95313 z m -2.52343,-15.82031 h 5.19922 c 5.22265,0 9.38671,3.3164 9.38671,8.89453 0,6.07031 -3.58203,9.21094 -9.38671,9.21094 h -5.19922 z m 0,0"
       id="path52" />
    <path
       fill-rule="nonzero"
       fill="#1d1d1b"
       fill-opacity="1"
       d="m 445.89844,358.42969 h 2.52343 v 18.10547 h -2.52343 z m 0,0"
       id="path53" />
    <path
       fill-rule="nonzero"
       fill="#1d1d1b"
       fill-opacity="1"
       d="m 459.73047,360.86719 -3.50781,8.97656 h 7.01953 z m -1.23438,-2.4375 h 2.64844 l 7.44531,18.10547 h -2.75 l -1.79297,-4.56641 h -8.6289 l -1.79297,4.56641 h -2.65234 z m 0,0"
       id="path54" />
    <path
       fill-rule="nonzero"
       fill="#1d1d1b"
       fill-opacity="1"
       d="m 473.51562,366.21094 h 2.14844 c 2.39453,0 3.8086,-1.08985 3.8086,-2.82813 0,-1.63672 -1.21094,-2.67187 -3.53125,-2.67187 h -2.42579 z m -2.52343,-7.78125 h 4.3164 c 3.48438,0 6.83985,0.57031 6.83985,4.90234 0,2.20313 -1.58985,3.76172 -3.63672,4.12109 v 0.0547 c 0.78515,0.3086 1.16406,0.69922 1.71875,1.81641 l 3.33203,7.21094 h -2.87891 l -2.69922,-6.27735 c -0.78125,-1.76562 -1.61328,-1.76562 -2.95312,-1.76562 h -1.51563 v 8.04297 h -2.52343 z m 0,0"
       id="path55" />
    <path
       fill-rule="nonzero"
       fill="#1d1d1b"
       fill-opacity="1"
       d="m 488.94141,366.21094 h 2.14453 c 2.39843,0 3.8125,-1.08985 3.8125,-2.82813 0,-1.63672 -1.21485,-2.67187 -3.53516,-2.67187 h -2.42187 z m -2.52344,-7.78125 h 4.3125 c 3.48437,0 6.84375,0.57031 6.84375,4.90234 0,2.20313 -1.59375,3.76172 -3.63672,4.12109 v 0.0547 c 0.78125,0.3086 1.16016,0.69922 1.71875,1.81641 l 3.32812,7.21094 h -2.875 l -2.69921,-6.27735 c -0.78516,-1.76562 -1.61719,-1.76562 -2.95313,-1.76562 h -1.51562 v 8.04297 h -2.52344 z m 0,0"
       id="path56" />
    <path
       fill-rule="nonzero"
       fill="#1d1d1b"
       fill-opacity="1"
       d="m 501.99219,358.42969 h 2.52343 v 18.10547 h -2.52343 z m 0,0"
       id="path57" />
    <path
       fill-rule="nonzero"
       fill="#1d1d1b"
       fill-opacity="1"
       d="m 509.13672,358.42578 h 9.86719 v 2.28516 h -7.34375 v 5.29297 h 6.6875 v 2.28125 h -6.6875 V 374.25 h 7.34375 v 2.28516 h -9.86719 z m 0,0"
       id="path58" />
    <path
       fill-rule="nonzero"
       fill="#1d1d1b"
       fill-opacity="1"
       d="m 526.55469,360.71094 h -5.47657 v -2.28125 h 13.47657 v 2.28125 h -5.47657 v 15.82422 h -2.52343 z m 0,0"
       id="path59" />
    <path
       fill-rule="nonzero"
       fill="#1d1d1b"
       fill-opacity="1"
       d="M 542.50781,360.86719 539,369.84375 h 7.01562 z m -1.23437,-2.4375 h 2.64843 l 7.44532,18.10547 h -2.75391 l -1.78906,-4.56641 h -8.63281 l -1.78907,4.56641 H 533.75 Z m 0,0"
       id="path60" />
    <path
       fill-rule="nonzero"
       fill="#1d1d1b"
       fill-opacity="1"
       d="m 561.0625,358.42578 h 2.52344 v 7.96484 l 7.52343,-7.96484 h 3.35547 l -8.27734,8.5625 8.93359,9.54688 h -3.68359 l -7.85156,-8.8711 v 8.8711 h -2.52344 z m 0,0"
       id="path61" />
    <path
       fill-rule="nonzero"
       fill="#1d1d1b"
       fill-opacity="1"
       d="m 585.34766,374.5625 c 4.0625,0 5.80468,-3.47656 5.80468,-7.08203 0,-3.6836 -1.91797,-7.10547 -5.80468,-7.08203 -3.88672,-0.0234 -5.80469,3.39843 -5.80469,7.08203 0,3.60547 1.74219,7.08203 5.80469,7.08203 m 0,-16.44531 c 5.35156,0 8.48046,3.99609 8.48046,9.36328 0,5.5 -3.10546,9.36328 -8.48046,9.36328 -5.37891,0 -8.48047,-3.86328 -8.48047,-9.36328 0,-5.36719 3.1289,-9.36328 8.48047,-9.36328"
       id="path62" />
    <path
       fill-rule="nonzero"
       fill="#1d1d1b"
       fill-opacity="1"
       d="m 604.98437,374.5625 c 4.06641,0 5.8086,-3.47656 5.8086,-7.08203 0,-3.6836 -1.91797,-7.10547 -5.8086,-7.08203 -3.88671,-0.0234 -5.80468,3.39843 -5.80468,7.08203 0,3.60547 1.74218,7.08203 5.80468,7.08203 m 0,-16.44531 c 5.35157,0 8.48047,3.99609 8.48047,9.36328 0,5.5 -3.10156,9.36328 -8.48047,9.36328 -5.375,0 -8.47656,-3.86328 -8.47656,-9.36328 0,-5.36719 3.12891,-9.36328 8.47656,-9.36328"
       id="path63" />
    <path
       fill-rule="nonzero"
       fill="#1d1d1b"
       fill-opacity="1"
       d="m 619.42578,367.01562 h 2.5 c 1.56641,0 3.53516,-0.80468 3.53516,-3.1914 0,-2.28516 -2.32422,-3.11328 -3.88672,-3.11328 h -2.14844 z m -2.51953,-8.58984 h 4.61719 c 3.60937,0 6.60937,1.29688 6.60937,5.42188 0,4.02343 -3.05078,5.44921 -6.23047,5.44921 h -2.47656 v 7.23829 h -2.51953 z m 0,0"
       id="path64" />
    <path
       fill-rule="nonzero"
       fill="#1d1d1b"
       fill-opacity="1"
       d="m 627.68359,373.62891 h 2.82813 v 2.90625 h -2.82813 z m 0,0"
       id="path65" />
    <path
       fill-rule="nonzero"
       fill="#1d1d1b"
       fill-opacity="1"
       d="m 641.99609,358.42578 h 9.86719 v 2.28516 h -7.34375 v 5.29297 h 6.69141 v 2.28125 h -6.69141 V 374.25 h 7.34375 v 2.28516 h -9.86719 z m 0,0"
       id="path66" />
    <path
       fill-rule="nonzero"
       fill="#1d1d1b"
       fill-opacity="1"
       d="m 655.75391,373.62891 h 2.82812 v 2.90625 h -2.82812 z m 0,0"
       id="path67" />
  </g>
</svg>
