<?xml version="1.0" encoding="UTF-8" standalone="no"?>
<!-- Created with Inkscape (http://www.inkscape.org/) -->

<svg
   width="191.70869mm"
   height="220.933mm"
   viewBox="0 0 191.7087 220.93299"
   version="1.1"
   id="svg1"
   inkscape:version="1.3.2 (091e20e, 2023-11-25, custom)"
   sodipodi:docname="magnitudes_extensivity_intensivity.svg"
   xmlns:inkscape="http://www.inkscape.org/namespaces/inkscape"
   xmlns:sodipodi="http://sodipodi.sourceforge.net/DTD/sodipodi-0.dtd"
   xmlns="http://www.w3.org/2000/svg"
   xmlns:svg="http://www.w3.org/2000/svg">
  <sodipodi:namedview
     id="namedview1"
     pagecolor="#ffffff"
     bordercolor="#000000"
     borderopacity="0.25"
     inkscape:showpageshadow="2"
     inkscape:pageopacity="0.0"
     inkscape:pagecheckerboard="0"
     inkscape:deskcolor="#d1d1d1"
     inkscape:document-units="mm"
     inkscape:zoom="0.63118804"
     inkscape:cx="171.1059"
     inkscape:cy="328.74514"
     inkscape:window-width="1920"
     inkscape:window-height="1009"
     inkscape:window-x="-8"
     inkscape:window-y="-8"
     inkscape:window-maximized="1"
     inkscape:current-layer="layer1" />
  <defs
     id="defs1">
    <rect
       x="725.61578"
       y="863.45111"
       width="57.095261"
       height="68.125519"
       id="rect47" />
  </defs>
  <g
     inkscape:label="Capa 1"
     inkscape:groupmode="layer"
     id="layer1"
     transform="translate(-27.875806,-27.889246)">
    <g
       id="g1">
      <g
         id="path18">
        <path
           style="color:#000000;fill:#de8787;-inkscape-stroke:none"
           d="M 31.419162,78.443203 V 59.813054 l 9.848789,-7.305479 9.848789,-7.305479 h 18.608495 18.608492 l -0.0763,18.886453 -0.07629,18.886455 -9.48503,7.045556 -9.485029,7.045555 -18.895959,0.0036 -18.895957,0.0036 z"
           id="path2" />
        <path
           style="color:#000000;fill:#de8787;-inkscape-stroke:none"
           d="m 50.931641,44.642578 -9.998047,7.416016 -10.074219,7.472656 v 18.912109 19.189453 l 19.455078,-0.0039 19.082031,-0.002 9.632813,-7.15625 9.710937,-7.212891 0.07813,-19.167968 0.07813,-19.447266 H 69.724609 Z m 0.371093,1.119141 h 18.421875 18.046875 l -0.07422,18.324218 -0.07422,18.607422 -9.261719,6.876953 -9.335937,6.935547 -18.710938,0.0039 -18.335937,0.0039 V 78.443359 60.095703 l 9.623046,-7.138672 z"
           id="path3" />
      </g>
      <path
         style="color:#000000;fill:#000000;-inkscape-stroke:none"
         d="m 88.804687,82.738281 -19.763671,14.66211 0.595703,0.804687 19.763672,-14.664062 z"
         id="path6" />
      <path
         style="color:#000000;fill:#000000;-inkscape-stroke:none"
         d="M 88.804687,44.285156 69.041016,58.949219 69.636719,59.751953 89.400391,45.087891 Z"
         id="path6-4" />
      <path
         style="color:#000000;fill:#000000;-inkscape-stroke:none"
         d="M 50.351562,44.285156 30.587891,58.949219 31.183594,59.751953 50.947266,45.087891 Z"
         id="path6-4-4" />
      <path
         style="color:#000000;fill:#000000;-inkscape-stroke:none"
         d="m 50.351562,82.738281 -19.763671,14.66211 0.595703,0.804687 19.763672,-14.664062 z"
         id="path6-4-47" />
      <path
         style="color:#000000;fill:#000000;-inkscape-stroke:none"
         d="m 30.886719,58.849609 v 1 h 38.453125 v -1 z"
         id="path11" />
      <path
         style="color:#000000;fill:#000000;-inkscape-stroke:none"
         d="m 50.650391,44.1875 v 1 h 38.451171 v -1 z"
         id="path11-0" />
      <path
         style="color:#000000;fill:#000000;-inkscape-stroke:none"
         d="m 31.033203,97.205078 v 1 h 38.453125 v -1 z"
         id="path11-05" />
      <path
         style="color:#000000;fill:#000000;-inkscape-stroke:none"
         d="m 50.503906,82.738281 v 1 h 38.451172 v -1 z"
         id="path11-3" />
      <path
         style="color:#000000;fill:#000000;-inkscape-stroke:none"
         d="m 68.986328,59.349609 v 38.355469 h 1 V 59.349609 Z"
         id="path12" />
      <path
         style="color:#000000;fill:#000000;-inkscape-stroke:none"
         d="m 88.455078,44.6875 v 38.550781 h 1 V 44.6875 Z"
         id="path13" />
      <path
         style="color:#000000;fill:#000000;-inkscape-stroke:none"
         d="m 30.386719,59.349609 v 38.453125 h 1 V 59.349609 Z"
         id="path14" />
      <path
         style="color:#000000;fill:#000000;-inkscape-stroke:none"
         d="m 50.150391,44.6875 v 38.451172 h 1 V 44.6875 Z"
         id="path15" />
      <g
         id="path18-5">
        <path
           style="color:#000000;fill:#8080ff;-inkscape-stroke:none"
           d="M 120.41712,78.4432 V 59.813052 l 9.84879,-7.305479 9.84879,-7.305479 h 18.60849 18.60849 l -0.0763,18.886453 -0.0763,18.886455 -9.48503,7.045555 -9.48503,7.045556 -18.89596,0.004 -18.89595,0.004 z"
           id="path4" />
        <path
           style="color:#000000;fill:#8080ff;-inkscape-stroke:none"
           d="m 139.92969,44.642578 -9.99805,7.416016 -10.07422,7.472656 v 18.912109 h 1.11914 V 60.095703 l 9.62305,-7.138672 9.69922,-7.195312 h 18.42383 18.04687 l -0.0742,18.324218 -0.0762,18.607422 -9.25977,6.876953 -9.33593,6.935547 -18.71094,0.0039 -18.33594,0.0039 V 78.443359 l -1.11914,19.191407 19.45508,-0.0039 19.08203,-0.0039 9.63281,-7.15625 9.71094,-7.212891 0.0781,-19.167968 0.0781,-19.447266 h -19.17187 z"
           id="path5" />
      </g>
      <path
         style="color:#000000;fill:#000000;-inkscape-stroke:none"
         d="m 177.80273,82.738281 -19.76367,14.66211 0.59571,0.804687 19.76367,-14.664062 z"
         id="path6-9" />
      <path
         style="color:#000000;fill:#000000;-inkscape-stroke:none"
         d="m 177.80273,44.285156 -19.76367,14.664063 0.59571,0.802734 19.76367,-14.664062 z"
         id="path6-4-46" />
      <path
         style="color:#000000;fill:#000000;-inkscape-stroke:none"
         d="m 139.34961,44.285156 -19.76367,14.664063 0.5957,0.802734 19.76367,-14.664062 z"
         id="path6-4-4-9" />
      <path
         style="color:#000000;fill:#000000;-inkscape-stroke:none"
         d="m 139.34961,82.738281 -19.76367,14.66211 0.5957,0.804687 19.76367,-14.664062 z"
         id="path6-4-47-0" />
      <path
         style="color:#000000;fill:#000000;-inkscape-stroke:none"
         d="m 119.88477,58.849609 v 1 h 38.45312 v -1 z"
         id="path11-1" />
      <path
         style="color:#000000;fill:#000000;-inkscape-stroke:none"
         d="m 139.64844,44.1875 v 1 h 38.45117 v -1 z"
         id="path11-0-4" />
      <path
         style="color:#000000;fill:#000000;-inkscape-stroke:none"
         d="m 120.03125,97.205078 v 1 h 38.45312 v -1 z"
         id="path11-05-0" />
      <path
         style="color:#000000;fill:#000000;-inkscape-stroke:none"
         d="m 139.5,82.738281 v 1 h 38.45312 v -1 z"
         id="path11-3-2" />
      <path
         style="color:#000000;fill:#000000;-inkscape-stroke:none"
         d="m 157.98437,59.349609 v 38.355469 h 1 V 59.349609 Z"
         id="path12-0" />
      <path
         style="color:#000000;fill:#000000;-inkscape-stroke:none"
         d="m 177.45312,44.6875 v 38.550781 h 1 V 44.6875 Z"
         id="path13-4" />
      <path
         style="color:#000000;fill:#000000;-inkscape-stroke:none"
         d="m 119.38477,59.349609 v 38.453125 h 1 V 59.349609 Z"
         id="path14-4" />
      <path
         style="color:#000000;fill:#000000;-inkscape-stroke:none"
         d="m 139.14844,44.6875 v 38.451172 h 1 V 44.6875 Z"
         id="path15-5" />
      <g
         id="text20"
         style="font-weight:bold;font-size:7.05556px;font-family:Helvetica;-inkscape-font-specification:'Helvetica, Bold';text-align:center;letter-spacing:-0.03175px;word-spacing:-0.0079375px;text-anchor:middle"
         aria-label="(mA, VA, TA, pA)">
        <path
           d="m 28.278882,106.98788 q 0.272163,-0.6339 0.795818,-1.36426 h 0.740696 l -0.210151,0.38585 q -0.434082,0.79582 -0.602892,1.66743 -0.110243,0.57189 -0.110243,1.24713 0,1.0542 0.306613,1.93959 0.179146,0.52365 0.633898,1.34358 h -0.726915 l -0.244602,-0.33417 q -0.237712,-0.30317 -0.506429,-0.90262 -0.478869,-1.07142 -0.478869,-2.1084 0,-0.94395 0.403076,-1.87413 z m 6.262444,-0.0413 q 0.248047,0 0.489204,0.0965 0.241157,0.0965 0.437527,0.33762 0.158475,0.19637 0.213596,0.48232 0.03445,0.18948 0.03445,0.55466 l -0.0069,2.36678 h -1.005968 v -2.3909 q 0,-0.2136 -0.0689,-0.3514 -0.130914,-0.26183 -0.482314,-0.26183 -0.406522,0 -0.561551,0.33762 -0.07924,0.17915 -0.07924,0.43064 v 2.23587 h -0.988743 v -2.23587 q 0,-0.33417 -0.0689,-0.48576 -0.124024,-0.27216 -0.485759,-0.27216 -0.420302,0 -0.564996,0.27216 -0.07924,0.15503 -0.07924,0.46164 v 2.25999 h -0.995633 v -3.74827 h 0.954292 v 0.54777 q 0.18259,-0.29283 0.344509,-0.41685 0.285943,-0.22049 0.740696,-0.22049 0.430638,0 0.69591,0.18948 0.213596,0.1757 0.323839,0.45131 0.192926,-0.33073 0.478869,-0.48576 0.303168,-0.15503 0.675239,-0.15503 z"
           id="path8" />
        <path
           d="m 37.380548,110.94819 h 0.837504 l -0.412034,-1.2988 z m 0.04255,-2.05345 h 0.779281 l 1.168922,3.30075 h -0.747931 l -0.212734,-0.67851 h -1.215948 l -0.22841,0.67851 h -0.721059 z m 0.385162,0 z"
           id="path9" />
        <path
           d="m 39.815488,111.60087 q 0.296278,-0.0827 0.434082,-0.27561 0.141249,-0.19293 0.16192,-0.54088 h -0.596002 v -1.02664 h 1.06109 v 0.88883 q 0,0.23427 -0.06201,0.48921 -0.06201,0.25494 -0.230821,0.44097 -0.18259,0.19982 -0.430637,0.29972 -0.244602,0.10336 -0.33762,0.10336 z m 6.953117,-5.89457 h 1.102431 l -1.732884,5.07808 H 45.135629 L 43.41997,105.7063 h 1.133437 l 1.102431,3.85507 z"
           id="path10" />
        <path
           d="m 49.18408,110.94819 h 0.837503 l -0.412033,-1.2988 z m 0.04255,-2.05345 h 0.779281 l 1.168922,3.30075 h -0.747931 l -0.212735,-0.67851 h -1.215947 l -0.22841,0.67851 h -0.721059 z m 0.385162,0 z"
           id="path16" />
        <path
           d="m 51.619021,111.60087 q 0.296278,-0.0827 0.434082,-0.27561 0.141249,-0.19293 0.161919,-0.54088 h -0.596001 v -1.02664 h 1.06109 v 0.88883 q 0,0.23427 -0.06201,0.48921 -0.06201,0.25494 -0.230822,0.44097 -0.18259,0.19982 -0.430637,0.29972 -0.244602,0.10336 -0.337619,0.10336 z m 7.669696,-5.89457 v 0.89917 h -1.519288 v 4.17891 h -1.067981 v -4.17891 H 55.17527 v -0.89917 z"
           id="path17" />
        <path
           d="m 60.591425,110.94819 h 0.837503 l -0.412034,-1.2988 z m 0.04255,-2.05345 h 0.779281 l 1.168921,3.30075 h -0.74793 l -0.212735,-0.67851 h -1.215947 l -0.22841,0.67851 h -0.721059 z m 0.385162,0 z"
           id="path19" />
        <path
           d="m 63.026365,111.60087 q 0.296279,-0.0827 0.434083,-0.27561 0.141249,-0.19293 0.161919,-0.54088 h -0.596002 v -1.02664 h 1.06109 v 0.88883 q 0,0.23427 -0.06201,0.48921 -0.06201,0.25494 -0.230822,0.44097 -0.18259,0.19982 -0.430637,0.29972 -0.244602,0.10336 -0.33762,0.10336 z m 6.488028,-2.69407 q 0,-0.43408 -0.199816,-0.76826 -0.19637,-0.33417 -0.640788,-0.33417 -0.53399,0 -0.733805,0.50643 -0.103353,0.26872 -0.103353,0.68213 0,0.65457 0.347954,0.91984 0.206706,0.15503 0.489204,0.15503 0.409967,0 0.623563,-0.31695 0.217041,-0.31695 0.217041,-0.84405 z m -0.558106,-1.96026 q 0.658014,0 1.112767,0.48576 0.458198,0.48576 0.458198,1.42627 0,0.99219 -0.447863,1.5124 -0.444417,0.52021 -1.147217,0.52021 -0.447863,0 -0.744141,-0.22394 -0.16192,-0.12402 -0.316949,-0.36173 v 1.95681 h -0.971518 v -5.2331 h 0.940512 v 0.55466 q 0.158474,-0.2446 0.337619,-0.38585 0.327285,-0.25149 0.778592,-0.25149 z"
           id="path20" />
        <path
           d="m 71.998772,110.94819 h 0.837503 l -0.412034,-1.2988 z m 0.04255,-2.05345 H 72.8206 l 1.168921,3.30075 H 73.24159 l -0.212734,-0.67851 h -1.215947 l -0.22841,0.67851 H 70.86344 Z m 0.385162,0 z"
           id="path21" />
        <path
           d="m 74.857457,105.62362 q 0.523655,0.73036 0.795818,1.36426 0.403076,0.93018 0.403076,1.87413 0,1.03698 -0.478868,2.1084 -0.268718,0.59945 -0.50643,0.90262 l -0.244602,0.33417 h -0.726915 q 0.454753,-0.81993 0.633898,-1.34358 0.306613,-0.88539 0.306613,-1.93959 0,-0.67524 -0.110243,-1.24713 -0.16881,-0.87161 -0.602892,-1.66743 l -0.210151,-0.38585 z"
           id="path22" />
      </g>
      <g
         id="text20-1"
         style="font-weight:bold;font-size:7.05556px;font-family:Helvetica;-inkscape-font-specification:'Helvetica, Bold';text-align:center;letter-spacing:-0.03175px;word-spacing:-0.0079375px;text-anchor:middle"
         aria-label="(mB, VB, TB, pB)">
        <path
           d="m 120.30407,106.98788 q 0.27216,-0.6339 0.79581,-1.36426 h 0.7407 l -0.21015,0.38585 q -0.43408,0.79582 -0.60289,1.66743 -0.11025,0.57189 -0.11025,1.24713 0,1.0542 0.30662,1.93959 0.17914,0.52365 0.6339,1.34358 h -0.72692 l -0.2446,-0.33417 q -0.23771,-0.30317 -0.50643,-0.90262 -0.47887,-1.07142 -0.47887,-2.1084 0,-0.94395 0.40308,-1.87413 z m 6.26244,-0.0413 q 0.24805,0 0.4892,0.0965 0.24116,0.0965 0.43753,0.33762 0.15848,0.19637 0.2136,0.48232 0.0345,0.18948 0.0345,0.55466 l -0.007,2.36678 h -1.00597 v -2.3909 q 0,-0.2136 -0.0689,-0.3514 -0.13092,-0.26183 -0.48232,-0.26183 -0.40652,0 -0.56155,0.33762 -0.0792,0.17915 -0.0792,0.43064 v 2.23587 h -0.98875 v -2.23587 q 0,-0.33417 -0.0689,-0.48576 -0.12402,-0.27216 -0.48576,-0.27216 -0.4203,0 -0.56499,0.27216 -0.0792,0.15503 -0.0792,0.46164 v 2.25999 h -0.99563 v -3.74827 h 0.95429 v 0.54777 q 0.18259,-0.29283 0.34451,-0.41685 0.28594,-0.22049 0.74069,-0.22049 0.43064,0 0.69591,0.18948 0.2136,0.1757 0.32384,0.45131 0.19293,-0.33073 0.47887,-0.48576 0.30317,-0.15503 0.67524,-0.15503 z"
           id="path23" />
        <path
           d="m 129.17284,109.46801 v 0.72777 h 0.81064 q 0.21721,0 0.35157,-0.0806 0.1366,-0.0829 0.1366,-0.29111 0,-0.23065 -0.17915,-0.30455 -0.15451,-0.0515 -0.39412,-0.0515 z m 0,1.27417 v 0.88005 h 0.81064 q 0.21721,0 0.33813,-0.0582 0.21945,-0.10748 0.21945,-0.41203 0,-0.25752 -0.21273,-0.35381 -0.11868,-0.0537 -0.33366,-0.056 z m 0.94499,-1.84744 q 0.60686,0.009 0.8599,0.35157 0.15227,0.2105 0.15227,0.50385 0,0.30231 -0.15227,0.48593 -0.0851,0.10301 -0.2508,0.1881 0.25304,0.0918 0.38068,0.29111 0.12988,0.1993 0.12988,0.4837 0,0.29335 -0.14779,0.52623 -0.094,0.15452 -0.23513,0.25976 -0.15899,0.12093 -0.37621,0.16571 -0.21497,0.0448 -0.46801,0.0448 h -1.49586 v -3.30075 z"
           id="path24" />
        <path
           d="m 131.84067,111.60087 q 0.29628,-0.0827 0.43408,-0.27561 0.14125,-0.19293 0.16192,-0.54088 h -0.596 v -1.02664 h 1.06109 v 0.88883 q 0,0.23427 -0.062,0.48921 -0.062,0.25494 -0.23082,0.44097 -0.18259,0.19982 -0.43064,0.29972 -0.2446,0.10336 -0.33762,0.10336 z m 6.95312,-5.89457 h 1.10243 l -1.73288,5.07808 h -1.00253 l -1.71566,-5.07808 h 1.13344 l 1.10243,3.85507 z"
           id="path25" />
        <path
           d="m 140.97638,109.46801 v 0.72777 h 0.81063 q 0.21721,0 0.35157,-0.0806 0.1366,-0.0829 0.1366,-0.29111 0,-0.23065 -0.17915,-0.30455 -0.15451,-0.0515 -0.39412,-0.0515 z m 0,1.27417 v 0.88005 h 0.81063 q 0.21721,0 0.33813,-0.0582 0.21946,-0.10748 0.21946,-0.41203 0,-0.25752 -0.21274,-0.35381 -0.11868,-0.0537 -0.33366,-0.056 z m 0.94499,-1.84744 q 0.60685,0.009 0.85989,0.35157 0.15228,0.2105 0.15228,0.50385 0,0.30231 -0.15228,0.48593 -0.0851,0.10301 -0.2508,0.1881 0.25304,0.0918 0.38068,0.29111 0.12988,0.1993 0.12988,0.4837 0,0.29335 -0.14779,0.52623 -0.094,0.15452 -0.23513,0.25976 -0.15899,0.12093 -0.3762,0.16571 -0.21498,0.0448 -0.46802,0.0448 h -1.49586 v -3.30075 z"
           id="path27" />
        <path
           d="m 143.64421,111.60087 q 0.29627,-0.0827 0.43408,-0.27561 0.14125,-0.19293 0.16192,-0.54088 h -0.596 v -1.02664 h 1.06109 v 0.88883 q 0,0.23427 -0.062,0.48921 -0.062,0.25494 -0.23082,0.44097 -0.18259,0.19982 -0.43064,0.29972 -0.2446,0.10336 -0.33761,0.10336 z m 7.66969,-5.89457 v 0.89917 h -1.51929 v 4.17891 h -1.06798 v -4.17891 h -1.52618 v -0.89917 z"
           id="path28" />
        <path
           d="m 152.38372,109.46801 v 0.72777 h 0.81063 q 0.21722,0 0.35157,-0.0806 0.1366,-0.0829 0.1366,-0.29111 0,-0.23065 -0.17914,-0.30455 -0.15452,-0.0515 -0.39412,-0.0515 z m 0,1.27417 v 0.88005 h 0.81063 q 0.21722,0 0.33814,-0.0582 0.21945,-0.10748 0.21945,-0.41203 0,-0.25752 -0.21273,-0.35381 -0.11869,-0.0537 -0.33366,-0.056 z m 0.94499,-1.84744 q 0.60686,0.009 0.8599,0.35157 0.15227,0.2105 0.15227,0.50385 0,0.30231 -0.15227,0.48593 -0.0851,0.10301 -0.25081,0.1881 0.25305,0.0918 0.38069,0.29111 0.12988,0.1993 0.12988,0.4837 0,0.29335 -0.1478,0.52623 -0.094,0.15452 -0.23512,0.25976 -0.159,0.12093 -0.37621,0.16571 -0.21497,0.0448 -0.46802,0.0448 h -1.49586 v -3.30075 z"
           id="path29" />
        <path
           d="m 155.05155,111.60087 q 0.29628,-0.0827 0.43408,-0.27561 0.14125,-0.19293 0.16192,-0.54088 h -0.596 v -1.02664 h 1.06109 v 0.88883 q 0,0.23427 -0.062,0.48921 -0.062,0.25494 -0.23082,0.44097 -0.18259,0.19982 -0.43064,0.29972 -0.2446,0.10336 -0.33762,0.10336 z m 6.48803,-2.69407 q 0,-0.43408 -0.19982,-0.76826 -0.19637,-0.33417 -0.64079,-0.33417 -0.53399,0 -0.7338,0.50643 -0.10335,0.26872 -0.10335,0.68213 0,0.65457 0.34795,0.91984 0.20671,0.15503 0.4892,0.15503 0.40997,0 0.62357,-0.31695 0.21704,-0.31695 0.21704,-0.84405 z m -0.55811,-1.96026 q 0.65802,0 1.11277,0.48576 0.4582,0.48576 0.4582,1.42627 0,0.99219 -0.44787,1.5124 -0.44441,0.52021 -1.14721,0.52021 -0.44787,0 -0.74414,-0.22394 -0.16192,-0.12402 -0.31695,-0.36173 v 1.95681 h -0.97152 v -5.2331 h 0.94051 v 0.55466 q 0.15847,-0.2446 0.33762,-0.38585 0.32728,-0.25149 0.77859,-0.25149 z"
           id="path30" />
        <path
           d="m 163.79107,109.46801 v 0.72777 h 0.81063 q 0.21721,0 0.35157,-0.0806 0.1366,-0.0829 0.1366,-0.29111 0,-0.23065 -0.17915,-0.30455 -0.15451,-0.0515 -0.39411,-0.0515 z m 0,1.27417 v 0.88005 h 0.81063 q 0.21721,0 0.33814,-0.0582 0.21945,-0.10748 0.21945,-0.41203 0,-0.25752 -0.21274,-0.35381 -0.11868,-0.0537 -0.33365,-0.056 z m 0.94499,-1.84744 q 0.60685,0.009 0.85989,0.35157 0.15228,0.2105 0.15228,0.50385 0,0.30231 -0.15228,0.48593 -0.0851,0.10301 -0.2508,0.1881 0.25304,0.0918 0.38068,0.29111 0.12988,0.1993 0.12988,0.4837 0,0.29335 -0.14779,0.52623 -0.0941,0.15452 -0.23513,0.25976 -0.15899,0.12093 -0.3762,0.16571 -0.21498,0.0448 -0.46802,0.0448 h -1.49586 v -3.30075 z"
           id="path31" />
        <path
           d="m 166.88264,105.62362 q 0.52366,0.73036 0.79582,1.36426 0.40308,0.93018 0.40308,1.87413 0,1.03698 -0.47887,2.1084 -0.26872,0.59945 -0.50643,0.90262 l -0.2446,0.33417 h -0.72692 q 0.45475,-0.81993 0.6339,-1.34358 0.30661,-0.88539 0.30661,-1.93959 0,-0.67524 -0.11024,-1.24713 -0.16881,-0.87161 -0.60289,-1.66743 l -0.21015,-0.38585 z"
           id="path32" />
      </g>
      <path
         d="m 45.299816,31.54794 q 0.04823,0.347955 0.18948,0.52021 0.258382,0.313504 0.88539,0.313504 0.375516,0 0.609782,-0.08268 0.444418,-0.158474 0.444418,-0.589111 0,-0.251493 -0.220486,-0.389296 -0.220486,-0.134359 -0.692465,-0.237712 L 45.9785,30.962273 q -0.792373,-0.179145 -1.095541,-0.389296 -0.51332,-0.3514 -0.51332,-1.098986 0,-0.682129 0.496094,-1.133437 0.496094,-0.451308 1.457277,-0.451308 0.802707,0 1.367703,0.427192 0.568442,0.423747 0.596002,1.233345 h -1.019749 q -0.02756,-0.458198 -0.399631,-0.651123 -0.248047,-0.127469 -0.616672,-0.127469 -0.409967,0 -0.654569,0.165365 -0.244602,0.165365 -0.244602,0.461643 0,0.272163 0.241157,0.406522 0.155029,0.08957 0.661459,0.210151 l 0.875055,0.21015 q 0.575331,0.137804 0.868164,0.368626 0.454753,0.35829 0.454753,1.036974 0,0.69591 -0.53399,1.157553 -0.530545,0.458198 -1.502063,0.458198 -0.992188,0 -1.560629,-0.451308 -0.568441,-0.454753 -0.568441,-1.247125 z M 46.3299,27.882356 Z m 2.948259,5.953129 0.124024,0.0069 q 0.144694,0.0069 0.275608,-0.01033 0.130913,-0.01723 0.220486,-0.07924 0.08613,-0.05857 0.158474,-0.244602 0.07579,-0.186036 0.06201,-0.227377 l -1.378039,-3.920521 h 1.092096 l 0.819933,2.769858 0.775147,-2.769858 h 1.043865 l -1.288467,3.693145 q -0.37207,1.06798 -0.589111,1.322917 -0.217041,0.258383 -0.868165,0.258383 -0.130914,0 -0.210151,-0.0034 -0.07924,0 -0.237712,-0.01033 z m 1.329808,-4.57509 z m 3.175636,2.65617 q 0.03101,0.261828 0.134359,0.372071 0.18259,0.196371 0.675239,0.196371 0.289389,0 0.458198,-0.08613 0.172255,-0.08613 0.172255,-0.258382 0,-0.165365 -0.137804,-0.251492 -0.137803,-0.08613 -1.023194,-0.296279 -0.637343,-0.158474 -0.89917,-0.396186 -0.261828,-0.234267 -0.261828,-0.675239 0,-0.52021 0.406522,-0.89228 0.409967,-0.375516 1.150663,-0.375516 0.7028,0 1.143772,0.282498 0.444418,0.279053 0.509875,0.968072 h -0.981853 q -0.02067,-0.18948 -0.106798,-0.299723 -0.16192,-0.199816 -0.551216,-0.199816 -0.320394,0 -0.458198,0.09991 -0.134359,0.09991 -0.134359,0.234267 0,0.168809 0.144694,0.244602 0.144694,0.07924 1.023194,0.272162 0.585667,0.137804 0.8785,0.416857 0.289388,0.282498 0.289388,0.706245 0,0.558106 -0.416856,0.912951 -0.413412,0.3514 -1.281577,0.3514 -0.88539,0 -1.309137,-0.37207 -0.420302,-0.375516 -0.420302,-0.954293 z m 0.751032,-2.65617 z m 1.990523,0.833714 v -0.699355 h 0.523654 v -1.04731 h 0.971518 v 1.04731 h 0.609782 v 0.699355 H 58.02033 v 1.984376 q 0,0.230822 0.05857,0.289388 0.05857,0.05512 0.35829,0.05512 0.04479,0 0.09302,0 0.05168,-0.0034 0.09991,-0.0069 v 0.733805 l -0.465088,0.01723 q -0.69591,0.02412 -0.950847,-0.241157 -0.165365,-0.16881 -0.165365,-0.52021 v -2.31166 z m 4.185049,-0.02412 q -0.341065,0 -0.530545,0.213596 -0.186036,0.213596 -0.234267,0.578777 h 1.526178 q -0.02412,-0.389297 -0.237711,-0.589112 -0.210151,-0.203261 -0.523655,-0.203261 z m 0,-0.809598 q 0.468533,0 0.844049,0.1757 0.375515,0.1757 0.620117,0.554661 0.220487,0.334174 0.285943,0.775147 0.0379,0.258382 0.03101,0.744141 h -2.570043 q 0.02067,0.564996 0.354845,0.792372 0.203261,0.141249 0.489204,0.141249 0.303169,0 0.492649,-0.172254 0.103353,-0.09302 0.18259,-0.258383 h 1.002524 q -0.0379,0.334175 -0.347955,0.678684 -0.482314,0.547771 -1.350478,0.547771 -0.716581,0 -1.264351,-0.461643 -0.547771,-0.461643 -0.547771,-1.502063 0,-0.974962 0.492649,-1.495172 0.496094,-0.52021 1.285022,-0.52021 z m 0.0689,0 z m 6.53805,0.01723 q 0.248047,0 0.489204,0.09646 0.241157,0.09646 0.437528,0.33762 0.158474,0.19637 0.213596,0.482314 0.03445,0.18948 0.03445,0.55466 l -0.0069,2.366782 h -1.005969 v -2.390897 q 0,-0.213596 -0.0689,-0.3514 -0.130914,-0.261828 -0.482314,-0.261828 -0.406521,0 -0.561551,0.33762 -0.07924,0.179145 -0.07924,0.430637 v 2.235868 h -0.988743 v -2.235868 q 0,-0.334174 -0.0689,-0.485759 -0.124023,-0.272162 -0.485759,-0.272162 -0.420301,0 -0.564996,0.272162 -0.07924,0.15503 -0.07924,0.461643 v 2.259984 h -0.995633 v -3.748266 h 0.954292 v 0.547771 q 0.18259,-0.292834 0.34451,-0.416857 0.285943,-0.220486 0.740696,-0.220486 0.430637,0 0.69591,0.18948 0.213596,0.1757 0.323839,0.451308 0.192925,-0.33073 0.478868,-0.485759 0.303169,-0.155029 0.675239,-0.155029 z m 5.175448,1.918919 h 1.288467 l -0.633898,-1.998157 z m 0.06546,-3.159155 h 1.198894 l 1.798341,5.078074 h -1.150663 l -0.327284,-1.043864 h -1.870688 l -0.3514,1.043864 h -1.109321 z m 0.592557,0 z"
         id="text25"
         style="-inkscape-font-specification:'Helvetica, Bold'"
         aria-label="System A" />
      <path
         d="m 134.29088,31.54794 q 0.0482,0.347955 0.18948,0.52021 0.25838,0.313504 0.88539,0.313504 0.37552,0 0.60978,-0.08268 0.44442,-0.158474 0.44442,-0.589111 0,-0.251493 -0.22049,-0.389296 -0.22048,-0.134359 -0.69246,-0.237712 l -0.53744,-0.120579 q -0.79237,-0.179145 -1.09554,-0.389296 -0.51332,-0.3514 -0.51332,-1.098986 0,-0.682129 0.4961,-1.133437 0.49609,-0.451308 1.45727,-0.451308 0.80271,0 1.36771,0.427192 0.56844,0.423747 0.596,1.233345 h -1.01975 q -0.0276,-0.458198 -0.39963,-0.651123 -0.24805,-0.127469 -0.61667,-0.127469 -0.40997,0 -0.65457,0.165365 -0.2446,0.165365 -0.2446,0.461643 0,0.272163 0.24115,0.406522 0.15503,0.08957 0.66146,0.210151 l 0.87506,0.21015 q 0.57533,0.137804 0.86816,0.368626 0.45475,0.35829 0.45475,1.036974 0,0.69591 -0.53399,1.157553 -0.53054,0.458198 -1.50206,0.458198 -0.99219,0 -1.56063,-0.451308 -0.56844,-0.454753 -0.56844,-1.247125 z m 1.03008,-3.665584 z m 2.94826,5.953129 0.12403,0.0069 q 0.14469,0.0069 0.2756,-0.01033 0.13092,-0.01723 0.22049,-0.07924 0.0861,-0.05857 0.15847,-0.244602 0.0758,-0.186036 0.062,-0.227377 l -1.37804,-3.920521 h 1.09209 l 0.81994,2.769858 0.77514,-2.769858 h 1.04387 l -1.28847,3.693145 q -0.37207,1.06798 -0.58911,1.322917 -0.21704,0.258383 -0.86816,0.258383 -0.13092,0 -0.21016,-0.0034 -0.0792,0 -0.23771,-0.01033 z m 1.32981,-4.57509 z m 3.17564,2.65617 q 0.031,0.261828 0.13436,0.372071 0.18259,0.196371 0.67523,0.196371 0.28939,0 0.4582,-0.08613 0.17226,-0.08613 0.17226,-0.258382 0,-0.165365 -0.13781,-0.251492 -0.1378,-0.08613 -1.02319,-0.296279 -0.63734,-0.158474 -0.89917,-0.396186 -0.26183,-0.234267 -0.26183,-0.675239 0,-0.52021 0.40652,-0.89228 0.40997,-0.375516 1.15067,-0.375516 0.7028,0 1.14377,0.282498 0.44442,0.279053 0.50987,0.968072 h -0.98185 q -0.0207,-0.18948 -0.1068,-0.299723 -0.16192,-0.199816 -0.55121,-0.199816 -0.3204,0 -0.4582,0.09991 -0.13436,0.09991 -0.13436,0.234267 0,0.168809 0.14469,0.244602 0.1447,0.07924 1.0232,0.272162 0.58566,0.137804 0.8785,0.416857 0.28939,0.282498 0.28939,0.706245 0,0.558106 -0.41686,0.912951 -0.41341,0.3514 -1.28158,0.3514 -0.88539,0 -1.30913,-0.37207 -0.42031,-0.375516 -0.42031,-0.954293 z m 0.75103,-2.65617 z m 1.99052,0.833714 v -0.699355 h 0.52366 v -1.04731 h 0.97151 v 1.04731 h 0.60979 v 0.699355 h -0.60979 v 1.984376 q 0,0.230822 0.0586,0.289388 0.0586,0.05512 0.35829,0.05512 0.0448,0 0.093,0 0.0517,-0.0034 0.0999,-0.0069 v 0.733805 l -0.46509,0.01723 q -0.69591,0.02412 -0.95085,-0.241157 -0.16536,-0.16881 -0.16536,-0.52021 v -2.31166 z m 4.18505,-0.02412 q -0.34106,0 -0.53054,0.213596 -0.18604,0.213596 -0.23427,0.578777 h 1.52618 q -0.0241,-0.389297 -0.23772,-0.589112 -0.21015,-0.203261 -0.52365,-0.203261 z m 0,-0.809598 q 0.46853,0 0.84405,0.1757 0.37551,0.1757 0.62012,0.554661 0.22048,0.334174 0.28594,0.775147 0.0379,0.258382 0.031,0.744141 h -2.57005 q 0.0207,0.564996 0.35485,0.792372 0.20326,0.141249 0.4892,0.141249 0.30317,0 0.49265,-0.172254 0.10335,-0.09302 0.18259,-0.258383 h 1.00252 q -0.0379,0.334175 -0.34795,0.678684 -0.48231,0.547771 -1.35048,0.547771 -0.71658,0 -1.26435,-0.461643 -0.54777,-0.461643 -0.54777,-1.502063 0,-0.974962 0.49265,-1.495172 0.49609,-0.52021 1.28502,-0.52021 z m 0.0689,0 z m 6.53805,0.01723 q 0.24805,0 0.48921,0.09646 0.24115,0.09646 0.43752,0.33762 0.15848,0.19637 0.2136,0.482314 0.0344,0.18948 0.0344,0.55466 l -0.007,2.366782 h -1.00597 v -2.390897 q 0,-0.213596 -0.0689,-0.3514 -0.13091,-0.261828 -0.48231,-0.261828 -0.40652,0 -0.56155,0.33762 -0.0792,0.179145 -0.0792,0.430637 v 2.235868 h -0.98874 v -2.235868 q 0,-0.334174 -0.0689,-0.485759 -0.12402,-0.272162 -0.48576,-0.272162 -0.4203,0 -0.56499,0.272162 -0.0792,0.15503 -0.0792,0.461643 v 2.259984 h -0.99563 v -3.748266 h 0.95429 v 0.547771 q 0.18259,-0.292834 0.34451,-0.416857 0.28594,-0.220486 0.7407,-0.220486 0.43063,0 0.69591,0.18948 0.21359,0.1757 0.32384,0.451308 0.19292,-0.33073 0.47886,-0.485759 0.30317,-0.155029 0.67524,-0.155029 z m 5.07554,-0.358291 v 1.119657 h 1.24713 q 0.33417,0 0.54088,-0.124023 0.21015,-0.127469 0.21015,-0.447863 0,-0.354845 -0.27561,-0.468533 -0.23771,-0.07924 -0.60634,-0.07924 z m 0,1.960261 v 1.353923 h 1.24713 q 0.33417,0 0.52021,-0.08957 0.33762,-0.165365 0.33762,-0.633898 0,-0.396186 -0.32729,-0.544326 -0.18259,-0.08268 -0.51332,-0.08613 z m 1.45383,-2.842206 q 0.93362,0.01378 1.32292,0.540881 0.23427,0.323839 0.23427,0.775147 0,0.465088 -0.23427,0.747586 -0.13091,0.158474 -0.38585,0.289388 0.38929,0.141249 0.58567,0.447863 0.19981,0.306614 0.19981,0.744141 0,0.451308 -0.22738,0.809598 -0.14469,0.237712 -0.36173,0.399631 -0.2446,0.186036 -0.57878,0.254937 -0.33073,0.0689 -0.72002,0.0689 h -2.30133 v -5.078074 z"
         id="text25-2"
         style="-inkscape-font-specification:'Helvetica, Bold'"
         aria-label="System B" />
      <g
         id="path26">
        <path
           style="color:#000000;fill:#b3b3b3;-inkscape-stroke:none"
           d="m 56.697973,219.05854 v -18.5975 l 9.699191,-7.18226 9.699194,-7.18225 h 37.878082 37.87809 v 18.76126 18.76126 l -9.47476,7.0185 -9.47475,7.01849 H 94.800491 56.697973 Z"
           id="path33" />
        <path
           style="color:#000000;fill:#b3b3b3;-inkscape-stroke:none"
           d="m 75.835937,185.30469 -9.910156,7.33789 -10.019531,7.41992 v 18.99609 19.38868 h 38.894531 38.363279 l 9.68555,-7.17383 9.79492,-7.25586 v -19.16016 -19.55273 h -38.66992 z m 0.521485,1.58398 h 37.617188 37.08594 v 17.96875 18.36328 l -9.1543,6.78125 -9.26563,6.86133 H 94.800781 57.490234 v -17.80469 -18.19922 l 9.378907,-6.94335 z"
           id="path34" />
      </g>
      <path
         style="color:#000000;fill:#000000;stroke-dasharray:2, 4;-inkscape-stroke:none"
         d="m 114.00391,223.35547 -0.48828,0.36328 0.5957,0.80273 0.48828,-0.36328 z m -3.70118,2.74609 -1.60546,1.19141 0.5957,0.80469 1.60547,-1.19336 z m -4.81835,3.57617 -1.60743,1.19141 0.59571,0.80273 1.60742,-1.1914 z m -4.81836,3.57422 -1.607426,1.19141 0.595703,0.80469 1.607423,-1.19336 z m -4.818364,3.57617 -1.607422,1.19141 0.595703,0.80274 1.607422,-1.19141 z"
         id="path6-8" />
      <path
         style="color:#000000;fill:#000000;stroke-dasharray:2, 4;-inkscape-stroke:none"
         d="m 114.00391,184.90234 -0.48828,0.36328 0.5957,0.80274 0.48828,-0.36133 z m -3.70118,2.7461 -1.60546,1.19336 0.5957,0.80273 1.60547,-1.19141 z m -4.81835,3.57617 -1.60743,1.19141 0.59571,0.80273 1.60742,-1.19141 z m -4.81836,3.57422 -1.607426,1.19336 0.595703,0.80273 1.607423,-1.1914 z m -4.818364,3.57617 -1.607422,1.19141 0.595703,0.80273 1.607422,-1.19141 z"
         id="path6-4-5" />
      <path
         style="color:#000000;fill:#000000;-inkscape-stroke:none"
         d="m 75.550781,184.90234 -19.763672,14.66407 0.595703,0.80273 19.763672,-14.66211 z"
         id="path6-4-4-97" />
      <path
         style="color:#000000;fill:#000000;-inkscape-stroke:none"
         d="m 75.550781,223.35547 -19.763672,14.66406 0.595703,0.80274 19.763672,-14.66407 z"
         id="path6-4-47-02" />
      <path
         style="color:#000000;fill:#000000;-inkscape-stroke:none"
         d="m 56.085937,199.46875 v 1 h 38.453125 v -1 z"
         id="path11-18" />
      <path
         style="color:#000000;fill:#000000;-inkscape-stroke:none"
         d="m 75.849609,184.80469 v 1 h 38.451171 v -1 z"
         id="path11-0-9" />
      <path
         style="color:#000000;fill:#000000;-inkscape-stroke:none"
         d="m 56.232422,237.82227 v 1 h 38.453125 v -1 z"
         id="path11-05-4" />
      <path
         style="color:#000000;fill:#000000;-inkscape-stroke:none"
         d="m 75.701172,223.35547 v 1 H 114.1543 v -1 z"
         id="path11-3-8" />
      <path
         style="color:#000000;fill:#000000;stroke-dasharray:2, 4;-inkscape-stroke:none"
         d="m 94.185547,200.32227 v 2 h 1 v -2 z m 0,6 v 2 h 1 v -2 z m 0,6 v 2 h 1 v -2 z m 0,6 v 2 h 1 v -2 z m 0,6 v 2 h 1 v -2 z m 0,6 v 2 h 1 v -2 z m 0,6 v 2 h 1 v -2 z"
         id="path12-8" />
      <path
         style="color:#000000;fill:#000000;stroke-dasharray:2, 4;-inkscape-stroke:none"
         d="m 113.6543,185.85547 v 2 h 1 v -2 z m 0,6 v 2 h 1 v -2 z m 0,6 v 2 h 1 v -2 z m 0,6 v 2 h 1 v -2 z m 0,6 v 2 h 1 v -2 z m 0,6 v 2 h 1 v -2 z m 0,6 v 2 h 1 v -2 z"
         id="path13-1" />
      <path
         style="color:#000000;fill:#000000;-inkscape-stroke:none"
         d="m 55.585937,199.96875 v 38.45117 h 1 v -38.45117 z"
         id="path14-0" />
      <path
         style="color:#000000;fill:#000000;-inkscape-stroke:none"
         d="m 75.349609,185.30469 v 38.45312 h 1 v -38.45312 z"
         id="path15-7" />
      <path
         style="color:#000000;fill:#000000;-inkscape-stroke:none"
         d="m 152.60352,223.35547 -19.76368,14.66406 0.59571,0.80274 19.76367,-14.66407 z"
         id="path6-9-9" />
      <path
         style="color:#000000;fill:#000000;-inkscape-stroke:none"
         d="m 152.60352,184.90234 -19.76368,14.66407 0.59571,0.80273 19.76367,-14.66211 z"
         id="path6-4-46-1" />
      <path
         style="color:#000000;fill:#000000;-inkscape-stroke:none"
         d="m 94.685547,199.46875 v 1 h 38.453123 v -1 z"
         id="path11-1-6" />
      <path
         style="color:#000000;fill:#000000;-inkscape-stroke:none"
         d="m 114.44922,184.80469 v 1 h 38.45117 v -1 z"
         id="path11-0-4-5" />
      <path
         style="color:#000000;fill:#000000;-inkscape-stroke:none"
         d="m 94.832031,237.82227 v 1 h 38.453129 v -1 z"
         id="path11-05-0-1" />
      <path
         style="color:#000000;fill:#000000;-inkscape-stroke:none"
         d="m 114.30078,223.35547 v 1 h 38.45313 v -1 z"
         id="path11-3-2-5" />
      <path
         style="color:#000000;fill:#000000;-inkscape-stroke:none"
         d="m 132.78516,199.96875 v 38.35352 h 1 v -38.35352 z"
         id="path12-0-3" />
      <path
         style="color:#000000;fill:#000000;-inkscape-stroke:none"
         d="m 152.25391,185.30469 v 38.55078 h 1 v -38.55078 z"
         id="path13-4-0" />
      <path
         d="m 77.057001,172.7243 q 0.04823,0.34796 0.189481,0.52021 0.258382,0.31351 0.88539,0.31351 0.375515,0 0.609782,-0.0827 0.444418,-0.15848 0.444418,-0.58912 0,-0.25149 -0.220487,-0.38929 -0.220486,-0.13436 -0.692464,-0.23771 l -0.537436,-0.12058 q -0.792372,-0.17915 -1.095541,-0.3893 -0.513319,-0.3514 -0.513319,-1.09898 0,-0.68213 0.496094,-1.13344 0.496094,-0.45131 1.457276,-0.45131 0.802708,0 1.367704,0.42719 0.568441,0.42375 0.596002,1.23335 h -1.019749 q -0.02756,-0.4582 -0.399631,-0.65113 -0.248047,-0.12746 -0.616673,-0.12746 -0.409967,0 -0.654568,0.16536 -0.244602,0.16537 -0.244602,0.46164 0,0.27217 0.241156,0.40653 0.15503,0.0896 0.661459,0.21015 l 0.875055,0.21015 q 0.575331,0.1378 0.868165,0.36862 0.454753,0.35829 0.454753,1.03698 0,0.69591 -0.533991,1.15755 -0.530545,0.4582 -1.502062,0.4582 -0.992188,0 -1.560629,-0.45131 -0.568442,-0.45475 -0.568442,-1.24713 z m 1.030084,-3.66558 z m 2.94826,5.95313 0.124023,0.007 q 0.144694,0.007 0.275608,-0.0103 0.130914,-0.0172 0.220486,-0.0792 0.08613,-0.0586 0.158475,-0.2446 0.07579,-0.18604 0.06201,-0.22738 l -1.378039,-3.92052 h 1.092096 l 0.819933,2.76986 0.775147,-2.76986 h 1.043864 l -1.288466,3.69314 q -0.372071,1.06798 -0.589112,1.32292 -0.217041,0.25838 -0.868164,0.25838 -0.130914,0 -0.210151,-0.003 -0.07924,0 -0.237712,-0.0103 z m 1.329808,-4.57509 z m 3.175636,2.65617 q 0.03101,0.26183 0.134359,0.37207 0.18259,0.19637 0.675239,0.19637 0.289388,0 0.458198,-0.0861 0.172255,-0.0861 0.172255,-0.25838 0,-0.16536 -0.137804,-0.25149 -0.137804,-0.0861 -1.023194,-0.29628 -0.637343,-0.15847 -0.899171,-0.39619 -0.261827,-0.23426 -0.261827,-0.67523 0,-0.52021 0.406521,-0.89228 0.409967,-0.37552 1.150663,-0.37552 0.7028,0 1.143773,0.2825 0.444417,0.27905 0.509874,0.96807 h -0.981853 q -0.02067,-0.18948 -0.106798,-0.29972 -0.161919,-0.19982 -0.551216,-0.19982 -0.320394,0 -0.458198,0.0999 -0.134358,0.0999 -0.134358,0.23427 0,0.16881 0.144694,0.2446 0.144694,0.0792 1.023194,0.27216 0.585666,0.1378 0.8785,0.41686 0.289388,0.2825 0.289388,0.70624 0,0.55811 -0.416857,0.91295 -0.413412,0.3514 -1.281576,0.3514 -0.88539,0 -1.309137,-0.37207 -0.420302,-0.37551 -0.420302,-0.95429 z m 0.751031,-2.65617 z m 1.990523,0.83371 v -0.69935 h 0.523655 v -1.04731 h 0.971517 v 1.04731 h 0.609783 v 0.69935 h -0.609783 v 1.98438 q 0,0.23082 0.05857,0.28939 0.05857,0.0551 0.35829,0.0551 0.04479,0 0.09302,0 0.05168,-0.003 0.09991,-0.007 v 0.73381 l -0.465089,0.0172 q -0.695909,0.0241 -0.950846,-0.24116 -0.165365,-0.16881 -0.165365,-0.52021 v -2.31166 z m 4.185049,-0.0241 q -0.341064,0 -0.530545,0.21359 -0.186035,0.2136 -0.234267,0.57878 h 1.526179 q -0.02412,-0.3893 -0.237712,-0.58911 -0.210151,-0.20326 -0.523655,-0.20326 z m 0,-0.8096 q 0.468533,0 0.844049,0.1757 0.375516,0.1757 0.620118,0.55466 0.220486,0.33418 0.285943,0.77515 0.0379,0.25838 0.03101,0.74414 h -2.570043 q 0.02067,0.56499 0.354845,0.79237 0.203261,0.14125 0.489204,0.14125 0.303168,0 0.492649,-0.17225 0.103353,-0.093 0.18259,-0.25839 h 1.002523 q -0.0379,0.33418 -0.347955,0.67869 -0.482313,0.54777 -1.350478,0.54777 -0.71658,0 -1.264351,-0.46165 -0.54777,-0.46164 -0.54777,-1.50206 0,-0.97496 0.492649,-1.49517 0.496094,-0.52021 1.285021,-0.52021 z m 0.0689,0 z m 6.538051,0.0172 q 0.248047,0 0.489204,0.0965 0.241157,0.0965 0.437531,0.33762 0.15847,0.19637 0.21359,0.48231 0.0345,0.18948 0.0345,0.55466 l -0.007,2.36678 h -1.005966 v -2.39089 q 0,-0.2136 -0.0689,-0.3514 -0.130914,-0.26183 -0.482314,-0.26183 -0.406522,0 -0.561551,0.33762 -0.07924,0.17914 -0.07924,0.43064 v 2.23586 h -0.988743 v -2.23586 q 0,-0.33418 -0.0689,-0.48576 -0.124024,-0.27217 -0.485759,-0.27217 -0.420302,0 -0.564996,0.27217 -0.07924,0.15503 -0.07924,0.46164 v 2.25998 H 94.86099 v -3.74826 h 0.954292 v 0.54777 q 0.182591,-0.29283 0.34451,-0.41686 0.285943,-0.22048 0.740696,-0.22048 0.430637,0 0.69591,0.18948 0.213596,0.1757 0.323839,0.4513 0.192926,-0.33073 0.478869,-0.48576 0.303168,-0.15502 0.675239,-0.15502 z m 3.824965,1.34014 q 0,-1.32981 0.71314,-2.04983 0.62012,-0.62701 1.57785,-0.62701 1.28158,0 1.87414,0.8406 0.32728,0.47198 0.3514,0.9474 h -1.06109 q -0.10336,-0.36518 -0.26528,-0.55121 -0.28938,-0.33073 -0.85783,-0.33073 -0.57877,0 -0.91295,0.46853 -0.33417,0.46509 -0.33417,1.31947 0,0.85439 0.3514,1.28158 0.35484,0.42375 0.89917,0.42375 0.5581,0 0.85094,-0.36518 0.16192,-0.19637 0.26872,-0.58911 h 1.05075 q -0.1378,0.83026 -0.70624,1.35047 -0.565,0.52021 -1.45039,0.52021 -1.09554,0 -1.72255,-0.7028 -0.62701,-0.70624 -0.62701,-1.93614 z m 2.25999,-2.73541 z m 8.38972,2.1084 v 0.90606 h -3.73104 v -0.90606 z m 0,1.60886 v 0.90606 h -3.73104 v -0.90606 z m 3.69405,-0.40308 h 1.28847 l -0.6339,-1.99815 z m 0.0655,-3.15915 h 1.1989 l 1.79834,5.07807 h -1.15067 l -0.32728,-1.04386 h -1.87069 l -0.3514,1.04386 h -1.10932 z m 0.59256,0 z m 4.39341,3.65869 v -0.89917 h 1.41249 v -1.41249 h 0.90606 v 1.41249 h 1.41249 v 0.89917 h -1.41249 v 1.41938 h -0.90606 v -1.41938 z m 7.32519,-2.77674 v 1.11965 h 1.24712 q 0.33418,0 0.54088,-0.12402 0.21015,-0.12747 0.21015,-0.44786 0,-0.35485 -0.27561,-0.46854 -0.23771,-0.0792 -0.60633,-0.0792 z m 0,1.96026 v 1.35392 h 1.24712 q 0.33418,0 0.52021,-0.0896 0.33762,-0.16537 0.33762,-0.6339 0,-0.39619 -0.32728,-0.54433 -0.18259,-0.0827 -0.51332,-0.0861 z m 1.45383,-2.84221 q 0.93362,0.0138 1.32291,0.54088 0.23427,0.32384 0.23427,0.77515 0,0.46509 -0.23427,0.74758 -0.13091,0.15848 -0.38585,0.28939 0.3893,0.14125 0.58567,0.44786 0.19982,0.30662 0.19982,0.74415 0,0.4513 -0.22738,0.80959 -0.14469,0.23772 -0.36174,0.39964 -0.2446,0.18603 -0.57877,0.25493 -0.33073,0.0689 -0.72003,0.0689 h -2.30132 v -5.07807 z"
         id="text25-0"
         style="-inkscape-font-specification:'Helvetica, Bold'"
         aria-label="System C = A + B" />
      <g
         id="text20-8"
         style="font-weight:bold;font-size:7.05556px;font-family:Helvetica;-inkscape-font-specification:'Helvetica, Bold';text-align:center;letter-spacing:-0.03175px;word-spacing:-0.0079375px;text-anchor:middle"
         aria-label="(mC = mA + mB,&#10; VC = VA + VB,&#10;TC ≠ TA + TB,&#10;pC ≠ pA + pB)">
        <path
           d="m 166.06698,196.73011 q 0.27216,-0.63389 0.79582,-1.36426 h 0.74069 l -0.21015,0.38586 q -0.43408,0.79581 -0.60289,1.66742 -0.11024,0.57189 -0.11024,1.24713 0,1.0542 0.30661,1.93959 0.17914,0.52365 0.6339,1.34359 h -0.72692 l -0.2446,-0.33418 q -0.23771,-0.30317 -0.50643,-0.90261 -0.47887,-1.07143 -0.47887,-2.1084 0,-0.94396 0.40308,-1.87414 z m 6.26244,-0.0413 q 0.24805,0 0.48921,0.0965 0.24115,0.0965 0.43752,0.33761 0.15848,0.19638 0.2136,0.48232 0.0344,0.18948 0.0344,0.55466 l -0.007,2.36678 h -1.00597 v -2.3909 q 0,-0.21359 -0.0689,-0.3514 -0.13091,-0.26182 -0.48231,-0.26182 -0.40653,0 -0.56156,0.33762 -0.0792,0.17914 -0.0792,0.43063 v 2.23587 h -0.98875 v -2.23587 q 0,-0.33417 -0.0689,-0.48576 -0.12402,-0.27216 -0.48576,-0.27216 -0.4203,0 -0.56499,0.27216 -0.0792,0.15503 -0.0792,0.46165 v 2.25998 h -0.99563 v -3.74826 h 0.95429 v 0.54777 q 0.18259,-0.29284 0.34451,-0.41686 0.28594,-0.22049 0.74069,-0.22049 0.43064,0 0.69591,0.18948 0.2136,0.1757 0.32384,0.45131 0.19293,-0.33073 0.47887,-0.48576 0.30317,-0.15503 0.67524,-0.15503 z"
           id="path35" />
        <path
           d="m 174.12288,200.31422 q 0,-0.86437 0.46354,-1.33239 0.40308,-0.40756 1.02561,-0.40756 0.83302,0 1.21818,0.5464 0.21274,0.30678 0.22841,0.61581 h -0.6897 q -0.0672,-0.23737 -0.17243,-0.35829 -0.1881,-0.21498 -0.55759,-0.21498 -0.37621,0 -0.59342,0.30455 -0.21721,0.30231 -0.21721,0.85766 0,0.55535 0.22841,0.83302 0.23065,0.27544 0.58446,0.27544 0.36277,0 0.55311,-0.23737 0.10525,-0.12764 0.17467,-0.38292 h 0.68299 q -0.0896,0.53967 -0.45906,0.87781 -0.36725,0.33814 -0.94275,0.33814 -0.71211,0 -1.11966,-0.45682 -0.40756,-0.45906 -0.40756,-1.2585 z m 1.46899,-1.77801 z"
           id="path36" />
        <path
           d="m 183.10017,197.40191 v 0.90606 h -3.73104 v -0.90606 z m 0,1.60886 v 0.90606 h -3.73104 v -0.90606 z m 6.68095,-2.322 q 0.24805,0 0.4892,0.0965 0.24116,0.0965 0.43753,0.33761 0.15848,0.19638 0.2136,0.48232 0.0345,0.18948 0.0345,0.55466 l -0.007,2.36678 h -1.00597 v -2.3909 q 0,-0.21359 -0.0689,-0.3514 -0.13092,-0.26182 -0.48232,-0.26182 -0.40652,0 -0.56155,0.33762 -0.0792,0.17914 -0.0792,0.43063 v 2.23587 h -0.98875 v -2.23587 q 0,-0.33417 -0.0689,-0.48576 -0.12402,-0.27216 -0.48576,-0.27216 -0.4203,0 -0.56499,0.27216 -0.0792,0.15503 -0.0792,0.46165 v 2.25998 h -0.99563 v -3.74826 h 0.95429 v 0.54777 q 0.18259,-0.29284 0.34451,-0.41686 0.28594,-0.22049 0.74069,-0.22049 0.43064,0 0.69591,0.18948 0.2136,0.1757 0.32384,0.45131 0.19293,-0.33073 0.47887,-0.48576 0.30317,-0.15503 0.67524,-0.15503 z"
           id="path37" />
        <path
           d="m 192.62034,200.69043 h 0.83751 l -0.41204,-1.29881 z m 0.0426,-2.05345 h 0.77928 l 1.16892,3.30074 h -0.74793 l -0.21273,-0.67851 h -1.21595 l -0.22841,0.67851 h -0.72106 z m 0.38516,0 z"
           id="path38" />
        <path
           d="m 196.82083,199.10723 v -0.89917 h 1.41249 v -1.41249 h 0.90606 v 1.41249 h 1.41249 v 0.89917 h -1.41249 v 1.41938 h -0.90606 v -1.41938 z m 10.41199,-2.41846 q 0.24805,0 0.48921,0.0965 0.24115,0.0965 0.43752,0.33761 0.15848,0.19638 0.2136,0.48232 0.0344,0.18948 0.0344,0.55466 l -0.007,2.36678 h -1.00597 v -2.3909 q 0,-0.21359 -0.0689,-0.3514 -0.13091,-0.26182 -0.48231,-0.26182 -0.40653,0 -0.56156,0.33762 -0.0792,0.17914 -0.0792,0.43063 v 2.23587 h -0.98875 v -2.23587 q 0,-0.33417 -0.0689,-0.48576 -0.12402,-0.27216 -0.48576,-0.27216 -0.4203,0 -0.56499,0.27216 -0.0792,0.15503 -0.0792,0.46165 v 2.25998 h -0.99563 v -3.74826 h 0.95429 v 0.54777 q 0.18259,-0.29284 0.34451,-0.41686 0.28594,-0.22049 0.74069,-0.22049 0.43064,0 0.69591,0.18948 0.2136,0.1757 0.32384,0.45131 0.19293,-0.33073 0.47887,-0.48576 0.30317,-0.15503 0.67524,-0.15503 z"
           id="path41" />
        <path
           d="m 209.83916,199.21024 v 0.72778 h 0.81063 q 0.21721,0 0.35157,-0.0806 0.1366,-0.0829 0.1366,-0.29111 0,-0.23065 -0.17915,-0.30455 -0.15451,-0.0515 -0.39412,-0.0515 z m 0,1.27417 v 0.88005 h 0.81063 q 0.21721,0 0.33814,-0.0582 0.21945,-0.10749 0.21945,-0.41204 0,-0.25752 -0.21274,-0.35381 -0.11868,-0.0537 -0.33365,-0.056 z m 0.94499,-1.84743 q 0.60685,0.009 0.85989,0.35157 0.15228,0.21049 0.15228,0.50384 0,0.30231 -0.15228,0.48593 -0.0851,0.10301 -0.2508,0.18811 0.25304,0.0918 0.38068,0.29111 0.12988,0.1993 0.12988,0.48369 0,0.29335 -0.14779,0.52624 -0.0941,0.15451 -0.23513,0.25976 -0.15899,0.12092 -0.3762,0.16571 -0.21498,0.0448 -0.46802,0.0448 h -1.49586 v -3.30074 z"
           id="path42" />
        <path
           d="m 212.50698,201.3431 q 0.29628,-0.0827 0.43409,-0.27561 0.14125,-0.19292 0.16192,-0.54088 h -0.59601 v -1.02664 h 1.06109 v 0.88884 q 0,0.23426 -0.062,0.4892 -0.062,0.25494 -0.23082,0.44097 -0.18259,0.19982 -0.43064,0.29973 -0.2446,0.10335 -0.33762,0.10335 z"
           id="path43" />
        <path
           d="m 173.33831,204.26799 h 1.10243 l -1.73288,5.07807 h -1.00253 l -1.71565,-5.07807 h 1.13343 l 1.10243,3.85506 z"
           id="path44" />
        <path
           d="m 174.70803,209.13367 q 0,-0.86437 0.46353,-1.33239 0.40308,-0.40756 1.02561,-0.40756 0.83303,0 1.21819,0.5464 0.21273,0.30678 0.22841,0.61581 h -0.68971 q -0.0672,-0.23737 -0.17243,-0.35829 -0.1881,-0.21498 -0.55759,-0.21498 -0.3762,0 -0.59342,0.30455 -0.21721,0.30231 -0.21721,0.85766 0,0.55535 0.22841,0.83302 0.23065,0.27544 0.58446,0.27544 0.36277,0 0.55311,-0.23737 0.10525,-0.12764 0.17467,-0.38292 h 0.68299 q -0.0896,0.53967 -0.45906,0.87781 -0.36725,0.33814 -0.94275,0.33814 -0.7121,0 -1.11966,-0.45682 -0.40755,-0.45906 -0.40755,-1.2585 z m 1.46899,-1.77801 z"
           id="path45" />
        <path
           d="m 183.68531,206.22136 v 0.90606 h -3.73104 v -0.90606 z m 0,1.60886 v 0.90606 h -3.73104 v -0.90606 z m 5.53718,-3.56223 h 1.10243 l -1.73288,5.07807 h -1.00252 l -1.71566,-5.07807 h 1.13343 l 1.10244,3.85506 z"
           id="path46" />
        <path
           d="m 191.63797,209.50988 h 0.8375 l -0.41203,-1.29881 z m 0.0425,-2.05345 h 0.77929 l 1.16892,3.30074 h -0.74793 l -0.21274,-0.67851 h -1.21595 l -0.22841,0.67851 h -0.72105 z m 0.38517,0 z"
           id="path47" />
        <path
           d="m 195.83845,207.92668 v -0.89917 h 1.41249 v -1.41249 h 0.90606 v 1.41249 h 1.41249 v 0.89917 H 198.157 v 1.41938 h -0.90606 v -1.41938 z m 9.26822,-3.65869 h 1.10243 l -1.73288,5.07807 h -1.00252 l -1.71566,-5.07807 h 1.13343 l 1.10244,3.85506 z"
           id="path48" />
        <path
           d="m 207.28926,208.02969 v 0.72778 h 0.81063 q 0.21722,0 0.35157,-0.0806 0.1366,-0.0829 0.1366,-0.29111 0,-0.23065 -0.17914,-0.30455 -0.15452,-0.0515 -0.39412,-0.0515 z m 0,1.27417 v 0.88005 h 0.81063 q 0.21722,0 0.33814,-0.0582 0.21945,-0.10749 0.21945,-0.41204 0,-0.25752 -0.21273,-0.35381 -0.11869,-0.0537 -0.33366,-0.056 z m 0.94499,-1.84743 q 0.60686,0.009 0.8599,0.35157 0.15227,0.21049 0.15227,0.50384 0,0.30231 -0.15227,0.48593 -0.0851,0.10301 -0.25081,0.18811 0.25305,0.0918 0.38069,0.29111 0.12988,0.1993 0.12988,0.48369 0,0.29335 -0.1478,0.52624 -0.094,0.15451 -0.23512,0.25976 -0.159,0.12092 -0.37621,0.16571 -0.21497,0.0448 -0.46802,0.0448 h -1.49586 v -3.30074 z"
           id="path49" />
        <path
           d="m 209.95709,210.16255 q 0.29628,-0.0827 0.43408,-0.27561 0.14125,-0.19292 0.16192,-0.54088 h -0.596 v -1.02664 h 1.06109 v 0.88884 q 0,0.23426 -0.062,0.4892 -0.062,0.25494 -0.23083,0.44097 -0.18259,0.19982 -0.43063,0.29973 -0.2446,0.10335 -0.33762,0.10335 z"
           id="path50" />
        <path
           d="m 173.81291,213.08744 v 0.89917 h -1.51929 v 4.1789 h -1.06798 v -4.1789 h -1.52618 v -0.89917 z"
           id="path51" />
        <path
           d="m 174.06986,217.95312 q 0,-0.86437 0.46353,-1.33239 0.40308,-0.40756 1.02561,-0.40756 0.83302,0 1.21819,0.5464 0.21273,0.30678 0.22841,0.61581 h -0.68971 q -0.0672,-0.23737 -0.17243,-0.35829 -0.1881,-0.21498 -0.55759,-0.21498 -0.3762,0 -0.59342,0.30455 -0.21721,0.30231 -0.21721,0.85766 0,0.55535 0.22841,0.83302 0.23065,0.27544 0.58446,0.27544 0.36277,0 0.55311,-0.23737 0.10525,-0.12764 0.17467,-0.38292 h 0.68299 q -0.0896,0.53967 -0.45906,0.87781 -0.36725,0.33814 -0.94275,0.33814 -0.7121,0 -1.11966,-0.45682 -0.40755,-0.45906 -0.40755,-1.2585 z m 1.46899,-1.77801 z"
           id="path52" />
        <path
           d="m 182.88178,215.94687 h -1.20923 l -0.28595,0.7028 h 1.49518 v 0.90606 h -1.91892 l -0.31006,0.67524 h -0.93707 l 0.29973,-0.67524 h -0.86472 v -0.90606 h 1.27468 l 0.31006,-0.7028 h -1.58474 v -0.90606 h 1.99126 l 0.30317,-0.67869 h 0.94051 l -0.30317,0.67869 h 0.79927 z m 6.17108,-2.85943 v 0.89917 h -1.51929 v 4.1789 h -1.06798 v -4.1789 h -1.52618 v -0.89917 z"
           id="path53" />
        <path
           d="m 190.35556,218.32933 h 0.83751 l -0.41204,-1.29881 z m 0.0426,-2.05345 h 0.77928 l 1.16892,3.30074 h -0.74793 l -0.21273,-0.67851 h -1.21595 l -0.22841,0.67851 h -0.72106 z m 0.38516,0 z"
           id="path54" />
        <path
           d="m 194.55605,216.74613 v -0.89917 h 1.41249 v -1.41249 h 0.90606 v 1.41249 h 1.41249 v 0.89917 h -1.41249 v 1.41938 h -0.90606 v -1.41938 z m 9.9848,-3.65869 v 0.89917 h -1.51929 v 4.1789 h -1.06798 v -4.1789 h -1.52618 v -0.89917 z"
           id="path55" />
        <path
           d="m 205.61067,216.84914 v 0.72778 h 0.81063 q 0.21722,0 0.35158,-0.0806 0.13659,-0.0828 0.13659,-0.29111 0,-0.23065 -0.17914,-0.30455 -0.15451,-0.0515 -0.39412,-0.0515 z m 0,1.27417 v 0.88005 h 0.81063 q 0.21722,0 0.33814,-0.0582 0.21945,-0.10749 0.21945,-0.41204 0,-0.25752 -0.21273,-0.35381 -0.11869,-0.0537 -0.33366,-0.056 z m 0.94499,-1.84743 q 0.60686,0.009 0.8599,0.35157 0.15227,0.21049 0.15227,0.50384 0,0.30231 -0.15227,0.48593 -0.0851,0.10301 -0.2508,0.18811 0.25304,0.0918 0.38068,0.29111 0.12988,0.1993 0.12988,0.48369 0,0.29335 -0.1478,0.52624 -0.0941,0.15451 -0.23512,0.25976 -0.15899,0.12092 -0.37621,0.16571 -0.21497,0.0448 -0.46801,0.0448 h -1.49587 v -3.30074 z"
           id="path56" />
        <path
           d="m 208.2785,218.982 q 0.29628,-0.0827 0.43408,-0.27561 0.14125,-0.19292 0.16192,-0.54088 h -0.596 v -1.02664 h 1.06109 v 0.88884 q 0,0.23426 -0.062,0.4892 -0.062,0.25494 -0.23082,0.44097 -0.18259,0.19982 -0.43064,0.29973 -0.2446,0.10335 -0.33762,0.10335 z"
           id="path57" />
        <path
           d="m 172.42072,225.10738 q 0,-0.43408 -0.19982,-0.76825 -0.19637,-0.33418 -0.64079,-0.33418 -0.53399,0 -0.7338,0.50643 -0.10336,0.26872 -0.10336,0.68213 0,0.65457 0.34796,0.91984 0.2067,0.15503 0.4892,0.15503 0.40997,0 0.62357,-0.31695 0.21704,-0.31695 0.21704,-0.84405 z m -0.55811,-1.96026 q 0.65801,0 1.11277,0.48576 0.4582,0.48576 0.4582,1.42627 0,0.99219 -0.44787,1.5124 -0.44442,0.52021 -1.14722,0.52021 -0.44786,0 -0.74414,-0.22393 -0.16192,-0.12403 -0.31695,-0.36174 v 1.95682 h -0.97151 v -5.2331 h 0.94051 v 0.55466 q 0.15847,-0.24461 0.33762,-0.38585 0.32728,-0.2515 0.77859,-0.2515 z"
           id="path58" />
        <path
           d="m 173.85933,226.77257 q 0,-0.86437 0.46354,-1.33239 0.40308,-0.40755 1.02561,-0.40755 0.83302,0 1.21818,0.54639 0.21274,0.30678 0.22841,0.61581 h -0.6897 q -0.0672,-0.23737 -0.17243,-0.35829 -0.1881,-0.21498 -0.55759,-0.21498 -0.37621,0 -0.59342,0.30455 -0.21721,0.30231 -0.21721,0.85766 0,0.55535 0.22841,0.83302 0.23065,0.27544 0.58446,0.27544 0.36277,0 0.55311,-0.23737 0.10525,-0.12764 0.17467,-0.38292 h 0.68299 q -0.0896,0.53967 -0.45906,0.87781 -0.36725,0.33814 -0.94275,0.33814 -0.71211,0 -1.11966,-0.45682 -0.40756,-0.45906 -0.40756,-1.2585 z m 1.46899,-1.77801 z"
           id="path59" />
        <path
           d="m 182.67125,224.76632 h -1.20923 l -0.28594,0.7028 h 1.49517 v 0.90606 h -1.91892 l -0.31005,0.67524 h -0.93707 l 0.29972,-0.67524 h -0.86472 v -0.90606 h 1.27469 l 0.31006,-0.7028 h -1.58475 v -0.90606 h 1.99127 l 0.30317,-0.67869 h 0.94051 l -0.30317,0.67869 h 0.79926 z m 4.98941,0.34106 q 0,-0.43408 -0.19981,-0.76825 -0.19637,-0.33418 -0.64079,-0.33418 -0.53399,0 -0.73381,0.50643 -0.10335,0.26872 -0.10335,0.68213 0,0.65457 0.34796,0.91984 0.2067,0.15503 0.4892,0.15503 0.40997,0 0.62356,-0.31695 0.21704,-0.31695 0.21704,-0.84405 z m -0.5581,-1.96026 q 0.65801,0 1.11277,0.48576 0.45819,0.48576 0.45819,1.42627 0,0.99219 -0.44786,1.5124 -0.44442,0.52021 -1.14722,0.52021 -0.44786,0 -0.74414,-0.22393 -0.16192,-0.12403 -0.31695,-0.36174 v 1.95682 h -0.97151 v -5.2331 h 0.94051 v 0.55466 q 0.15847,-0.24461 0.33762,-0.38585 0.32728,-0.2515 0.77859,-0.2515 z"
           id="path60" />
        <path
           d="m 190.14504,227.14878 h 0.8375 l -0.41203,-1.29881 z m 0.0426,-2.05345 h 0.77928 l 1.16892,3.30074 h -0.74793 l -0.21273,-0.67851 h -1.21595 l -0.22841,0.67851 h -0.72106 z m 0.38516,0 z"
           id="path61" />
        <path
           d="m 194.34552,225.56558 v -0.89917 h 1.41249 v -1.41249 h 0.90607 v 1.41249 h 1.41249 v 0.89917 h -1.41249 v 1.41938 h -0.90607 v -1.41938 z m 8.80314,-0.4582 q 0,-0.43408 -0.19982,-0.76825 -0.19637,-0.33418 -0.64078,-0.33418 -0.53399,0 -0.73381,0.50643 -0.10335,0.26872 -0.10335,0.68213 0,0.65457 0.34795,0.91984 0.20671,0.15503 0.48921,0.15503 0.40996,0 0.62356,-0.31695 0.21704,-0.31695 0.21704,-0.84405 z m -0.55811,-1.96026 q 0.65802,0 1.11277,0.48576 0.4582,0.48576 0.4582,1.42627 0,0.99219 -0.44786,1.5124 -0.44442,0.52021 -1.14722,0.52021 -0.44786,0 -0.74414,-0.22393 -0.16192,-0.12403 -0.31695,-0.36174 v 1.95682 h -0.97152 v -5.2331 h 0.94051 v 0.55466 q 0.15848,-0.24461 0.33762,-0.38585 0.32729,-0.2515 0.77859,-0.2515 z"
           id="path62" />
        <path
           d="m 205.40015,225.66859 v 0.72778 h 0.81063 q 0.21721,0 0.35157,-0.0806 0.1366,-0.0829 0.1366,-0.29111 0,-0.23065 -0.17914,-0.30455 -0.15452,-0.0515 -0.39412,-0.0515 z m 0,1.27417 v 0.88005 h 0.81063 q 0.21721,0 0.33814,-0.0582 0.21945,-0.10749 0.21945,-0.41204 0,-0.25752 -0.21273,-0.35381 -0.11869,-0.0537 -0.33366,-0.056 z m 0.94499,-1.84743 q 0.60685,0.009 0.8599,0.35157 0.15227,0.21049 0.15227,0.50384 0,0.30231 -0.15227,0.48593 -0.0851,0.10301 -0.25081,0.18811 0.25305,0.0918 0.38069,0.29111 0.12988,0.1993 0.12988,0.48369 0,0.29335 -0.1478,0.52624 -0.0941,0.15451 -0.23513,0.25976 -0.15899,0.12092 -0.3762,0.16571 -0.21497,0.0448 -0.46802,0.0448 h -1.49586 v -3.30074 z"
           id="path63" />
        <path
           d="m 208.49172,221.82421 q 0.52366,0.73036 0.79582,1.36425 0.40308,0.93018 0.40308,1.87414 0,1.03697 -0.47887,2.1084 -0.26872,0.59944 -0.50643,0.90261 l -0.2446,0.33418 h -0.72692 q 0.45476,-0.81994 0.6339,-1.34359 0.30661,-0.88539 0.30661,-1.93959 0,-0.67524 -0.11024,-1.24713 -0.16881,-0.87161 -0.60289,-1.66742 l -0.21015,-0.38585 z"
           id="path64" />
      </g>
      <path
         style="color:#000000;fill:#000000;-inkscape-stroke:none"
         d="m 51.964844,120.63867 v 13.54102 h 46.205078 v -1 H 52.964844 v -12.54102 z"
         id="path39" />
      <path
         style="color:#000000;fill:#000000;-inkscape-stroke:none"
         d="m 143.90039,120.63867 v 12.54102 H 98.169922 v 1 h 46.730468 v -13.54102 z"
         id="path39-4" />
      <g
         id="path40">
        <path
           style="color:#000000;fill:#000000;-inkscape-stroke:none"
           d="m 97.669922,133.67969 v 21.63672 h 1 v -21.63672 z"
           id="path67" />
        <g
           id="g66">
          <path
             d="m 100.97036,153.91736 -2.800004,7.7 -2.8,-7.7 c 1.631,1.4 3.962,1.4 5.600004,0 z"
             style="color:#000000;fill:#000000;fill-rule:evenodd;-inkscape-stroke:none"
             id="path66" />
        </g>
      </g>
      <path
         style="-inkscape-font-specification:'Helvetica, Bold'"
         d="m 103.28861,144.21637 q 0,-1.32981 0.71314,-2.04983 0.62012,-0.62701 1.57785,-0.62701 1.28158,0 1.87414,0.8406 0.32728,0.47198 0.3514,0.9474 h -1.06109 q -0.10336,-0.36518 -0.26528,-0.55121 -0.28938,-0.33073 -0.85782,-0.33073 -0.57878,0 -0.91296,0.46853 -0.33417,0.46509 -0.33417,1.31948 0,0.85438 0.3514,1.28157 0.35484,0.42375 0.89917,0.42375 0.55811,0 0.85094,-0.36518 0.16192,-0.19637 0.26872,-0.58911 h 1.05075 q -0.1378,0.83027 -0.70624,1.35047 -0.565,0.52021 -1.45039,0.52021 -1.09554,0 -1.72255,-0.7028 -0.62701,-0.70624 -0.62701,-1.93614 z m 2.25999,-2.73541 z m 4.62947,4.54064 q 0.43063,0 0.66145,-0.30661 0.23083,-0.30662 0.23083,-0.87161 0,-0.565 -0.23083,-0.86817 -0.23082,-0.30661 -0.66145,-0.30661 -0.43064,0 -0.66491,0.30661 -0.23082,0.30317 -0.23082,0.86817 0,0.56499 0.23082,0.87161 0.23427,0.30661 0.66491,0.30661 z m 1.92236,-1.17822 q 0,0.82682 -0.47542,1.41593 -0.47543,0.58567 -1.4435,0.58567 -0.96807,0 -1.4435,-0.58567 -0.47542,-0.58911 -0.47542,-1.41593 0,-0.81305 0.47542,-1.40905 0.47543,-0.596 1.4435,-0.596 0.96807,0 1.4435,0.596 0.47542,0.596 0.47542,1.40905 z m -1.91892,-1.98438 z m 6.7861,0.0172 q 0.24805,0 0.4892,0.0965 0.24116,0.0965 0.43753,0.33762 0.15847,0.19637 0.2136,0.48231 0.0345,0.18948 0.0345,0.55466 l -0.007,2.36679 h -1.00597 v -2.3909 q 0,-0.2136 -0.0689,-0.3514 -0.13092,-0.26183 -0.48232,-0.26183 -0.40652,0 -0.56155,0.33762 -0.0792,0.17915 -0.0792,0.43064 v 2.23587 h -0.98874 v -2.23587 q 0,-0.33418 -0.0689,-0.48576 -0.12402,-0.27216 -0.48576,-0.27216 -0.4203,0 -0.565,0.27216 -0.0792,0.15503 -0.0792,0.46164 v 2.25999 h -0.99564 v -3.74827 h 0.9543 v 0.54777 q 0.18259,-0.29283 0.34451,-0.41686 0.28594,-0.22048 0.74069,-0.22048 0.43064,0 0.69591,0.18948 0.2136,0.1757 0.32384,0.4513 0.19293,-0.33072 0.47887,-0.48575 0.30317,-0.15503 0.67524,-0.15503 z m 4.07481,0 q 0.74069,0 1.15755,0.53399 0.4203,0.53399 0.4203,1.37804 0,0.87505 -0.41341,1.45038 -0.41341,0.57533 -1.15411,0.57533 -0.46509,0 -0.74759,-0.18603 -0.1688,-0.11025 -0.36518,-0.38585 v 0.47198 h -0.96118 v -5.07119 h 0.97841 v 1.80523 q 0.18604,-0.26182 0.40997,-0.39963 0.26527,-0.17225 0.67524,-0.17225 z m -0.2515,3.12815 q 0.37896,0 0.58912,-0.30662 0.21015,-0.30661 0.21015,-0.80615 0,-0.39963 -0.10336,-0.66146 -0.19637,-0.49609 -0.72347,-0.49609 -0.53399,0 -0.7338,0.48575 -0.10336,0.25839 -0.10336,0.66835 0,0.48232 0.2136,0.79927 0.2136,0.31695 0.65112,0.31695 z m 3.50981,-3.49333 h -0.99563 v -0.90606 h 0.99563 z m -0.99563,0.44786 h 0.99563 v 3.75516 h -0.99563 z m 3.99557,-0.0896 q 0.58222,0 0.95085,0.30661 0.37207,0.30317 0.37207,1.00941 v 2.52871 h -1.00597 v -2.2841 q 0,-0.29628 -0.0792,-0.45476 -0.14469,-0.28939 -0.55121,-0.28939 -0.49954,0 -0.68558,0.42375 -0.0965,0.22393 -0.0965,0.57189 v 2.03261 h -0.97841 v -3.74827 h 0.9474 v 0.54777 q 0.18948,-0.28939 0.35829,-0.41686 0.30317,-0.22737 0.76826,-0.22737 z m -0.36173,-0.0103 z m 3.56837,-0.34795 h -0.99563 v -0.90606 h 0.99563 z m -0.99563,0.44786 h 0.99563 v 3.75516 h -0.99563 z m 3.99557,-0.0896 q 0.58222,0 0.95084,0.30661 0.37208,0.30317 0.37208,1.00941 v 2.52871 h -1.00597 v -2.2841 q 0,-0.29628 -0.0792,-0.45476 -0.14469,-0.28939 -0.55122,-0.28939 -0.49954,0 -0.68557,0.42375 -0.0965,0.22393 -0.0965,0.57189 v 2.03261 h -0.97841 v -3.74827 h 0.9474 v 0.54777 q 0.18948,-0.28939 0.35829,-0.41686 0.30317,-0.22737 0.76826,-0.22737 z m -0.36174,-0.0103 z m 4.17127,3.04891 q 0.34451,0 0.58222,-0.25838 0.23771,-0.26183 0.23771,-0.83027 0,-0.53399 -0.22737,-0.81304 -0.22393,-0.27905 -0.60289,-0.27905 -0.51677,0 -0.71314,0.48575 -0.10335,0.25839 -0.10335,0.63735 0,0.32728 0.11024,0.58222 0.19982,0.47542 0.71658,0.47542 z m -0.2446,-3.03857 q 0.2825,0 0.49265,0.0861 0.35829,0.14814 0.57877,0.54433 v -0.54088 h 0.9543 v 3.56223 q 0,0.72692 -0.24461,1.09554 -0.4203,0.6339 -1.6123,0.6339 -0.72003,0 -1.17478,-0.2825 -0.45475,-0.2825 -0.50298,-0.84405 h 1.06798 q 0.0413,0.17226 0.13436,0.24805 0.15847,0.13436 0.53399,0.13436 0.53054,0 0.70969,-0.35485 0.11713,-0.22737 0.11713,-0.76481 v -0.24116 q -0.14125,0.24116 -0.30317,0.36174 -0.29283,0.22393 -0.76137,0.22393 -0.72347,0 -1.15755,-0.50643 -0.43064,-0.50987 -0.43064,-1.37804 0,-0.83716 0.41686,-1.4056 0.41686,-0.57188 1.18167,-0.57188 z m 0.3135,-0.0103 z m 5.28225,2.65617 q 0.031,0.26183 0.13436,0.37207 0.18259,0.19637 0.67524,0.19637 0.28939,0 0.4582,-0.0861 0.17225,-0.0861 0.17225,-0.25839 0,-0.16536 -0.1378,-0.25149 -0.13781,-0.0861 -1.0232,-0.29628 -0.63734,-0.15847 -0.89917,-0.39618 -0.26183,-0.23427 -0.26183,-0.67524 0,-0.52021 0.40653,-0.89228 0.40996,-0.37552 1.15066,-0.37552 0.7028,0 1.14377,0.2825 0.44442,0.27905 0.50988,0.96807 h -0.98186 q -0.0207,-0.18948 -0.10679,-0.29972 -0.16192,-0.19982 -0.55122,-0.19982 -0.32039,0 -0.4582,0.0999 -0.13436,0.0999 -0.13436,0.23427 0,0.16881 0.1447,0.2446 0.14469,0.0792 1.02319,0.27216 0.58567,0.13781 0.8785,0.41686 0.28939,0.2825 0.28939,0.70624 0,0.55811 -0.41686,0.91295 -0.41341,0.3514 -1.28157,0.3514 -0.88539,0 -1.30914,-0.37207 -0.4203,-0.37551 -0.4203,-0.95429 z m 0.75103,-2.65617 z m 2.52796,4.57509 0.12402,0.007 q 0.1447,0.007 0.27561,-0.0103 0.13091,-0.0172 0.22049,-0.0792 0.0861,-0.0586 0.15847,-0.2446 0.0758,-0.18604 0.062,-0.22738 l -1.37804,-3.92052 h 1.0921 l 0.81993,2.76986 0.77515,-2.76986 h 1.04386 l -1.28846,3.69314 q -0.37207,1.06798 -0.58911,1.32292 -0.21705,0.25838 -0.86817,0.25838 -0.13091,0 -0.21015,-0.003 -0.0792,0 -0.23771,-0.0103 z m 1.32981,-4.57509 z m 3.17563,2.65617 q 0.031,0.26183 0.13436,0.37207 0.18259,0.19637 0.67524,0.19637 0.28939,0 0.4582,-0.0861 0.17225,-0.0861 0.17225,-0.25839 0,-0.16536 -0.1378,-0.25149 -0.13781,-0.0861 -1.0232,-0.29628 -0.63734,-0.15847 -0.89917,-0.39618 -0.26182,-0.23427 -0.26182,-0.67524 0,-0.52021 0.40652,-0.89228 0.40996,-0.37552 1.15066,-0.37552 0.7028,0 1.14377,0.2825 0.44442,0.27905 0.50988,0.96807 h -0.98186 q -0.0207,-0.18948 -0.10679,-0.29972 -0.16192,-0.19982 -0.55122,-0.19982 -0.32039,0 -0.4582,0.0999 -0.13436,0.0999 -0.13436,0.23427 0,0.16881 0.1447,0.2446 0.14469,0.0792 1.02319,0.27216 0.58567,0.13781 0.8785,0.41686 0.28939,0.2825 0.28939,0.70624 0,0.55811 -0.41686,0.91295 -0.41341,0.3514 -1.28157,0.3514 -0.88539,0 -1.30914,-0.37207 -0.4203,-0.37551 -0.4203,-0.95429 z m 0.75103,-2.65617 z m 1.99052,0.83371 v -0.69935 h 0.52366 v -1.04731 h 0.97152 v 1.04731 h 0.60978 v 0.69935 h -0.60978 v 1.98438 q 0,0.23082 0.0586,0.28939 0.0586,0.0551 0.35829,0.0551 0.0448,0 0.093,0 0.0517,-0.003 0.0999,-0.007 v 0.73381 l -0.46509,0.0172 q -0.69591,0.0241 -0.95085,-0.24115 -0.16536,-0.16881 -0.16536,-0.52021 v -2.31167 z m 4.18505,-0.0241 q -0.34106,0 -0.53054,0.2136 -0.18604,0.21359 -0.23427,0.57877 h 1.52618 q -0.0241,-0.38929 -0.23771,-0.58911 -0.21015,-0.20326 -0.52366,-0.20326 z m 0,-0.8096 q 0.46854,0 0.84405,0.1757 0.37552,0.1757 0.62012,0.55466 0.22049,0.33418 0.28594,0.77515 0.0379,0.25838 0.031,0.74414 h -2.57004 q 0.0207,0.565 0.35484,0.79237 0.20326,0.14125 0.48921,0.14125 0.30316,0 0.49264,-0.17225 0.10336,-0.093 0.18259,-0.25839 h 1.00253 q -0.0379,0.33418 -0.34796,0.67869 -0.48231,0.54777 -1.35048,0.54777 -0.71658,0 -1.26435,-0.46164 -0.54777,-0.46165 -0.54777,-1.50207 0,-0.97496 0.49265,-1.49517 0.4961,-0.52021 1.28502,-0.52021 z m 0.0689,0 z m 6.53805,0.0172 q 0.24804,0 0.4892,0.0965 0.24116,0.0965 0.43753,0.33762 0.15847,0.19637 0.21359,0.48231 0.0344,0.18948 0.0344,0.55466 l -0.007,2.36679 h -1.00596 v -2.3909 q 0,-0.2136 -0.0689,-0.3514 -0.13091,-0.26183 -0.48231,-0.26183 -0.40652,0 -0.56155,0.33762 -0.0792,0.17915 -0.0792,0.43064 v 2.23587 h -0.98874 v -2.23587 q 0,-0.33418 -0.0689,-0.48576 -0.12403,-0.27216 -0.48576,-0.27216 -0.4203,0 -0.565,0.27216 -0.0792,0.15503 -0.0792,0.46164 v 2.25999 h -0.99564 v -3.74827 h 0.95429 v 0.54777 q 0.18259,-0.29283 0.34451,-0.41686 0.28595,-0.22048 0.7407,-0.22048 0.43064,0 0.69591,0.18948 0.2136,0.1757 0.32384,0.4513 0.19292,-0.33072 0.47887,-0.48575 0.30317,-0.15503 0.67524,-0.15503 z m 2.81045,2.63894 q 0.031,0.26183 0.13436,0.37207 0.18259,0.19637 0.67524,0.19637 0.28939,0 0.4582,-0.0861 0.17226,-0.0861 0.17226,-0.25839 0,-0.16536 -0.13781,-0.25149 -0.1378,-0.0861 -1.02319,-0.29628 -0.63735,-0.15847 -0.89917,-0.39618 -0.26183,-0.23427 -0.26183,-0.67524 0,-0.52021 0.40652,-0.89228 0.40997,-0.37552 1.15066,-0.37552 0.7028,0 1.14378,0.2825 0.44441,0.27905 0.50987,0.96807 h -0.98185 q -0.0207,-0.18948 -0.1068,-0.29972 -0.16192,-0.19982 -0.55122,-0.19982 -0.32039,0 -0.45819,0.0999 -0.13436,0.0999 -0.13436,0.23427 0,0.16881 0.14469,0.2446 0.1447,0.0792 1.0232,0.27216 0.58566,0.13781 0.8785,0.41686 0.28938,0.2825 0.28938,0.70624 0,0.55811 -0.41685,0.91295 -0.41341,0.3514 -1.28158,0.3514 -0.88539,0 -1.30914,-0.37207 -0.4203,-0.37551 -0.4203,-0.95429 z m 0.75104,-2.65617 z"
         id="text40"
         aria-label="Combining systems" />
    </g>
    <text
       xml:space="preserve"
       transform="scale(0.26458333)"
       id="text47"
       style="font-style:normal;font-variant:normal;font-weight:bold;font-stretch:normal;font-size:26.6667px;font-family:Sans;-inkscape-font-specification:'Sans, Bold';font-variant-ligatures:normal;font-variant-caps:normal;font-variant-numeric:normal;font-variant-east-asian:normal;text-align:center;letter-spacing:-0.12px;word-spacing:-0.03px;white-space:pre;shape-inside:url(#rect47);fill:#000000;stroke:none;stroke-width:3.77953;stroke-dasharray:none;stroke-dashoffset:0" />
  </g>
</svg>
