<?xml version="1.0" encoding="UTF-8" standalone="no"?>
<!-- Created with Inkscape (http://www.inkscape.org/) -->

<svg
   width="146.647mm"
   height="67.750999mm"
   viewBox="0 0 146.647 67.751"
   version="1.1"
   id="svg1"
   xml:space="preserve"
   inkscape:version="1.3.2 (091e20e, 2023-11-25, custom)"
   sodipodi:docname="pressure_definition.svg"
   xmlns:inkscape="http://www.inkscape.org/namespaces/inkscape"
   xmlns:sodipodi="http://sodipodi.sourceforge.net/DTD/sodipodi-0.dtd"
   xmlns="http://www.w3.org/2000/svg"
   xmlns:svg="http://www.w3.org/2000/svg"><sodipodi:namedview
     id="namedview1"
     pagecolor="#ffffff"
     bordercolor="#000000"
     borderopacity="0.25"
     inkscape:showpageshadow="2"
     inkscape:pageopacity="0.0"
     inkscape:pagecheckerboard="0"
     inkscape:deskcolor="#d1d1d1"
     inkscape:document-units="mm"
     inkscape:zoom="0.70710678"
     inkscape:cx="366.28131"
     inkscape:cy="177.4838"
     inkscape:window-width="1920"
     inkscape:window-height="1009"
     inkscape:window-x="-8"
     inkscape:window-y="-8"
     inkscape:window-maximized="1"
     inkscape:current-layer="layer1" /><defs
     id="defs1"><rect
       x="-23.334524"
       y="89.095451"
       width="92.617332"
       height="40.265575"
       id="rect3" /></defs><g
     inkscape:label="Capa 1"
     inkscape:groupmode="layer"
     id="layer1"
     transform="translate(-8.7868741,-80.769114)"><g
       id="g1"><g
         id="path19"
         transform="scale(0.26458333)"><path
           style="color:#000000;fill:#8080ff;-inkscape-stroke:none"
           d="m 276.47875,423.55696 v -97.58073 h 146.37111 146.3711 v 97.58073 97.58074 H 422.84986 276.47875 Z"
           id="path2" /><path
           style="color:#000000;fill:#8080ff;-inkscape-stroke:none"
           d="M 273.80664,323.30273 V 423.55664 523.81055 H 422.84961 571.89258 V 423.55664 323.30273 H 422.84961 Z m 5.34375,5.34571 h 143.69922 143.69922 v 94.9082 94.9082 H 422.84961 279.15039 v -94.9082 z"
           id="path12" /></g><g
         id="path6"
         transform="scale(0.26458333)"><path
           style="color:#000000;fill:#999999;-inkscape-stroke:none"
           d="m 190.02735,538.15504 -9.38234,-0.16808 v -5.58785 -5.58785 H 376.97393 573.30284 V 424.02565 321.24004 H 376.97393 180.64501 v -5.88147 -5.88146 h 201.37017 201.37018 l -10e-4,103.20571 c -8e-4,56.76315 -0.16685,108.30999 -0.36897,114.54854 l -0.36751,11.34283 -191.61885,-0.12554 c -105.39038,-0.0691 -195.84092,-0.20117 -201.0012,-0.29361 z"
           id="path13" /><path
           style="color:#000000;fill:#999999;-inkscape-stroke:none"
           d="m 179.58594,308.41797 v 6.9414 6.93946 H 376.97461 572.24414 V 424.02539 525.75195 H 376.97461 179.58594 v 6.64649 6.6289 l 10.42383,0.18555 c 2.68184,0.048 26.49979,0.10304 62.93164,0.15625 36.43184,0.0532 85.39251,0.10412 138.08789,0.13867 l 192.64257,0.125 0.40235,-12.36719 c 0.20762,-6.4084 0.36834,-57.81688 0.36914,-114.58203 V 308.41797 H 382.01562 Z m 2.11718,2.11719 h 200.3125 200.31055 v 102.14843 c -8e-4,56.76104 -0.17252,108.44499 -0.36914,114.51368 l -0.33398,10.31835 -190.59375,-0.125 c -52.6949,-0.0345 -101.65492,-0.0855 -138.08594,-0.13867 -36.43102,-0.0532 -60.41806,-0.1099 -62.89649,-0.15429 l -8.34375,-0.15039 v -4.54883 -4.5293 H 376.97461 574.36133 V 424.02539 320.18164 H 376.97461 181.70312 v -4.82227 z"
           id="path15" /></g><path
         style="color:#000000;fill:#000000;-inkscape-stroke:none"
         d="m 47.160156,85.013672 v 1 H 150.61719 V 138.25 H 47.160156 v 1 H 151.61719 V 85.013672 Z"
         id="path3" /><g
         id="rect1"><path
           style="color:#000000;fill:#999999;-inkscape-stroke:none"
           d="M 64.093498,85.513344 H 72.47716 V 138.74959 H 64.093498 Z"
           id="path16" /><path
           style="color:#000000;fill:#000000;-inkscape-stroke:none"
           d="M 63.59375,85.013672 V 139.25 h 9.382812 V 85.013672 Z m 1,1 h 7.382812 V 138.25 H 64.59375 Z"
           id="path17" /></g><g
         id="rect2"><path
           style="color:#000000;fill:#999999;-inkscape-stroke:none"
           d="m 48.675343,108.50048 h 15.418152 v 7.26198 H 48.675343 Z"
           id="path18" /><path
           style="color:#000000;fill:#000000;-inkscape-stroke:none"
           d="m 48.175781,108 v 8.26172 H 64.59375 V 108 Z m 1,1 H 63.59375 v 6.26172 H 49.175781 Z"
           id="path20" /></g><path
         style="color:#000000;fill:#000000;-inkscape-stroke:none"
         d="m 46.685547,80.771484 v 5.240235 h 1 v -5.240235 z"
         id="path4" /><path
         style="color:#000000;fill:#000000;-inkscape-stroke:none"
         d="m 46.660156,138.25 v 5.24023 h 1 V 138.25 Z"
         id="path4-4" /><path
         style="color:#000000;fill:#000000;-inkscape-stroke:none"
         d="m 47.1875,80.769531 -0.002,1 107.248043,0.03516 -0.0859,60.714843 -107.187504,-0.0273 v 1 l 108.187504,0.0273 0.0859,-62.714843 z"
         id="path5" /><g
         id="path7"><path
           style="color:#000000;fill:#999999;-inkscape-stroke:none"
           d="M 41.796174,112.13147 H 31.322878"
           id="path23" /><path
           style="color:#000000;fill:#000000;-inkscape-stroke:none"
           d="m 31.322266,111.63086 v 1 h 10.474609 v -1 z"
           id="path24" /><g
           id="g22"><path
             d="m 40.396174,109.33147 7.7,2.8 -7.7,2.8 c 1.4,-1.631 1.4,-3.962 0,-5.6 z"
             style="color:#000000;fill:#000000;fill-rule:evenodd;-inkscape-stroke:none"
             id="path22" /></g></g><g
         id="path7-0"><path
           style="color:#000000;fill:#999999;-inkscape-stroke:none"
           d="M 78.936324,92.542759 V 132.03901"
           id="path27" /><path
           style="color:#000000;fill:#000000;-inkscape-stroke:none"
           d="m 78.435547,92.542969 v 39.496091 h 1 V 92.542969 Z"
           id="path28" /><g
           id="g25"><path
             d="m 81.736324,130.63901 -2.8,7.7 -2.8,-7.7 c 1.631,1.4 3.962,1.4 5.6,0 z"
             style="color:#000000;fill:#000000;fill-rule:evenodd;-inkscape-stroke:none"
             id="path26" /><path
             d="m 76.136324,93.942759 2.8,-7.7 2.8,7.7 c -1.631,-1.4 -3.962,-1.4 -5.6,0 z"
             style="color:#000000;fill:#000000;fill-rule:evenodd;-inkscape-stroke:none"
             id="path25" /></g></g><path
         style="color:#000000;fill:#000000;stroke-dasharray:0.5, 1.5;-inkscape-stroke:none"
         d="m 89.347656,96.892578 v 0.5 h 0.5 v -0.5 z m 2,0 v 0.5 h 0.5 v -0.5 z m 2,0 v 0.5 h 0.5 v -0.5 z m -5.277344,0.845703 -0.205078,0.455078 0.455078,0.207032 0.207032,-0.455079 z m -0.824218,1.822266 -0.207032,0.455083 0.455079,0.20703 0.207031,-0.455082 z m -0.826172,1.820313 -0.207031,0.45703 0.457031,0.20508 0.205078,-0.45508 z m -0.826172,1.82227 -0.205078,0.45507 0.455078,0.20703 0.205078,-0.45507 z m -0.824219,1.82226 -0.207031,0.45508 0.455078,0.20703 0.207031,-0.45508 z m -0.826172,1.82227 -0.207031,0.45507 0.455078,0.20508 0.207031,-0.45508 z m -0.826172,1.82031 -0.207031,0.45508 0.457031,0.20703 0.205079,-0.45508 z m -0.826171,1.82226 -0.205079,0.45508 0.455079,0.20703 0.207031,-0.45507 z m -0.824219,1.82227 -0.207031,0.45508 0.455078,0.20508 0.207031,-0.45508 z m -0.826172,1.82031 -0.207031,0.45508 0.455078,0.20703 0.207031,-0.45508 z m -0.826172,1.82227 -0.207031,0.45508 0.457031,0.20703 0.205078,-0.45508 z m -0.826172,1.82226 -0.205078,0.45508 0.455078,0.20508 0.207031,-0.45508 z"
         id="path10" /><path
         d="m 97.877627,95.577049 v 3.314184 h 0.978408 q 0.751031,0 1.04731,-0.740696 0.161915,-0.406521 0.161915,-0.968072 0,-0.775147 -0.244598,-1.188559 -0.241156,-0.416857 -0.964627,-0.416857 z m 1.157553,-0.881945 q 0.471978,0.0069 0.785482,0.110243 0.533988,0.1757 0.864718,0.644233 0.26527,0.378961 0.36174,0.819934 0.0965,0.440972 0.0965,0.840604 0,1.012858 -0.40652,1.715658 -0.55122,0.947402 -1.70188,0.947402 h -2.187637 v -5.078074 z"
         id="text10"
         style="-inkscape-font-specification:'Helvetica, Bold';stroke-width:0.25;stroke-dasharray:0.25, 0.750001"
         aria-label="D" /><g
         id="g11"
         transform="translate(-48.154175,30.175615)"><g
           id="path7-0-6"><path
             style="color:#000000;fill:#999999;-inkscape-stroke:none"
             d="M 161.71896,67.058542 H 161.3114"
             id="path31" /><path
             style="color:#000000;fill:#000000;-inkscape-stroke:none"
             d="m 161.31055,66.558594 v 1 h 0.4082 v -1 z"
             id="path32" /><g
             id="g30"><path
               d="m 160.31896,64.258542 7.7,2.8 -7.7,2.8 c 1.4,-1.631 1.4,-3.962 0,-5.6 z"
               style="color:#000000;fill:#000000;fill-rule:evenodd;-inkscape-stroke:none"
               id="path30" /></g></g><g
           id="path11"><path
             style="color:#000000;fill:#000000;-inkscape-stroke:none"
             d="m 161.51647,66.335719 h -9.86334"
             id="path33" /><path
             style="color:#000000;fill:#000000;-inkscape-stroke:none"
             d="m 151.65234,65.960937 v 0.75 h 9.86328 v -0.75 z"
             id="path34" /></g><g
           id="path11-7"><path
             style="color:#000000;fill:#000000;-inkscape-stroke:none"
             d="m 161.51647,67.72215 h -9.86334"
             id="path35" /><path
             style="color:#000000;fill:#000000;-inkscape-stroke:none"
             d="m 151.65234,67.347656 v 0.75 h 9.86328 v -0.75 z"
             id="path36" /></g></g><path
         d="m 114.66808,112.8422 h 3.60013 v 0.89228 h -2.54593 v 1.16789 h 2.22898 v 0.88194 h -2.22898 v 2.12907 h -1.0542 z"
         id="text1"
         style="-inkscape-font-specification:'Helvetica, Bold'"
         aria-label="F⟂" /><g
         id="path14"><path
           style="color:#000000;fill:#000000;-inkscape-stroke:none"
           d="m 110.86071,120.55462 h 14.56661"
           id="path37" /><path
           style="color:#000000;fill:#000000;-inkscape-stroke:none"
           d="m 110.86133,120.30469 v 0.5 h 14.5664 v -0.5 z"
           id="path38" /></g><path
         style="-inkscape-font-specification:'Helvetica, Bold';stroke-width:0.5"
         d="m 117.48597,125.65699 h 1.28847 l -0.6339,-1.99815 z m 0.0655,-3.15915 h 1.19889 l 1.79834,5.07807 H 119.398 l -0.32728,-1.04386 h -1.87069 l -0.3514,1.04386 h -1.10932 z m 0.59255,0 z"
         id="text14"
         aria-label="A" /><path
         style="-inkscape-font-specification:'Helvetica, Bold';stroke-width:0.5"
         d="m 100.03821,120.5804 q 0,-0.43408 -0.199811,-0.76826 -0.196371,-0.33417 -0.640788,-0.33417 -0.53399,0 -0.733806,0.50643 -0.103353,0.26871 -0.103353,0.68213 0,0.65457 0.347955,0.91984 0.206706,0.15503 0.489204,0.15503 0.409967,0 0.623563,-0.31695 0.217036,-0.31695 0.217036,-0.84405 z m -0.558101,-1.96026 q 0.658011,0 1.112771,0.48576 0.45819,0.48576 0.45819,1.42627 0,0.99219 -0.44786,1.5124 -0.44442,0.52021 -1.147217,0.52021 -0.447862,0 -0.744141,-0.22394 -0.161919,-0.12402 -0.316949,-0.36173 v 1.95681 h -0.971517 v -5.2331 h 0.940511 v 0.55466 q 0.158475,-0.2446 0.33762,-0.38585 0.327284,-0.25149 0.778592,-0.25149 z m 7.693811,0.71313 v 0.90606 h -3.73104 v -0.90606 z m 0,1.60886 v 0.90607 h -3.73104 v -0.90607 z"
         id="text15"
         aria-label="p = " /><path
         style="-inkscape-font-specification:'Helvetica, Bold';stroke-width:0.5"
         d="m 123.15411,97.716647 h 1.28846 l -0.63389,-1.998156 z m 0.0654,-3.159154 h 1.1989 l 1.79834,5.078074 h -1.15066 l -0.32729,-1.043865 h -1.87069 l -0.3514,1.043865 h -1.10932 z m 0.59256,0 z m 8.12445,1.95337 v 0.906061 h -3.73104 v -0.906061 z m 0,1.608861 v 0.90606 h -3.73104 v -0.90606 z"
         id="text16"
         aria-label="A = " /><g
         id="path14-4"><path
           style="color:#000000;fill:#000000;-inkscape-stroke:none"
           d="m 133.37037,97.708905 h 14.56661"
           id="path39" /><path
           style="color:#000000;fill:#000000;-inkscape-stroke:none"
           d="m 133.37109,97.458984 v 0.5 h 14.56641 v -0.5 z"
           id="path40" /></g><path
         style="-inkscape-font-specification:'Helvetica, Bold';stroke-width:0.5"
         d="m 142.40557,103.49508 h -0.56499 v 1.07487 h -0.96119 v -1.07487 h -1.97748 v -0.85783 l 1.83624,-3.03169 h 1.10243 v 3.12126 h 0.56499 z m -1.52618,-0.76826 v -2.15663 l -1.25057,2.15663 z"
         id="text17"
         aria-label="4" /><g
         id="text10-1"
         style="font-weight:bold;font-size:7.05556px;font-family:Helvetica;-inkscape-font-specification:'Helvetica, Bold';text-align:center;letter-spacing:-0.03175px;word-spacing:-0.0079375px;text-anchor:middle;stroke-width:0.25;stroke-dasharray:0.25, 0.750001"
         aria-label="ΠD2"><path
           d="m 134.6857,91.37771 h 3.97909 v 4.981612 h -1.07487 v -4.078996 h -1.8328 v 4.078996 h -1.07142 z m 6.07296,0.785483 v 3.314184 h 0.97841 q 0.75103,0 1.04731,-0.740696 0.16192,-0.406522 0.16192,-0.968073 0,-0.775147 -0.2446,-1.188559 -0.24116,-0.416856 -0.96463,-0.416856 z m 1.15755,-0.881945 q 0.47198,0.0069 0.78549,0.110243 0.53399,0.1757 0.86472,0.644233 0.26527,0.378961 0.36173,0.819933 0.0965,0.440973 0.0965,0.840604 0,1.012859 -0.40652,1.715659 -0.55121,0.947402 -1.70188,0.947402 h -2.18763 v -5.078074 z"
           id="path41" /><path
           d="m 144.39801,93.537097 q 0.009,-0.349332 0.15003,-0.638204 0.1366,-0.3247 0.64492,-0.687469 0.44115,-0.315743 0.57103,-0.452341 0.1993,-0.212735 0.1993,-0.465778 0,-0.206016 -0.11421,-0.342615 -0.1142,-0.136598 -0.32694,-0.136598 -0.29111,0 -0.39636,0.217214 -0.0605,0.125401 -0.0717,0.398598 h -0.62029 q 0.0157,-0.414273 0.15003,-0.669555 0.25528,-0.485931 0.90692,-0.485931 0.51504,0 0.81959,0.286632 0.30455,0.284393 0.30455,0.754649 0,0.360529 -0.21498,0.640443 -0.14107,0.185863 -0.46353,0.414273 l -0.25529,0.181385 q -0.2396,0.170187 -0.32918,0.246324 -0.0873,0.07614 -0.14779,0.176906 h 1.41749 v 0.562067 z"
           id="path42" /></g><path
         d="m 11.547612,108.81427 h 3.600127 v 0.89228 h -2.545927 v 1.16789 h 2.228978 v 0.88194 h -2.228978 v 2.12907 h -1.0542 z m 9.643738,1.94648 v 0.90606 h -3.731041 v -0.90606 z m 0,1.60886 v 0.90606 h -3.731041 v -0.90606 z m 2.564063,-3.55534 h 3.600127 v 0.89228 h -2.545927 v 1.16789 h 2.228978 v 0.88194 h -2.228978 v 2.12907 h -1.0542 z"
         id="text1-1"
         style="-inkscape-font-specification:'Helvetica, Bold'"
         aria-label="F = F⟂" /></g><text
       xml:space="preserve"
       transform="matrix(0.26458333,0,0,0.26458333,8.7868741,80.769114)"
       id="text2"
       style="font-weight:bold;font-size:26.6667px;font-family:Helvetica;-inkscape-font-specification:'Helvetica, Bold';text-align:center;letter-spacing:-0.12px;word-spacing:-0.03px;white-space:pre;shape-inside:url(#rect3);fill:#000000;stroke-width:3.77953" /></g></svg>
