<?xml version="1.0" encoding="utf-8" standalone="no"?>
<!DOCTYPE svg PUBLIC "-//W3C//DTD SVG 1.1//EN"
  "http://www.w3.org/Graphics/SVG/1.1/DTD/svg11.dtd">
<svg xmlns:xlink="http://www.w3.org/1999/xlink" width="576pt" height="432pt" viewBox="0 0 576 432" xmlns="http://www.w3.org/2000/svg" version="1.1">
 <metadata>
  <rdf:RDF xmlns:dc="http://purl.org/dc/elements/1.1/" xmlns:cc="http://creativecommons.org/ns#" xmlns:rdf="http://www.w3.org/1999/02/22-rdf-syntax-ns#">
   <cc:Work>
    <dc:type rdf:resource="http://purl.org/dc/dcmitype/StillImage"/>
    <dc:date>2025-10-29T08:21:10.813873</dc:date>
    <dc:format>image/svg+xml</dc:format>
    <dc:creator>
     <cc:Agent>
      <dc:title>Matplotlib v3.9.2, https://matplotlib.org/</dc:title>
     </cc:Agent>
    </dc:creator>
   </cc:Work>
  </rdf:RDF>
 </metadata>
 <defs>
  <style type="text/css">*{stroke-linejoin: round; stroke-linecap: butt}</style>
 </defs>
 <g id="figure_1">
  <g id="patch_1">
   <path d="M 0 432 
L 576 432 
L 576 0 
L 0 0 
z
" style="fill: #ffffff"/>
  </g>
  <g id="axes_1">
   <g id="patch_2">
    <path d="M 72 384.48 
L 518.4 384.48 
L 518.4 51.84 
L 72 51.84 
L 72 384.48 
z
" style="fill: none"/>
   </g>
   <g id="PolyCollection_1">
    <path d="M 92.290909 66.96 
L 92.290909 66.96 
L 96.390083 66.96 
L 100.489256 66.96 
L 104.58843 66.96 
L 108.687603 66.96 
L 112.786777 66.96 
L 116.88595 66.96 
L 120.985124 66.96 
L 125.084298 66.96 
L 129.183471 66.96 
L 133.282645 66.96 
L 137.381818 66.96 
L 141.480992 66.96 
L 145.580165 66.96 
L 149.679339 66.96 
L 153.778512 66.96 
L 157.877686 66.96 
L 161.97686 66.96 
L 166.076033 66.96 
L 170.175207 66.96 
L 174.27438 66.96 
L 178.373554 66.96 
L 182.472727 66.96 
L 186.571901 66.96 
L 190.671074 66.96 
L 194.770248 66.96 
L 198.869421 66.96 
L 202.968595 66.96 
L 207.067769 66.96 
L 211.166942 66.96 
L 215.266116 66.96 
L 219.365289 66.96 
L 223.464463 66.96 
L 227.563636 66.96 
L 231.66281 66.96 
L 235.761983 66.96 
L 239.861157 66.96 
L 243.960331 66.96 
L 248.059504 66.96 
L 252.158678 66.96 
L 256.257851 66.96 
L 260.357025 66.96 
L 264.456198 66.96 
L 268.555372 66.96 
L 272.654545 66.96 
L 276.753719 66.96 
L 280.852893 66.96 
L 284.952066 66.96 
L 289.05124 66.96 
L 293.150413 66.96 
L 297.249587 66.96 
L 301.34876 66.96 
L 305.447934 66.96 
L 309.547107 66.96 
L 313.646281 66.96 
L 317.745455 66.96 
L 321.844628 66.96 
L 325.943802 66.96 
L 330.042975 66.96 
L 334.142149 66.96 
L 338.241322 66.96 
L 342.340496 66.96 
L 346.439669 66.96 
L 350.538843 66.96 
L 354.638017 66.96 
L 358.73719 66.96 
L 362.836364 66.96 
L 366.935537 66.96 
L 371.034711 66.96 
L 375.133884 66.96 
L 379.233058 66.96 
L 383.332231 66.96 
L 387.431405 66.96 
L 391.530579 66.96 
L 395.629752 66.96 
L 399.728926 66.96 
L 403.828099 66.96 
L 407.927273 66.96 
L 412.026446 66.96 
L 416.12562 66.96 
L 420.224793 66.96 
L 424.323967 66.96 
L 428.42314 66.96 
L 432.522314 66.96 
L 436.621488 66.96 
L 440.720661 66.96 
L 444.819835 66.96 
L 448.919008 66.96 
L 453.018182 66.96 
L 457.117355 66.96 
L 461.216529 66.96 
L 465.315702 66.96 
L 469.414876 66.96 
L 473.51405 66.96 
L 477.613223 66.96 
L 481.712397 66.96 
L 485.81157 66.96 
L 489.910744 66.96 
L 494.009917 66.96 
L 498.109091 66.96 
L 498.109091 218.16 
L 498.109091 218.16 
L 494.009917 217.392487 
L 489.910744 216.617143 
L 485.81157 215.833846 
L 481.712397 215.042474 
L 477.613223 214.242902 
L 473.51405 213.435 
L 469.414876 212.618639 
L 465.315702 211.793684 
L 461.216529 210.96 
L 457.117355 210.117447 
L 453.018182 209.265882 
L 448.919008 208.405161 
L 444.819835 207.535135 
L 440.720661 206.655652 
L 436.621488 205.766557 
L 432.522314 204.867692 
L 428.42314 203.958895 
L 424.323967 203.04 
L 420.224793 202.110838 
L 416.12562 201.171236 
L 412.026446 200.221017 
L 407.927273 199.26 
L 403.828099 198.288 
L 399.728926 197.304828 
L 395.629752 196.310289 
L 391.530579 195.304186 
L 387.431405 194.286316 
L 383.332231 193.256471 
L 379.233058 192.214438 
L 375.133884 191.16 
L 371.034711 190.092934 
L 366.935537 189.013012 
L 362.836364 187.92 
L 358.73719 186.813659 
L 354.638017 185.693742 
L 350.538843 184.56 
L 346.439669 183.412174 
L 342.340496 182.25 
L 338.241322 181.073208 
L 334.142149 179.881519 
L 330.042975 178.67465 
L 325.943802 177.452308 
L 321.844628 176.214194 
L 317.745455 174.96 
L 313.646281 173.689412 
L 309.547107 172.402105 
L 305.447934 171.097748 
L 301.34876 169.776 
L 297.249587 168.43651 
L 293.150413 167.078919 
L 289.05124 165.702857 
L 284.952066 164.307945 
L 280.852893 162.893793 
L 276.753719 161.46 
L 272.654545 160.006154 
L 268.555372 158.531831 
L 264.456198 157.036596 
L 260.357025 155.52 
L 256.257851 153.981583 
L 252.158678 152.42087 
L 248.059504 150.837372 
L 243.960331 149.230588 
L 239.861157 147.6 
L 235.761983 145.945075 
L 231.66281 144.265263 
L 227.563636 142.56 
L 223.464463 140.828702 
L 219.365289 139.070769 
L 215.266116 137.285581 
L 211.166942 135.4725 
L 207.067769 133.630866 
L 202.968595 131.76 
L 198.869421 129.8592 
L 194.770248 127.927742 
L 190.671074 125.964878 
L 186.571901 123.969836 
L 182.472727 121.941818 
L 178.373554 119.88 
L 174.27438 117.783529 
L 170.175207 115.651525 
L 166.076033 113.483077 
L 161.97686 111.277241 
L 157.877686 109.033043 
L 153.778512 106.749474 
L 149.679339 104.425487 
L 145.580165 102.06 
L 141.480992 99.651892 
L 137.381818 97.2 
L 133.282645 94.703119 
L 129.183471 92.16 
L 125.084298 89.569346 
L 120.985124 86.929811 
L 116.88595 84.24 
L 112.786777 81.498462 
L 108.687603 78.703689 
L 104.58843 75.854118 
L 100.489256 72.948119 
L 96.390083 69.984 
L 92.290909 66.96 
z
" clip-path="url(#pa8da0eab5f)" style="fill: #b40426; fill-opacity: 0.6"/>
   </g>
   <g id="PolyCollection_2">
    <path d="M 92.290909 66.96 
L 92.290909 66.96 
L 96.390083 69.984 
L 100.489256 72.948119 
L 104.58843 75.854118 
L 108.687603 78.703689 
L 112.786777 81.498462 
L 116.88595 84.24 
L 120.985124 86.929811 
L 125.084298 89.569346 
L 129.183471 92.16 
L 133.282645 94.703119 
L 137.381818 97.2 
L 141.480992 99.651892 
L 145.580165 102.06 
L 149.679339 104.425487 
L 153.778512 106.749474 
L 157.877686 109.033043 
L 161.97686 111.277241 
L 166.076033 113.483077 
L 170.175207 115.651525 
L 174.27438 117.783529 
L 178.373554 119.88 
L 182.472727 121.941818 
L 186.571901 123.969836 
L 190.671074 125.964878 
L 194.770248 127.927742 
L 198.869421 129.8592 
L 202.968595 131.76 
L 207.067769 133.630866 
L 211.166942 135.4725 
L 215.266116 137.285581 
L 219.365289 139.070769 
L 223.464463 140.828702 
L 227.563636 142.56 
L 231.66281 144.265263 
L 235.761983 145.945075 
L 239.861157 147.6 
L 243.960331 149.230588 
L 248.059504 150.837372 
L 252.158678 152.42087 
L 256.257851 153.981583 
L 260.357025 155.52 
L 264.456198 157.036596 
L 268.555372 158.531831 
L 272.654545 160.006154 
L 276.753719 161.46 
L 280.852893 162.893793 
L 284.952066 164.307945 
L 289.05124 165.702857 
L 293.150413 167.078919 
L 297.249587 168.43651 
L 301.34876 169.776 
L 305.447934 171.097748 
L 309.547107 172.402105 
L 313.646281 173.689412 
L 317.745455 174.96 
L 321.844628 176.214194 
L 325.943802 177.452308 
L 330.042975 178.67465 
L 334.142149 179.881519 
L 338.241322 181.073208 
L 342.340496 182.25 
L 346.439669 183.412174 
L 350.538843 184.56 
L 354.638017 185.693742 
L 358.73719 186.813659 
L 362.836364 187.92 
L 366.935537 189.013012 
L 371.034711 190.092934 
L 375.133884 191.16 
L 379.233058 192.214438 
L 383.332231 193.256471 
L 387.431405 194.286316 
L 391.530579 195.304186 
L 395.629752 196.310289 
L 399.728926 197.304828 
L 403.828099 198.288 
L 407.927273 199.26 
L 412.026446 200.221017 
L 416.12562 201.171236 
L 420.224793 202.110838 
L 424.323967 203.04 
L 428.42314 203.958895 
L 432.522314 204.867692 
L 436.621488 205.766557 
L 440.720661 206.655652 
L 444.819835 207.535135 
L 448.919008 208.405161 
L 453.018182 209.265882 
L 457.117355 210.117447 
L 461.216529 210.96 
L 465.315702 211.793684 
L 469.414876 212.618639 
L 473.51405 213.435 
L 477.613223 214.242902 
L 481.712397 215.042474 
L 485.81157 215.833846 
L 489.910744 216.617143 
L 494.009917 217.392487 
L 498.109091 218.16 
L 498.109091 237.732755 
L 498.109091 237.732755 
L 494.009917 236.930558 
L 489.910744 236.119352 
L 485.81157 235.29899 
L 481.712397 234.46932 
L 477.613223 233.630187 
L 473.51405 232.781435 
L 469.414876 231.922901 
L 465.315702 231.054421 
L 461.216529 230.175826 
L 457.117355 229.286945 
L 453.018182 228.3876 
L 448.919008 227.477613 
L 444.819835 226.556798 
L 440.720661 225.624967 
L 436.621488 224.681928 
L 432.522314 223.727483 
L 428.42314 222.761431 
L 424.323967 221.783565 
L 420.224793 220.793674 
L 416.12562 219.791542 
L 412.026446 218.776946 
L 407.927273 217.749661 
L 403.828099 216.709454 
L 399.728926 215.656088 
L 395.629752 214.589318 
L 391.530579 213.508896 
L 387.431405 212.414565 
L 383.332231 211.306064 
L 379.233058 210.183125 
L 375.133884 209.045471 
L 371.034711 207.892822 
L 366.935537 206.724887 
L 362.836364 205.541371 
L 358.73719 204.341968 
L 354.638017 203.126368 
L 350.538843 201.894248 
L 346.439669 200.645282 
L 342.340496 199.379133 
L 338.241322 198.095453 
L 334.142149 196.793887 
L 330.042975 195.474072 
L 325.943802 194.135632 
L 321.844628 192.778183 
L 317.745455 191.401328 
L 313.646281 190.004663 
L 309.547107 188.58777 
L 305.447934 187.15022 
L 301.34876 185.691572 
L 297.249587 184.211372 
L 293.150413 182.709154 
L 289.05124 181.184439 
L 284.952066 179.636733 
L 280.852893 178.065529 
L 276.753719 176.470303 
L 272.654545 174.850519 
L 268.555372 173.205621 
L 264.456198 171.535041 
L 260.357025 169.838189 
L 256.257851 168.114462 
L 252.158678 166.363235 
L 248.059504 164.583866 
L 243.960331 162.775692 
L 239.861157 160.938029 
L 235.761983 159.070174 
L 231.66281 157.171398 
L 227.563636 155.240952 
L 223.464463 153.278062 
L 219.365289 151.281929 
L 215.266116 149.251726 
L 211.166942 147.186602 
L 207.067769 145.085677 
L 202.968595 142.948039 
L 198.869421 140.772749 
L 194.770248 138.558834 
L 190.671074 136.305289 
L 186.571901 134.011073 
L 182.472727 131.675109 
L 178.373554 129.296284 
L 174.27438 126.873443 
L 170.175207 124.405393 
L 166.076033 121.890896 
L 161.97686 119.328669 
L 157.877686 116.717383 
L 153.778512 114.055659 
L 149.679339 111.342069 
L 145.580165 108.575129 
L 141.480992 105.753299 
L 137.381818 102.874982 
L 133.282645 99.938517 
L 129.183471 96.94218 
L 125.084298 93.884178 
L 120.985124 90.762649 
L 116.88595 87.575655 
L 112.786777 84.321179 
L 108.687603 80.997122 
L 104.58843 77.601301 
L 100.489256 74.131438 
L 96.390083 70.585161 
L 92.290909 66.96 
z
" clip-path="url(#pa8da0eab5f)" style="fill: #f7b89c; fill-opacity: 0.6"/>
   </g>
   <g id="PolyCollection_3">
    <path d="M 92.290909 66.96 
L 92.290909 66.96 
L 96.390083 70.585161 
L 100.489256 74.131438 
L 104.58843 77.601301 
L 108.687603 80.997122 
L 112.786777 84.321179 
L 116.88595 87.575655 
L 120.985124 90.762649 
L 125.084298 93.884178 
L 129.183471 96.94218 
L 133.282645 99.938517 
L 137.381818 102.874982 
L 141.480992 105.753299 
L 145.580165 108.575129 
L 149.679339 111.342069 
L 153.778512 114.055659 
L 157.877686 116.717383 
L 161.97686 119.328669 
L 166.076033 121.890896 
L 170.175207 124.405393 
L 174.27438 126.873443 
L 178.373554 129.296284 
L 182.472727 131.675109 
L 186.571901 134.011073 
L 190.671074 136.305289 
L 194.770248 138.558834 
L 198.869421 140.772749 
L 202.968595 142.948039 
L 207.067769 145.085677 
L 211.166942 147.186602 
L 215.266116 149.251726 
L 219.365289 151.281929 
L 223.464463 153.278062 
L 227.563636 155.240952 
L 231.66281 157.171398 
L 235.761983 159.070174 
L 239.861157 160.938029 
L 243.960331 162.775692 
L 248.059504 164.583866 
L 252.158678 166.363235 
L 256.257851 168.114462 
L 260.357025 169.838189 
L 264.456198 171.535041 
L 268.555372 173.205621 
L 272.654545 174.850519 
L 276.753719 176.470303 
L 280.852893 178.065529 
L 284.952066 179.636733 
L 289.05124 181.184439 
L 293.150413 182.709154 
L 297.249587 184.211372 
L 301.34876 185.691572 
L 305.447934 187.15022 
L 309.547107 188.58777 
L 313.646281 190.004663 
L 317.745455 191.401328 
L 321.844628 192.778183 
L 325.943802 194.135632 
L 330.042975 195.474072 
L 334.142149 196.793887 
L 338.241322 198.095453 
L 342.340496 199.379133 
L 346.439669 200.645282 
L 350.538843 201.894248 
L 354.638017 203.126368 
L 358.73719 204.341968 
L 362.836364 205.541371 
L 366.935537 206.724887 
L 371.034711 207.892822 
L 375.133884 209.045471 
L 379.233058 210.183125 
L 383.332231 211.306064 
L 387.431405 212.414565 
L 391.530579 213.508896 
L 395.629752 214.589318 
L 399.728926 215.656088 
L 403.828099 216.709454 
L 407.927273 217.749661 
L 412.026446 218.776946 
L 416.12562 219.791542 
L 420.224793 220.793674 
L 424.323967 221.783565 
L 428.42314 222.761431 
L 432.522314 223.727483 
L 436.621488 224.681928 
L 440.720661 225.624967 
L 444.819835 226.556798 
L 448.919008 227.477613 
L 453.018182 228.3876 
L 457.117355 229.286945 
L 461.216529 230.175826 
L 465.315702 231.054421 
L 469.414876 231.922901 
L 473.51405 232.781435 
L 477.613223 233.630187 
L 481.712397 234.46932 
L 485.81157 235.29899 
L 489.910744 236.119352 
L 494.009917 236.930558 
L 498.109091 237.732755 
L 498.109091 254.612864 
L 498.109091 254.612864 
L 494.009917 253.797746 
L 489.910744 252.972644 
L 485.81157 252.137386 
L 481.712397 251.291792 
L 477.613223 250.435682 
L 473.51405 249.568867 
L 469.414876 248.691159 
L 465.315702 247.802361 
L 461.216529 246.902275 
L 457.117355 245.990696 
L 453.018182 245.067414 
L 448.919008 244.132217 
L 444.819835 243.184884 
L 440.720661 242.225192 
L 436.621488 241.25291 
L 432.522314 240.267804 
L 428.42314 239.269632 
L 424.323967 238.258148 
L 420.224793 237.233098 
L 416.12562 236.194224 
L 412.026446 235.141258 
L 407.927273 234.073931 
L 403.828099 232.991961 
L 399.728926 231.895062 
L 395.629752 230.782942 
L 391.530579 229.655299 
L 387.431405 228.511824 
L 383.332231 227.352201 
L 379.233058 226.176104 
L 375.133884 224.9832 
L 371.034711 223.773146 
L 366.935537 222.545591 
L 362.836364 221.300174 
L 358.73719 220.036525 
L 354.638017 218.754262 
L 350.538843 217.452996 
L 346.439669 216.132324 
L 342.340496 214.791834 
L 338.241322 213.431102 
L 334.142149 212.049692 
L 330.042975 210.647156 
L 325.943802 209.223032 
L 321.844628 207.776848 
L 317.745455 206.308116 
L 313.646281 204.816334 
L 309.547107 203.300987 
L 305.447934 201.761543 
L 301.34876 200.197456 
L 297.249587 198.608163 
L 293.150413 196.993084 
L 289.05124 195.351624 
L 284.952066 193.683166 
L 280.852893 191.987078 
L 276.753719 190.262706 
L 272.654545 188.509377 
L 268.555372 186.726398 
L 264.456198 184.913054 
L 260.357025 183.068605 
L 256.257851 181.192291 
L 252.158678 179.283325 
L 248.059504 177.340897 
L 243.960331 175.36417 
L 239.861157 173.352278 
L 235.761983 171.30433 
L 231.66281 169.219401 
L 227.563636 167.09654 
L 223.464463 164.934759 
L 219.365289 162.733042 
L 215.266116 160.490333 
L 211.166942 158.205544 
L 207.067769 155.877546 
L 202.968595 153.505172 
L 198.869421 151.087215 
L 194.770248 148.622422 
L 190.671074 146.109499 
L 186.571901 143.547101 
L 182.472727 140.933839 
L 178.373554 138.268268 
L 174.27438 135.548894 
L 170.175207 132.774163 
L 166.076033 129.942466 
L 161.97686 127.05213 
L 157.877686 124.101421 
L 153.778512 121.088535 
L 149.679339 118.0116 
L 145.580165 114.868669 
L 141.480992 111.657718 
L 137.381818 108.376642 
L 133.282645 105.023251 
L 129.183471 101.595265 
L 125.084298 98.090312 
L 120.985124 94.505919 
L 116.88595 90.839511 
L 112.786777 87.088403 
L 108.687603 83.249795 
L 104.58843 79.320766 
L 100.489256 75.29827 
L 96.390083 71.179122 
L 92.290909 66.96 
z
" clip-path="url(#pa8da0eab5f)" style="fill: #aac7fd; fill-opacity: 0.6"/>
   </g>
   <g id="PolyCollection_4">
    <path d="M 92.290909 369.36 
L 92.290909 66.96 
L 96.390083 71.179122 
L 100.489256 75.29827 
L 104.58843 79.320766 
L 108.687603 83.249795 
L 112.786777 87.088403 
L 116.88595 90.839511 
L 120.985124 94.505919 
L 125.084298 98.090312 
L 129.183471 101.595265 
L 133.282645 105.023251 
L 137.381818 108.376642 
L 141.480992 111.657718 
L 145.580165 114.868669 
L 149.679339 118.0116 
L 153.778512 121.088535 
L 157.877686 124.101421 
L 161.97686 127.05213 
L 166.076033 129.942466 
L 170.175207 132.774163 
L 174.27438 135.548894 
L 178.373554 138.268268 
L 182.472727 140.933839 
L 186.571901 143.547101 
L 190.671074 146.109499 
L 194.770248 148.622422 
L 198.869421 151.087215 
L 202.968595 153.505172 
L 207.067769 155.877546 
L 211.166942 158.205544 
L 215.266116 160.490333 
L 219.365289 162.733042 
L 223.464463 164.934759 
L 227.563636 167.09654 
L 231.66281 169.219401 
L 235.761983 171.30433 
L 239.861157 173.352278 
L 243.960331 175.36417 
L 248.059504 177.340897 
L 252.158678 179.283325 
L 256.257851 181.192291 
L 260.357025 183.068605 
L 264.456198 184.913054 
L 268.555372 186.726398 
L 272.654545 188.509377 
L 276.753719 190.262706 
L 280.852893 191.987078 
L 284.952066 193.683166 
L 289.05124 195.351624 
L 293.150413 196.993084 
L 297.249587 198.608163 
L 301.34876 200.197456 
L 305.447934 201.761543 
L 309.547107 203.300987 
L 313.646281 204.816334 
L 317.745455 206.308116 
L 321.844628 207.776848 
L 325.943802 209.223032 
L 330.042975 210.647156 
L 334.142149 212.049692 
L 338.241322 213.431102 
L 342.340496 214.791834 
L 346.439669 216.132324 
L 350.538843 217.452996 
L 354.638017 218.754262 
L 358.73719 220.036525 
L 362.836364 221.300174 
L 366.935537 222.545591 
L 371.034711 223.773146 
L 375.133884 224.9832 
L 379.233058 226.176104 
L 383.332231 227.352201 
L 387.431405 228.511824 
L 391.530579 229.655299 
L 395.629752 230.782942 
L 399.728926 231.895062 
L 403.828099 232.991961 
L 407.927273 234.073931 
L 412.026446 235.141258 
L 416.12562 236.194224 
L 420.224793 237.233098 
L 424.323967 238.258148 
L 428.42314 239.269632 
L 432.522314 240.267804 
L 436.621488 241.25291 
L 440.720661 242.225192 
L 444.819835 243.184884 
L 448.919008 244.132217 
L 453.018182 245.067414 
L 457.117355 245.990696 
L 461.216529 246.902275 
L 465.315702 247.802361 
L 469.414876 248.691159 
L 473.51405 249.568867 
L 477.613223 250.435682 
L 481.712397 251.291792 
L 485.81157 252.137386 
L 489.910744 252.972644 
L 494.009917 253.797746 
L 498.109091 254.612864 
L 498.109091 369.36 
L 498.109091 369.36 
L 494.009917 369.36 
L 489.910744 369.36 
L 485.81157 369.36 
L 481.712397 369.36 
L 477.613223 369.36 
L 473.51405 369.36 
L 469.414876 369.36 
L 465.315702 369.36 
L 461.216529 369.36 
L 457.117355 369.36 
L 453.018182 369.36 
L 448.919008 369.36 
L 444.819835 369.36 
L 440.720661 369.36 
L 436.621488 369.36 
L 432.522314 369.36 
L 428.42314 369.36 
L 424.323967 369.36 
L 420.224793 369.36 
L 416.12562 369.36 
L 412.026446 369.36 
L 407.927273 369.36 
L 403.828099 369.36 
L 399.728926 369.36 
L 395.629752 369.36 
L 391.530579 369.36 
L 387.431405 369.36 
L 383.332231 369.36 
L 379.233058 369.36 
L 375.133884 369.36 
L 371.034711 369.36 
L 366.935537 369.36 
L 362.836364 369.36 
L 358.73719 369.36 
L 354.638017 369.36 
L 350.538843 369.36 
L 346.439669 369.36 
L 342.340496 369.36 
L 338.241322 369.36 
L 334.142149 369.36 
L 330.042975 369.36 
L 325.943802 369.36 
L 321.844628 369.36 
L 317.745455 369.36 
L 313.646281 369.36 
L 309.547107 369.36 
L 305.447934 369.36 
L 301.34876 369.36 
L 297.249587 369.36 
L 293.150413 369.36 
L 289.05124 369.36 
L 284.952066 369.36 
L 280.852893 369.36 
L 276.753719 369.36 
L 272.654545 369.36 
L 268.555372 369.36 
L 264.456198 369.36 
L 260.357025 369.36 
L 256.257851 369.36 
L 252.158678 369.36 
L 248.059504 369.36 
L 243.960331 369.36 
L 239.861157 369.36 
L 235.761983 369.36 
L 231.66281 369.36 
L 227.563636 369.36 
L 223.464463 369.36 
L 219.365289 369.36 
L 215.266116 369.36 
L 211.166942 369.36 
L 207.067769 369.36 
L 202.968595 369.36 
L 198.869421 369.36 
L 194.770248 369.36 
L 190.671074 369.36 
L 186.571901 369.36 
L 182.472727 369.36 
L 178.373554 369.36 
L 174.27438 369.36 
L 170.175207 369.36 
L 166.076033 369.36 
L 161.97686 369.36 
L 157.877686 369.36 
L 153.778512 369.36 
L 149.679339 369.36 
L 145.580165 369.36 
L 141.480992 369.36 
L 137.381818 369.36 
L 133.282645 369.36 
L 129.183471 369.36 
L 125.084298 369.36 
L 120.985124 369.36 
L 116.88595 369.36 
L 112.786777 369.36 
L 108.687603 369.36 
L 104.58843 369.36 
L 100.489256 369.36 
L 96.390083 369.36 
L 92.290909 369.36 
z
" clip-path="url(#pa8da0eab5f)" style="fill: #3b4cc0; fill-opacity: 0.6"/>
   </g>
   <g id="matplotlib.axis_1">
    <g id="xtick_1">
     <g id="line2d_1">
      <defs>
       <path id="mf927ad8576" d="M 0 0 
L 0 3.5 
" style="stroke: #000000; stroke-width: 0.8"/>
      </defs>
      <g>
       <use xlink:href="#mf927ad8576" x="142.243372" y="384.48" style="stroke: #000000; stroke-width: 0.8"/>
      </g>
     </g>
     <g id="text_1">
      <!-- 1.0 -->
      <g transform="translate(133.903372 400.069375) scale(0.12 -0.12)">
       <defs>
        <path id="ArialMT-31" d="M 2384 0 
L 1822 0 
L 1822 3584 
Q 1619 3391 1289 3197 
Q 959 3003 697 2906 
L 697 3450 
Q 1169 3672 1522 3987 
Q 1875 4303 2022 4600 
L 2384 4600 
L 2384 0 
z
" transform="scale(0.015625)"/>
        <path id="ArialMT-2e" d="M 581 0 
L 581 641 
L 1222 641 
L 1222 0 
L 581 0 
z
" transform="scale(0.015625)"/>
        <path id="ArialMT-30" d="M 266 2259 
Q 266 3072 433 3567 
Q 600 4063 929 4331 
Q 1259 4600 1759 4600 
Q 2128 4600 2406 4451 
Q 2684 4303 2865 4023 
Q 3047 3744 3150 3342 
Q 3253 2941 3253 2259 
Q 3253 1453 3087 958 
Q 2922 463 2592 192 
Q 2263 -78 1759 -78 
Q 1097 -78 719 397 
Q 266 969 266 2259 
z
M 844 2259 
Q 844 1131 1108 757 
Q 1372 384 1759 384 
Q 2147 384 2411 759 
Q 2675 1134 2675 2259 
Q 2675 3391 2411 3762 
Q 2147 4134 1753 4134 
Q 1366 4134 1134 3806 
Q 844 3388 844 2259 
z
" transform="scale(0.015625)"/>
       </defs>
       <use xlink:href="#ArialMT-31"/>
       <use xlink:href="#ArialMT-2e" x="55.615234"/>
       <use xlink:href="#ArialMT-30" x="83.398438"/>
      </g>
     </g>
    </g>
    <g id="xtick_2">
     <g id="line2d_2">
      <g>
       <use xlink:href="#mf927ad8576" x="233.397501" y="384.48" style="stroke: #000000; stroke-width: 0.8"/>
      </g>
     </g>
     <g id="text_2">
      <!-- 1.2 -->
      <g transform="translate(225.057501 400.069375) scale(0.12 -0.12)">
       <defs>
        <path id="ArialMT-32" d="M 3222 541 
L 3222 0 
L 194 0 
Q 188 203 259 391 
Q 375 700 629 1000 
Q 884 1300 1366 1694 
Q 2113 2306 2375 2664 
Q 2638 3022 2638 3341 
Q 2638 3675 2398 3904 
Q 2159 4134 1775 4134 
Q 1369 4134 1125 3890 
Q 881 3647 878 3216 
L 300 3275 
Q 359 3922 746 4261 
Q 1134 4600 1788 4600 
Q 2447 4600 2831 4234 
Q 3216 3869 3216 3328 
Q 3216 3053 3103 2787 
Q 2991 2522 2730 2228 
Q 2469 1934 1863 1422 
Q 1356 997 1212 845 
Q 1069 694 975 541 
L 3222 541 
z
" transform="scale(0.015625)"/>
       </defs>
       <use xlink:href="#ArialMT-31"/>
       <use xlink:href="#ArialMT-2e" x="55.615234"/>
       <use xlink:href="#ArialMT-32" x="83.398438"/>
      </g>
     </g>
    </g>
    <g id="xtick_3">
     <g id="line2d_3">
      <g>
       <use xlink:href="#mf927ad8576" x="324.55163" y="384.48" style="stroke: #000000; stroke-width: 0.8"/>
      </g>
     </g>
     <g id="text_3">
      <!-- 1.4 -->
      <g transform="translate(316.21163 400.069375) scale(0.12 -0.12)">
       <defs>
        <path id="ArialMT-34" d="M 2069 0 
L 2069 1097 
L 81 1097 
L 81 1613 
L 2172 4581 
L 2631 4581 
L 2631 1613 
L 3250 1613 
L 3250 1097 
L 2631 1097 
L 2631 0 
L 2069 0 
z
M 2069 1613 
L 2069 3678 
L 634 1613 
L 2069 1613 
z
" transform="scale(0.015625)"/>
       </defs>
       <use xlink:href="#ArialMT-31"/>
       <use xlink:href="#ArialMT-2e" x="55.615234"/>
       <use xlink:href="#ArialMT-34" x="83.398438"/>
      </g>
     </g>
    </g>
    <g id="xtick_4">
     <g id="line2d_4">
      <g>
       <use xlink:href="#mf927ad8576" x="415.705758" y="384.48" style="stroke: #000000; stroke-width: 0.8"/>
      </g>
     </g>
     <g id="text_4">
      <!-- 1.6 -->
      <g transform="translate(407.365758 400.069375) scale(0.12 -0.12)">
       <defs>
        <path id="ArialMT-36" d="M 3184 3459 
L 2625 3416 
Q 2550 3747 2413 3897 
Q 2184 4138 1850 4138 
Q 1581 4138 1378 3988 
Q 1113 3794 959 3422 
Q 806 3050 800 2363 
Q 1003 2672 1297 2822 
Q 1591 2972 1913 2972 
Q 2475 2972 2870 2558 
Q 3266 2144 3266 1488 
Q 3266 1056 3080 686 
Q 2894 316 2569 119 
Q 2244 -78 1831 -78 
Q 1128 -78 684 439 
Q 241 956 241 2144 
Q 241 3472 731 4075 
Q 1159 4600 1884 4600 
Q 2425 4600 2770 4297 
Q 3116 3994 3184 3459 
z
M 888 1484 
Q 888 1194 1011 928 
Q 1134 663 1356 523 
Q 1578 384 1822 384 
Q 2178 384 2434 671 
Q 2691 959 2691 1453 
Q 2691 1928 2437 2201 
Q 2184 2475 1800 2475 
Q 1419 2475 1153 2201 
Q 888 1928 888 1484 
z
" transform="scale(0.015625)"/>
       </defs>
       <use xlink:href="#ArialMT-31"/>
       <use xlink:href="#ArialMT-2e" x="55.615234"/>
       <use xlink:href="#ArialMT-36" x="83.398438"/>
      </g>
     </g>
    </g>
    <g id="xtick_5">
     <g id="line2d_5">
      <g>
       <use xlink:href="#mf927ad8576" x="506.859887" y="384.48" style="stroke: #000000; stroke-width: 0.8"/>
      </g>
     </g>
     <g id="text_5">
      <!-- 1.8 -->
      <g transform="translate(498.519887 400.069375) scale(0.12 -0.12)">
       <defs>
        <path id="ArialMT-38" d="M 1131 2484 
Q 781 2613 612 2850 
Q 444 3088 444 3419 
Q 444 3919 803 4259 
Q 1163 4600 1759 4600 
Q 2359 4600 2725 4251 
Q 3091 3903 3091 3403 
Q 3091 3084 2923 2848 
Q 2756 2613 2416 2484 
Q 2838 2347 3058 2040 
Q 3278 1734 3278 1309 
Q 3278 722 2862 322 
Q 2447 -78 1769 -78 
Q 1091 -78 675 323 
Q 259 725 259 1325 
Q 259 1772 486 2073 
Q 713 2375 1131 2484 
z
M 1019 3438 
Q 1019 3113 1228 2906 
Q 1438 2700 1772 2700 
Q 2097 2700 2305 2904 
Q 2513 3109 2513 3406 
Q 2513 3716 2298 3927 
Q 2084 4138 1766 4138 
Q 1444 4138 1231 3931 
Q 1019 3725 1019 3438 
z
M 838 1322 
Q 838 1081 952 856 
Q 1066 631 1291 507 
Q 1516 384 1775 384 
Q 2178 384 2440 643 
Q 2703 903 2703 1303 
Q 2703 1709 2433 1975 
Q 2163 2241 1756 2241 
Q 1359 2241 1098 1978 
Q 838 1716 838 1322 
z
" transform="scale(0.015625)"/>
       </defs>
       <use xlink:href="#ArialMT-31"/>
       <use xlink:href="#ArialMT-2e" x="55.615234"/>
       <use xlink:href="#ArialMT-38" x="83.398438"/>
      </g>
     </g>
    </g>
    <g id="text_6">
     <!-- Specific Volume $V$ [m$^{3}$/kg] -->
     <g transform="translate(226.26 416.534375) scale(0.12 -0.12)">
      <defs>
       <path id="ArialMT-53" d="M 288 1472 
L 859 1522 
Q 900 1178 1048 958 
Q 1197 738 1509 602 
Q 1822 466 2213 466 
Q 2559 466 2825 569 
Q 3091 672 3220 851 
Q 3350 1031 3350 1244 
Q 3350 1459 3225 1620 
Q 3100 1781 2813 1891 
Q 2628 1963 1997 2114 
Q 1366 2266 1113 2400 
Q 784 2572 623 2826 
Q 463 3081 463 3397 
Q 463 3744 659 4045 
Q 856 4347 1234 4503 
Q 1613 4659 2075 4659 
Q 2584 4659 2973 4495 
Q 3363 4331 3572 4012 
Q 3781 3694 3797 3291 
L 3216 3247 
Q 3169 3681 2898 3903 
Q 2628 4125 2100 4125 
Q 1550 4125 1298 3923 
Q 1047 3722 1047 3438 
Q 1047 3191 1225 3031 
Q 1400 2872 2139 2705 
Q 2878 2538 3153 2413 
Q 3553 2228 3743 1945 
Q 3934 1663 3934 1294 
Q 3934 928 3725 604 
Q 3516 281 3123 101 
Q 2731 -78 2241 -78 
Q 1619 -78 1198 103 
Q 778 284 539 648 
Q 300 1013 288 1472 
z
" transform="scale(0.015625)"/>
       <path id="ArialMT-70" d="M 422 -1272 
L 422 3319 
L 934 3319 
L 934 2888 
Q 1116 3141 1344 3267 
Q 1572 3394 1897 3394 
Q 2322 3394 2647 3175 
Q 2972 2956 3137 2557 
Q 3303 2159 3303 1684 
Q 3303 1175 3120 767 
Q 2938 359 2589 142 
Q 2241 -75 1856 -75 
Q 1575 -75 1351 44 
Q 1128 163 984 344 
L 984 -1272 
L 422 -1272 
z
M 931 1641 
Q 931 1000 1190 694 
Q 1450 388 1819 388 
Q 2194 388 2461 705 
Q 2728 1022 2728 1688 
Q 2728 2322 2467 2637 
Q 2206 2953 1844 2953 
Q 1484 2953 1207 2617 
Q 931 2281 931 1641 
z
" transform="scale(0.015625)"/>
       <path id="ArialMT-65" d="M 2694 1069 
L 3275 997 
Q 3138 488 2766 206 
Q 2394 -75 1816 -75 
Q 1088 -75 661 373 
Q 234 822 234 1631 
Q 234 2469 665 2931 
Q 1097 3394 1784 3394 
Q 2450 3394 2872 2941 
Q 3294 2488 3294 1666 
Q 3294 1616 3291 1516 
L 816 1516 
Q 847 969 1125 678 
Q 1403 388 1819 388 
Q 2128 388 2347 550 
Q 2566 713 2694 1069 
z
M 847 1978 
L 2700 1978 
Q 2663 2397 2488 2606 
Q 2219 2931 1791 2931 
Q 1403 2931 1139 2672 
Q 875 2413 847 1978 
z
" transform="scale(0.015625)"/>
       <path id="ArialMT-63" d="M 2588 1216 
L 3141 1144 
Q 3050 572 2676 248 
Q 2303 -75 1759 -75 
Q 1078 -75 664 370 
Q 250 816 250 1647 
Q 250 2184 428 2587 
Q 606 2991 970 3192 
Q 1334 3394 1763 3394 
Q 2303 3394 2647 3120 
Q 2991 2847 3088 2344 
L 2541 2259 
Q 2463 2594 2264 2762 
Q 2066 2931 1784 2931 
Q 1359 2931 1093 2626 
Q 828 2322 828 1663 
Q 828 994 1084 691 
Q 1341 388 1753 388 
Q 2084 388 2306 591 
Q 2528 794 2588 1216 
z
" transform="scale(0.015625)"/>
       <path id="ArialMT-69" d="M 425 3934 
L 425 4581 
L 988 4581 
L 988 3934 
L 425 3934 
z
M 425 0 
L 425 3319 
L 988 3319 
L 988 0 
L 425 0 
z
" transform="scale(0.015625)"/>
       <path id="ArialMT-66" d="M 556 0 
L 556 2881 
L 59 2881 
L 59 3319 
L 556 3319 
L 556 3672 
Q 556 4006 616 4169 
Q 697 4388 901 4523 
Q 1106 4659 1475 4659 
Q 1713 4659 2000 4603 
L 1916 4113 
Q 1741 4144 1584 4144 
Q 1328 4144 1222 4034 
Q 1116 3925 1116 3625 
L 1116 3319 
L 1763 3319 
L 1763 2881 
L 1116 2881 
L 1116 0 
L 556 0 
z
" transform="scale(0.015625)"/>
       <path id="ArialMT-20" transform="scale(0.015625)"/>
       <path id="ArialMT-56" d="M 1803 0 
L 28 4581 
L 684 4581 
L 1875 1253 
Q 2019 853 2116 503 
Q 2222 878 2363 1253 
L 3600 4581 
L 4219 4581 
L 2425 0 
L 1803 0 
z
" transform="scale(0.015625)"/>
       <path id="ArialMT-6f" d="M 213 1659 
Q 213 2581 725 3025 
Q 1153 3394 1769 3394 
Q 2453 3394 2887 2945 
Q 3322 2497 3322 1706 
Q 3322 1066 3130 698 
Q 2938 331 2570 128 
Q 2203 -75 1769 -75 
Q 1072 -75 642 372 
Q 213 819 213 1659 
z
M 791 1659 
Q 791 1022 1069 705 
Q 1347 388 1769 388 
Q 2188 388 2466 706 
Q 2744 1025 2744 1678 
Q 2744 2294 2464 2611 
Q 2184 2928 1769 2928 
Q 1347 2928 1069 2612 
Q 791 2297 791 1659 
z
" transform="scale(0.015625)"/>
       <path id="ArialMT-6c" d="M 409 0 
L 409 4581 
L 972 4581 
L 972 0 
L 409 0 
z
" transform="scale(0.015625)"/>
       <path id="ArialMT-75" d="M 2597 0 
L 2597 488 
Q 2209 -75 1544 -75 
Q 1250 -75 995 37 
Q 741 150 617 320 
Q 494 491 444 738 
Q 409 903 409 1263 
L 409 3319 
L 972 3319 
L 972 1478 
Q 972 1038 1006 884 
Q 1059 663 1231 536 
Q 1403 409 1656 409 
Q 1909 409 2131 539 
Q 2353 669 2445 892 
Q 2538 1116 2538 1541 
L 2538 3319 
L 3100 3319 
L 3100 0 
L 2597 0 
z
" transform="scale(0.015625)"/>
       <path id="ArialMT-6d" d="M 422 0 
L 422 3319 
L 925 3319 
L 925 2853 
Q 1081 3097 1340 3245 
Q 1600 3394 1931 3394 
Q 2300 3394 2536 3241 
Q 2772 3088 2869 2813 
Q 3263 3394 3894 3394 
Q 4388 3394 4653 3120 
Q 4919 2847 4919 2278 
L 4919 0 
L 4359 0 
L 4359 2091 
Q 4359 2428 4304 2576 
Q 4250 2725 4106 2815 
Q 3963 2906 3769 2906 
Q 3419 2906 3187 2673 
Q 2956 2441 2956 1928 
L 2956 0 
L 2394 0 
L 2394 2156 
Q 2394 2531 2256 2718 
Q 2119 2906 1806 2906 
Q 1569 2906 1367 2781 
Q 1166 2656 1075 2415 
Q 984 2175 984 1722 
L 984 0 
L 422 0 
z
" transform="scale(0.015625)"/>
       <path id="STIXGeneral-Italic-1d61d" d="M 5043 4237 
L 2157 -70 
L 1990 -70 
L 1254 4237 
L 1862 4237 
L 2355 1050 
L 4429 4237 
L 5043 4237 
z
" transform="scale(0.015625)"/>
       <path id="ArialMT-5b" d="M 434 -1272 
L 434 4581 
L 1675 4581 
L 1675 4116 
L 997 4116 
L 997 -806 
L 1675 -806 
L 1675 -1272 
L 434 -1272 
z
" transform="scale(0.015625)"/>
       <path id="STIXGeneral-Regular-1d7e5" d="M 723 3149 
L 269 3258 
Q 410 3757 736 4041 
Q 1062 4326 1555 4326 
Q 2010 4326 2317 4038 
Q 2624 3750 2624 3322 
Q 2624 2752 2074 2368 
Q 2432 2240 2627 1942 
Q 2822 1645 2822 1344 
Q 2822 723 2419 320 
Q 2010 -90 1312 -90 
Q 608 -90 198 358 
L 499 717 
Q 826 365 1280 365 
Q 1754 365 2022 595 
Q 2317 845 2317 1222 
Q 2317 1555 2077 1779 
Q 1837 2003 1421 2061 
L 1011 2061 
L 1011 2195 
L 1318 2522 
Q 1606 2522 1862 2742 
Q 2118 2963 2118 3277 
Q 2118 3546 1948 3709 
Q 1779 3872 1536 3872 
Q 1280 3872 1059 3689 
Q 838 3507 723 3149 
z
" transform="scale(0.015625)"/>
       <path id="ArialMT-2f" d="M 0 -78 
L 1328 4659 
L 1778 4659 
L 453 -78 
L 0 -78 
z
" transform="scale(0.015625)"/>
       <path id="ArialMT-6b" d="M 425 0 
L 425 4581 
L 988 4581 
L 988 1969 
L 2319 3319 
L 3047 3319 
L 1778 2088 
L 3175 0 
L 2481 0 
L 1384 1697 
L 988 1316 
L 988 0 
L 425 0 
z
" transform="scale(0.015625)"/>
       <path id="ArialMT-67" d="M 319 -275 
L 866 -356 
Q 900 -609 1056 -725 
Q 1266 -881 1628 -881 
Q 2019 -881 2231 -725 
Q 2444 -569 2519 -288 
Q 2563 -116 2559 434 
Q 2191 0 1641 0 
Q 956 0 581 494 
Q 206 988 206 1678 
Q 206 2153 378 2554 
Q 550 2956 876 3175 
Q 1203 3394 1644 3394 
Q 2231 3394 2613 2919 
L 2613 3319 
L 3131 3319 
L 3131 450 
Q 3131 -325 2973 -648 
Q 2816 -972 2473 -1159 
Q 2131 -1347 1631 -1347 
Q 1038 -1347 672 -1080 
Q 306 -813 319 -275 
z
M 784 1719 
Q 784 1066 1043 766 
Q 1303 466 1694 466 
Q 2081 466 2343 764 
Q 2606 1063 2606 1700 
Q 2606 2309 2336 2618 
Q 2066 2928 1684 2928 
Q 1309 2928 1046 2623 
Q 784 2319 784 1719 
z
" transform="scale(0.015625)"/>
       <path id="ArialMT-5d" d="M 1363 -1272 
L 122 -1272 
L 122 -806 
L 800 -806 
L 800 4116 
L 122 4116 
L 122 4581 
L 1363 4581 
L 1363 -1272 
z
" transform="scale(0.015625)"/>
      </defs>
      <use xlink:href="#ArialMT-53" transform="translate(0 0.446875)"/>
      <use xlink:href="#ArialMT-70" transform="translate(66.699219 0.446875)"/>
      <use xlink:href="#ArialMT-65" transform="translate(122.314453 0.446875)"/>
      <use xlink:href="#ArialMT-63" transform="translate(177.929688 0.446875)"/>
      <use xlink:href="#ArialMT-69" transform="translate(227.929688 0.446875)"/>
      <use xlink:href="#ArialMT-66" transform="translate(250.146484 0.446875)"/>
      <use xlink:href="#ArialMT-69" transform="translate(277.929688 0.446875)"/>
      <use xlink:href="#ArialMT-63" transform="translate(300.146484 0.446875)"/>
      <use xlink:href="#ArialMT-20" transform="translate(350.146484 0.446875)"/>
      <use xlink:href="#ArialMT-56" transform="translate(377.929688 0.446875)"/>
      <use xlink:href="#ArialMT-6f" transform="translate(444.628906 0.446875)"/>
      <use xlink:href="#ArialMT-6c" transform="translate(500.244141 0.446875)"/>
      <use xlink:href="#ArialMT-75" transform="translate(522.460938 0.446875)"/>
      <use xlink:href="#ArialMT-6d" transform="translate(578.076172 0.446875)"/>
      <use xlink:href="#ArialMT-65" transform="translate(661.376953 0.446875)"/>
      <use xlink:href="#ArialMT-20" transform="translate(716.992188 0.446875)"/>
      <use xlink:href="#STIXGeneral-Italic-1d61d" transform="translate(744.775391 0.446875)"/>
      <use xlink:href="#ArialMT-20" transform="translate(810.175385 0.446875)"/>
      <use xlink:href="#ArialMT-5b" transform="translate(837.958588 0.446875)"/>
      <use xlink:href="#ArialMT-6d" transform="translate(865.741791 0.446875)"/>
      <use xlink:href="#STIXGeneral-Regular-1d7e5" transform="translate(949.835267 36.684375) scale(0.7)"/>
      <use xlink:href="#ArialMT-2f" transform="translate(987.1001 0.446875)"/>
      <use xlink:href="#ArialMT-6b" transform="translate(1014.883304 0.446875)"/>
      <use xlink:href="#ArialMT-67" transform="translate(1064.883304 0.446875)"/>
      <use xlink:href="#ArialMT-5d" transform="translate(1120.498538 0.446875)"/>
     </g>
    </g>
   </g>
   <g id="matplotlib.axis_2">
    <g id="ytick_1">
     <g id="line2d_6">
      <defs>
       <path id="me5cff0a0a1" d="M 0 0 
L -3.5 0 
" style="stroke: #000000; stroke-width: 0.8"/>
      </defs>
      <g>
       <use xlink:href="#me5cff0a0a1" x="72" y="369.36" style="stroke: #000000; stroke-width: 0.8"/>
      </g>
     </g>
     <g id="text_7">
      <!-- 0 -->
      <g transform="translate(58.326875 373.654688) scale(0.12 -0.12)">
       <use xlink:href="#ArialMT-30"/>
      </g>
     </g>
    </g>
    <g id="ytick_2">
     <g id="line2d_7">
      <g>
       <use xlink:href="#me5cff0a0a1" x="72" y="308.88" style="stroke: #000000; stroke-width: 0.8"/>
      </g>
     </g>
     <g id="text_8">
      <!-- 20 -->
      <g transform="translate(51.65375 313.174688) scale(0.12 -0.12)">
       <use xlink:href="#ArialMT-32"/>
       <use xlink:href="#ArialMT-30" x="55.615234"/>
      </g>
     </g>
    </g>
    <g id="ytick_3">
     <g id="line2d_8">
      <g>
       <use xlink:href="#me5cff0a0a1" x="72" y="248.4" style="stroke: #000000; stroke-width: 0.8"/>
      </g>
     </g>
     <g id="text_9">
      <!-- 40 -->
      <g transform="translate(51.65375 252.694687) scale(0.12 -0.12)">
       <use xlink:href="#ArialMT-34"/>
       <use xlink:href="#ArialMT-30" x="55.615234"/>
      </g>
     </g>
    </g>
    <g id="ytick_4">
     <g id="line2d_9">
      <g>
       <use xlink:href="#me5cff0a0a1" x="72" y="187.92" style="stroke: #000000; stroke-width: 0.8"/>
      </g>
     </g>
     <g id="text_10">
      <!-- 60 -->
      <g transform="translate(51.65375 192.214687) scale(0.12 -0.12)">
       <use xlink:href="#ArialMT-36"/>
       <use xlink:href="#ArialMT-30" x="55.615234"/>
      </g>
     </g>
    </g>
    <g id="ytick_5">
     <g id="line2d_10">
      <g>
       <use xlink:href="#me5cff0a0a1" x="72" y="127.44" style="stroke: #000000; stroke-width: 0.8"/>
      </g>
     </g>
     <g id="text_11">
      <!-- 80 -->
      <g transform="translate(51.65375 131.734687) scale(0.12 -0.12)">
       <use xlink:href="#ArialMT-38"/>
       <use xlink:href="#ArialMT-30" x="55.615234"/>
      </g>
     </g>
    </g>
    <g id="ytick_6">
     <g id="line2d_11">
      <g>
       <use xlink:href="#me5cff0a0a1" x="72" y="66.96" style="stroke: #000000; stroke-width: 0.8"/>
      </g>
     </g>
     <g id="text_12">
      <!-- 100 -->
      <g transform="translate(44.980625 71.254687) scale(0.12 -0.12)">
       <use xlink:href="#ArialMT-31"/>
       <use xlink:href="#ArialMT-30" x="55.615234"/>
       <use xlink:href="#ArialMT-30" x="111.230469"/>
      </g>
     </g>
    </g>
    <g id="text_13">
     <!-- Pressure $P$ [kPa] -->
     <g transform="translate(38.580625 262.38) rotate(-90) scale(0.12 -0.12)">
      <defs>
       <path id="ArialMT-50" d="M 494 0 
L 494 4581 
L 2222 4581 
Q 2678 4581 2919 4538 
Q 3256 4481 3484 4323 
Q 3713 4166 3852 3881 
Q 3991 3597 3991 3256 
Q 3991 2672 3619 2267 
Q 3247 1863 2275 1863 
L 1100 1863 
L 1100 0 
L 494 0 
z
M 1100 2403 
L 2284 2403 
Q 2872 2403 3119 2622 
Q 3366 2841 3366 3238 
Q 3366 3525 3220 3729 
Q 3075 3934 2838 4000 
Q 2684 4041 2272 4041 
L 1100 4041 
L 1100 2403 
z
" transform="scale(0.015625)"/>
       <path id="ArialMT-72" d="M 416 0 
L 416 3319 
L 922 3319 
L 922 2816 
Q 1116 3169 1280 3281 
Q 1444 3394 1641 3394 
Q 1925 3394 2219 3213 
L 2025 2691 
Q 1819 2813 1613 2813 
Q 1428 2813 1281 2702 
Q 1134 2591 1072 2394 
Q 978 2094 978 1738 
L 978 0 
L 416 0 
z
" transform="scale(0.015625)"/>
       <path id="ArialMT-73" d="M 197 991 
L 753 1078 
Q 800 744 1014 566 
Q 1228 388 1613 388 
Q 2000 388 2187 545 
Q 2375 703 2375 916 
Q 2375 1106 2209 1216 
Q 2094 1291 1634 1406 
Q 1016 1563 777 1677 
Q 538 1791 414 1992 
Q 291 2194 291 2438 
Q 291 2659 392 2848 
Q 494 3038 669 3163 
Q 800 3259 1026 3326 
Q 1253 3394 1513 3394 
Q 1903 3394 2198 3281 
Q 2494 3169 2634 2976 
Q 2775 2784 2828 2463 
L 2278 2388 
Q 2241 2644 2061 2787 
Q 1881 2931 1553 2931 
Q 1166 2931 1000 2803 
Q 834 2675 834 2503 
Q 834 2394 903 2306 
Q 972 2216 1119 2156 
Q 1203 2125 1616 2013 
Q 2213 1853 2448 1751 
Q 2684 1650 2818 1456 
Q 2953 1263 2953 975 
Q 2953 694 2789 445 
Q 2625 197 2315 61 
Q 2006 -75 1616 -75 
Q 969 -75 630 194 
Q 291 463 197 991 
z
" transform="scale(0.015625)"/>
       <path id="STIXGeneral-Italic-1d617" d="M 1530 4237 
L 2707 4237 
Q 4083 4237 4083 3386 
Q 4083 2733 3564 2278 
Q 3046 1824 2253 1824 
L 1485 1824 
L 1030 0 
L 474 0 
L 1530 4237 
z
M 1600 2298 
L 2163 2298 
Q 2835 2298 3168 2557 
Q 3501 2816 3501 3251 
Q 3501 3763 2496 3763 
L 1965 3763 
L 1600 2298 
z
" transform="scale(0.015625)"/>
       <path id="ArialMT-61" d="M 2588 409 
Q 2275 144 1986 34 
Q 1697 -75 1366 -75 
Q 819 -75 525 192 
Q 231 459 231 875 
Q 231 1119 342 1320 
Q 453 1522 633 1644 
Q 813 1766 1038 1828 
Q 1203 1872 1538 1913 
Q 2219 1994 2541 2106 
Q 2544 2222 2544 2253 
Q 2544 2597 2384 2738 
Q 2169 2928 1744 2928 
Q 1347 2928 1158 2789 
Q 969 2650 878 2297 
L 328 2372 
Q 403 2725 575 2942 
Q 747 3159 1072 3276 
Q 1397 3394 1825 3394 
Q 2250 3394 2515 3294 
Q 2781 3194 2906 3042 
Q 3031 2891 3081 2659 
Q 3109 2516 3109 2141 
L 3109 1391 
Q 3109 606 3145 398 
Q 3181 191 3288 0 
L 2700 0 
Q 2613 175 2588 409 
z
M 2541 1666 
Q 2234 1541 1622 1453 
Q 1275 1403 1131 1340 
Q 988 1278 909 1158 
Q 831 1038 831 891 
Q 831 666 1001 516 
Q 1172 366 1500 366 
Q 1825 366 2078 508 
Q 2331 650 2450 897 
Q 2541 1088 2541 1459 
L 2541 1666 
z
" transform="scale(0.015625)"/>
      </defs>
      <use xlink:href="#ArialMT-50" transform="translate(0 0.421875)"/>
      <use xlink:href="#ArialMT-72" transform="translate(66.699219 0.421875)"/>
      <use xlink:href="#ArialMT-65" transform="translate(100 0.421875)"/>
      <use xlink:href="#ArialMT-73" transform="translate(155.615234 0.421875)"/>
      <use xlink:href="#ArialMT-73" transform="translate(205.615234 0.421875)"/>
      <use xlink:href="#ArialMT-75" transform="translate(255.615234 0.421875)"/>
      <use xlink:href="#ArialMT-72" transform="translate(311.230469 0.421875)"/>
      <use xlink:href="#ArialMT-65" transform="translate(344.53125 0.421875)"/>
      <use xlink:href="#ArialMT-20" transform="translate(400.146484 0.421875)"/>
      <use xlink:href="#STIXGeneral-Italic-1d617" transform="translate(427.929688 0.421875)"/>
      <use xlink:href="#ArialMT-20" transform="translate(480.429672 0.421875)"/>
      <use xlink:href="#ArialMT-5b" transform="translate(508.212875 0.421875)"/>
      <use xlink:href="#ArialMT-6b" transform="translate(535.996078 0.421875)"/>
      <use xlink:href="#ArialMT-50" transform="translate(585.996078 0.421875)"/>
      <use xlink:href="#ArialMT-61" transform="translate(652.695297 0.421875)"/>
      <use xlink:href="#ArialMT-5d" transform="translate(708.310532 0.421875)"/>
     </g>
    </g>
   </g>
   <g id="line2d_12">
    <path d="M 92.290909 66.96 
L 96.390083 66.96 
L 100.489256 66.96 
L 104.58843 66.96 
L 108.687603 66.96 
L 112.786777 66.96 
L 116.88595 66.96 
L 120.985124 66.96 
L 125.084298 66.96 
L 129.183471 66.96 
L 133.282645 66.96 
L 137.381818 66.96 
L 141.480992 66.96 
L 145.580165 66.96 
L 149.679339 66.96 
L 153.778512 66.96 
L 157.877686 66.96 
L 161.97686 66.96 
L 166.076033 66.96 
L 170.175207 66.96 
L 174.27438 66.96 
L 178.373554 66.96 
L 182.472727 66.96 
L 186.571901 66.96 
L 190.671074 66.96 
L 194.770248 66.96 
L 198.869421 66.96 
L 202.968595 66.96 
L 207.067769 66.96 
L 211.166942 66.96 
L 215.266116 66.96 
L 219.365289 66.96 
L 223.464463 66.96 
L 227.563636 66.96 
L 231.66281 66.96 
L 235.761983 66.96 
L 239.861157 66.96 
L 243.960331 66.96 
L 248.059504 66.96 
L 252.158678 66.96 
L 256.257851 66.96 
L 260.357025 66.96 
L 264.456198 66.96 
L 268.555372 66.96 
L 272.654545 66.96 
L 276.753719 66.96 
L 280.852893 66.96 
L 284.952066 66.96 
L 289.05124 66.96 
L 293.150413 66.96 
L 297.249587 66.96 
L 301.34876 66.96 
L 305.447934 66.96 
L 309.547107 66.96 
L 313.646281 66.96 
L 317.745455 66.96 
L 321.844628 66.96 
L 325.943802 66.96 
L 330.042975 66.96 
L 334.142149 66.96 
L 338.241322 66.96 
L 342.340496 66.96 
L 346.439669 66.96 
L 350.538843 66.96 
L 354.638017 66.96 
L 358.73719 66.96 
L 362.836364 66.96 
L 366.935537 66.96 
L 371.034711 66.96 
L 375.133884 66.96 
L 379.233058 66.96 
L 383.332231 66.96 
L 387.431405 66.96 
L 391.530579 66.96 
L 395.629752 66.96 
L 399.728926 66.96 
L 403.828099 66.96 
L 407.927273 66.96 
L 412.026446 66.96 
L 416.12562 66.96 
L 420.224793 66.96 
L 424.323967 66.96 
L 428.42314 66.96 
L 432.522314 66.96 
L 436.621488 66.96 
L 440.720661 66.96 
L 444.819835 66.96 
L 448.919008 66.96 
L 453.018182 66.96 
L 457.117355 66.96 
L 461.216529 66.96 
L 465.315702 66.96 
L 469.414876 66.96 
L 473.51405 66.96 
L 477.613223 66.96 
L 481.712397 66.96 
L 485.81157 66.96 
L 489.910744 66.96 
L 494.009917 66.96 
L 498.109091 66.96 
" clip-path="url(#pa8da0eab5f)" style="fill: none; stroke-dasharray: 5.55,2.4; stroke-dashoffset: 0; stroke: #b40426; stroke-width: 1.5"/>
   </g>
   <g id="line2d_13">
    <path d="M 92.290909 66.96 
L 96.390083 69.984 
L 100.489256 72.948119 
L 104.58843 75.854118 
L 108.687603 78.703689 
L 112.786777 81.498462 
L 116.88595 84.24 
L 120.985124 86.929811 
L 125.084298 89.569346 
L 129.183471 92.16 
L 133.282645 94.703119 
L 137.381818 97.2 
L 141.480992 99.651892 
L 145.580165 102.06 
L 149.679339 104.425487 
L 153.778512 106.749474 
L 157.877686 109.033043 
L 161.97686 111.277241 
L 166.076033 113.483077 
L 170.175207 115.651525 
L 174.27438 117.783529 
L 178.373554 119.88 
L 182.472727 121.941818 
L 186.571901 123.969836 
L 190.671074 125.964878 
L 194.770248 127.927742 
L 198.869421 129.8592 
L 202.968595 131.76 
L 207.067769 133.630866 
L 211.166942 135.4725 
L 215.266116 137.285581 
L 219.365289 139.070769 
L 223.464463 140.828702 
L 227.563636 142.56 
L 231.66281 144.265263 
L 235.761983 145.945075 
L 239.861157 147.6 
L 243.960331 149.230588 
L 248.059504 150.837372 
L 252.158678 152.42087 
L 256.257851 153.981583 
L 260.357025 155.52 
L 264.456198 157.036596 
L 268.555372 158.531831 
L 272.654545 160.006154 
L 276.753719 161.46 
L 280.852893 162.893793 
L 284.952066 164.307945 
L 289.05124 165.702857 
L 293.150413 167.078919 
L 297.249587 168.43651 
L 301.34876 169.776 
L 305.447934 171.097748 
L 309.547107 172.402105 
L 313.646281 173.689412 
L 317.745455 174.96 
L 321.844628 176.214194 
L 325.943802 177.452308 
L 330.042975 178.67465 
L 334.142149 179.881519 
L 338.241322 181.073208 
L 342.340496 182.25 
L 346.439669 183.412174 
L 350.538843 184.56 
L 354.638017 185.693742 
L 358.73719 186.813659 
L 362.836364 187.92 
L 366.935537 189.013012 
L 371.034711 190.092934 
L 375.133884 191.16 
L 379.233058 192.214438 
L 383.332231 193.256471 
L 387.431405 194.286316 
L 391.530579 195.304186 
L 395.629752 196.310289 
L 399.728926 197.304828 
L 403.828099 198.288 
L 407.927273 199.26 
L 412.026446 200.221017 
L 416.12562 201.171236 
L 420.224793 202.110838 
L 424.323967 203.04 
L 428.42314 203.958895 
L 432.522314 204.867692 
L 436.621488 205.766557 
L 440.720661 206.655652 
L 444.819835 207.535135 
L 448.919008 208.405161 
L 453.018182 209.265882 
L 457.117355 210.117447 
L 461.216529 210.96 
L 465.315702 211.793684 
L 469.414876 212.618639 
L 473.51405 213.435 
L 477.613223 214.242902 
L 481.712397 215.042474 
L 485.81157 215.833846 
L 489.910744 216.617143 
L 494.009917 217.392487 
L 498.109091 218.16 
" clip-path="url(#pa8da0eab5f)" style="fill: none; stroke-dasharray: 5.55,2.4; stroke-dashoffset: 0; stroke: #f7b89c; stroke-width: 1.5"/>
   </g>
   <g id="line2d_14">
    <path d="M 92.290909 66.96 
L 96.390083 70.585161 
L 100.489256 74.131438 
L 104.58843 77.601301 
L 108.687603 80.997122 
L 112.786777 84.321179 
L 116.88595 87.575655 
L 120.985124 90.762649 
L 125.084298 93.884178 
L 129.183471 96.94218 
L 133.282645 99.938517 
L 137.381818 102.874982 
L 141.480992 105.753299 
L 145.580165 108.575129 
L 149.679339 111.342069 
L 153.778512 114.055659 
L 157.877686 116.717383 
L 161.97686 119.328669 
L 166.076033 121.890896 
L 170.175207 124.405393 
L 174.27438 126.873443 
L 178.373554 129.296284 
L 182.472727 131.675109 
L 186.571901 134.011073 
L 190.671074 136.305289 
L 194.770248 138.558834 
L 198.869421 140.772749 
L 202.968595 142.948039 
L 207.067769 145.085677 
L 211.166942 147.186602 
L 215.266116 149.251726 
L 219.365289 151.281929 
L 223.464463 153.278062 
L 227.563636 155.240952 
L 231.66281 157.171398 
L 235.761983 159.070174 
L 239.861157 160.938029 
L 243.960331 162.775692 
L 248.059504 164.583866 
L 252.158678 166.363235 
L 256.257851 168.114462 
L 260.357025 169.838189 
L 264.456198 171.535041 
L 268.555372 173.205621 
L 272.654545 174.850519 
L 276.753719 176.470303 
L 280.852893 178.065529 
L 284.952066 179.636733 
L 289.05124 181.184439 
L 293.150413 182.709154 
L 297.249587 184.211372 
L 301.34876 185.691572 
L 305.447934 187.15022 
L 309.547107 188.58777 
L 313.646281 190.004663 
L 317.745455 191.401328 
L 321.844628 192.778183 
L 325.943802 194.135632 
L 330.042975 195.474072 
L 334.142149 196.793887 
L 338.241322 198.095453 
L 342.340496 199.379133 
L 346.439669 200.645282 
L 350.538843 201.894248 
L 354.638017 203.126368 
L 358.73719 204.341968 
L 362.836364 205.541371 
L 366.935537 206.724887 
L 371.034711 207.892822 
L 375.133884 209.045471 
L 379.233058 210.183125 
L 383.332231 211.306064 
L 387.431405 212.414565 
L 391.530579 213.508896 
L 395.629752 214.589318 
L 399.728926 215.656088 
L 403.828099 216.709454 
L 407.927273 217.749661 
L 412.026446 218.776946 
L 416.12562 219.791542 
L 420.224793 220.793674 
L 424.323967 221.783565 
L 428.42314 222.761431 
L 432.522314 223.727483 
L 436.621488 224.681928 
L 440.720661 225.624967 
L 444.819835 226.556798 
L 448.919008 227.477613 
L 453.018182 228.3876 
L 457.117355 229.286945 
L 461.216529 230.175826 
L 465.315702 231.054421 
L 469.414876 231.922901 
L 473.51405 232.781435 
L 477.613223 233.630187 
L 481.712397 234.46932 
L 485.81157 235.29899 
L 489.910744 236.119352 
L 494.009917 236.930558 
L 498.109091 237.732755 
" clip-path="url(#pa8da0eab5f)" style="fill: none; stroke-dasharray: 5.55,2.4; stroke-dashoffset: 0; stroke: #aac7fd; stroke-width: 1.5"/>
   </g>
   <g id="line2d_15">
    <path d="M 92.290909 66.96 
L 96.390083 71.179122 
L 100.489256 75.29827 
L 104.58843 79.320766 
L 108.687603 83.249795 
L 112.786777 87.088403 
L 116.88595 90.839511 
L 120.985124 94.505919 
L 125.084298 98.090312 
L 129.183471 101.595265 
L 133.282645 105.023251 
L 137.381818 108.376642 
L 141.480992 111.657718 
L 145.580165 114.868669 
L 149.679339 118.0116 
L 153.778512 121.088535 
L 157.877686 124.101421 
L 161.97686 127.05213 
L 166.076033 129.942466 
L 170.175207 132.774163 
L 174.27438 135.548894 
L 178.373554 138.268268 
L 182.472727 140.933839 
L 186.571901 143.547101 
L 190.671074 146.109499 
L 194.770248 148.622422 
L 198.869421 151.087215 
L 202.968595 153.505172 
L 207.067769 155.877546 
L 211.166942 158.205544 
L 215.266116 160.490333 
L 219.365289 162.733042 
L 223.464463 164.934759 
L 227.563636 167.09654 
L 231.66281 169.219401 
L 235.761983 171.30433 
L 239.861157 173.352278 
L 243.960331 175.36417 
L 248.059504 177.340897 
L 252.158678 179.283325 
L 256.257851 181.192291 
L 260.357025 183.068605 
L 264.456198 184.913054 
L 268.555372 186.726398 
L 272.654545 188.509377 
L 276.753719 190.262706 
L 280.852893 191.987078 
L 284.952066 193.683166 
L 289.05124 195.351624 
L 293.150413 196.993084 
L 297.249587 198.608163 
L 301.34876 200.197456 
L 305.447934 201.761543 
L 309.547107 203.300987 
L 313.646281 204.816334 
L 317.745455 206.308116 
L 321.844628 207.776848 
L 325.943802 209.223032 
L 330.042975 210.647156 
L 334.142149 212.049692 
L 338.241322 213.431102 
L 342.340496 214.791834 
L 346.439669 216.132324 
L 350.538843 217.452996 
L 354.638017 218.754262 
L 358.73719 220.036525 
L 362.836364 221.300174 
L 366.935537 222.545591 
L 371.034711 223.773146 
L 375.133884 224.9832 
L 379.233058 226.176104 
L 383.332231 227.352201 
L 387.431405 228.511824 
L 391.530579 229.655299 
L 395.629752 230.782942 
L 399.728926 231.895062 
L 403.828099 232.991961 
L 407.927273 234.073931 
L 412.026446 235.141258 
L 416.12562 236.194224 
L 420.224793 237.233098 
L 424.323967 238.258148 
L 428.42314 239.269632 
L 432.522314 240.267804 
L 436.621488 241.25291 
L 440.720661 242.225192 
L 444.819835 243.184884 
L 448.919008 244.132217 
L 453.018182 245.067414 
L 457.117355 245.990696 
L 461.216529 246.902275 
L 465.315702 247.802361 
L 469.414876 248.691159 
L 473.51405 249.568867 
L 477.613223 250.435682 
L 481.712397 251.291792 
L 485.81157 252.137386 
L 489.910744 252.972644 
L 494.009917 253.797746 
L 498.109091 254.612864 
" clip-path="url(#pa8da0eab5f)" style="fill: none; stroke-dasharray: 5.55,2.4; stroke-dashoffset: 0; stroke: #3b4cc0; stroke-width: 1.5"/>
   </g>
   <g id="line2d_16">
    <path d="M 92.290909 369.36 
L 92.290909 66.96 
" clip-path="url(#pa8da0eab5f)" style="fill: none; stroke-dasharray: 2,3.3; stroke-dashoffset: 0; stroke: #000000; stroke-width: 2"/>
   </g>
   <g id="patch_3">
    <path d="M 72 384.48 
L 72 51.84 
" style="fill: none; stroke: #000000; stroke-width: 0.8; stroke-linejoin: miter; stroke-linecap: square"/>
   </g>
   <g id="patch_4">
    <path d="M 72 384.48 
L 518.4 384.48 
" style="fill: none; stroke: #000000; stroke-width: 0.8; stroke-linejoin: miter; stroke-linecap: square"/>
   </g>
   <g id="legend_1">
    <g id="patch_5">
     <path d="M 540.36 204.285375 
L 564.36 204.285375 
L 564.36 195.885375 
L 540.36 195.885375 
z
" style="fill: #b40426; opacity: 0.6; stroke-dasharray: 3.7,1.6; stroke-dashoffset: 0; stroke: #b40426; stroke-linejoin: miter"/>
    </g>
    <g id="text_14">
     <!-- Isobaric -->
     <g transform="translate(573.96 204.285375) scale(0.12 -0.12)">
      <defs>
       <path id="ArialMT-49" d="M 597 0 
L 597 4581 
L 1203 4581 
L 1203 0 
L 597 0 
z
" transform="scale(0.015625)"/>
       <path id="ArialMT-62" d="M 941 0 
L 419 0 
L 419 4581 
L 981 4581 
L 981 2947 
Q 1338 3394 1891 3394 
Q 2197 3394 2470 3270 
Q 2744 3147 2920 2923 
Q 3097 2700 3197 2384 
Q 3297 2069 3297 1709 
Q 3297 856 2875 390 
Q 2453 -75 1863 -75 
Q 1275 -75 941 416 
L 941 0 
z
M 934 1684 
Q 934 1088 1097 822 
Q 1363 388 1816 388 
Q 2184 388 2453 708 
Q 2722 1028 2722 1663 
Q 2722 2313 2464 2622 
Q 2206 2931 1841 2931 
Q 1472 2931 1203 2611 
Q 934 2291 934 1684 
z
" transform="scale(0.015625)"/>
      </defs>
      <use xlink:href="#ArialMT-49"/>
      <use xlink:href="#ArialMT-73" x="27.783203"/>
      <use xlink:href="#ArialMT-6f" x="77.783203"/>
      <use xlink:href="#ArialMT-62" x="133.398438"/>
      <use xlink:href="#ArialMT-61" x="189.013672"/>
      <use xlink:href="#ArialMT-72" x="244.628906"/>
      <use xlink:href="#ArialMT-69" x="277.929688"/>
      <use xlink:href="#ArialMT-63" x="300.146484"/>
     </g>
    </g>
    <g id="patch_6">
     <path d="M 540.36 221.25975 
L 564.36 221.25975 
L 564.36 212.85975 
L 540.36 212.85975 
z
" style="fill: #f7b89c; opacity: 0.6; stroke-dasharray: 3.7,1.6; stroke-dashoffset: 0; stroke: #f7b89c; stroke-linejoin: miter"/>
    </g>
    <g id="text_15">
     <!-- Isothermal -->
     <g transform="translate(573.96 221.25975) scale(0.12 -0.12)">
      <defs>
       <path id="ArialMT-74" d="M 1650 503 
L 1731 6 
Q 1494 -44 1306 -44 
Q 1000 -44 831 53 
Q 663 150 594 308 
Q 525 466 525 972 
L 525 2881 
L 113 2881 
L 113 3319 
L 525 3319 
L 525 4141 
L 1084 4478 
L 1084 3319 
L 1650 3319 
L 1650 2881 
L 1084 2881 
L 1084 941 
Q 1084 700 1114 631 
Q 1144 563 1211 522 
Q 1278 481 1403 481 
Q 1497 481 1650 503 
z
" transform="scale(0.015625)"/>
       <path id="ArialMT-68" d="M 422 0 
L 422 4581 
L 984 4581 
L 984 2938 
Q 1378 3394 1978 3394 
Q 2347 3394 2619 3248 
Q 2891 3103 3008 2847 
Q 3125 2591 3125 2103 
L 3125 0 
L 2563 0 
L 2563 2103 
Q 2563 2525 2380 2717 
Q 2197 2909 1863 2909 
Q 1613 2909 1392 2779 
Q 1172 2650 1078 2428 
Q 984 2206 984 1816 
L 984 0 
L 422 0 
z
" transform="scale(0.015625)"/>
      </defs>
      <use xlink:href="#ArialMT-49"/>
      <use xlink:href="#ArialMT-73" x="27.783203"/>
      <use xlink:href="#ArialMT-6f" x="77.783203"/>
      <use xlink:href="#ArialMT-74" x="133.398438"/>
      <use xlink:href="#ArialMT-68" x="161.181641"/>
      <use xlink:href="#ArialMT-65" x="216.796875"/>
      <use xlink:href="#ArialMT-72" x="272.412109"/>
      <use xlink:href="#ArialMT-6d" x="305.712891"/>
      <use xlink:href="#ArialMT-61" x="389.013672"/>
      <use xlink:href="#ArialMT-6c" x="444.628906"/>
     </g>
    </g>
    <g id="patch_7">
     <path d="M 540.36 238.234125 
L 564.36 238.234125 
L 564.36 229.834125 
L 540.36 229.834125 
z
" style="fill: #aac7fd; opacity: 0.6; stroke-dasharray: 3.7,1.6; stroke-dashoffset: 0; stroke: #aac7fd; stroke-linejoin: miter"/>
    </g>
    <g id="text_16">
     <!-- Polytropic -->
     <g transform="translate(573.96 238.234125) scale(0.12 -0.12)">
      <defs>
       <path id="ArialMT-79" d="M 397 -1278 
L 334 -750 
Q 519 -800 656 -800 
Q 844 -800 956 -737 
Q 1069 -675 1141 -563 
Q 1194 -478 1313 -144 
Q 1328 -97 1363 -6 
L 103 3319 
L 709 3319 
L 1400 1397 
Q 1534 1031 1641 628 
Q 1738 1016 1872 1384 
L 2581 3319 
L 3144 3319 
L 1881 -56 
Q 1678 -603 1566 -809 
Q 1416 -1088 1222 -1217 
Q 1028 -1347 759 -1347 
Q 597 -1347 397 -1278 
z
" transform="scale(0.015625)"/>
      </defs>
      <use xlink:href="#ArialMT-50"/>
      <use xlink:href="#ArialMT-6f" x="66.699219"/>
      <use xlink:href="#ArialMT-6c" x="122.314453"/>
      <use xlink:href="#ArialMT-79" x="144.53125"/>
      <use xlink:href="#ArialMT-74" x="194.53125"/>
      <use xlink:href="#ArialMT-72" x="222.314453"/>
      <use xlink:href="#ArialMT-6f" x="255.615234"/>
      <use xlink:href="#ArialMT-70" x="311.230469"/>
      <use xlink:href="#ArialMT-69" x="366.845703"/>
      <use xlink:href="#ArialMT-63" x="389.0625"/>
     </g>
    </g>
    <g id="patch_8">
     <path d="M 540.36 255.349125 
L 564.36 255.349125 
L 564.36 246.949125 
L 540.36 246.949125 
z
" style="fill: #3b4cc0; opacity: 0.6; stroke-dasharray: 3.7,1.6; stroke-dashoffset: 0; stroke: #3b4cc0; stroke-linejoin: miter"/>
    </g>
    <g id="text_17">
     <!-- Adiabatic -->
     <g transform="translate(573.96 255.349125) scale(0.12 -0.12)">
      <defs>
       <path id="ArialMT-41" d="M -9 0 
L 1750 4581 
L 2403 4581 
L 4278 0 
L 3588 0 
L 3053 1388 
L 1138 1388 
L 634 0 
L -9 0 
z
M 1313 1881 
L 2866 1881 
L 2388 3150 
Q 2169 3728 2063 4100 
Q 1975 3659 1816 3225 
L 1313 1881 
z
" transform="scale(0.015625)"/>
       <path id="ArialMT-64" d="M 2575 0 
L 2575 419 
Q 2259 -75 1647 -75 
Q 1250 -75 917 144 
Q 584 363 401 755 
Q 219 1147 219 1656 
Q 219 2153 384 2558 
Q 550 2963 881 3178 
Q 1213 3394 1622 3394 
Q 1922 3394 2156 3267 
Q 2391 3141 2538 2938 
L 2538 4581 
L 3097 4581 
L 3097 0 
L 2575 0 
z
M 797 1656 
Q 797 1019 1065 703 
Q 1334 388 1700 388 
Q 2069 388 2326 689 
Q 2584 991 2584 1609 
Q 2584 2291 2321 2609 
Q 2059 2928 1675 2928 
Q 1300 2928 1048 2622 
Q 797 2316 797 1656 
z
" transform="scale(0.015625)"/>
      </defs>
      <use xlink:href="#ArialMT-41"/>
      <use xlink:href="#ArialMT-64" x="66.699219"/>
      <use xlink:href="#ArialMT-69" x="122.314453"/>
      <use xlink:href="#ArialMT-61" x="144.53125"/>
      <use xlink:href="#ArialMT-62" x="200.146484"/>
      <use xlink:href="#ArialMT-61" x="255.761719"/>
      <use xlink:href="#ArialMT-74" x="311.376953"/>
      <use xlink:href="#ArialMT-69" x="339.160156"/>
      <use xlink:href="#ArialMT-63" x="361.376953"/>
     </g>
    </g>
    <g id="line2d_17">
     <path d="M 540.36 268.1235 
L 552.36 268.1235 
L 564.36 268.1235 
" style="fill: none; stroke-dasharray: 1.5,2.475; stroke-dashoffset: 0; stroke: #000000; stroke-width: 1.5"/>
    </g>
    <g id="text_18">
     <!-- Isochoric -->
     <g transform="translate(573.96 272.3235) scale(0.12 -0.12)">
      <use xlink:href="#ArialMT-49"/>
      <use xlink:href="#ArialMT-73" x="27.783203"/>
      <use xlink:href="#ArialMT-6f" x="77.783203"/>
      <use xlink:href="#ArialMT-63" x="133.398438"/>
      <use xlink:href="#ArialMT-68" x="183.398438"/>
      <use xlink:href="#ArialMT-6f" x="239.013672"/>
      <use xlink:href="#ArialMT-72" x="294.628906"/>
      <use xlink:href="#ArialMT-69" x="327.929688"/>
      <use xlink:href="#ArialMT-63" x="350.146484"/>
     </g>
    </g>
   </g>
  </g>
 </g>
 <defs>
  <clipPath id="pa8da0eab5f">
   <rect x="72" y="51.84" width="446.4" height="332.64"/>
  </clipPath>
 </defs>
</svg>
