<?xml version="1.0" encoding="UTF-8" standalone="no"?>
<svg
   width="699.47717pt"
   height="407.61188pt"
   viewBox="0 0 699.47717 407.61188"
   version="1.1"
   id="svg146"
   sodipodi:docname="PV_diagram_worked_example.svg"
   inkscape:version="1.3.2 (091e20e, 2023-11-25, custom)"
   xmlns:inkscape="http://www.inkscape.org/namespaces/inkscape"
   xmlns:sodipodi="http://sodipodi.sourceforge.net/DTD/sodipodi-0.dtd"
   xmlns:xlink="http://www.w3.org/1999/xlink"
   xmlns="http://www.w3.org/2000/svg"
   xmlns:svg="http://www.w3.org/2000/svg"
   xmlns:rdf="http://www.w3.org/1999/02/22-rdf-syntax-ns#"
   xmlns:cc="http://creativecommons.org/ns#"
   xmlns:dc="http://purl.org/dc/elements/1.1/">
  <sodipodi:namedview
     id="namedview146"
     pagecolor="#ffffff"
     bordercolor="#000000"
     borderopacity="0.25"
     inkscape:showpageshadow="2"
     inkscape:pageopacity="0.0"
     inkscape:pagecheckerboard="0"
     inkscape:deskcolor="#d1d1d1"
     inkscape:document-units="pt"
     inkscape:zoom="0.8203125"
     inkscape:cx="597.33333"
     inkscape:cy="346.81905"
     inkscape:window-width="1920"
     inkscape:window-height="1009"
     inkscape:window-x="-8"
     inkscape:window-y="-8"
     inkscape:window-maximized="1"
     inkscape:current-layer="svg146" />
  <metadata
     id="metadata1">
    <rdf:RDF>
      <cc:Work>
        <dc:type
           rdf:resource="http://purl.org/dc/dcmitype/StillImage" />
        <dc:date>2025-10-28T15:58:47.007653</dc:date>
        <dc:format>image/svg+xml</dc:format>
        <dc:creator>
          <cc:Agent>
            <dc:title>Matplotlib v3.9.2, https://matplotlib.org/</dc:title>
          </cc:Agent>
        </dc:creator>
      </cc:Work>
    </rdf:RDF>
  </metadata>
  <defs
     id="defs1">
    <style
       type="text/css"
       id="style1">*{stroke-linejoin: round; stroke-linecap: butt}</style>
  </defs>
  <g
     id="PolyCollection_1"
     transform="translate(-11.799375,-10.4)">
    <path
       d="m 76.761477,27.841818 v 0 h 4.698784 4.698783 4.698783 4.698783 4.69878 4.69879 4.69878 4.69878 4.69879 4.69878 4.69878 4.69879 4.69878 4.69878 4.69879 4.69878 4.69878 4.69879 4.69878 4.69878 4.69879 4.69878 4.69878 4.69879 4.69878 4.69878 4.69879 4.69878 4.69878 4.69879 4.69878 4.69878 4.69879 4.69878 4.69878 4.69879 4.69878 4.69878 4.69878 4.69879 4.69878 4.69878 4.69879 4.69878 4.69878 4.69879 4.69878 4.69878 4.69879 4.69878 4.69878 4.69879 4.69878 4.69878 4.69879 4.69878 4.69878 4.69879 4.69878 4.69878 4.69879 4.69878 4.69878 4.69879 4.69878 4.69878 4.69879 4.69878 4.69878 4.69879 4.69878 4.69878 4.69879 4.69878 4.69878 4.69879 4.69878 4.69878 4.69879 4.69878 4.69878 4.69879 4.69878 4.69878 4.69879 4.69878 4.69878 4.69879 4.69878 4.69878 4.69879 4.69878 4.69878 4.69879 4.69878 4.69878 4.69879 4.69878 4.69878 V 198.26 v 0 l -4.69878,-0.86507 -4.69878,-0.87389 -4.69879,-0.88286 -4.69878,-0.89196 -4.69878,-0.9012 -4.69879,-0.91059 -4.69878,-0.92012 -4.69878,-0.92981 -4.69879,-0.93965 -4.69878,-0.94965 -4.69878,-0.9598 -4.69879,-0.97012 -4.69878,-0.98061 -4.69878,-0.99127 -4.69879,-1.0021 -4.69878,-1.01312 -4.69878,-1.02431 -4.69879,-1.03569 -4.69878,-1.04726 -4.69878,-1.05903 -4.69879,-1.071 -4.69878,-1.08316 -4.69878,-1.09555 -4.69879,-1.10814 -4.69878,-1.12095 -4.69878,-1.13398 -4.69879,-1.14724 -4.69878,-1.16075 -4.69878,-1.17448 -4.69879,-1.18846 -4.69878,-1.20269 -4.69878,-1.21719 -4.69879,-1.23194 -4.69878,-1.24696 -4.69878,-1.26226 -4.69879,-1.27785 -4.69878,-1.29372 -4.69878,-1.30989 -4.69879,-1.32637 -4.69878,-1.34315 -4.69878,-1.36027 -4.69879,-1.37771 -4.69878,-1.39548 -4.69878,-1.41361 -4.69879,-1.43209 -4.69878,-1.45092 -4.69878,-1.47015 -4.69879,-1.48975 -4.69878,-1.50974 -4.69878,-1.53015 -4.69879,-1.55097 -4.69878,-1.57221 -4.69878,-1.59389 -4.69879,-1.61604 -4.69878,-1.63864 -4.69878,-1.66171 -4.69879,-1.68529 -4.69878,-1.70936 -4.69878,-1.73395 -4.69879,-1.75909 -4.69878,-1.78477 -4.69878,-1.81101 -4.69878,-1.83784 -4.69879,-1.86528 -4.69878,-1.89332 -4.69878,-1.92201 -4.69879,-1.95135 -4.69878,-1.98138 -4.69878,-2.01209 -4.69879,-2.04353 -4.69878,-2.07572 -4.69878,-2.10866 -4.69879,-2.142398 -4.69878,-2.176955 -4.69878,-2.212352 -4.69879,-2.248621 -4.69878,-2.285788 -4.69878,-2.323884 -4.69879,-2.362941 -4.69878,-2.402991 -4.69878,-2.444068 -4.69879,-2.486207 -4.69878,-2.529445 -4.69878,-2.573822 -4.69879,-2.619376 -4.69878,-2.66615 -4.69878,-2.714189 -4.69879,-2.763538 -4.69878,-2.814246 -4.69878,-2.866361 -4.69879,-2.919937 -4.69878,-2.975031 -4.69878,-3.031698 -4.69879,-3.09 -4.69878,-3.15 -4.698783,-3.211765 -4.698783,-3.275364 -4.698783,-3.340871 z"
       clip-path="url(#p430a9aa24e)"
       style="fill:#ff0000;fill-opacity:0.15"
       id="path3" />
  </g>
  <g
     id="PolyCollection_2"
     transform="translate(-11.799375,-10.4)">
    <path
       d="m 76.761477,27.841818 v 0 l 4.698784,3.408364 4.698783,3.340871 4.698783,3.275364 4.698783,3.211765 4.69878,3.15 4.69879,3.09 4.69878,3.031698 4.69878,2.975031 4.69879,2.919937 4.69878,2.866361 4.69878,2.814246 4.69879,2.763538 4.69878,2.714189 4.69878,2.66615 4.69879,2.619376 4.69878,2.573822 4.69878,2.529445 4.69879,2.486207 4.69878,2.444068 4.69878,2.402991 4.69879,2.362941 4.69878,2.323884 4.69878,2.285788 4.69879,2.248621 4.69878,2.212352 4.69878,2.176955 4.69879,2.142398 4.69878,2.10866 4.69878,2.07572 4.69879,2.04353 4.69878,2.01209 4.69878,1.98138 4.69879,1.95135 4.69878,1.92201 4.69878,1.89332 4.69879,1.86528 4.69878,1.83784 4.69878,1.81101 4.69878,1.78477 4.69879,1.75909 4.69878,1.73395 4.69878,1.70936 4.69879,1.68529 4.69878,1.66171 4.69878,1.63864 4.69879,1.61604 4.69878,1.59389 4.69878,1.57221 4.69879,1.55097 4.69878,1.53015 4.69878,1.50974 4.69879,1.48975 4.69878,1.47015 4.69878,1.45092 4.69879,1.43209 4.69878,1.41361 4.69878,1.39548 4.69879,1.37771 4.69878,1.36027 4.69878,1.34315 4.69879,1.32637 4.69878,1.30989 4.69878,1.29372 4.69879,1.27785 4.69878,1.26226 4.69878,1.24696 4.69879,1.23194 4.69878,1.21719 4.69878,1.20269 4.69879,1.18846 4.69878,1.17448 4.69878,1.16075 4.69879,1.14724 4.69878,1.13398 4.69878,1.12095 4.69879,1.10814 4.69878,1.09555 4.69878,1.08316 4.69879,1.071 4.69878,1.05903 4.69878,1.04726 4.69879,1.03569 4.69878,1.02431 4.69878,1.01312 4.69879,1.0021 4.69878,0.99127 4.69878,0.98061 4.69879,0.97012 4.69878,0.9598 4.69878,0.94965 4.69879,0.93965 4.69878,0.92981 4.69878,0.92012 4.69879,0.91059 4.69878,0.9012 4.69878,0.89196 4.69879,0.88286 4.69878,0.87389 4.69878,0.86507 v 22.06054 0 l -4.69878,-0.90416 -4.69878,-0.91432 -4.69879,-0.92463 -4.69878,-0.93512 -4.69878,-0.94579 -4.69879,-0.95664 -4.69878,-0.96765 -4.69878,-0.97887 -4.69879,-0.99027 -4.69878,-1.00186 -4.69878,-1.01366 -4.69879,-1.02565 -4.69878,-1.03785 -4.69878,-1.05027 -4.69879,-1.06291 -4.69878,-1.07576 -4.69878,-1.08884 -4.69879,-1.10215 -4.69878,-1.11571 -4.69878,-1.12951 -4.69879,-1.14356 -4.69878,-1.15786 -4.69878,-1.17242 -4.69879,-1.18725 -4.69878,-1.20236 -4.69878,-1.21775 -4.69879,-1.23343 -4.69878,-1.24939 -4.69878,-1.26567 -4.69879,-1.28226 -4.69878,-1.29915 -4.69878,-1.31639 -4.69879,-1.33394 -4.69878,-1.35185 -4.69878,-1.37011 -4.69879,-1.38873 -4.69878,-1.40772 -4.69878,-1.42708 -4.69879,-1.44684 -4.69878,-1.467 -4.69878,-1.48757 -4.69879,-1.50856 -4.69878,-1.52999 -4.69878,-1.55186 -4.69879,-1.57418 -4.69878,-1.59699 -4.69878,-1.62027 -4.69879,-1.64405 -4.69878,-1.66834 -4.69878,-1.69315 -4.69879,-1.71852 -4.69878,-1.74442 -4.69878,-1.77091 -4.69879,-1.79799 -4.69878,-1.82567 -4.69878,-1.85397 -4.69879,-1.88292 -4.69878,-1.91252 -4.69878,-1.94283 -4.69879,-1.97381 -4.69878,-2.00554 -4.69878,-2.038 -4.69878,-2.07123 -4.69879,-2.10527 -4.69878,-2.14012 -4.69878,-2.17581 -4.69879,-2.21239 -4.69878,-2.24985 -4.69878,-2.28825 -4.69879,-2.32761 -4.69878,-2.36796 -4.69878,-2.40934 -4.69879,-2.45178 -4.69878,-2.49531 -4.69878,-2.53998 -4.69879,-2.58583 -4.69878,-2.63287 -4.69878,-2.681184 -4.69879,-2.730794 -4.69878,-2.78175 -4.69878,-2.834101 -4.69879,-2.887897 -4.69878,-2.943192 -4.69878,-3.00004 -4.69879,-3.058499 -4.69878,-3.118631 -4.69878,-3.180497 -4.69879,-3.244164 -4.69878,-3.309702 -4.69878,-3.377185 -4.69879,-3.446687 -4.69878,-3.518288 -4.69878,-3.592076 -4.69879,-3.668134 -4.69878,-3.746559 -4.698783,-3.827445 -4.698783,-3.910898 -4.698783,-3.997023 z"
       clip-path="url(#p430a9aa24e)"
       style="fill:#0000ff;fill-opacity:0.3"
       id="path4" />
  </g>
  <g
     id="PolyCollection_3"
     transform="translate(-11.799375,-10.4)">
    <path
       d="m 76.761477,27.841818 v 0 l 4.698784,4.085936 4.698783,3.997023 4.698783,3.910898 4.698783,3.827445 4.69878,3.746559 4.69879,3.668134 4.69878,3.592076 4.69878,3.518288 4.69879,3.446687 4.69878,3.377185 4.69878,3.309702 4.69879,3.244164 4.69878,3.180497 4.69878,3.118631 4.69879,3.058499 4.69878,3.00004 4.69878,2.943192 4.69879,2.887897 4.69878,2.834101 4.69878,2.78175 4.69879,2.730794 4.69878,2.681184 4.69878,2.63287 4.69879,2.58583 4.69878,2.53998 4.69878,2.49531 4.69879,2.45178 4.69878,2.40934 4.69878,2.36796 4.69879,2.32761 4.69878,2.28825 4.69878,2.24985 4.69879,2.21239 4.69878,2.17581 4.69878,2.14012 4.69879,2.10527 4.69878,2.07123 4.69878,2.038 4.69878,2.00554 4.69879,1.97381 4.69878,1.94283 4.69878,1.91252 4.69879,1.88292 4.69878,1.85397 4.69878,1.82567 4.69879,1.79799 4.69878,1.77091 4.69878,1.74442 4.69879,1.71852 4.69878,1.69315 4.69878,1.66834 4.69879,1.64405 4.69878,1.62027 4.69878,1.59699 4.69879,1.57418 4.69878,1.55186 4.69878,1.52999 4.69879,1.50856 4.69878,1.48757 4.69878,1.467 4.69879,1.44684 4.69878,1.42708 4.69878,1.40772 4.69879,1.38873 4.69878,1.37011 4.69878,1.35185 4.69879,1.33394 4.69878,1.31639 4.69878,1.29915 4.69879,1.28226 4.69878,1.26567 4.69878,1.24939 4.69879,1.23343 4.69878,1.21775 4.69878,1.20236 4.69879,1.18725 4.69878,1.17242 4.69878,1.15786 4.69879,1.14356 4.69878,1.12951 4.69878,1.11571 4.69879,1.10215 4.69878,1.08884 4.69878,1.07576 4.69879,1.06291 4.69878,1.05027 4.69878,1.03785 4.69879,1.02565 4.69878,1.01366 4.69878,1.00186 4.69879,0.99027 4.69878,0.97887 4.69878,0.96765 4.69879,0.95664 4.69878,0.94579 4.69878,0.93512 4.69879,0.92463 4.69878,0.91432 4.69878,0.90416 v 19.02564 0 l -4.69878,-0.91872 -4.69878,-0.92998 -4.69879,-0.94142 -4.69878,-0.95307 -4.69878,-0.96493 -4.69879,-0.97699 -4.69878,-0.98927 -4.69878,-1.00176 -4.69879,-1.0145 -4.69878,-1.02744 -4.69878,-1.04064 -4.69879,-1.05406 -4.69878,-1.06774 -4.69878,-1.08168 -4.69879,-1.09586 -4.69878,-1.11032 -4.69878,-1.12504 -4.69879,-1.14005 -4.69878,-1.15534 -4.69878,-1.17092 -4.69879,-1.1868 -4.69878,-1.20299 -4.69878,-1.21949 -4.69879,-1.23632 -4.69878,-1.25348 -4.69878,-1.27097 -4.69879,-1.28881 -4.69878,-1.30702 -4.69878,-1.32558 -4.69879,-1.34453 -4.69878,-1.36386 -4.69878,-1.38358 -4.69879,-1.40372 -4.69878,-1.42426 -4.69878,-1.44524 -4.69879,-1.46667 -4.69878,-1.48853 -4.69878,-1.51087 -4.69879,-1.53369 -4.69878,-1.557 -4.69878,-1.5808 -4.69879,-1.60514 -4.69878,-1.63 -4.69878,-1.65541 -4.69879,-1.68139 -4.69878,-1.70796 -4.69878,-1.73511 -4.69879,-1.76289 -4.69878,-1.7913 -4.69878,-1.82036 -4.69879,-1.8501 -4.69878,-1.88053 -4.69878,-1.91167 -4.69879,-1.94354 -4.69878,-1.97619 -4.69878,-2.0096 -4.69879,-2.04383 -4.69878,-2.07889 -4.69878,-2.1148 -4.69879,-2.1516 -4.69878,-2.18932 -4.69878,-2.22798 -4.69878,-2.26761 -4.69879,-2.30825 -4.69878,-2.34993 -4.69878,-2.39269 -4.69879,-2.43655 -4.69878,-2.48157 -4.69878,-2.52776 -4.69879,-2.5752 -4.69878,-2.6239 -4.69878,-2.67391 -4.69879,-2.72529 -4.69878,-2.77808 -4.69878,-2.83233 -4.69879,-2.88808 -4.69878,-2.94542 -4.69878,-3.00438 -4.69879,-3.06502 -4.69878,-3.12741 -4.69878,-3.191619 -4.69879,-3.25771 -4.69878,-3.325757 -4.69878,-3.395837 -4.69879,-3.468027 -4.69878,-3.542411 -4.69878,-3.619077 -4.69879,-3.698116 -4.69878,-3.779621 -4.69878,-3.863698 -4.69879,-3.950448 -4.69878,-4.039985 -4.69878,-4.132424 -4.69879,-4.227891 -4.69878,-4.326512 -4.698783,-4.428425 -4.698783,-4.533774 -4.698783,-4.642709 z"
       clip-path="url(#p430a9aa24e)"
       style="fill:#bf00bf;fill-opacity:0.5"
       id="path5" />
  </g>
  <g
     id="PolyCollection_4"
     transform="translate(-11.799375,-10.4)">
    <path
       d="M 76.761477,368.67818 V 27.841818 l 4.698784,4.755391 4.698783,4.642709 4.698783,4.533774 4.698783,4.428425 4.69878,4.326512 4.69879,4.227891 4.69878,4.132424 4.69878,4.039985 4.69879,3.950448 4.69878,3.863698 4.69878,3.779621 4.69879,3.698116 4.69878,3.619077 4.69878,3.542411 4.69879,3.468027 4.69878,3.395837 4.69878,3.325757 4.69879,3.25771 4.69878,3.191619 4.69878,3.12741 4.69879,3.06502 4.69878,3.00438 4.69878,2.94542 4.69879,2.88808 4.69878,2.83233 4.69878,2.77808 4.69879,2.72529 4.69878,2.67391 4.69878,2.6239 4.69879,2.5752 4.69878,2.52776 4.69878,2.48157 4.69879,2.43655 4.69878,2.39269 4.69878,2.34993 4.69879,2.30825 4.69878,2.26761 4.69878,2.22798 4.69878,2.18932 4.69879,2.1516 4.69878,2.1148 4.69878,2.07889 4.69879,2.04383 4.69878,2.0096 4.69878,1.97619 4.69879,1.94354 4.69878,1.91167 4.69878,1.88053 4.69879,1.8501 4.69878,1.82036 4.69878,1.7913 4.69879,1.76289 4.69878,1.73511 4.69878,1.70796 4.69879,1.68139 4.69878,1.65541 4.69878,1.63 4.69879,1.60514 4.69878,1.5808 4.69878,1.557 4.69879,1.53369 4.69878,1.51087 4.69878,1.48853 4.69879,1.46667 4.69878,1.44524 4.69878,1.42426 4.69879,1.40372 4.69878,1.38358 4.69878,1.36386 4.69879,1.34453 4.69878,1.32558 4.69878,1.30702 4.69879,1.28881 4.69878,1.27097 4.69878,1.25348 4.69879,1.23632 4.69878,1.21949 4.69878,1.20299 4.69879,1.1868 4.69878,1.17092 4.69878,1.15534 4.69879,1.14005 4.69878,1.12504 4.69878,1.11032 4.69879,1.09586 4.69878,1.08168 4.69878,1.06774 4.69879,1.05406 4.69878,1.04064 4.69878,1.02744 4.69879,1.0145 4.69878,1.00176 4.69878,0.98927 4.69879,0.97699 4.69878,0.96493 4.69878,0.95307 4.69879,0.94142 4.69878,0.92998 4.69878,0.91872 v 129.332 0 h -4.69878 -4.69878 -4.69879 -4.69878 -4.69878 -4.69879 -4.69878 -4.69878 -4.69879 -4.69878 -4.69878 -4.69879 -4.69878 -4.69878 -4.69879 -4.69878 -4.69878 -4.69879 -4.69878 -4.69878 -4.69879 -4.69878 -4.69878 -4.69879 -4.69878 -4.69878 -4.69879 -4.69878 -4.69878 -4.69879 -4.69878 -4.69878 -4.69879 -4.69878 -4.69878 -4.69879 -4.69878 -4.69878 -4.69879 -4.69878 -4.69878 -4.69879 -4.69878 -4.69878 -4.69879 -4.69878 -4.69878 -4.69879 -4.69878 -4.69878 -4.69879 -4.69878 -4.69878 -4.69879 -4.69878 -4.69878 -4.69879 -4.69878 -4.69878 -4.69879 -4.69878 -4.69878 -4.69878 -4.69879 -4.69878 -4.69878 -4.69879 -4.69878 -4.69878 -4.69879 -4.69878 -4.69878 -4.69879 -4.69878 -4.69878 -4.69879 -4.69878 -4.69878 -4.69879 -4.69878 -4.69878 -4.69879 -4.69878 -4.69878 -4.69879 -4.69878 -4.69878 -4.69879 -4.69878 -4.69878 -4.69879 -4.69878 -4.69878 -4.69879 -4.69878 -4.698783 -4.698783 -4.698783 z"
       clip-path="url(#p430a9aa24e)"
       style="fill:#008000;fill-opacity:0.75"
       id="path6" />
  </g>
  <g
     id="matplotlib.axis_1"
     transform="translate(-11.799375,-10.4)">
    <g
       id="xtick_1">
      <g
         id="line2d_1">
        <defs
           id="defs6">
          <path
             id="m25f26d6795"
             d="M 0,0 V 3.5"
             style="stroke:#000000;stroke-width:0.8" />
        </defs>
        <g
           id="g6">
          <use
             xlink:href="#m25f26d6795"
             x="134.02077"
             y="385.72"
             style="stroke:#000000;stroke-width:0.8"
             id="use6" />
        </g>
      </g>
      <g
         id="text_1">
        <!-- 1.0 -->
        <g
           transform="matrix(0.1,0,0,-0.1,126.06921,400.31844)"
           id="g9">
          <defs
             id="defs7">
            <path
               id="DejaVuSans-31"
               d="M 794,531 H 1825 V 4091 L 703,3866 v 575 l 1116,225 h 631 V 531 H 3481 V 0 H 794 Z"
               transform="scale(0.015625)" />
            <path
               id="DejaVuSans-2e"
               d="m 684,794 h 660 V 0 H 684 Z"
               transform="scale(0.015625)" />
            <path
               id="DejaVuSans-30"
               d="m 2034,4250 q -487,0 -733,-480 -245,-479 -245,-1442 0,-959 245,-1439 246,-480 733,-480 491,0 736,480 246,480 246,1439 0,963 -246,1442 -245,480 -736,480 z m 0,500 q 785,0 1199,-621 414,-620 414,-1801 0,-1178 -414,-1799 -414,-620 -1199,-620 -784,0 -1198,620 -414,621 -414,1799 0,1181 414,1801 414,621 1198,621 z"
               transform="scale(0.015625)" />
          </defs>
          <use
             xlink:href="#DejaVuSans-31"
             id="use7" />
          <use
             xlink:href="#DejaVuSans-2e"
             x="63.623047"
             id="use8" />
          <use
             xlink:href="#DejaVuSans-30"
             x="95.410156"
             id="use9" />
        </g>
      </g>
    </g>
    <g
       id="xtick_2">
      <g
         id="line2d_2">
        <g
           id="g10">
          <use
             xlink:href="#m25f26d6795"
             x="238.50854"
             y="385.72"
             style="stroke:#000000;stroke-width:0.8"
             id="use10" />
        </g>
      </g>
      <g
         id="text_2">
        <!-- 1.2 -->
        <g
           transform="matrix(0.1,0,0,-0.1,230.55698,400.31844)"
           id="g13">
          <defs
             id="defs10">
            <path
               id="DejaVuSans-32"
               d="M 1228,531 H 3431 V 0 H 469 v 531 q 359,372 979,998 621,627 780,809 303,340 423,576 121,236 121,464 0,372 -261,606 -261,235 -680,235 -297,0 -627,-103 -329,-103 -704,-313 v 638 q 381,153 712,231 332,78 607,78 725,0 1156,-363 431,-362 431,-968 0,-288 -108,-546 -107,-257 -392,-607 -78,-91 -497,-524 Q 1991,1309 1228,531 Z"
               transform="scale(0.015625)" />
          </defs>
          <use
             xlink:href="#DejaVuSans-31"
             id="use11" />
          <use
             xlink:href="#DejaVuSans-2e"
             x="63.623047"
             id="use12" />
          <use
             xlink:href="#DejaVuSans-32"
             x="95.410156"
             id="use13" />
        </g>
      </g>
    </g>
    <g
       id="xtick_3">
      <g
         id="line2d_3">
        <g
           id="g14">
          <use
             xlink:href="#m25f26d6795"
             x="342.99631"
             y="385.72"
             style="stroke:#000000;stroke-width:0.8"
             id="use14" />
        </g>
      </g>
      <g
         id="text_3">
        <!-- 1.4 -->
        <g
           transform="matrix(0.1,0,0,-0.1,335.04475,400.31844)"
           id="g17">
          <defs
             id="defs14">
            <path
               id="DejaVuSans-34"
               d="M 2419,4116 825,1625 h 1594 z m -166,550 h 794 V 1625 h 666 V 1100 H 3047 V 0 H 2419 V 1100 H 313 v 609 z"
               transform="scale(0.015625)" />
          </defs>
          <use
             xlink:href="#DejaVuSans-31"
             id="use15" />
          <use
             xlink:href="#DejaVuSans-2e"
             x="63.623047"
             id="use16" />
          <use
             xlink:href="#DejaVuSans-34"
             x="95.410156"
             id="use17" />
        </g>
      </g>
    </g>
    <g
       id="xtick_4">
      <g
         id="line2d_4">
        <g
           id="g18">
          <use
             xlink:href="#m25f26d6795"
             x="447.48407"
             y="385.72"
             style="stroke:#000000;stroke-width:0.8"
             id="use18" />
        </g>
      </g>
      <g
         id="text_4">
        <!-- 1.6 -->
        <g
           transform="matrix(0.1,0,0,-0.1,439.53252,400.31844)"
           id="g21">
          <defs
             id="defs18">
            <path
               id="DejaVuSans-36"
               d="m 2113,2584 q -425,0 -674,-291 -248,-290 -248,-796 0,-503 248,-796 249,-292 674,-292 425,0 673,292 248,293 248,796 0,506 -248,796 -248,291 -673,291 z m 1253,1979 v -575 q -238,112 -480,171 -242,60 -480,60 -625,0 -955,-422 -329,-422 -376,-1275 184,272 462,417 279,145 613,145 703,0 1111,-427 408,-426 408,-1160 0,-719 -425,-1154 -425,-434 -1131,-434 -810,0 -1238,620 -428,621 -428,1799 0,1106 525,1764 525,658 1409,658 238,0 480,-47 242,-47 505,-140 z"
               transform="scale(0.015625)" />
          </defs>
          <use
             xlink:href="#DejaVuSans-31"
             id="use19" />
          <use
             xlink:href="#DejaVuSans-2e"
             x="63.623047"
             id="use20" />
          <use
             xlink:href="#DejaVuSans-36"
             x="95.410156"
             id="use21" />
        </g>
      </g>
    </g>
    <g
       id="xtick_5">
      <g
         id="line2d_5">
        <g
           id="g22">
          <use
             xlink:href="#m25f26d6795"
             x="551.97186"
             y="385.72"
             style="stroke:#000000;stroke-width:0.8"
             id="use22" />
        </g>
      </g>
      <g
         id="text_5">
        <!-- 1.8 -->
        <g
           transform="matrix(0.1,0,0,-0.1,544.02029,400.31844)"
           id="g25">
          <defs
             id="defs22">
            <path
               id="DejaVuSans-38"
               d="m 2034,2216 q -450,0 -708,-241 -257,-241 -257,-662 0,-422 257,-663 258,-241 708,-241 450,0 709,242 260,243 260,662 0,421 -258,662 -257,241 -711,241 z m -631,268 q -406,100 -633,378 -226,279 -226,679 0,559 398,884 399,325 1092,325 697,0 1094,-325 397,-325 397,-884 0,-400 -227,-679 -226,-278 -629,-378 456,-106 710,-416 255,-309 255,-755 Q 3634,634 3220,271 2806,-91 2034,-91 1263,-91 848,271 434,634 434,1313 q 0,446 256,755 257,310 713,416 z m -231,997 q 0,-362 226,-565 227,-203 636,-203 407,0 636,203 230,203 230,565 0,363 -230,566 -229,203 -636,203 -409,0 -636,-203 -226,-203 -226,-566 z"
               transform="scale(0.015625)" />
          </defs>
          <use
             xlink:href="#DejaVuSans-31"
             id="use23" />
          <use
             xlink:href="#DejaVuSans-2e"
             x="63.623047"
             id="use24" />
          <use
             xlink:href="#DejaVuSans-38"
             x="95.410156"
             id="use25" />
        </g>
      </g>
    </g>
    <g
       id="text_6">
      <!-- Specific Volume $V$ [m³/kg] -->
      <g
         transform="matrix(0.12,0,0,-0.12,231.11125,415.51812)"
         id="g50">
        <defs
           id="defs25">
          <path
             id="DejaVuSans-53"
             d="m 3425,4513 v -616 q -359,172 -678,256 -319,85 -616,85 -515,0 -795,-200 -280,-200 -280,-569 0,-310 186,-468 186,-157 705,-254 l 381,-78 q 706,-135 1042,-474 336,-339 336,-907 0,-679 -455,-1029 -454,-350 -1332,-350 -331,0 -705,75 -373,75 -773,222 v 650 q 384,-215 753,-325 369,-109 725,-109 540,0 834,212 294,213 294,607 0,343 -211,537 -211,194 -692,291 l -385,75 q -706,140 -1022,440 -315,300 -315,835 0,619 436,975 436,356 1201,356 329,0 669,-60 341,-59 697,-177 z"
             transform="scale(0.015625)" />
          <path
             id="DejaVuSans-70"
             d="M 1159,525 V -1331 H 581 v 4831 h 578 v -531 q 182,312 458,463 277,152 661,152 638,0 1036,-506 399,-506 399,-1331 0,-825 -399,-1332 -398,-506 -1036,-506 -384,0 -661,152 -276,152 -458,464 z m 1957,1222 q 0,634 -261,995 -261,361 -717,361 -457,0 -718,-361 -261,-361 -261,-995 0,-634 261,-995 261,-361 718,-361 456,0 717,361 261,361 261,995 z"
             transform="scale(0.015625)" />
          <path
             id="DejaVuSans-65"
             d="M 3597,1894 V 1613 H 953 q 38,-594 358,-905 320,-311 892,-311 331,0 642,81 311,81 618,244 V 178 Q 3153,47 2828,-22 2503,-91 2169,-91 1331,-91 842,396 353,884 353,1716 q 0,859 464,1363 464,505 1252,505 706,0 1117,-455 411,-454 411,-1235 z m -575,169 q -6,471 -264,752 -258,282 -683,282 -481,0 -770,-272 -289,-272 -333,-766 z"
             transform="scale(0.015625)" />
          <path
             id="DejaVuSans-63"
             d="m 3122,3366 v -538 q -244,135 -489,202 -245,67 -495,67 -560,0 -870,-355 -309,-354 -309,-995 0,-641 309,-996 310,-354 870,-354 250,0 495,67 245,67 489,202 V 134 Q 2881,22 2623,-34 2366,-91 2075,-91 1284,-91 818,406 353,903 353,1747 q 0,856 470,1346 471,491 1290,491 265,0 518,-55 253,-54 491,-163 z"
             transform="scale(0.015625)" />
          <path
             id="DejaVuSans-69"
             d="m 603,3500 h 575 V 0 H 603 Z m 0,1363 h 575 V 4134 H 603 Z"
             transform="scale(0.015625)" />
          <path
             id="DejaVuSans-66"
             d="m 2375,4863 v -479 h -550 q -309,0 -430,-125 -120,-125 -120,-450 v -309 h 947 V 3053 H 1275 V 0 H 697 V 3053 H 147 v 447 h 550 v 244 q 0,584 272,851 272,268 862,268 z"
             transform="scale(0.015625)" />
          <path
             id="DejaVuSans-20"
             transform="scale(0.015625)"
             d="" />
          <path
             id="DejaVuSans-56"
             d="M 1831,0 50,4666 H 709 L 2188,738 3669,4666 h 656 L 2547,0 Z"
             transform="scale(0.015625)" />
          <path
             id="DejaVuSans-6f"
             d="m 1959,3097 q -462,0 -731,-361 -269,-361 -269,-989 0,-628 267,-989 268,-361 733,-361 460,0 728,362 269,363 269,988 0,622 -269,986 -268,364 -728,364 z m 0,487 q 750,0 1178,-488 429,-487 429,-1349 Q 3566,888 3137,398 2709,-91 1959,-91 1206,-91 779,398 353,888 353,1747 q 0,862 426,1349 427,488 1180,488 z"
             transform="scale(0.015625)" />
          <path
             id="DejaVuSans-6c"
             d="m 603,4863 h 575 V 0 H 603 Z"
             transform="scale(0.015625)" />
          <path
             id="DejaVuSans-75"
             d="m 544,1381 v 2119 h 575 V 1403 q 0,-497 193,-746 194,-248 582,-248 465,0 735,297 271,297 271,810 v 1984 h 575 V 0 H 2900 V 538 Q 2691,219 2414,64 2138,-91 1772,-91 1169,-91 856,284 544,659 544,1381 Z m 1447,2203 z"
             transform="scale(0.015625)" />
          <path
             id="DejaVuSans-6d"
             d="m 3328,2828 q 216,388 516,572 300,184 706,184 547,0 844,-383 297,-382 297,-1088 V 0 h -578 v 2094 q 0,503 -179,746 -178,244 -543,244 -447,0 -707,-297 -259,-296 -259,-809 V 0 h -578 v 2094 q 0,506 -178,748 -178,242 -550,242 -441,0 -701,-298 -259,-298 -259,-808 V 0 H 581 v 3500 h 578 v -544 q 197,322 472,475 275,153 653,153 382,0 649,-194 267,-193 395,-562 z"
             transform="scale(0.015625)" />
          <path
             id="DejaVuSans-Oblique-56"
             d="M 1319,0 500,4666 h 619 L 1797,653 4063,4666 h 687 L 2053,0 Z"
             transform="scale(0.015625)" />
          <path
             id="DejaVuSans-5b"
             d="M 550,4863 H 1875 V 4416 H 1125 V -397 h 750 V -844 H 550 Z"
             transform="scale(0.015625)" />
          <path
             id="DejaVuSans-b3"
             d="m 1638,3500 q 287,-56 445,-227 158,-170 158,-426 0,-388 -297,-597 -297,-209 -850,-209 -178,0 -374,32 -195,33 -414,96 v 378 q 163,-84 349,-125 186,-41 395,-41 341,0 528,123 188,124 188,343 0,231 -174,350 -173,119 -511,119 H 813 v 337 h 293 q 294,0 445,98 152,99 152,287 0,181 -156,276 -156,95 -453,95 -125,0 -285,-28 -159,-28 -412,-100 v 360 q 228,53 428,81 200,28 372,28 450,0 714,-185 264,-184 264,-493 0,-216 -141,-366 -140,-150 -396,-206 z"
             transform="scale(0.015625)" />
          <path
             id="DejaVuSans-2f"
             d="m 1625,4666 h 531 L 531,-594 H 0 Z"
             transform="scale(0.015625)" />
          <path
             id="DejaVuSans-6b"
             d="m 581,4863 h 578 V 1991 l 1716,1509 h 734 L 1753,1863 3688,0 H 2938 L 1159,1709 V 0 H 581 Z"
             transform="scale(0.015625)" />
          <path
             id="DejaVuSans-67"
             d="m 2906,1791 q 0,625 -258,968 -257,344 -723,344 -462,0 -720,-344 -258,-343 -258,-968 0,-622 258,-966 258,-344 720,-344 466,0 723,344 258,344 258,966 z M 3481,434 q 0,-893 -397,-1329 -396,-436 -1215,-436 -303,0 -572,45 -269,45 -522,139 v 559 q 253,-137 500,-202 247,-66 503,-66 566,0 847,295 281,295 281,892 V 616 Q 2728,306 2450,153 2172,0 1784,0 1141,0 747,490 353,981 353,1791 q 0,812 394,1302 394,491 1037,491 388,0 666,-153 278,-153 456,-462 v 531 h 575 z"
             transform="scale(0.015625)" />
          <path
             id="DejaVuSans-5d"
             d="M 1947,4863 V -844 H 622 v 447 h 747 V 4416 H 622 v 447 z"
             transform="scale(0.015625)" />
        </defs>
        <use
           xlink:href="#DejaVuSans-53"
           transform="translate(0,0.015625)"
           id="use26" />
        <use
           xlink:href="#DejaVuSans-70"
           transform="translate(63.476562,0.015625)"
           id="use27" />
        <use
           xlink:href="#DejaVuSans-65"
           transform="translate(126.95313,0.015625)"
           id="use28" />
        <use
           xlink:href="#DejaVuSans-63"
           transform="translate(188.47656,0.015625)"
           id="use29" />
        <use
           xlink:href="#DejaVuSans-69"
           transform="translate(243.45703,0.015625)"
           id="use30" />
        <use
           xlink:href="#DejaVuSans-66"
           transform="translate(271.24023,0.015625)"
           id="use31" />
        <use
           xlink:href="#DejaVuSans-69"
           transform="translate(306.44531,0.015625)"
           id="use32" />
        <use
           xlink:href="#DejaVuSans-63"
           transform="translate(334.22852,0.015625)"
           id="use33" />
        <use
           xlink:href="#DejaVuSans-20"
           transform="translate(389.20898,0.015625)"
           id="use34" />
        <use
           xlink:href="#DejaVuSans-56"
           transform="translate(420.99609,0.015625)"
           id="use35" />
        <use
           xlink:href="#DejaVuSans-6f"
           transform="translate(489.4043,0.015625)"
           id="use36" />
        <use
           xlink:href="#DejaVuSans-6c"
           transform="translate(550.58594,0.015625)"
           id="use37" />
        <use
           xlink:href="#DejaVuSans-75"
           transform="translate(578.36914,0.015625)"
           id="use38" />
        <use
           xlink:href="#DejaVuSans-6d"
           transform="translate(641.74805,0.015625)"
           id="use39" />
        <use
           xlink:href="#DejaVuSans-65"
           transform="translate(739.16016,0.015625)"
           id="use40" />
        <use
           xlink:href="#DejaVuSans-20"
           transform="translate(800.68359,0.015625)"
           id="use41" />
        <use
           xlink:href="#DejaVuSans-Oblique-56"
           transform="translate(832.4707,0.015625)"
           id="use42" />
        <use
           xlink:href="#DejaVuSans-20"
           transform="translate(900.87891,0.015625)"
           id="use43" />
        <use
           xlink:href="#DejaVuSans-5b"
           transform="translate(932.66602,0.015625)"
           id="use44" />
        <use
           xlink:href="#DejaVuSans-6d"
           transform="translate(971.67969,0.015625)"
           id="use45" />
        <use
           xlink:href="#DejaVuSans-b3"
           transform="translate(1069.0918,0.015625)"
           id="use46" />
        <use
           xlink:href="#DejaVuSans-2f"
           transform="translate(1109.1797,0.015625)"
           id="use47" />
        <use
           xlink:href="#DejaVuSans-6b"
           transform="translate(1142.8711,0.015625)"
           id="use48" />
        <use
           xlink:href="#DejaVuSans-67"
           transform="translate(1200.7813,0.015625)"
           id="use49" />
        <use
           xlink:href="#DejaVuSans-5d"
           transform="translate(1264.2578,0.015625)"
           id="use50" />
      </g>
    </g>
  </g>
  <g
     id="matplotlib.axis_2"
     transform="translate(-11.799375,-10.4)">
    <g
       id="ytick_1">
      <g
         id="line2d_6">
        <defs
           id="defs50">
          <path
             id="m0be321802d"
             d="M 0,0 H -3.5"
             style="stroke:#000000;stroke-width:0.8" />
        </defs>
        <g
           id="g51">
          <use
             xlink:href="#m0be321802d"
             x="53.502499"
             y="368.67819"
             style="stroke:#000000;stroke-width:0.8"
             id="use51" />
        </g>
      </g>
      <g
         id="text_7">
        <!-- 0 -->
        <g
           transform="matrix(0.1,0,0,-0.1,40.14,372.4774)"
           id="g52">
          <use
             xlink:href="#DejaVuSans-30"
             id="use52" />
        </g>
      </g>
    </g>
    <g
       id="ytick_2">
      <g
         id="line2d_7">
        <g
           id="g53">
          <use
             xlink:href="#m0be321802d"
             x="53.502499"
             y="300.51089"
             style="stroke:#000000;stroke-width:0.8"
             id="use53" />
        </g>
      </g>
      <g
         id="text_8">
        <!-- 20 -->
        <g
           transform="matrix(0.1,0,0,-0.1,33.7775,304.31013)"
           id="g55">
          <use
             xlink:href="#DejaVuSans-32"
             id="use54" />
          <use
             xlink:href="#DejaVuSans-30"
             x="63.623047"
             id="use55" />
        </g>
      </g>
    </g>
    <g
       id="ytick_3">
      <g
         id="line2d_8">
        <g
           id="g56">
          <use
             xlink:href="#m0be321802d"
             x="53.502499"
             y="232.34364"
             style="stroke:#000000;stroke-width:0.8"
             id="use56" />
        </g>
      </g>
      <g
         id="text_9">
        <!-- 40 -->
        <g
           transform="matrix(0.1,0,0,-0.1,33.7775,236.14285)"
           id="g58">
          <use
             xlink:href="#DejaVuSans-34"
             id="use57" />
          <use
             xlink:href="#DejaVuSans-30"
             x="63.623047"
             id="use58" />
        </g>
      </g>
    </g>
    <g
       id="ytick_4">
      <g
         id="line2d_9">
        <g
           id="g59">
          <use
             xlink:href="#m0be321802d"
             x="53.502499"
             y="164.17636"
             style="stroke:#000000;stroke-width:0.8"
             id="use59" />
        </g>
      </g>
      <g
         id="text_10">
        <!-- 60 -->
        <g
           transform="matrix(0.1,0,0,-0.1,33.7775,167.97558)"
           id="g61">
          <use
             xlink:href="#DejaVuSans-36"
             id="use60" />
          <use
             xlink:href="#DejaVuSans-30"
             x="63.623047"
             id="use61" />
        </g>
      </g>
    </g>
    <g
       id="ytick_5">
      <g
         id="line2d_10">
        <g
           id="g62">
          <use
             xlink:href="#m0be321802d"
             x="53.502499"
             y="96.009094"
             style="stroke:#000000;stroke-width:0.8"
             id="use62" />
        </g>
      </g>
      <g
         id="text_11">
        <!-- 80 -->
        <g
           transform="matrix(0.1,0,0,-0.1,33.7775,99.80831)"
           id="g64">
          <use
             xlink:href="#DejaVuSans-38"
             id="use63" />
          <use
             xlink:href="#DejaVuSans-30"
             x="63.623047"
             id="use64" />
        </g>
      </g>
    </g>
    <g
       id="ytick_6">
      <g
         id="line2d_11">
        <g
           id="g65">
          <use
             xlink:href="#m0be321802d"
             x="53.502499"
             y="27.841818"
             style="stroke:#000000;stroke-width:0.8"
             id="use65" />
        </g>
      </g>
      <g
         id="text_12">
        <!-- 100 -->
        <g
           transform="matrix(0.1,0,0,-0.1,27.415,31.641037)"
           id="g68">
          <use
             xlink:href="#DejaVuSans-31"
             id="use66" />
          <use
             xlink:href="#DejaVuSans-30"
             x="63.623047"
             id="use67" />
          <use
             xlink:href="#DejaVuSans-30"
             x="127.24609"
             id="use68" />
        </g>
      </g>
    </g>
    <g
       id="text_13">
      <!-- Pressure $P$ [kPa] -->
      <g
         transform="matrix(0,-0.12,-0.12,0,20.919375,247.16)"
         id="g84">
        <defs
           id="defs68">
          <path
             id="DejaVuSans-50"
             d="M 1259,4147 V 2394 h 794 q 441,0 681,228 241,228 241,650 0,419 -241,647 -240,228 -681,228 z m -631,519 h 1425 q 785,0 1186,-355 402,-355 402,-1039 0,-691 -402,-1044 -401,-353 -1186,-353 H 1259 V 0 H 628 Z"
             transform="scale(0.015625)" />
          <path
             id="DejaVuSans-72"
             d="m 2631,2963 q -97,56 -211,82 -114,27 -251,27 -488,0 -749,-317 -261,-317 -261,-911 V 0 H 581 v 3500 h 578 v -544 q 182,319 472,473 291,155 707,155 59,0 131,-8 72,-7 159,-23 z"
             transform="scale(0.015625)" />
          <path
             id="DejaVuSans-73"
             d="m 2834,3397 v -544 q -243,125 -506,187 -262,63 -544,63 -428,0 -642,-131 -214,-131 -214,-394 0,-200 153,-314 153,-114 616,-217 l 197,-44 q 612,-131 870,-370 258,-239 258,-667 0,-488 -386,-773 Q 2250,-91 1575,-91 1294,-91 989,-36 684,19 347,128 v 594 q 319,-166 628,-249 309,-82 613,-82 406,0 624,139 219,139 219,392 0,234 -158,359 -157,125 -692,241 l -200,47 q -534,112 -772,345 -237,233 -237,639 0,494 350,762 350,269 994,269 318,0 599,-47 282,-46 519,-140 z"
             transform="scale(0.015625)" />
          <path
             id="DejaVuSans-Oblique-50"
             d="m 1081,4666 h 1460 q 637,0 971,-297 335,-297 335,-869 0,-769 -494,-1197 -494,-428 -1387,-428 H 1172 L 806,0 H 172 Z m 532,-519 -338,-1753 h 794 q 537,0 824,275 288,275 288,787 0,328 -195,509 -195,182 -548,182 z"
             transform="scale(0.015625)" />
          <path
             id="DejaVuSans-61"
             d="m 2194,1759 q -697,0 -966,-159 -269,-159 -269,-544 0,-306 202,-486 202,-179 548,-179 479,0 768,339 289,339 289,901 v 128 z m 1147,238 V 0 H 2766 V 531 Q 2569,213 2275,61 1981,-91 1556,-91 q -537,0 -855,302 -317,302 -317,808 0,590 395,890 396,300 1180,300 h 807 v 57 q 0,397 -261,614 -261,217 -733,217 -300,0 -585,-72 -284,-72 -546,-216 v 532 q 315,122 612,182 297,61 578,61 760,0 1135,-394 375,-393 375,-1193 z"
             transform="scale(0.015625)" />
        </defs>
        <use
           xlink:href="#DejaVuSans-50"
           transform="translate(0,0.015625)"
           id="use69" />
        <use
           xlink:href="#DejaVuSans-72"
           transform="translate(60.302734,0.015625)"
           id="use70" />
        <use
           xlink:href="#DejaVuSans-65"
           transform="translate(101.41602,0.015625)"
           id="use71" />
        <use
           xlink:href="#DejaVuSans-73"
           transform="translate(162.93945,0.015625)"
           id="use72" />
        <use
           xlink:href="#DejaVuSans-73"
           transform="translate(215.03906,0.015625)"
           id="use73" />
        <use
           xlink:href="#DejaVuSans-75"
           transform="translate(267.13867,0.015625)"
           id="use74" />
        <use
           xlink:href="#DejaVuSans-72"
           transform="translate(330.51758,0.015625)"
           id="use75" />
        <use
           xlink:href="#DejaVuSans-65"
           transform="translate(371.63086,0.015625)"
           id="use76" />
        <use
           xlink:href="#DejaVuSans-20"
           transform="translate(433.1543,0.015625)"
           id="use77" />
        <use
           xlink:href="#DejaVuSans-Oblique-50"
           transform="translate(464.94141,0.015625)"
           id="use78" />
        <use
           xlink:href="#DejaVuSans-20"
           transform="translate(525.24414,0.015625)"
           id="use79" />
        <use
           xlink:href="#DejaVuSans-5b"
           transform="translate(557.03125,0.015625)"
           id="use80" />
        <use
           xlink:href="#DejaVuSans-6b"
           transform="translate(596.04492,0.015625)"
           id="use81" />
        <use
           xlink:href="#DejaVuSans-50"
           transform="translate(653.95508,0.015625)"
           id="use82" />
        <use
           xlink:href="#DejaVuSans-61"
           transform="translate(714.25781,0.015625)"
           id="use83" />
        <use
           xlink:href="#DejaVuSans-5d"
           transform="translate(775.53711,0.015625)"
           id="use84" />
      </g>
    </g>
  </g>
  <g
     id="line2d_12"
     transform="translate(-11.799375,-10.4)">
    <path
       d="m 76.761477,27.841818 h 4.698784 4.698783 4.698783 4.698783 4.69878 4.69879 4.69878 4.69878 4.69879 4.69878 4.69878 4.69879 4.69878 4.69878 4.69879 4.69878 4.69878 4.69879 4.69878 4.69878 4.69879 4.69878 4.69878 4.69879 4.69878 4.69878 4.69879 4.69878 4.69878 4.69879 4.69878 4.69878 4.69879 4.69878 4.69878 4.69879 4.69878 4.69878 4.69878 4.69879 4.69878 4.69878 4.69879 4.69878 4.69878 4.69879 4.69878 4.69878 4.69879 4.69878 4.69878 4.69879 4.69878 4.69878 4.69879 4.69878 4.69878 4.69879 4.69878 4.69878 4.69879 4.69878 4.69878 4.69879 4.69878 4.69878 4.69879 4.69878 4.69878 4.69879 4.69878 4.69878 4.69879 4.69878 4.69878 4.69879 4.69878 4.69878 4.69879 4.69878 4.69878 4.69879 4.69878 4.69878 4.69879 4.69878 4.69878 4.69879 4.69878 4.69878 4.69879 4.69878 4.69878 4.69879 4.69878 4.69878 4.69879 4.69878 4.69878"
       clip-path="url(#p430a9aa24e)"
       style="fill:none;stroke:#ff0000;stroke-width:1.5;stroke-linecap:square"
       id="path84" />
  </g>
  <g
     id="line2d_13"
     transform="translate(-11.799375,-10.4)">
    <path
       d="m 76.761477,27.841818 4.698784,3.408364 4.698783,3.340871 4.698783,3.275364 4.698783,3.211765 4.69878,3.15 4.69879,3.09 4.69878,3.031698 4.69878,2.975031 4.69879,2.919937 4.69878,2.866361 4.69878,2.814246 4.69879,2.763538 4.69878,2.714189 4.69878,2.66615 4.69879,2.619376 4.69878,2.573822 4.69878,2.529445 4.69879,2.486207 4.69878,2.444068 4.69878,2.402991 4.69879,2.362941 4.69878,2.323884 4.69878,2.285788 4.69879,2.248621 4.69878,2.212352 4.69878,2.176955 4.69879,2.142398 4.69878,2.10866 4.69878,2.07572 4.69879,2.04353 4.69878,2.01209 4.69878,1.98138 4.69879,1.95135 4.69878,1.92201 4.69878,1.89332 4.69879,1.86528 4.69878,1.83784 4.69878,1.81101 4.69878,1.78477 4.69879,1.75909 4.69878,1.73395 4.69878,1.70936 4.69879,1.68529 4.69878,1.66171 4.69878,1.63864 4.69879,1.61604 4.69878,1.59389 4.69878,1.57221 4.69879,1.55097 4.69878,1.53015 4.69878,1.50974 4.69879,1.48975 4.69878,1.47015 4.69878,1.45092 4.69879,1.43209 4.69878,1.41361 4.69878,1.39548 4.69879,1.37771 4.69878,1.36027 4.69878,1.34315 4.69879,1.32637 4.69878,1.30989 4.69878,1.29372 4.69879,1.27785 4.69878,1.26226 4.69878,1.24696 4.69879,1.23194 4.69878,1.21719 4.69878,1.20269 4.69879,1.18846 4.69878,1.17448 4.69878,1.16075 4.69879,1.14724 4.69878,1.13398 4.69878,1.12095 4.69879,1.10814 4.69878,1.09555 4.69878,1.08316 4.69879,1.071 4.69878,1.05903 4.69878,1.04726 4.69879,1.03569 4.69878,1.02431 4.69878,1.01312 4.69879,1.0021 4.69878,0.99127 4.69878,0.98061 4.69879,0.97012 4.69878,0.9598 4.69878,0.94965 4.69879,0.93965 4.69878,0.92981 4.69878,0.92012 4.69879,0.91059 4.69878,0.9012 4.69878,0.89196 4.69879,0.88286 4.69878,0.87389 4.69878,0.86507"
       clip-path="url(#p430a9aa24e)"
       style="fill:none;stroke:#0000ff;stroke-width:1.5;stroke-linecap:square"
       id="path85" />
  </g>
  <g
     id="line2d_14"
     transform="translate(-11.799375,-10.4)">
    <path
       d="m 76.761477,27.841818 4.698784,4.755391 4.698783,4.642709 4.698783,4.533774 4.698783,4.428425 4.69878,4.326512 4.69879,4.227891 4.69878,4.132424 4.69878,4.039985 4.69879,3.950448 4.69878,3.863698 4.69878,3.779621 4.69879,3.698116 4.69878,3.619077 4.69878,3.542411 4.69879,3.468027 4.69878,3.395837 4.69878,3.325757 4.69879,3.25771 4.69878,3.191619 4.69878,3.12741 4.69879,3.06502 4.69878,3.00438 4.69878,2.94542 4.69879,2.88808 4.69878,2.83233 4.69878,2.77808 4.69879,2.72529 4.69878,2.67391 4.69878,2.6239 4.69879,2.5752 4.69878,2.52776 4.69878,2.48157 4.69879,2.43655 4.69878,2.39269 4.69878,2.34993 4.69879,2.30825 4.69878,2.26761 4.69878,2.22798 4.69878,2.18932 4.69879,2.1516 4.69878,2.1148 4.69878,2.07889 4.69879,2.04383 4.69878,2.0096 4.69878,1.97619 4.69879,1.94354 4.69878,1.91167 4.69878,1.88053 4.69879,1.8501 4.69878,1.82036 4.69878,1.7913 4.69879,1.76289 4.69878,1.73511 4.69878,1.70796 4.69879,1.68139 4.69878,1.65541 4.69878,1.63 4.69879,1.60514 4.69878,1.5808 4.69878,1.557 4.69879,1.53369 4.69878,1.51087 4.69878,1.48853 4.69879,1.46667 4.69878,1.44524 4.69878,1.42426 4.69879,1.40372 4.69878,1.38358 4.69878,1.36386 4.69879,1.34453 4.69878,1.32558 4.69878,1.30702 4.69879,1.28881 4.69878,1.27097 4.69878,1.25348 4.69879,1.23632 4.69878,1.21949 4.69878,1.20299 4.69879,1.1868 4.69878,1.17092 4.69878,1.15534 4.69879,1.14005 4.69878,1.12504 4.69878,1.11032 4.69879,1.09586 4.69878,1.08168 4.69878,1.06774 4.69879,1.05406 4.69878,1.04064 4.69878,1.02744 4.69879,1.0145 4.69878,1.00176 4.69878,0.98927 4.69879,0.97699 4.69878,0.96493 4.69878,0.95307 4.69879,0.94142 4.69878,0.92998 4.69878,0.91872"
       clip-path="url(#p430a9aa24e)"
       style="fill:none;stroke:#008000;stroke-width:1.5;stroke-linecap:square"
       id="path86" />
  </g>
  <g
     id="line2d_15"
     transform="translate(-11.799375,-10.4)">
    <path
       d="m 76.761477,27.841818 4.698784,4.085936 4.698783,3.997023 4.698783,3.910898 4.698783,3.827445 4.69878,3.746559 4.69879,3.668134 4.69878,3.592076 4.69878,3.518288 4.69879,3.446687 4.69878,3.377185 4.69878,3.309702 4.69879,3.244164 4.69878,3.180497 4.69878,3.118631 4.69879,3.058499 4.69878,3.00004 4.69878,2.943192 4.69879,2.887897 4.69878,2.834101 4.69878,2.78175 4.69879,2.730794 4.69878,2.681184 4.69878,2.63287 4.69879,2.58583 4.69878,2.53998 4.69878,2.49531 4.69879,2.45178 4.69878,2.40934 4.69878,2.36796 4.69879,2.32761 4.69878,2.28825 4.69878,2.24985 4.69879,2.21239 4.69878,2.17581 4.69878,2.14012 4.69879,2.10527 4.69878,2.07123 4.69878,2.038 4.69878,2.00554 4.69879,1.97381 4.69878,1.94283 4.69878,1.91252 4.69879,1.88292 4.69878,1.85397 4.69878,1.82567 4.69879,1.79799 4.69878,1.77091 4.69878,1.74442 4.69879,1.71852 4.69878,1.69315 4.69878,1.66834 4.69879,1.64405 4.69878,1.62027 4.69878,1.59699 4.69879,1.57418 4.69878,1.55186 4.69878,1.52999 4.69879,1.50856 4.69878,1.48757 4.69878,1.467 4.69879,1.44684 4.69878,1.42708 4.69878,1.40772 4.69879,1.38873 4.69878,1.37011 4.69878,1.35185 4.69879,1.33394 4.69878,1.31639 4.69878,1.29915 4.69879,1.28226 4.69878,1.26567 4.69878,1.24939 4.69879,1.23343 4.69878,1.21775 4.69878,1.20236 4.69879,1.18725 4.69878,1.17242 4.69878,1.15786 4.69879,1.14356 4.69878,1.12951 4.69878,1.11571 4.69879,1.10215 4.69878,1.08884 4.69878,1.07576 4.69879,1.06291 4.69878,1.05027 4.69878,1.03785 4.69879,1.02565 4.69878,1.01366 4.69878,1.00186 4.69879,0.99027 4.69878,0.97887 4.69878,0.96765 4.69879,0.95664 4.69878,0.94579 4.69878,0.93512 4.69879,0.92463 4.69878,0.91432 4.69878,0.90416"
       clip-path="url(#p430a9aa24e)"
       style="fill:none;stroke:#bf00bf;stroke-width:1.5;stroke-linecap:square"
       id="path87" />
  </g>
  <g
     id="line2d_16"
     transform="translate(-11.799375,-10.4)">
    <path
       d="M 76.761477,368.67818 V 27.841818"
       clip-path="url(#p430a9aa24e)"
       style="fill:none;stroke:#000000;stroke-width:2;stroke-dasharray:2, 3.3;stroke-dashoffset:0"
       id="path88" />
  </g>
  <g
     id="patch_3"
     transform="translate(-11.799375,-10.4)">
    <path
       d="M 53.5025,385.72 V 10.8"
       style="fill:none;stroke:#000000;stroke-width:0.8;stroke-linecap:square;stroke-linejoin:miter"
       id="path89" />
  </g>
  <g
     id="patch_5"
     transform="translate(-11.799375,-10.4)">
    <path
       d="M 53.5025,385.72 H 565.2"
       style="fill:none;stroke:#000000;stroke-width:0.8;stroke-linecap:square;stroke-linejoin:miter"
       id="path91" />
  </g>
  <g
     id="text_14"
     transform="translate(511.70063,-19.843733)">
    <!-- Isobaric -->
    <g
       transform="matrix(0.1,0,0,-0.1,90.5025,171.66312)"
       id="g100">
      <defs
         id="defs93">
        <path
           id="DejaVuSans-49"
           d="m 628,4666 h 631 V 0 H 628 Z"
           transform="scale(0.015625)" />
        <path
           id="DejaVuSans-62"
           d="m 3116,1747 q 0,634 -261,995 -261,361 -717,361 -457,0 -718,-361 -261,-361 -261,-995 0,-634 261,-995 261,-361 718,-361 456,0 717,361 261,361 261,995 z M 1159,2969 q 182,312 458,463 277,152 661,152 638,0 1036,-506 399,-506 399,-1331 Q 3713,922 3314,415 2916,-91 2278,-91 1894,-91 1617,61 1341,213 1159,525 V 0 H 581 v 4863 h 578 z"
           transform="scale(0.015625)" />
      </defs>
      <use
         xlink:href="#DejaVuSans-49"
         id="use93" />
      <use
         xlink:href="#DejaVuSans-73"
         x="29.492188"
         id="use94" />
      <use
         xlink:href="#DejaVuSans-6f"
         x="81.591797"
         id="use95" />
      <use
         xlink:href="#DejaVuSans-62"
         x="142.77344"
         id="use96" />
      <use
         xlink:href="#DejaVuSans-61"
         x="206.25"
         id="use97" />
      <use
         xlink:href="#DejaVuSans-72"
         x="267.5293"
         id="use98" />
      <use
         xlink:href="#DejaVuSans-69"
         x="308.64258"
         id="use99" />
      <use
         xlink:href="#DejaVuSans-63"
         x="336.42578"
         id="use100" />
    </g>
  </g>
  <g
     id="text_15"
     transform="translate(511.70063,0.896121)">
    <!-- Isothermal -->
    <g
       transform="matrix(0.1,0,0,-0.1,90.5025,186.34125)"
       id="g110">
      <defs
         id="defs100">
        <path
           id="DejaVuSans-74"
           d="M 1172,4494 V 3500 H 2356 V 3053 H 1172 V 1153 q 0,-428 117,-550 117,-122 477,-122 h 590 V 0 H 1766 Q 1100,0 847,248 594,497 594,1153 V 3053 H 172 v 447 h 422 v 994 z"
           transform="scale(0.015625)" />
        <path
           id="DejaVuSans-68"
           d="M 3513,2113 V 0 h -575 v 2094 q 0,497 -194,743 -194,247 -581,247 -466,0 -735,-297 -269,-296 -269,-809 V 0 H 581 v 4863 h 578 V 2956 q 207,316 486,472 280,156 646,156 603,0 912,-373 310,-373 310,-1098 z"
           transform="scale(0.015625)" />
      </defs>
      <use
         xlink:href="#DejaVuSans-49"
         id="use101" />
      <use
         xlink:href="#DejaVuSans-73"
         x="29.492188"
         id="use102" />
      <use
         xlink:href="#DejaVuSans-6f"
         x="81.591797"
         id="use103" />
      <use
         xlink:href="#DejaVuSans-74"
         x="142.77344"
         id="use104" />
      <use
         xlink:href="#DejaVuSans-68"
         x="181.98242"
         id="use105" />
      <use
         xlink:href="#DejaVuSans-65"
         x="245.36133"
         id="use106" />
      <use
         xlink:href="#DejaVuSans-72"
         x="306.88477"
         id="use107" />
      <use
         xlink:href="#DejaVuSans-6d"
         x="346.24805"
         id="use108" />
      <use
         xlink:href="#DejaVuSans-61"
         x="443.66016"
         id="use109" />
      <use
         xlink:href="#DejaVuSans-6c"
         x="504.93945"
         id="use110" />
    </g>
  </g>
  <g
     id="text_16"
     transform="translate(512.60374,57.053985)">
    <!-- Adiabatic -->
    <g
       transform="matrix(0.1,0,0,-0.1,90.5025,201.01937)"
       id="g119">
      <defs
         id="defs110">
        <path
           id="DejaVuSans-41"
           d="M 2188,4044 1331,1722 h 1716 z m -357,622 h 716 L 4325,0 H 3669 L 3244,1197 H 1141 L 716,0 H 50 Z"
           transform="scale(0.015625)" />
        <path
           id="DejaVuSans-64"
           d="m 2906,2969 v 1894 h 575 V 0 H 2906 V 525 Q 2725,213 2448,61 2172,-91 1784,-91 1150,-91 751,415 353,922 353,1747 q 0,825 398,1331 399,506 1033,506 388,0 664,-152 277,-151 458,-463 z M 947,1747 q 0,-634 261,-995 261,-361 717,-361 456,0 718,361 263,361 263,995 0,634 -263,995 -262,361 -718,361 -456,0 -717,-361 -261,-361 -261,-995 z"
           transform="scale(0.015625)" />
      </defs>
      <use
         xlink:href="#DejaVuSans-41"
         id="use111" />
      <use
         xlink:href="#DejaVuSans-64"
         x="66.658203"
         id="use112" />
      <use
         xlink:href="#DejaVuSans-69"
         x="130.13477"
         id="use113" />
      <use
         xlink:href="#DejaVuSans-61"
         x="157.91797"
         id="use114" />
      <use
         xlink:href="#DejaVuSans-62"
         x="219.19727"
         id="use115" />
      <use
         xlink:href="#DejaVuSans-61"
         x="282.67383"
         id="use116" />
      <use
         xlink:href="#DejaVuSans-74"
         x="343.95312"
         id="use117" />
      <use
         xlink:href="#DejaVuSans-69"
         x="383.16211"
         id="use118" />
      <use
         xlink:href="#DejaVuSans-63"
         x="410.94531"
         id="use119" />
    </g>
  </g>
  <g
     id="text_17"
     transform="translate(511.70063,5.989121)">
    <!-- Polytropic (n=1.2) -->
    <g
       transform="matrix(0.1,0,0,-0.1,90.5025,215.6975)"
       id="g137">
      <defs
         id="defs119">
        <path
           id="DejaVuSans-79"
           d="m 2059,-325 q -243,-625 -475,-815 -231,-191 -618,-191 H 506 v 481 h 338 q 237,0 368,113 132,112 291,531 L 1606,56 191,3500 H 800 L 1894,763 2988,3500 h 609 z"
           transform="scale(0.015625)" />
        <path
           id="DejaVuSans-28"
           d="m 1984,4856 q -418,-718 -622,-1422 -203,-703 -203,-1425 0,-721 205,-1429 205,-708 620,-1424 h -500 q -468,735 -701,1444 -233,709 -233,1409 0,697 231,1403 232,707 703,1444 z"
           transform="scale(0.015625)" />
        <path
           id="DejaVuSans-6e"
           d="M 3513,2113 V 0 h -575 v 2094 q 0,497 -194,743 -194,247 -581,247 -466,0 -735,-297 -269,-296 -269,-809 V 0 H 581 v 3500 h 578 v -544 q 207,316 486,472 280,156 646,156 603,0 912,-373 310,-373 310,-1098 z"
           transform="scale(0.015625)" />
        <path
           id="DejaVuSans-3d"
           d="M 678,2906 H 4684 V 2381 H 678 Z m 0,-1275 H 4684 V 1100 H 678 Z"
           transform="scale(0.015625)" />
        <path
           id="DejaVuSans-29"
           d="m 513,4856 h 500 q 468,-737 701,-1444 233,-706 233,-1403 0,-700 -233,-1409 -233,-709 -701,-1444 H 513 q 415,716 620,1424 205,708 205,1429 0,722 -205,1425 -205,704 -620,1422 z"
           transform="scale(0.015625)" />
      </defs>
      <use
         xlink:href="#DejaVuSans-50"
         id="use120" />
      <use
         xlink:href="#DejaVuSans-6f"
         x="56.677734"
         id="use121" />
      <use
         xlink:href="#DejaVuSans-6c"
         x="117.85938"
         id="use122" />
      <use
         xlink:href="#DejaVuSans-79"
         x="145.64258"
         id="use123" />
      <use
         xlink:href="#DejaVuSans-74"
         x="204.82227"
         id="use124" />
      <use
         xlink:href="#DejaVuSans-72"
         x="244.03125"
         id="use125" />
      <use
         xlink:href="#DejaVuSans-6f"
         x="282.89453"
         id="use126" />
      <use
         xlink:href="#DejaVuSans-70"
         x="344.07617"
         id="use127" />
      <use
         xlink:href="#DejaVuSans-69"
         x="407.55273"
         id="use128" />
      <use
         xlink:href="#DejaVuSans-63"
         x="435.33594"
         id="use129" />
      <use
         xlink:href="#DejaVuSans-20"
         x="490.31641"
         id="use130" />
      <use
         xlink:href="#DejaVuSans-28"
         x="522.10352"
         id="use131" />
      <use
         xlink:href="#DejaVuSans-6e"
         x="561.11719"
         id="use132" />
      <use
         xlink:href="#DejaVuSans-3d"
         x="624.49609"
         id="use133" />
      <use
         xlink:href="#DejaVuSans-31"
         x="708.28516"
         id="use134" />
      <use
         xlink:href="#DejaVuSans-2e"
         x="771.9082"
         id="use135" />
      <use
         xlink:href="#DejaVuSans-32"
         x="803.69531"
         id="use136" />
      <use
         xlink:href="#DejaVuSans-29"
         x="867.31836"
         id="use137" />
    </g>
  </g>
  <g
     id="line2d_21"
     transform="translate(504.08031,-112.4)">
    <path
       d="M 55.073929,226.87563 H 72.5025 90.731071"
       style="fill:none;stroke:#000000;stroke-width:2;stroke-dasharray:2, 3.3;stroke-dashoffset:0"
       id="path137"
       sodipodi:nodetypes="ccc" />
  </g>
  <g
     id="text_18"
     transform="translate(511.70063,-112.17188)">
    <!-- Isochoric -->
    <g
       transform="matrix(0.1,0,0,-0.1,90.5025,230.37563)"
       id="g146">
      <use
         xlink:href="#DejaVuSans-49"
         id="use138" />
      <use
         xlink:href="#DejaVuSans-73"
         x="29.492188"
         id="use139" />
      <use
         xlink:href="#DejaVuSans-6f"
         x="81.591797"
         id="use140" />
      <use
         xlink:href="#DejaVuSans-63"
         x="142.77344"
         id="use141" />
      <use
         xlink:href="#DejaVuSans-68"
         x="197.75391"
         id="use142" />
      <use
         xlink:href="#DejaVuSans-6f"
         x="261.13281"
         id="use143" />
      <use
         xlink:href="#DejaVuSans-72"
         x="322.31445"
         id="use144" />
      <use
         xlink:href="#DejaVuSans-69"
         x="363.42773"
         id="use145" />
      <use
         xlink:href="#DejaVuSans-63"
         x="391.21094"
         id="use146" />
    </g>
  </g>
  <defs
     id="defs146">
    <clipPath
       id="p430a9aa24e">
      <rect
         x="53.502499"
         y="10.8"
         width="511.69751"
         height="374.92001"
         id="rect146" />
    </clipPath>
  </defs>
  <rect
     style="fill:#ff0000;fill-opacity:0.14902;stroke:#ff0000;stroke-width:1;stroke-dasharray:none;stroke-dashoffset:0"
     id="rect147"
     width="34.264374"
     height="10.990459"
     x="559.45062"
     y="142.59604" />
  <rect
     style="fill:#0000ff;fill-opacity:0.298039;stroke:#0000ff;stroke-width:1;stroke-linecap:butt;stroke-linejoin:round;stroke-dasharray:none;stroke-dashoffset:0;stroke-opacity:1"
     id="rect147-2"
     width="34.264374"
     height="10.990459"
     x="559.45062"
     y="178.01402" />
  <rect
     style="fill:#bd00bd;fill-opacity:0.501961;stroke:#bf00bf;stroke-width:1;stroke-linecap:butt;stroke-linejoin:round;stroke-dasharray:none;stroke-dashoffset:0;stroke-opacity:1"
     id="rect147-5"
     width="34.264374"
     height="10.990459"
     x="559.45062"
     y="213.43202" />
  <rect
     style="fill:#008000;fill-opacity:0.74902;stroke:#008000;stroke-width:1;stroke-linecap:butt;stroke-linejoin:round;stroke-dasharray:none;stroke-dashoffset:0;stroke-opacity:1"
     id="rect147-52"
     width="34.264374"
     height="10.990459"
     x="559.45062"
     y="248.85001" />
</svg>
