<?xml version="1.0" encoding="UTF-8" standalone="no"?>
<svg
   width="599.19733pt"
   height="367.56638pt"
   viewBox="0 0 599.19733 367.56638"
   version="1.1"
   id="svg136"
   sodipodi:docname="PV_diagram_worked_example_mod.svg"
   inkscape:version="1.3.2 (091e20e, 2023-11-25, custom)"
   xmlns:inkscape="http://www.inkscape.org/namespaces/inkscape"
   xmlns:sodipodi="http://sodipodi.sourceforge.net/DTD/sodipodi-0.dtd"
   xmlns:xlink="http://www.w3.org/1999/xlink"
   xmlns="http://www.w3.org/2000/svg"
   xmlns:svg="http://www.w3.org/2000/svg"
   xmlns:rdf="http://www.w3.org/1999/02/22-rdf-syntax-ns#"
   xmlns:cc="http://creativecommons.org/ns#"
   xmlns:dc="http://purl.org/dc/elements/1.1/">
  <sodipodi:namedview
     id="namedview136"
     pagecolor="#ffffff"
     bordercolor="#000000"
     borderopacity="0.25"
     inkscape:showpageshadow="2"
     inkscape:pageopacity="0.0"
     inkscape:pagecheckerboard="0"
     inkscape:deskcolor="#d1d1d1"
     inkscape:document-units="pt"
     inkscape:zoom="0.67396115"
     inkscape:cx="369.4575"
     inkscape:cy="180.27745"
     inkscape:window-width="1366"
     inkscape:window-height="697"
     inkscape:window-x="1912"
     inkscape:window-y="296"
     inkscape:window-maximized="1"
     inkscape:current-layer="svg136" />
  <metadata
     id="metadata1">
    <rdf:RDF>
      <cc:Work>
        <dc:type
           rdf:resource="http://purl.org/dc/dcmitype/StillImage" />
        <dc:date>2025-10-29T08:21:10.813873</dc:date>
        <dc:format>image/svg+xml</dc:format>
        <dc:creator>
          <cc:Agent>
            <dc:title>Matplotlib v3.9.2, https://matplotlib.org/</dc:title>
          </cc:Agent>
        </dc:creator>
      </cc:Work>
    </rdf:RDF>
  </metadata>
  <defs
     id="defs1">
    <style
       type="text/css"
       id="style1">*{stroke-linejoin: round; stroke-linecap: butt}</style>
  </defs>
  <g
     id="patch_2"
     transform="translate(-29.940625,-51.44)">
    <path
       d="M 72,384.48 H 518.4 V 51.84 H 72 Z"
       style="fill:none"
       id="path2" />
  </g>
  <g
     id="PolyCollection_1"
     transform="translate(-29.940625,-51.44)">
    <path
       d="m 92.290909,66.96 v 0 h 4.099174 4.099177 4.09917 4.09917 4.09918 4.09917 4.09917 4.09918 4.09917 4.09917 4.09918 4.09917 4.09917 4.09918 4.09917 4.09918 4.09917 4.09917 4.09918 4.09917 4.09917 4.09918 4.09917 4.09917 4.09918 4.09917 4.09917 4.09918 4.09917 4.09918 4.09917 4.09917 4.09918 4.09917 4.09917 4.09918 4.09917 4.09917 4.09918 4.09917 4.09918 4.09917 4.09917 4.09917 4.09918 4.09917 4.09918 4.09917 4.09917 4.09918 4.09917 4.09917 4.09918 4.09917 4.09917 4.09918 4.09917 4.09918 4.09917 4.09917 4.09918 4.09917 4.09917 4.09918 4.09917 4.09917 4.09918 4.09917 4.09917 4.09918 4.09917 4.09917 4.09918 4.09917 4.09918 4.09917 4.09917 4.09918 4.09917 4.09917 4.09918 4.09917 4.09917 4.09918 4.09917 4.09917 4.09918 4.09917 4.09917 4.09918 4.09917 4.09918 4.09917 4.09917 4.09918 4.09917 4.09917 4.09918 4.09917 v 151.2 0 l -4.09917,-0.76751 -4.09918,-0.77535 -4.09917,-0.78329 -4.09917,-0.79138 -4.09918,-0.79957 -4.09917,-0.8079 -4.09917,-0.81636 -4.09918,-0.82496 -4.09917,-0.83368 -4.09918,-0.84255 -4.09917,-0.85157 -4.09917,-0.86072 -4.09918,-0.87003 -4.09917,-0.87948 -4.09917,-0.88909 -4.09918,-0.89887 -4.09917,-0.9088 -4.09917,-0.91889 -4.09918,-0.92916 -4.09917,-0.9396 -4.09917,-0.95022 -4.09918,-0.96102 -4.09917,-0.972 -4.09917,-0.98317 -4.09918,-0.99454 -4.09917,-1.0061 -4.09918,-1.01787 -4.09917,-1.02985 -4.09917,-1.04203 -4.09918,-1.05444 -4.09917,-1.06707 -4.09917,-1.07992 -4.09918,-1.09301 -4.09917,-1.10634 -4.09917,-1.11992 -4.09918,-1.13374 -4.09917,-1.14783 -4.09917,-1.16217 -4.09918,-1.17679 -4.09917,-1.19169 -4.09917,-1.20687 -4.09918,-1.22234 -4.09917,-1.23812 -4.09918,-1.25419 -4.09917,-1.27059 -4.09917,-1.28731 -4.09918,-1.30435 -4.09917,-1.32175 -4.09917,-1.33949 -4.09918,-1.35759 -4.09917,-1.37606 -4.09917,-1.39492 -4.09918,-1.41415 -4.09917,-1.43379 -4.09918,-1.45385 -4.09917,-1.47432 -4.09917,-1.49523 -4.09917,-1.5166 -4.09918,-1.53842 -4.09917,-1.56071 -4.09918,-1.5835 -4.09917,-1.60678 -4.09917,-1.63059 -4.09918,-1.65493 -4.09917,-1.67981 -4.09917,-1.70526 -4.09918,-1.7313 -4.09917,-1.75793 -4.09917,-1.78519 -4.09918,-1.81308 -4.09917,-1.84163 -4.09918,-1.87087 -4.09917,-1.9008 -4.09917,-1.93146 -4.09918,-1.96286 -4.09917,-1.99504 -4.09917,-2.02802 -4.09918,-2.06182 -4.09917,-2.09647 -4.09917,-2.132 -4.09918,-2.16845 -4.09917,-2.20584 -4.09917,-2.2442 -4.09918,-2.28357 -4.09917,-2.32398 L 145.58016,102.06 141.48099,99.651892 137.38182,97.2 133.28264,94.703119 129.18347,92.16 125.0843,89.569346 120.98512,86.929811 116.88595,84.24 112.78678,81.498462 108.6876,78.703689 104.58843,75.854118 100.48926,72.948119 96.390083,69.984 Z"
       clip-path="url(#pa8da0eab5f)"
       style="fill:#b40426;fill-opacity:0.6"
       id="path3" />
  </g>
  <g
     id="PolyCollection_2"
     transform="translate(-29.940625,-51.44)">
    <path
       d="m 92.290909,66.96 v 0 l 4.099174,3.024 4.099177,2.964119 4.09917,2.905999 4.09917,2.849571 4.09918,2.794773 4.09917,2.741538 4.09917,2.689811 4.09918,2.639535 4.09917,2.590654 4.09917,2.543119 4.09918,2.496881 4.09917,2.451892 4.09917,2.408108 4.09918,2.36549 4.09917,2.32398 4.09918,2.28357 4.09917,2.2442 4.09917,2.20584 4.09918,2.16845 4.09917,2.132 4.09917,2.09647 4.09918,2.06182 4.09917,2.02802 4.09917,1.99504 4.09918,1.96286 4.09917,1.93146 4.09917,1.9008 4.09918,1.87087 4.09917,1.84163 4.09918,1.81308 4.09917,1.78519 4.09917,1.75793 4.09918,1.7313 4.09917,1.70526 4.09917,1.67981 4.09918,1.65493 4.09917,1.63059 4.09917,1.60678 4.09918,1.5835 4.09917,1.56071 4.09918,1.53842 4.09917,1.5166 4.09917,1.49523 4.09917,1.47432 4.09918,1.45385 4.09917,1.43379 4.09918,1.41415 4.09917,1.39492 4.09917,1.37606 4.09918,1.35759 4.09917,1.33949 4.09917,1.32175 4.09918,1.30435 4.09917,1.28731 4.09917,1.27059 4.09918,1.25419 4.09917,1.23812 4.09918,1.22234 4.09917,1.20687 4.09917,1.19169 4.09918,1.17679 4.09917,1.16217 4.09917,1.14783 4.09918,1.13374 4.09917,1.11992 4.09917,1.10634 4.09918,1.09301 4.09917,1.07992 4.09917,1.06707 4.09918,1.05444 4.09917,1.04203 4.09917,1.02985 4.09918,1.01787 4.09917,1.0061 4.09918,0.99454 4.09917,0.98317 4.09917,0.972 4.09918,0.96102 4.09917,0.95022 4.09917,0.9396 4.09918,0.92916 4.09917,0.91889 4.09917,0.9088 4.09918,0.89887 4.09917,0.88909 4.09917,0.87948 4.09918,0.87003 4.09917,0.86072 4.09917,0.85157 4.09918,0.84255 4.09917,0.83368 4.09918,0.82496 4.09917,0.81636 4.09917,0.8079 4.09918,0.79957 4.09917,0.79138 4.09917,0.78329 4.09918,0.77535 4.09917,0.76751 v 19.57275 0 l -4.09917,-0.80219 -4.09918,-0.81121 -4.09917,-0.82036 -4.09917,-0.82967 -4.09918,-0.83913 -4.09917,-0.84876 -4.09917,-0.85853 -4.09918,-0.86848 -4.09917,-0.87859 -4.09918,-0.88889 -4.09917,-0.89934 -4.09917,-0.90999 -4.09918,-0.92081 -4.09917,-0.93183 -4.09917,-0.94304 -4.09918,-0.95445 -4.09917,-0.96605 -4.09917,-0.97787 -4.09918,-0.98989 -4.09917,-1.00213 -4.09917,-1.01459 -4.09918,-1.02729 -4.09917,-1.04021 -4.09917,-1.05336 -4.09918,-1.06677 -4.09917,-1.08042 -4.09918,-1.09434 -4.09917,-1.1085 -4.09917,-1.12294 -4.09918,-1.13765 -4.09917,-1.15265 -4.09917,-1.16793 -4.09918,-1.18352 -4.09917,-1.1994 -4.09917,-1.2156 -4.09918,-1.23212 -4.09917,-1.24897 -4.09917,-1.26615 -4.09918,-1.28368 -4.09917,-1.30156 -4.09917,-1.31982 -4.09918,-1.33844 -4.09917,-1.35745 -4.09918,-1.37685 -4.09917,-1.39667 -4.09917,-1.41689 -4.09918,-1.43755 -4.09917,-1.45865 -4.09917,-1.4802 -4.09918,-1.50222 -4.09917,-1.52471 -4.09917,-1.54771 -4.09918,-1.5712 -4.09917,-1.59523 -4.09918,-1.61978 -4.09917,-1.6449 -4.09917,-1.67058 -4.09917,-1.69685 -4.09918,-1.72373 -4.09917,-1.75123 -4.09918,-1.77936 -4.09917,-1.80818 -4.09917,-1.83766 -4.09918,-1.86786 -4.09917,-1.89877 -4.09917,-1.93045 -4.09918,-1.96289 -4.09917,-1.99613 -4.09917,-2.0302 -4.09918,-2.06513 -4.09917,-2.10092 -4.09918,-2.13764 -4.09917,-2.17529 -4.09917,-2.21392 -4.09918,-2.25354 -4.09917,-2.29422 -4.09917,-2.33596 -4.09918,-2.37883 -4.09917,-2.42284 -4.09917,-2.46805 -4.09918,-2.51449 -4.09917,-2.56223 -4.09917,-2.61129 -4.09918,-2.66172 -4.09917,-2.71359 -4.09918,-2.76694 -4.09917,-2.82183 -4.09917,-2.87832 -4.09918,-2.936463 -4.09917,-2.996337 -4.09917,-3.058002 -4.09918,-3.121529 -4.09917,-3.186994 -4.09917,-3.254476 -4.09918,-3.324057 -4.09917,-3.395821 -4.09917,-3.469863 -4.099177,-3.546277 z"
       clip-path="url(#pa8da0eab5f)"
       style="fill:#f7b89c;fill-opacity:0.6"
       id="path4" />
  </g>
  <g
     id="PolyCollection_3"
     transform="translate(-29.940625,-51.44)">
    <path
       d="m 92.290909,66.96 v 0 l 4.099174,3.625161 4.099177,3.546277 4.09917,3.469863 4.09917,3.395821 4.09918,3.324057 4.09917,3.254476 4.09917,3.186994 4.09918,3.121529 4.09917,3.058002 4.09917,2.996337 4.09918,2.936463 4.09917,2.87832 4.09917,2.82183 4.09918,2.76694 4.09917,2.71359 4.09918,2.66172 4.09917,2.61129 4.09917,2.56223 4.09918,2.51449 4.09917,2.46805 4.09917,2.42284 4.09918,2.37883 4.09917,2.33596 4.09917,2.29422 4.09918,2.25354 4.09917,2.21392 4.09917,2.17529 4.09918,2.13764 4.09917,2.10092 4.09918,2.06513 4.09917,2.0302 4.09917,1.99613 4.09918,1.96289 4.09917,1.93045 4.09917,1.89877 4.09918,1.86786 4.09917,1.83766 4.09917,1.80818 4.09918,1.77936 4.09917,1.75123 4.09918,1.72373 4.09917,1.69685 4.09917,1.67058 4.09917,1.6449 4.09918,1.61978 4.09917,1.59523 4.09918,1.5712 4.09917,1.54771 4.09917,1.52471 4.09918,1.50222 4.09917,1.4802 4.09917,1.45865 4.09918,1.43755 4.09917,1.41689 4.09917,1.39667 4.09918,1.37685 4.09917,1.35745 4.09918,1.33844 4.09917,1.31982 4.09917,1.30156 4.09918,1.28368 4.09917,1.26615 4.09917,1.24897 4.09918,1.23212 4.09917,1.2156 4.09917,1.1994 4.09918,1.18352 4.09917,1.16793 4.09917,1.15265 4.09918,1.13765 4.09917,1.12294 4.09917,1.1085 4.09918,1.09434 4.09917,1.08042 4.09918,1.06677 4.09917,1.05336 4.09917,1.04021 4.09918,1.02729 4.09917,1.01459 4.09917,1.00213 4.09918,0.98989 4.09917,0.97787 4.09917,0.96605 4.09918,0.95445 4.09917,0.94304 4.09917,0.93183 4.09918,0.92081 4.09917,0.90999 4.09917,0.89934 4.09918,0.88889 4.09917,0.87859 4.09918,0.86848 4.09917,0.85853 4.09917,0.84876 4.09918,0.83913 4.09917,0.82967 4.09917,0.82036 4.09918,0.81121 4.09917,0.80219 v 16.88011 0 l -4.09917,-0.81511 -4.09918,-0.82511 -4.09917,-0.83525 -4.09917,-0.8456 -4.09918,-0.85611 -4.09917,-0.86681 -4.09917,-0.87771 -4.09918,-0.8888 -4.09917,-0.90009 -4.09918,-0.91157 -4.09917,-0.92329 -4.09917,-0.93519 -4.09918,-0.94734 -4.09917,-0.95969 -4.09917,-0.97228 -4.09918,-0.98511 -4.09917,-0.99817 -4.09917,-1.01148 -4.09918,-1.02505 -4.09917,-1.03888 -4.09917,-1.05296 -4.09918,-1.06733 -4.09917,-1.08197 -4.09917,-1.0969 -4.09918,-1.11212 -4.09917,-1.12764 -4.09918,-1.14348 -4.09917,-1.15962 -4.09917,-1.1761 -4.09918,-1.1929 -4.09917,-1.21005 -4.09917,-1.22756 -4.09918,-1.24542 -4.09917,-1.26365 -4.09917,-1.28226 -4.09918,-1.30126 -4.09917,-1.32068 -4.09917,-1.34049 -4.09918,-1.36073 -4.09917,-1.38141 -4.09917,-1.40253 -4.09918,-1.42413 -4.09917,-1.44618 -4.09918,-1.46873 -4.09917,-1.49179 -4.09917,-1.51534 -4.09918,-1.53945 -4.09917,-1.56408 -4.09917,-1.5893 -4.09918,-1.61508 -4.09917,-1.64146 -4.09917,-1.66845 -4.09918,-1.69609 -4.09917,-1.72437 -4.09918,-1.75333 -4.09917,-1.78298 -4.09917,-1.81335 -4.09917,-1.84445 -4.09918,-1.87631 -4.09917,-1.90897 -4.09918,-1.94242 -4.09917,-1.97673 -4.09917,-2.01189 -4.09918,-2.04795 -4.09917,-2.08493 -4.09917,-2.12286 -4.09918,-2.16178 -4.09917,-2.20172 -4.09917,-2.24271 -4.09918,-2.28479 -4.09917,-2.32799 -4.09918,-2.37238 -4.09917,-2.41796 -4.09917,-2.46479 -4.09918,-2.51292 -4.09917,-2.5624 -4.09917,-2.61326 -4.09918,-2.66557 -4.09917,-2.71938 -4.09917,-2.77473 -4.09918,-2.83169 -4.09917,-2.89034 -4.09917,-2.95071 -4.09918,-3.01289 -4.09917,-3.07693 -4.09918,-3.14293 -4.09917,-3.21095 -4.09917,-3.28108 -4.09918,-3.35339 -4.09917,-3.42799 -4.09917,-3.504948 -4.09918,-3.584393 -4.09917,-3.666408 -4.09917,-3.751108 -4.09918,-3.838608 -4.09917,-3.929029 -4.09917,-4.022496 -4.099177,-4.119148 z"
       clip-path="url(#pa8da0eab5f)"
       style="fill:#aac7fd;fill-opacity:0.6"
       id="path5" />
  </g>
  <g
     id="PolyCollection_4"
     transform="translate(-29.940625,-51.44)">
    <path
       d="M 92.290909,369.36 V 66.96 l 4.099174,4.219122 4.099177,4.119148 4.09917,4.022496 4.09917,3.929029 4.09918,3.838608 4.09917,3.751108 4.09917,3.666408 4.09918,3.584393 4.09917,3.504948 4.09917,3.42799 4.09918,3.35339 4.09917,3.28108 4.09917,3.21095 4.09918,3.14293 4.09917,3.07693 4.09918,3.01289 4.09917,2.95071 4.09917,2.89034 4.09918,2.83169 4.09917,2.77473 4.09917,2.71938 4.09918,2.66557 4.09917,2.61326 4.09917,2.5624 4.09918,2.51292 4.09917,2.46479 4.09917,2.41796 4.09918,2.37238 4.09917,2.32799 4.09918,2.28479 4.09917,2.24271 4.09917,2.20172 4.09918,2.16178 4.09917,2.12286 4.09917,2.08493 4.09918,2.04795 4.09917,2.01189 4.09917,1.97673 4.09918,1.94242 4.09917,1.90897 4.09918,1.87631 4.09917,1.84445 4.09917,1.81335 4.09917,1.78298 4.09918,1.75333 4.09917,1.72437 4.09918,1.69609 4.09917,1.66845 4.09917,1.64146 4.09918,1.61508 4.09917,1.5893 4.09917,1.56408 4.09918,1.53945 4.09917,1.51534 4.09917,1.49179 4.09918,1.46873 4.09917,1.44618 4.09918,1.42413 4.09917,1.40253 4.09917,1.38141 4.09918,1.36073 4.09917,1.34049 4.09917,1.32068 4.09918,1.30126 4.09917,1.28226 4.09917,1.26365 4.09918,1.24542 4.09917,1.22756 4.09917,1.21005 4.09918,1.1929 4.09917,1.1761 4.09917,1.15962 4.09918,1.14348 4.09917,1.12764 4.09918,1.11212 4.09917,1.0969 4.09917,1.08197 4.09918,1.06733 4.09917,1.05296 4.09917,1.03888 4.09918,1.02505 4.09917,1.01148 4.09917,0.99817 4.09918,0.98511 4.09917,0.97228 4.09917,0.95969 4.09918,0.94734 4.09917,0.93519 4.09917,0.92329 4.09918,0.91157 4.09917,0.90009 4.09918,0.8888 4.09917,0.87771 4.09917,0.86681 4.09918,0.85611 4.09917,0.8456 4.09917,0.83525 4.09918,0.82511 4.09917,0.81511 V 369.36 v 0 h -4.09917 -4.09918 -4.09917 -4.09917 -4.09918 -4.09917 -4.09917 -4.09918 -4.09917 -4.09918 -4.09917 -4.09917 -4.09918 -4.09917 -4.09917 -4.09918 -4.09917 -4.09917 -4.09918 -4.09917 -4.09917 -4.09918 -4.09917 -4.09917 -4.09918 -4.09917 -4.09918 -4.09917 -4.09917 -4.09918 -4.09917 -4.09917 -4.09918 -4.09917 -4.09917 -4.09918 -4.09917 -4.09917 -4.09918 -4.09917 -4.09917 -4.09918 -4.09917 -4.09918 -4.09917 -4.09917 -4.09918 -4.09917 -4.09917 -4.09918 -4.09917 -4.09917 -4.09918 -4.09917 -4.09918 -4.09917 -4.09917 -4.09917 -4.09918 -4.09917 -4.09918 -4.09917 -4.09917 -4.09918 -4.09917 -4.09917 -4.09918 -4.09917 -4.09917 -4.09918 -4.09917 -4.09918 -4.09917 -4.09917 -4.09918 -4.09917 -4.09917 -4.09918 -4.09917 -4.09917 -4.09918 -4.09917 -4.09917 -4.09918 -4.09917 -4.09918 -4.09917 -4.09917 -4.09918 -4.09917 -4.09917 -4.09918 -4.09917 -4.09917 -4.09918 -4.09917 -4.09917 -4.099177 z"
       clip-path="url(#pa8da0eab5f)"
       style="fill:#3b4cc0;fill-opacity:0.6"
       id="path6" />
  </g>
  <g
     id="matplotlib.axis_1"
     transform="translate(-29.940625,-51.44)">
    <g
       id="xtick_1">
      <g
         id="line2d_1">
        <defs
           id="defs6">
          <path
             id="mf927ad8576"
             d="M 0,0 V 3.5"
             style="stroke:#000000;stroke-width:0.8" />
        </defs>
        <g
           id="g6">
          <use
             xlink:href="#mf927ad8576"
             x="142.24338"
             y="384.48001"
             style="stroke:#000000;stroke-width:0.8"
             id="use6" />
        </g>
      </g>
      <g
         id="text_1">
        <!-- 1.0 -->
        <g
           transform="matrix(0.12,0,0,-0.12,133.90337,400.06937)"
           id="g9">
          <defs
             id="defs7">
            <path
               id="ArialMT-31"
               d="M 2384,0 H 1822 V 3584 Q 1619,3391 1289,3197 959,3003 697,2906 v 544 q 472,222 825,537 353,316 500,613 h 362 z"
               transform="scale(0.015625)" />
            <path
               id="ArialMT-2e"
               d="m 581,0 v 641 h 641 V 0 Z"
               transform="scale(0.015625)" />
            <path
               id="ArialMT-30"
               d="m 266,2259 q 0,813 167,1308 167,496 496,764 330,269 830,269 369,0 647,-149 278,-148 459,-428 182,-279 285,-681 103,-401 103,-1083 0,-806 -166,-1301 Q 2922,463 2592,192 2263,-78 1759,-78 1097,-78 719,397 266,969 266,2259 Z m 578,0 q 0,-1128 264,-1502 264,-373 651,-373 388,0 652,375 264,375 264,1500 0,1132 -264,1503 -264,372 -658,372 -387,0 -619,-328 Q 844,3388 844,2259 Z"
               transform="scale(0.015625)" />
          </defs>
          <use
             xlink:href="#ArialMT-31"
             id="use7" />
          <use
             xlink:href="#ArialMT-2e"
             x="55.615234"
             id="use8" />
          <use
             xlink:href="#ArialMT-30"
             x="83.398438"
             id="use9" />
        </g>
      </g>
    </g>
    <g
       id="xtick_2">
      <g
         id="line2d_2">
        <g
           id="g10">
          <use
             xlink:href="#mf927ad8576"
             x="233.39751"
             y="384.48001"
             style="stroke:#000000;stroke-width:0.8"
             id="use10" />
        </g>
      </g>
      <g
         id="text_2">
        <!-- 1.2 -->
        <g
           transform="matrix(0.12,0,0,-0.12,225.0575,400.06937)"
           id="g13">
          <defs
             id="defs10">
            <path
               id="ArialMT-32"
               d="M 3222,541 V 0 H 194 q -6,203 65,391 116,309 370,609 255,300 737,694 747,612 1009,970 263,358 263,677 0,334 -240,563 -239,230 -623,230 -406,0 -650,-244 -244,-243 -247,-674 l -578,59 q 59,647 446,986 388,339 1042,339 659,0 1043,-366 385,-365 385,-906 0,-275 -113,-541 Q 2991,2522 2730,2228 2469,1934 1863,1422 1356,997 1212,845 1069,694 975,541 Z"
               transform="scale(0.015625)" />
          </defs>
          <use
             xlink:href="#ArialMT-31"
             id="use11" />
          <use
             xlink:href="#ArialMT-2e"
             x="55.615234"
             id="use12" />
          <use
             xlink:href="#ArialMT-32"
             x="83.398438"
             id="use13" />
        </g>
      </g>
    </g>
    <g
       id="xtick_3">
      <g
         id="line2d_3">
        <g
           id="g14">
          <use
             xlink:href="#mf927ad8576"
             x="324.55164"
             y="384.48001"
             style="stroke:#000000;stroke-width:0.8"
             id="use14" />
        </g>
      </g>
      <g
         id="text_3">
        <!-- 1.4 -->
        <g
           transform="matrix(0.12,0,0,-0.12,316.21163,400.06937)"
           id="g17">
          <defs
             id="defs14">
            <path
               id="ArialMT-34"
               d="M 2069,0 V 1097 H 81 v 516 l 2091,2968 h 459 V 1613 h 619 V 1097 H 2631 V 0 Z m 0,1613 V 3678 L 634,1613 Z"
               transform="scale(0.015625)" />
          </defs>
          <use
             xlink:href="#ArialMT-31"
             id="use15" />
          <use
             xlink:href="#ArialMT-2e"
             x="55.615234"
             id="use16" />
          <use
             xlink:href="#ArialMT-34"
             x="83.398438"
             id="use17" />
        </g>
      </g>
    </g>
    <g
       id="xtick_4">
      <g
         id="line2d_4">
        <g
           id="g18">
          <use
             xlink:href="#mf927ad8576"
             x="415.70575"
             y="384.48001"
             style="stroke:#000000;stroke-width:0.8"
             id="use18" />
        </g>
      </g>
      <g
         id="text_4">
        <!-- 1.6 -->
        <g
           transform="matrix(0.12,0,0,-0.12,407.36576,400.06937)"
           id="g21">
          <defs
             id="defs18">
            <path
               id="ArialMT-36"
               d="m 3184,3459 -559,-43 q -75,331 -212,481 -229,241 -563,241 -269,0 -472,-150 -265,-194 -419,-566 -153,-372 -159,-1059 203,309 497,459 294,150 616,150 562,0 957,-414 396,-414 396,-1070 0,-432 -186,-802 Q 2894,316 2569,119 2244,-78 1831,-78 1128,-78 684,439 241,956 241,2144 q 0,1328 490,1931 428,525 1153,525 541,0 886,-303 346,-303 414,-838 z M 888,1484 q 0,-290 123,-556 123,-265 345,-405 222,-139 466,-139 356,0 612,287 257,288 257,782 0,475 -254,748 -253,274 -637,274 -381,0 -647,-274 -265,-273 -265,-717 z"
               transform="scale(0.015625)" />
          </defs>
          <use
             xlink:href="#ArialMT-31"
             id="use19" />
          <use
             xlink:href="#ArialMT-2e"
             x="55.615234"
             id="use20" />
          <use
             xlink:href="#ArialMT-36"
             x="83.398438"
             id="use21" />
        </g>
      </g>
    </g>
    <g
       id="xtick_5">
      <g
         id="line2d_5">
        <g
           id="g22">
          <use
             xlink:href="#mf927ad8576"
             x="506.85989"
             y="384.48001"
             style="stroke:#000000;stroke-width:0.8"
             id="use22" />
        </g>
      </g>
      <g
         id="text_5">
        <!-- 1.8 -->
        <g
           transform="matrix(0.12,0,0,-0.12,498.51989,400.06937)"
           id="g25">
          <defs
             id="defs22">
            <path
               id="ArialMT-38"
               d="m 1131,2484 q -350,129 -519,366 -168,238 -168,569 0,500 359,840 360,341 956,341 600,0 966,-349 366,-348 366,-848 0,-319 -168,-555 -167,-235 -507,-364 422,-137 642,-444 220,-306 220,-731 0,-587 -416,-987 Q 2447,-78 1769,-78 1091,-78 675,323 259,725 259,1325 q 0,447 227,748 227,302 645,411 z m -112,954 q 0,-325 209,-532 210,-206 544,-206 325,0 533,204 208,205 208,502 0,310 -215,521 -214,211 -532,211 -322,0 -535,-207 -212,-206 -212,-493 z M 838,1322 q 0,-241 114,-466 114,-225 339,-349 225,-123 484,-123 403,0 665,259 263,260 263,660 0,406 -270,672 -270,266 -677,266 -397,0 -658,-263 -260,-262 -260,-656 z"
               transform="scale(0.015625)" />
          </defs>
          <use
             xlink:href="#ArialMT-31"
             id="use23" />
          <use
             xlink:href="#ArialMT-2e"
             x="55.615234"
             id="use24" />
          <use
             xlink:href="#ArialMT-38"
             x="83.398438"
             id="use25" />
        </g>
      </g>
    </g>
    <g
       id="text_6">
      <!-- Specific Volume $V$ [m$^{3}$/kg] -->
      <g
         transform="matrix(0.12,0,0,-0.12,226.26,416.53437)"
         id="g50">
        <defs
           id="defs25">
          <path
             id="ArialMT-53"
             d="m 288,1472 571,50 q 41,-344 189,-564 149,-220 461,-356 313,-136 704,-136 346,0 612,103 266,103 395,282 130,180 130,393 0,215 -125,376 -125,161 -412,271 -185,72 -816,223 -631,152 -884,286 -329,172 -490,426 -160,255 -160,571 0,347 196,648 197,302 575,458 379,156 841,156 509,0 898,-164 390,-164 599,-483 209,-318 225,-721 l -581,-44 q -47,434 -318,656 -270,222 -798,222 -550,0 -802,-202 -251,-201 -251,-485 0,-247 178,-407 175,-159 914,-326 739,-167 1014,-292 400,-185 590,-468 191,-282 191,-651 0,-366 -209,-690 Q 3516,281 3123,101 2731,-78 2241,-78 1619,-78 1198,103 778,284 539,648 300,1013 288,1472 Z"
             transform="scale(0.015625)" />
          <path
             id="ArialMT-70"
             d="m 422,-1272 v 4591 h 512 v -431 q 182,253 410,379 228,127 553,127 425,0 750,-219 325,-219 490,-618 166,-398 166,-873 0,-509 -183,-917 Q 2938,359 2589,142 2241,-75 1856,-75 1575,-75 1351,44 1128,163 984,344 v -1616 z m 509,2913 q 0,-641 259,-947 260,-306 629,-306 375,0 642,317 267,317 267,983 0,634 -261,949 -261,316 -623,316 -360,0 -637,-336 -276,-336 -276,-976 z"
             transform="scale(0.015625)" />
          <path
             id="ArialMT-65"
             d="m 2694,1069 581,-72 Q 3138,488 2766,206 2394,-75 1816,-75 1088,-75 661,373 234,822 234,1631 q 0,838 431,1300 432,463 1119,463 666,0 1088,-453 422,-453 422,-1275 0,-50 -3,-150 H 816 q 31,-547 309,-838 278,-290 694,-290 309,0 528,162 219,163 347,519 z M 847,1978 h 1853 q -37,419 -212,628 -269,325 -697,325 -388,0 -652,-259 -264,-259 -292,-694 z"
             transform="scale(0.015625)" />
          <path
             id="ArialMT-63"
             d="m 2588,1216 553,-72 Q 3050,572 2676,248 2303,-75 1759,-75 1078,-75 664,370 250,816 250,1647 q 0,537 178,940 178,404 542,605 364,202 793,202 540,0 884,-274 344,-273 441,-776 l -547,-85 q -78,335 -277,503 -198,169 -480,169 -425,0 -691,-305 -265,-304 -265,-963 0,-669 256,-972 257,-303 669,-303 331,0 553,203 222,203 282,625 z"
             transform="scale(0.015625)" />
          <path
             id="ArialMT-69"
             d="m 425,3934 v 647 H 988 V 3934 Z M 425,0 V 3319 H 988 V 0 Z"
             transform="scale(0.015625)" />
          <path
             id="ArialMT-66"
             d="M 556,0 V 2881 H 59 v 438 h 497 v 353 q 0,334 60,497 81,219 285,354 205,136 574,136 238,0 525,-56 l -84,-490 q -175,31 -332,31 -256,0 -362,-110 -106,-109 -106,-409 v -306 h 647 V 2881 H 1116 V 0 Z"
             transform="scale(0.015625)" />
          <path
             id="ArialMT-20"
             transform="scale(0.015625)"
             d="" />
          <path
             id="ArialMT-56"
             d="M 1803,0 28,4581 H 684 L 1875,1253 q 144,-400 241,-750 106,375 247,750 l 1237,3328 h 619 L 2425,0 Z"
             transform="scale(0.015625)" />
          <path
             id="ArialMT-6f"
             d="m 213,1659 q 0,922 512,1366 428,369 1044,369 684,0 1118,-449 435,-448 435,-1239 0,-640 -192,-1008 Q 2938,331 2570,128 2203,-75 1769,-75 1072,-75 642,372 213,819 213,1659 Z m 578,0 q 0,-637 278,-954 278,-317 700,-317 419,0 697,318 278,319 278,972 0,616 -280,933 -280,317 -695,317 -422,0 -700,-316 -278,-315 -278,-953 z"
             transform="scale(0.015625)" />
          <path
             id="ArialMT-6c"
             d="M 409,0 V 4581 H 972 V 0 Z"
             transform="scale(0.015625)" />
          <path
             id="ArialMT-75"
             d="M 2597,0 V 488 Q 2209,-75 1544,-75 1250,-75 995,37 741,150 617,320 494,491 444,738 409,903 409,1263 V 3319 H 972 V 1478 q 0,-440 34,-594 53,-221 225,-348 172,-127 425,-127 253,0 475,130 222,130 314,353 93,224 93,649 v 1778 h 562 V 0 Z"
             transform="scale(0.015625)" />
          <path
             id="ArialMT-6d"
             d="m 422,0 v 3319 h 503 v -466 q 156,244 415,392 260,149 591,149 369,0 605,-153 236,-153 333,-428 394,581 1025,581 494,0 759,-274 266,-273 266,-842 V 0 h -560 v 2091 q 0,337 -55,485 -54,149 -198,239 -143,91 -337,91 -350,0 -582,-233 -231,-232 -231,-745 V 0 h -562 v 2156 q 0,375 -138,562 -137,188 -450,188 -237,0 -439,-125 -201,-125 -292,-366 -91,-240 -91,-693 V 0 Z"
             transform="scale(0.015625)" />
          <path
             id="STIXGeneral-Italic-1d61d"
             d="M 5043,4237 2157,-70 h -167 l -736,4307 h 608 l 493,-3187 2074,3187 z"
             transform="scale(0.015625)" />
          <path
             id="ArialMT-5b"
             d="M 434,-1272 V 4581 H 1675 V 4116 H 997 V -806 h 678 v -466 z"
             transform="scale(0.015625)" />
          <path
             id="STIXGeneral-Regular-1d7e5"
             d="m 723,3149 -454,109 q 141,499 467,783 326,285 819,285 455,0 762,-288 307,-288 307,-716 0,-570 -550,-954 358,-128 553,-426 195,-297 195,-598 Q 2822,723 2419,320 2010,-90 1312,-90 608,-90 198,358 l 301,359 q 327,-352 781,-352 474,0 742,230 295,250 295,627 0,333 -240,557 -240,224 -656,282 h -410 v 134 l 307,327 q 288,0 544,220 256,221 256,535 0,269 -170,432 -169,163 -412,163 -256,0 -477,-183 -221,-182 -336,-540 z"
             transform="scale(0.015625)" />
          <path
             id="ArialMT-2f"
             d="m 0,-78 1328,4737 h 450 L 453,-78 Z"
             transform="scale(0.015625)" />
          <path
             id="ArialMT-6b"
             d="M 425,0 V 4581 H 988 V 1969 l 1331,1350 h 728 L 1778,2088 3175,0 H 2481 L 1384,1697 988,1316 V 0 Z"
             transform="scale(0.015625)" />
          <path
             id="ArialMT-67"
             d="m 319,-275 547,-81 q 34,-253 190,-369 210,-156 572,-156 391,0 603,156 213,156 288,437 44,172 40,722 Q 2191,0 1641,0 956,0 581,494 206,988 206,1678 q 0,475 172,876 172,402 498,621 327,219 768,219 587,0 969,-475 v 400 h 518 V 450 q 0,-775 -158,-1098 -157,-324 -500,-511 -342,-188 -842,-188 -593,0 -959,267 -366,267 -353,805 z m 465,1994 q 0,-653 259,-953 260,-300 651,-300 387,0 649,298 263,299 263,936 0,609 -270,918 -270,310 -652,310 -375,0 -638,-305 -262,-304 -262,-904 z"
             transform="scale(0.015625)" />
          <path
             id="ArialMT-5d"
             d="M 1363,-1272 H 122 v 466 H 800 V 4116 H 122 v 465 h 1241 z"
             transform="scale(0.015625)" />
        </defs>
        <use
           xlink:href="#ArialMT-53"
           transform="translate(0,0.446875)"
           id="use26" />
        <use
           xlink:href="#ArialMT-70"
           transform="translate(66.699219,0.446875)"
           id="use27" />
        <use
           xlink:href="#ArialMT-65"
           transform="translate(122.31445,0.446875)"
           id="use28" />
        <use
           xlink:href="#ArialMT-63"
           transform="translate(177.92969,0.446875)"
           id="use29" />
        <use
           xlink:href="#ArialMT-69"
           transform="translate(227.92969,0.446875)"
           id="use30" />
        <use
           xlink:href="#ArialMT-66"
           transform="translate(250.14648,0.446875)"
           id="use31" />
        <use
           xlink:href="#ArialMT-69"
           transform="translate(277.92969,0.446875)"
           id="use32" />
        <use
           xlink:href="#ArialMT-63"
           transform="translate(300.14648,0.446875)"
           id="use33" />
        <use
           xlink:href="#ArialMT-20"
           transform="translate(350.14648,0.446875)"
           id="use34" />
        <use
           xlink:href="#ArialMT-56"
           transform="translate(377.92969,0.446875)"
           id="use35" />
        <use
           xlink:href="#ArialMT-6f"
           transform="translate(444.62891,0.446875)"
           id="use36" />
        <use
           xlink:href="#ArialMT-6c"
           transform="translate(500.24414,0.446875)"
           id="use37" />
        <use
           xlink:href="#ArialMT-75"
           transform="translate(522.46094,0.446875)"
           id="use38" />
        <use
           xlink:href="#ArialMT-6d"
           transform="translate(578.07617,0.446875)"
           id="use39" />
        <use
           xlink:href="#ArialMT-65"
           transform="translate(661.37695,0.446875)"
           id="use40" />
        <use
           xlink:href="#ArialMT-20"
           transform="translate(716.99219,0.446875)"
           id="use41" />
        <use
           xlink:href="#STIXGeneral-Italic-1d61d"
           transform="translate(744.77539,0.446875)"
           id="use42" />
        <use
           xlink:href="#ArialMT-20"
           transform="translate(810.17538,0.446875)"
           id="use43" />
        <use
           xlink:href="#ArialMT-5b"
           transform="translate(837.95859,0.446875)"
           id="use44" />
        <use
           xlink:href="#ArialMT-6d"
           transform="translate(865.74179,0.446875)"
           id="use45" />
        <use
           xlink:href="#STIXGeneral-Regular-1d7e5"
           transform="matrix(0.7,0,0,0.7,949.83527,36.684375)"
           id="use46" />
        <use
           xlink:href="#ArialMT-2f"
           transform="translate(987.1001,0.446875)"
           id="use47" />
        <use
           xlink:href="#ArialMT-6b"
           transform="translate(1014.8833,0.446875)"
           id="use48" />
        <use
           xlink:href="#ArialMT-67"
           transform="translate(1064.8833,0.446875)"
           id="use49" />
        <use
           xlink:href="#ArialMT-5d"
           transform="translate(1120.4985,0.446875)"
           id="use50" />
      </g>
    </g>
  </g>
  <g
     id="matplotlib.axis_2"
     transform="translate(-29.940625,-51.44)">
    <g
       id="ytick_1">
      <g
         id="line2d_6">
        <defs
           id="defs50">
          <path
             id="me5cff0a0a1"
             d="M 0,0 H -3.5"
             style="stroke:#000000;stroke-width:0.8" />
        </defs>
        <g
           id="g51">
          <use
             xlink:href="#me5cff0a0a1"
             x="72"
             y="369.35999"
             style="stroke:#000000;stroke-width:0.8"
             id="use51" />
        </g>
      </g>
      <g
         id="text_7">
        <!-- 0 -->
        <g
           transform="matrix(0.12,0,0,-0.12,58.326875,373.65469)"
           id="g52">
          <use
             xlink:href="#ArialMT-30"
             id="use52" />
        </g>
      </g>
    </g>
    <g
       id="ytick_2">
      <g
         id="line2d_7">
        <g
           id="g53">
          <use
             xlink:href="#me5cff0a0a1"
             x="72"
             y="308.88"
             style="stroke:#000000;stroke-width:0.8"
             id="use53" />
        </g>
      </g>
      <g
         id="text_8">
        <!-- 20 -->
        <g
           transform="matrix(0.12,0,0,-0.12,51.65375,313.17469)"
           id="g55">
          <use
             xlink:href="#ArialMT-32"
             id="use54" />
          <use
             xlink:href="#ArialMT-30"
             x="55.615234"
             id="use55" />
        </g>
      </g>
    </g>
    <g
       id="ytick_3">
      <g
         id="line2d_8">
        <g
           id="g56">
          <use
             xlink:href="#me5cff0a0a1"
             x="72"
             y="248.39999"
             style="stroke:#000000;stroke-width:0.8"
             id="use56" />
        </g>
      </g>
      <g
         id="text_9">
        <!-- 40 -->
        <g
           transform="matrix(0.12,0,0,-0.12,51.65375,252.69469)"
           id="g58">
          <use
             xlink:href="#ArialMT-34"
             id="use57" />
          <use
             xlink:href="#ArialMT-30"
             x="55.615234"
             id="use58" />
        </g>
      </g>
    </g>
    <g
       id="ytick_4">
      <g
         id="line2d_9">
        <g
           id="g59">
          <use
             xlink:href="#me5cff0a0a1"
             x="72"
             y="187.92"
             style="stroke:#000000;stroke-width:0.8"
             id="use59" />
        </g>
      </g>
      <g
         id="text_10">
        <!-- 60 -->
        <g
           transform="matrix(0.12,0,0,-0.12,51.65375,192.21469)"
           id="g61">
          <use
             xlink:href="#ArialMT-36"
             id="use60" />
          <use
             xlink:href="#ArialMT-30"
             x="55.615234"
             id="use61" />
        </g>
      </g>
    </g>
    <g
       id="ytick_5">
      <g
         id="line2d_10">
        <g
           id="g62">
          <use
             xlink:href="#me5cff0a0a1"
             x="72"
             y="127.44"
             style="stroke:#000000;stroke-width:0.8"
             id="use62" />
        </g>
      </g>
      <g
         id="text_11">
        <!-- 80 -->
        <g
           transform="matrix(0.12,0,0,-0.12,51.65375,131.73469)"
           id="g64">
          <use
             xlink:href="#ArialMT-38"
             id="use63" />
          <use
             xlink:href="#ArialMT-30"
             x="55.615234"
             id="use64" />
        </g>
      </g>
    </g>
    <g
       id="ytick_6">
      <g
         id="line2d_11">
        <g
           id="g65">
          <use
             xlink:href="#me5cff0a0a1"
             x="72"
             y="66.959999"
             style="stroke:#000000;stroke-width:0.8"
             id="use65" />
        </g>
      </g>
      <g
         id="text_12">
        <!-- 100 -->
        <g
           transform="matrix(0.12,0,0,-0.12,44.980625,71.254687)"
           id="g68">
          <use
             xlink:href="#ArialMT-31"
             id="use66" />
          <use
             xlink:href="#ArialMT-30"
             x="55.615234"
             id="use67" />
          <use
             xlink:href="#ArialMT-30"
             x="111.23047"
             id="use68" />
        </g>
      </g>
    </g>
    <g
       id="text_13">
      <!-- Pressure $P$ [kPa] -->
      <g
         transform="matrix(0,-0.12,-0.12,0,38.580625,262.38)"
         id="g84">
        <defs
           id="defs68">
          <path
             id="ArialMT-50"
             d="m 494,0 v 4581 h 1728 q 456,0 697,-43 337,-57 565,-215 229,-157 368,-442 139,-284 139,-625 0,-584 -372,-989 -372,-404 -1344,-404 H 1100 V 0 Z m 606,2403 h 1184 q 588,0 835,219 247,219 247,616 0,287 -146,491 -145,205 -382,271 -154,41 -566,41 H 1100 Z"
             transform="scale(0.015625)" />
          <path
             id="ArialMT-72"
             d="m 416,0 v 3319 h 506 v -503 q 194,353 358,465 164,113 361,113 284,0 578,-181 l -194,-522 q -206,122 -412,122 -185,0 -332,-111 -147,-111 -209,-308 -94,-300 -94,-656 V 0 Z"
             transform="scale(0.015625)" />
          <path
             id="ArialMT-73"
             d="m 197,991 556,87 q 47,-334 261,-512 214,-178 599,-178 387,0 574,157 188,158 188,371 0,190 -166,300 -115,75 -575,190 -618,157 -857,271 -239,114 -363,315 -123,202 -123,446 0,221 101,410 102,190 277,315 131,96 357,163 227,68 487,68 390,0 685,-113 296,-112 436,-305 141,-192 194,-513 l -550,-75 q -37,256 -217,399 -180,144 -508,144 -387,0 -553,-128 -166,-128 -166,-300 0,-109 69,-197 69,-90 216,-150 84,-31 497,-143 597,-160 832,-262 236,-101 370,-295 135,-193 135,-481 0,-281 -164,-530 Q 2625,197 2315,61 2006,-75 1616,-75 969,-75 630,194 291,463 197,991 Z"
             transform="scale(0.015625)" />
          <path
             id="STIXGeneral-Italic-1d617"
             d="m 1530,4237 h 1177 q 1376,0 1376,-851 0,-653 -519,-1108 -518,-454 -1311,-454 H 1485 L 1030,0 H 474 Z m 70,-1939 h 563 q 672,0 1005,259 333,259 333,694 0,512 -1005,512 h -531 z"
             transform="scale(0.015625)" />
          <path
             id="ArialMT-61"
             d="M 2588,409 Q 2275,144 1986,34 1697,-75 1366,-75 819,-75 525,192 231,459 231,875 q 0,244 111,445 111,202 291,324 180,122 405,184 165,44 500,85 681,81 1003,193 3,116 3,147 0,344 -160,485 -215,190 -640,190 -397,0 -586,-139 -189,-139 -280,-492 l -550,75 q 75,353 247,570 172,217 497,334 325,118 753,118 425,0 690,-100 266,-100 391,-252 125,-151 175,-383 28,-143 28,-518 v -750 q 0,-785 36,-993 36,-207 143,-398 h -588 q -87,175 -112,409 z m -47,1257 q -307,-125 -919,-213 -347,-50 -491,-113 -143,-62 -222,-182 -78,-120 -78,-267 0,-225 170,-375 171,-150 499,-150 325,0 578,142 253,142 372,389 91,191 91,562 z"
             transform="scale(0.015625)" />
        </defs>
        <use
           xlink:href="#ArialMT-50"
           transform="translate(0,0.421875)"
           id="use69" />
        <use
           xlink:href="#ArialMT-72"
           transform="translate(66.699219,0.421875)"
           id="use70" />
        <use
           xlink:href="#ArialMT-65"
           transform="translate(100,0.421875)"
           id="use71" />
        <use
           xlink:href="#ArialMT-73"
           transform="translate(155.61523,0.421875)"
           id="use72" />
        <use
           xlink:href="#ArialMT-73"
           transform="translate(205.61523,0.421875)"
           id="use73" />
        <use
           xlink:href="#ArialMT-75"
           transform="translate(255.61523,0.421875)"
           id="use74" />
        <use
           xlink:href="#ArialMT-72"
           transform="translate(311.23047,0.421875)"
           id="use75" />
        <use
           xlink:href="#ArialMT-65"
           transform="translate(344.53125,0.421875)"
           id="use76" />
        <use
           xlink:href="#ArialMT-20"
           transform="translate(400.14648,0.421875)"
           id="use77" />
        <use
           xlink:href="#STIXGeneral-Italic-1d617"
           transform="translate(427.92969,0.421875)"
           id="use78" />
        <use
           xlink:href="#ArialMT-20"
           transform="translate(480.42967,0.421875)"
           id="use79" />
        <use
           xlink:href="#ArialMT-5b"
           transform="translate(508.21287,0.421875)"
           id="use80" />
        <use
           xlink:href="#ArialMT-6b"
           transform="translate(535.99608,0.421875)"
           id="use81" />
        <use
           xlink:href="#ArialMT-50"
           transform="translate(585.99608,0.421875)"
           id="use82" />
        <use
           xlink:href="#ArialMT-61"
           transform="translate(652.6953,0.421875)"
           id="use83" />
        <use
           xlink:href="#ArialMT-5d"
           transform="translate(708.31053,0.421875)"
           id="use84" />
      </g>
    </g>
  </g>
  <g
     id="line2d_12"
     transform="translate(-29.940625,-51.44)">
    <path
       d="m 92.290909,66.96 h 4.099174 4.099177 4.09917 4.09917 4.09918 4.09917 4.09917 4.09918 4.09917 4.09917 4.09918 4.09917 4.09917 4.09918 4.09917 4.09918 4.09917 4.09917 4.09918 4.09917 4.09917 4.09918 4.09917 4.09917 4.09918 4.09917 4.09917 4.09918 4.09917 4.09918 4.09917 4.09917 4.09918 4.09917 4.09917 4.09918 4.09917 4.09917 4.09918 4.09917 4.09918 4.09917 4.09917 4.09917 4.09918 4.09917 4.09918 4.09917 4.09917 4.09918 4.09917 4.09917 4.09918 4.09917 4.09917 4.09918 4.09917 4.09918 4.09917 4.09917 4.09918 4.09917 4.09917 4.09918 4.09917 4.09917 4.09918 4.09917 4.09917 4.09918 4.09917 4.09917 4.09918 4.09917 4.09918 4.09917 4.09917 4.09918 4.09917 4.09917 4.09918 4.09917 4.09917 4.09918 4.09917 4.09917 4.09918 4.09917 4.09917 4.09918 4.09917 4.09918 4.09917 4.09917 4.09918 4.09917 4.09917 4.09918 4.09917"
       clip-path="url(#pa8da0eab5f)"
       style="fill:none;stroke:#b40426;stroke-width:1.5;stroke-dasharray:5.55, 2.4;stroke-dashoffset:0"
       id="path84" />
  </g>
  <g
     id="line2d_13"
     transform="translate(-29.940625,-51.44)">
    <path
       d="m 92.290909,66.96 4.099174,3.024 4.099177,2.964119 4.09917,2.905999 4.09917,2.849571 4.09918,2.794773 4.09917,2.741538 4.09917,2.689811 4.09918,2.639535 4.09917,2.590654 4.09917,2.543119 4.09918,2.496881 4.09917,2.451892 4.09917,2.408108 4.09918,2.36549 4.09917,2.32398 4.09918,2.28357 4.09917,2.2442 4.09917,2.20584 4.09918,2.16845 4.09917,2.132 4.09917,2.09647 4.09918,2.06182 4.09917,2.02802 4.09917,1.99504 4.09918,1.96286 4.09917,1.93146 4.09917,1.9008 4.09918,1.87087 4.09917,1.84163 4.09918,1.81308 4.09917,1.78519 4.09917,1.75793 4.09918,1.7313 4.09917,1.70526 4.09917,1.67981 4.09918,1.65493 4.09917,1.63059 4.09917,1.60678 4.09918,1.5835 4.09917,1.56071 4.09918,1.53842 4.09917,1.5166 4.09917,1.49523 4.09917,1.47432 4.09918,1.45385 4.09917,1.43379 4.09918,1.41415 4.09917,1.39492 4.09917,1.37606 4.09918,1.35759 4.09917,1.33949 4.09917,1.32175 4.09918,1.30435 4.09917,1.28731 4.09917,1.27059 4.09918,1.25419 4.09917,1.23812 4.09918,1.22234 4.09917,1.20687 4.09917,1.19169 4.09918,1.17679 4.09917,1.16217 4.09917,1.14783 4.09918,1.13374 4.09917,1.11992 4.09917,1.10634 4.09918,1.09301 4.09917,1.07992 4.09917,1.06707 4.09918,1.05444 4.09917,1.04203 4.09917,1.02985 4.09918,1.01787 4.09917,1.0061 4.09918,0.99454 4.09917,0.98317 4.09917,0.972 4.09918,0.96102 4.09917,0.95022 4.09917,0.9396 4.09918,0.92916 4.09917,0.91889 4.09917,0.9088 4.09918,0.89887 4.09917,0.88909 4.09917,0.87948 4.09918,0.87003 4.09917,0.86072 4.09917,0.85157 4.09918,0.84255 4.09917,0.83368 4.09918,0.82496 4.09917,0.81636 4.09917,0.8079 4.09918,0.79957 4.09917,0.79138 4.09917,0.78329 4.09918,0.77535 4.09917,0.76751"
       clip-path="url(#pa8da0eab5f)"
       style="fill:none;stroke:#f7b89c;stroke-width:1.5;stroke-dasharray:5.55, 2.4;stroke-dashoffset:0"
       id="path85" />
  </g>
  <g
     id="line2d_14"
     transform="translate(-29.940625,-51.44)">
    <path
       d="m 92.290909,66.96 4.099174,3.625161 4.099177,3.546277 4.09917,3.469863 4.09917,3.395821 4.09918,3.324057 4.09917,3.254476 4.09917,3.186994 4.09918,3.121529 4.09917,3.058002 4.09917,2.996337 4.09918,2.936463 4.09917,2.87832 4.09917,2.82183 4.09918,2.76694 4.09917,2.71359 4.09918,2.66172 4.09917,2.61129 4.09917,2.56223 4.09918,2.51449 4.09917,2.46805 4.09917,2.42284 4.09918,2.37883 4.09917,2.33596 4.09917,2.29422 4.09918,2.25354 4.09917,2.21392 4.09917,2.17529 4.09918,2.13764 4.09917,2.10092 4.09918,2.06513 4.09917,2.0302 4.09917,1.99613 4.09918,1.96289 4.09917,1.93045 4.09917,1.89877 4.09918,1.86786 4.09917,1.83766 4.09917,1.80818 4.09918,1.77936 4.09917,1.75123 4.09918,1.72373 4.09917,1.69685 4.09917,1.67058 4.09917,1.6449 4.09918,1.61978 4.09917,1.59523 4.09918,1.5712 4.09917,1.54771 4.09917,1.52471 4.09918,1.50222 4.09917,1.4802 4.09917,1.45865 4.09918,1.43755 4.09917,1.41689 4.09917,1.39667 4.09918,1.37685 4.09917,1.35745 4.09918,1.33844 4.09917,1.31982 4.09917,1.30156 4.09918,1.28368 4.09917,1.26615 4.09917,1.24897 4.09918,1.23212 4.09917,1.2156 4.09917,1.1994 4.09918,1.18352 4.09917,1.16793 4.09917,1.15265 4.09918,1.13765 4.09917,1.12294 4.09917,1.1085 4.09918,1.09434 4.09917,1.08042 4.09918,1.06677 4.09917,1.05336 4.09917,1.04021 4.09918,1.02729 4.09917,1.01459 4.09917,1.00213 4.09918,0.98989 4.09917,0.97787 4.09917,0.96605 4.09918,0.95445 4.09917,0.94304 4.09917,0.93183 4.09918,0.92081 4.09917,0.90999 4.09917,0.89934 4.09918,0.88889 4.09917,0.87859 4.09918,0.86848 4.09917,0.85853 4.09917,0.84876 4.09918,0.83913 4.09917,0.82967 4.09917,0.82036 4.09918,0.81121 4.09917,0.80219"
       clip-path="url(#pa8da0eab5f)"
       style="fill:none;stroke:#aac7fd;stroke-width:1.5;stroke-dasharray:5.55, 2.4;stroke-dashoffset:0"
       id="path86" />
  </g>
  <g
     id="line2d_15"
     transform="translate(-29.940625,-51.44)">
    <path
       d="m 92.290909,66.96 4.099174,4.219122 4.099177,4.119148 4.09917,4.022496 4.09917,3.929029 4.09918,3.838608 4.09917,3.751108 4.09917,3.666408 4.09918,3.584393 4.09917,3.504948 4.09917,3.42799 4.09918,3.35339 4.09917,3.28108 4.09917,3.21095 4.09918,3.14293 4.09917,3.07693 4.09918,3.01289 4.09917,2.95071 4.09917,2.89034 4.09918,2.83169 4.09917,2.77473 4.09917,2.71938 4.09918,2.66557 4.09917,2.61326 4.09917,2.5624 4.09918,2.51292 4.09917,2.46479 4.09917,2.41796 4.09918,2.37238 4.09917,2.32799 4.09918,2.28479 4.09917,2.24271 4.09917,2.20172 4.09918,2.16178 4.09917,2.12286 4.09917,2.08493 4.09918,2.04795 4.09917,2.01189 4.09917,1.97673 4.09918,1.94242 4.09917,1.90897 4.09918,1.87631 4.09917,1.84445 4.09917,1.81335 4.09917,1.78298 4.09918,1.75333 4.09917,1.72437 4.09918,1.69609 4.09917,1.66845 4.09917,1.64146 4.09918,1.61508 4.09917,1.5893 4.09917,1.56408 4.09918,1.53945 4.09917,1.51534 4.09917,1.49179 4.09918,1.46873 4.09917,1.44618 4.09918,1.42413 4.09917,1.40253 4.09917,1.38141 4.09918,1.36073 4.09917,1.34049 4.09917,1.32068 4.09918,1.30126 4.09917,1.28226 4.09917,1.26365 4.09918,1.24542 4.09917,1.22756 4.09917,1.21005 4.09918,1.1929 4.09917,1.1761 4.09917,1.15962 4.09918,1.14348 4.09917,1.12764 4.09918,1.11212 4.09917,1.0969 4.09917,1.08197 4.09918,1.06733 4.09917,1.05296 4.09917,1.03888 4.09918,1.02505 4.09917,1.01148 4.09917,0.99817 4.09918,0.98511 4.09917,0.97228 4.09917,0.95969 4.09918,0.94734 4.09917,0.93519 4.09917,0.92329 4.09918,0.91157 4.09917,0.90009 4.09918,0.8888 4.09917,0.87771 4.09917,0.86681 4.09918,0.85611 4.09917,0.8456 4.09917,0.83525 4.09918,0.82511 4.09917,0.81511"
       clip-path="url(#pa8da0eab5f)"
       style="fill:none;stroke:#3b4cc0;stroke-width:1.5;stroke-dasharray:5.55, 2.4;stroke-dashoffset:0"
       id="path87" />
  </g>
  <g
     id="line2d_16"
     transform="translate(-29.940625,-51.44)">
    <path
       d="M 92.290909,369.36 V 66.96"
       clip-path="url(#pa8da0eab5f)"
       style="fill:none;stroke:#000000;stroke-width:2;stroke-dasharray:2, 3.3;stroke-dashoffset:0"
       id="path88" />
  </g>
  <g
     id="patch_3"
     transform="translate(-29.940625,-51.44)">
    <path
       d="M 72,384.48 V 51.84"
       style="fill:none;stroke:#000000;stroke-width:0.8;stroke-linecap:square;stroke-linejoin:miter"
       id="path89" />
  </g>
  <g
     id="patch_4"
     transform="translate(-29.940625,-51.44)">
    <path
       d="M 72,384.48 H 518.4"
       style="fill:none;stroke:#000000;stroke-width:0.8;stroke-linecap:square;stroke-linejoin:miter"
       id="path90" />
  </g>
  <g
     id="legend_1"
     transform="translate(-29.940625,-51.44)">
    <g
       id="patch_5">
      <path
         d="m 540.36,204.28537 h 24 v -8.4 h -24 z"
         style="opacity:0.6;fill:#b40426;stroke:#b40426;stroke-linejoin:miter;stroke-dasharray:3.7, 1.6;stroke-dashoffset:0"
         id="path91" />
    </g>
    <g
       id="text_14">
      <!-- Isobaric -->
      <g
         transform="matrix(0.12,0,0,-0.12,573.96,204.28537)"
         id="g98">
        <defs
           id="defs91">
          <path
             id="ArialMT-49"
             d="m 597,0 v 4581 h 606 V 0 Z"
             transform="scale(0.015625)" />
          <path
             id="ArialMT-62"
             d="M 941,0 H 419 V 4581 H 981 V 2947 q 357,447 910,447 306,0 579,-124 274,-123 450,-347 177,-223 277,-539 100,-315 100,-675 0,-853 -422,-1319 -422,-465 -1012,-465 -588,0 -922,491 z m -7,1684 q 0,-596 163,-862 266,-434 719,-434 368,0 637,320 269,320 269,955 0,650 -258,959 -258,309 -623,309 -369,0 -638,-320 -269,-320 -269,-927 z"
             transform="scale(0.015625)" />
        </defs>
        <use
           xlink:href="#ArialMT-49"
           id="use91" />
        <use
           xlink:href="#ArialMT-73"
           x="27.783203"
           id="use92" />
        <use
           xlink:href="#ArialMT-6f"
           x="77.783203"
           id="use93" />
        <use
           xlink:href="#ArialMT-62"
           x="133.39844"
           id="use94" />
        <use
           xlink:href="#ArialMT-61"
           x="189.01367"
           id="use95" />
        <use
           xlink:href="#ArialMT-72"
           x="244.62891"
           id="use96" />
        <use
           xlink:href="#ArialMT-69"
           x="277.92969"
           id="use97" />
        <use
           xlink:href="#ArialMT-63"
           x="300.14648"
           id="use98" />
      </g>
    </g>
    <g
       id="patch_6">
      <path
         d="m 540.36,221.25975 h 24 v -8.4 h -24 z"
         style="opacity:0.6;fill:#f7b89c;stroke:#f7b89c;stroke-linejoin:miter;stroke-dasharray:3.7, 1.6;stroke-dashoffset:0"
         id="path98" />
    </g>
    <g
       id="text_15">
      <!-- Isothermal -->
      <g
         transform="matrix(0.12,0,0,-0.12,573.96,221.25975)"
         id="g108">
        <defs
           id="defs98">
          <path
             id="ArialMT-74"
             d="M 1650,503 1731,6 Q 1494,-44 1306,-44 1000,-44 831,53 663,150 594,308 525,466 525,972 V 2881 H 113 v 438 h 412 v 822 l 559,337 V 3319 h 566 V 2881 H 1084 V 941 q 0,-241 30,-310 30,-68 97,-109 67,-41 192,-41 94,0 247,22 z"
             transform="scale(0.015625)" />
          <path
             id="ArialMT-68"
             d="M 422,0 V 4581 H 984 V 2938 q 394,456 994,456 369,0 641,-146 272,-145 389,-401 117,-256 117,-744 V 0 h -562 v 2103 q 0,422 -183,614 -183,192 -517,192 -250,0 -471,-130 -220,-129 -314,-351 -94,-222 -94,-612 V 0 Z"
             transform="scale(0.015625)" />
        </defs>
        <use
           xlink:href="#ArialMT-49"
           id="use99" />
        <use
           xlink:href="#ArialMT-73"
           x="27.783203"
           id="use100" />
        <use
           xlink:href="#ArialMT-6f"
           x="77.783203"
           id="use101" />
        <use
           xlink:href="#ArialMT-74"
           x="133.39844"
           id="use102" />
        <use
           xlink:href="#ArialMT-68"
           x="161.18164"
           id="use103" />
        <use
           xlink:href="#ArialMT-65"
           x="216.79688"
           id="use104" />
        <use
           xlink:href="#ArialMT-72"
           x="272.41211"
           id="use105" />
        <use
           xlink:href="#ArialMT-6d"
           x="305.71289"
           id="use106" />
        <use
           xlink:href="#ArialMT-61"
           x="389.01367"
           id="use107" />
        <use
           xlink:href="#ArialMT-6c"
           x="444.62891"
           id="use108" />
      </g>
    </g>
    <g
       id="patch_7">
      <path
         d="m 540.36,238.23412 h 24 v -8.4 h -24 z"
         style="opacity:0.6;fill:#aac7fd;stroke:#aac7fd;stroke-linejoin:miter;stroke-dasharray:3.7, 1.6;stroke-dashoffset:0"
         id="path108" />
    </g>
    <g
       id="text_16">
      <!-- Polytropic -->
      <g
         transform="matrix(0.12,0,0,-0.12,573.96,238.23412)"
         id="g118">
        <defs
           id="defs108">
          <path
             id="ArialMT-79"
             d="m 397,-1278 -63,528 q 185,-50 322,-50 188,0 300,63 113,62 185,174 53,85 172,419 15,47 50,138 L 103,3319 h 606 l 691,-1922 q 134,-366 241,-769 97,388 231,756 l 709,1935 h 563 L 1881,-56 q -203,-547 -315,-753 -150,-279 -344,-408 -194,-130 -463,-130 -162,0 -362,69 z"
             transform="scale(0.015625)" />
        </defs>
        <use
           xlink:href="#ArialMT-50"
           id="use109" />
        <use
           xlink:href="#ArialMT-6f"
           x="66.699219"
           id="use110" />
        <use
           xlink:href="#ArialMT-6c"
           x="122.31445"
           id="use111" />
        <use
           xlink:href="#ArialMT-79"
           x="144.53125"
           id="use112" />
        <use
           xlink:href="#ArialMT-74"
           x="194.53125"
           id="use113" />
        <use
           xlink:href="#ArialMT-72"
           x="222.31445"
           id="use114" />
        <use
           xlink:href="#ArialMT-6f"
           x="255.61523"
           id="use115" />
        <use
           xlink:href="#ArialMT-70"
           x="311.23047"
           id="use116" />
        <use
           xlink:href="#ArialMT-69"
           x="366.8457"
           id="use117" />
        <use
           xlink:href="#ArialMT-63"
           x="389.0625"
           id="use118" />
      </g>
    </g>
    <g
       id="patch_8">
      <path
         d="m 540.36,255.34912 h 24 v -8.4 h -24 z"
         style="opacity:0.6;fill:#3b4cc0;stroke:#3b4cc0;stroke-linejoin:miter;stroke-dasharray:3.7, 1.6;stroke-dashoffset:0"
         id="path118" />
    </g>
    <g
       id="text_17">
      <!-- Adiabatic -->
      <g
         transform="matrix(0.12,0,0,-0.12,573.96,255.34912)"
         id="g127">
        <defs
           id="defs118">
          <path
             id="ArialMT-41"
             d="m -9,0 1759,4581 h 653 L 4278,0 H 3588 L 3053,1388 H 1138 L 634,0 Z m 1322,1881 h 1553 l -478,1269 q -219,578 -325,950 -88,-441 -247,-875 z"
             transform="scale(0.015625)" />
          <path
             id="ArialMT-64"
             d="M 2575,0 V 419 Q 2259,-75 1647,-75 1250,-75 917,144 584,363 401,755 q -182,392 -182,901 0,497 165,902 166,405 497,620 332,216 741,216 300,0 534,-127 235,-126 382,-329 v 1643 h 559 V 0 Z M 797,1656 q 0,-637 268,-953 269,-315 635,-315 369,0 626,301 258,302 258,920 0,682 -263,1000 -262,319 -646,319 -375,0 -627,-306 -251,-306 -251,-966 z"
             transform="scale(0.015625)" />
        </defs>
        <use
           xlink:href="#ArialMT-41"
           id="use119" />
        <use
           xlink:href="#ArialMT-64"
           x="66.699219"
           id="use120" />
        <use
           xlink:href="#ArialMT-69"
           x="122.31445"
           id="use121" />
        <use
           xlink:href="#ArialMT-61"
           x="144.53125"
           id="use122" />
        <use
           xlink:href="#ArialMT-62"
           x="200.14648"
           id="use123" />
        <use
           xlink:href="#ArialMT-61"
           x="255.76172"
           id="use124" />
        <use
           xlink:href="#ArialMT-74"
           x="311.37695"
           id="use125" />
        <use
           xlink:href="#ArialMT-69"
           x="339.16016"
           id="use126" />
        <use
           xlink:href="#ArialMT-63"
           x="361.37695"
           id="use127" />
      </g>
    </g>
    <g
       id="line2d_17">
      <path
         d="m 540.36,268.1235 h 12 12"
         style="fill:none;stroke:#000000;stroke-width:1.5;stroke-dasharray:1.5, 2.475;stroke-dashoffset:0"
         id="path127" />
    </g>
    <g
       id="text_18">
      <!-- Isochoric -->
      <g
         transform="matrix(0.12,0,0,-0.12,573.96,272.3235)"
         id="g136">
        <use
           xlink:href="#ArialMT-49"
           id="use128" />
        <use
           xlink:href="#ArialMT-73"
           x="27.783203"
           id="use129" />
        <use
           xlink:href="#ArialMT-6f"
           x="77.783203"
           id="use130" />
        <use
           xlink:href="#ArialMT-63"
           x="133.39844"
           id="use131" />
        <use
           xlink:href="#ArialMT-68"
           x="183.39844"
           id="use132" />
        <use
           xlink:href="#ArialMT-6f"
           x="239.01367"
           id="use133" />
        <use
           xlink:href="#ArialMT-72"
           x="294.62891"
           id="use134" />
        <use
           xlink:href="#ArialMT-69"
           x="327.92969"
           id="use135" />
        <use
           xlink:href="#ArialMT-63"
           x="350.14648"
           id="use136" />
      </g>
    </g>
  </g>
  <defs
     id="defs136">
    <clipPath
       id="pa8da0eab5f">
      <rect
         x="72"
         y="51.84"
         width="446.39999"
         height="332.64001"
         id="rect136" />
    </clipPath>
  </defs>
</svg>
