<?xml version="1.0" encoding="utf-8" standalone="no"?>
<!DOCTYPE svg PUBLIC "-//W3C//DTD SVG 1.1//EN"
  "http://www.w3.org/Graphics/SVG/1.1/DTD/svg11.dtd">
<svg xmlns:xlink="http://www.w3.org/1999/xlink" width="576pt" height="432pt" viewBox="0 0 576 432" xmlns="http://www.w3.org/2000/svg" version="1.1">
 <metadata>
  <rdf:RDF xmlns:dc="http://purl.org/dc/elements/1.1/" xmlns:cc="http://creativecommons.org/ns#" xmlns:rdf="http://www.w3.org/1999/02/22-rdf-syntax-ns#">
   <cc:Work>
    <dc:type rdf:resource="http://purl.org/dc/dcmitype/StillImage"/>
    <dc:date>2025-10-28T16:33:25.816442</dc:date>
    <dc:format>image/svg+xml</dc:format>
    <dc:creator>
     <cc:Agent>
      <dc:title>Matplotlib v3.9.2, https://matplotlib.org/</dc:title>
     </cc:Agent>
    </dc:creator>
   </cc:Work>
  </rdf:RDF>
 </metadata>
 <defs>
  <style type="text/css">*{stroke-linejoin: round; stroke-linecap: butt}</style>
 </defs>
 <g id="figure_1">
  <g id="patch_1">
   <path d="M 0 432 
L 576 432 
L 576 0 
L 0 0 
z
" style="fill: #ffffff"/>
  </g>
  <g id="axes_1">
   <g id="patch_2">
    <path d="M 47.808365 388.95858 
L 565.2 388.95858 
L 565.2 10.8 
L 47.808365 10.8 
z
" style="fill: #ffffff"/>
   </g>
   <g id="PolyCollection_1">
    <path d="M 71.326166 27.989026 
L 71.326166 27.989026 
L 76.077237 27.989026 
L 80.828308 27.989026 
L 85.579379 27.989026 
L 90.33045 27.989026 
L 95.081521 27.989026 
L 99.832592 27.989026 
L 104.583663 27.989026 
L 109.334734 27.989026 
L 114.085806 27.989026 
L 118.836877 27.989026 
L 123.587948 27.989026 
L 128.339019 27.989026 
L 133.09009 27.989026 
L 137.841161 27.989026 
L 142.592232 27.989026 
L 147.343303 27.989026 
L 152.094374 27.989026 
L 156.845445 27.989026 
L 161.596516 27.989026 
L 166.347587 27.989026 
L 171.098658 27.989026 
L 175.849729 27.989026 
L 180.6008 27.989026 
L 185.351871 27.989026 
L 190.102942 27.989026 
L 194.854013 27.989026 
L 199.605084 27.989026 
L 204.356155 27.989026 
L 209.107226 27.989026 
L 213.858297 27.989026 
L 218.609368 27.989026 
L 223.360439 27.989026 
L 228.11151 27.989026 
L 232.862581 27.989026 
L 237.613652 27.989026 
L 242.364723 27.989026 
L 247.115794 27.989026 
L 251.866865 27.989026 
L 256.617936 27.989026 
L 261.369008 27.989026 
L 266.120079 27.989026 
L 270.87115 27.989026 
L 275.622221 27.989026 
L 280.373292 27.989026 
L 285.124363 27.989026 
L 289.875434 27.989026 
L 294.626505 27.989026 
L 299.377576 27.989026 
L 304.128647 27.989026 
L 308.879718 27.989026 
L 313.630789 27.989026 
L 318.38186 27.989026 
L 323.132931 27.989026 
L 327.884002 27.989026 
L 332.635073 27.989026 
L 337.386144 27.989026 
L 342.137215 27.989026 
L 346.888286 27.989026 
L 351.639357 27.989026 
L 356.390428 27.989026 
L 361.141499 27.989026 
L 365.89257 27.989026 
L 370.643641 27.989026 
L 375.394712 27.989026 
L 380.145783 27.989026 
L 384.896854 27.989026 
L 389.647925 27.989026 
L 394.398996 27.989026 
L 399.150067 27.989026 
L 403.901138 27.989026 
L 408.652209 27.989026 
L 413.403281 27.989026 
L 418.154352 27.989026 
L 422.905423 27.989026 
L 427.656494 27.989026 
L 432.407565 27.989026 
L 437.158636 27.989026 
L 441.909707 27.989026 
L 446.660778 27.989026 
L 451.411849 27.989026 
L 456.16292 27.989026 
L 460.913991 27.989026 
L 465.665062 27.989026 
L 470.416133 27.989026 
L 475.167204 27.989026 
L 479.918275 27.989026 
L 484.669346 27.989026 
L 489.420417 27.989026 
L 494.171488 27.989026 
L 498.922559 27.989026 
L 503.67363 27.989026 
L 508.424701 27.989026 
L 513.175772 27.989026 
L 517.926843 27.989026 
L 522.677914 27.989026 
L 527.428985 27.989026 
L 532.180056 27.989026 
L 536.931127 27.989026 
L 541.682198 27.989026 
L 541.682198 199.87929 
L 541.682198 199.87929 
L 536.931127 199.006751 
L 532.180056 198.125308 
L 527.428985 197.234824 
L 522.677914 196.335161 
L 517.926843 195.426174 
L 513.175772 194.507719 
L 508.424701 193.579647 
L 503.67363 192.641805 
L 498.922559 191.694039 
L 494.171488 190.736191 
L 489.420417 189.768098 
L 484.669346 188.789596 
L 479.918275 187.800515 
L 475.167204 186.800683 
L 470.416133 185.789924 
L 465.665062 184.768058 
L 460.913991 183.734901 
L 456.16292 182.690264 
L 451.411849 181.633955 
L 446.660778 180.565777 
L 441.909707 179.48553 
L 437.158636 178.393007 
L 432.407565 177.287998 
L 427.656494 176.170288 
L 422.905423 175.039656 
L 418.154352 173.895878 
L 413.403281 172.738722 
L 408.652209 171.567952 
L 403.901138 170.383328 
L 399.150067 169.1846 
L 394.398996 167.971516 
L 389.647925 166.743817 
L 384.896854 165.501237 
L 380.145783 164.243504 
L 375.394712 162.970338 
L 370.643641 161.681454 
L 365.89257 160.376559 
L 361.141499 159.055352 
L 356.390428 157.717527 
L 351.639357 156.362768 
L 346.888286 154.99075 
L 342.137215 153.601142 
L 337.386144 152.193604 
L 332.635073 150.767786 
L 327.884002 149.32333 
L 323.132931 147.859868 
L 318.38186 146.377022 
L 313.630789 144.874406 
L 308.879718 143.351619 
L 304.128647 141.808255 
L 299.377576 140.243892 
L 294.626505 138.6581 
L 289.875434 137.050435 
L 285.124363 135.420441 
L 280.373292 133.76765 
L 275.622221 132.09158 
L 270.87115 130.391737 
L 266.120079 128.667609 
L 261.369008 126.918674 
L 256.617936 125.144393 
L 251.866865 123.344209 
L 247.115794 121.517552 
L 242.364723 119.663834 
L 237.613652 117.782448 
L 232.862581 115.87277 
L 228.11151 113.934158 
L 223.360439 111.965949 
L 218.609368 109.96746 
L 213.858297 107.937986 
L 209.107226 105.876802 
L 204.356155 103.783158 
L 199.605084 101.656282 
L 194.854013 99.495376 
L 190.102942 97.299617 
L 185.351871 95.068154 
L 180.6008 92.800109 
L 175.849729 90.494577 
L 171.098658 88.150619 
L 166.347587 85.767266 
L 161.596516 83.343518 
L 156.845445 80.878338 
L 152.094374 78.370655 
L 147.343303 75.819361 
L 142.592232 73.223306 
L 137.841161 70.581304 
L 133.09009 67.892123 
L 128.339019 65.154489 
L 123.587948 62.367079 
L 118.836877 59.528524 
L 114.085806 56.637404 
L 109.334734 53.692243 
L 104.583663 50.691514 
L 99.832592 47.633628 
L 95.081521 44.516936 
L 90.33045 41.339726 
L 85.579379 38.100218 
L 80.828308 34.796562 
L 76.077237 31.426832 
L 71.326166 27.989026 
z
" clip-path="url(#p870fbb96d4)" style="fill: #ff0000; fill-opacity: 0.15"/>
   </g>
   <g id="PolyCollection_2">
    <path d="M 71.326166 27.989026 
L 71.326166 27.989026 
L 76.077237 31.426832 
L 80.828308 34.796562 
L 85.579379 38.100218 
L 90.33045 41.339726 
L 95.081521 44.516936 
L 99.832592 47.633628 
L 104.583663 50.691514 
L 109.334734 53.692243 
L 114.085806 56.637404 
L 118.836877 59.528524 
L 123.587948 62.367079 
L 128.339019 65.154489 
L 133.09009 67.892123 
L 137.841161 70.581304 
L 142.592232 73.223306 
L 147.343303 75.819361 
L 152.094374 78.370655 
L 156.845445 80.878338 
L 161.596516 83.343518 
L 166.347587 85.767266 
L 171.098658 88.150619 
L 175.849729 90.494577 
L 180.6008 92.800109 
L 185.351871 95.068154 
L 190.102942 97.299617 
L 194.854013 99.495376 
L 199.605084 101.656282 
L 204.356155 103.783158 
L 209.107226 105.876802 
L 213.858297 107.937986 
L 218.609368 109.96746 
L 223.360439 111.965949 
L 228.11151 113.934158 
L 232.862581 115.87277 
L 237.613652 117.782448 
L 242.364723 119.663834 
L 247.115794 121.517552 
L 251.866865 123.344209 
L 256.617936 125.144393 
L 261.369008 126.918674 
L 266.120079 128.667609 
L 270.87115 130.391737 
L 275.622221 132.09158 
L 280.373292 133.76765 
L 285.124363 135.420441 
L 289.875434 137.050435 
L 294.626505 138.6581 
L 299.377576 140.243892 
L 304.128647 141.808255 
L 308.879718 143.351619 
L 313.630789 144.874406 
L 318.38186 146.377022 
L 323.132931 147.859868 
L 327.884002 149.32333 
L 332.635073 150.767786 
L 337.386144 152.193604 
L 342.137215 153.601142 
L 346.888286 154.99075 
L 351.639357 156.362768 
L 356.390428 157.717527 
L 361.141499 159.055352 
L 365.89257 160.376559 
L 370.643641 161.681454 
L 375.394712 162.970338 
L 380.145783 164.243504 
L 384.896854 165.501237 
L 389.647925 166.743817 
L 394.398996 167.971516 
L 399.150067 169.1846 
L 403.901138 170.383328 
L 408.652209 171.567952 
L 413.403281 172.738722 
L 418.154352 173.895878 
L 422.905423 175.039656 
L 427.656494 176.170288 
L 432.407565 177.287998 
L 437.158636 178.393007 
L 441.909707 179.48553 
L 446.660778 180.565777 
L 451.411849 181.633955 
L 456.16292 182.690264 
L 460.913991 183.734901 
L 465.665062 184.768058 
L 470.416133 185.789924 
L 475.167204 186.800683 
L 479.918275 187.800515 
L 484.669346 188.789596 
L 489.420417 189.768098 
L 494.171488 190.736191 
L 498.922559 191.694039 
L 503.67363 192.641805 
L 508.424701 193.579647 
L 513.175772 194.507719 
L 517.926843 195.426174 
L 522.677914 196.335161 
L 527.428985 197.234824 
L 532.180056 198.125308 
L 536.931127 199.006751 
L 541.682198 199.87929 
L 541.682198 222.130388 
L 541.682198 222.130388 
L 536.931127 221.218418 
L 532.180056 220.296207 
L 527.428985 219.363586 
L 522.677914 218.420383 
L 517.926843 217.466423 
L 513.175772 216.501527 
L 508.424701 215.525511 
L 503.67363 214.538188 
L 498.922559 213.539366 
L 494.171488 212.52885 
L 489.420417 211.506439 
L 484.669346 210.471928 
L 479.918275 209.425109 
L 475.167204 208.365766 
L 470.416133 207.293681 
L 465.665062 206.20863 
L 460.913991 205.110383 
L 456.16292 203.998705 
L 451.411849 202.873357 
L 446.660778 201.734092 
L 441.909707 200.580659 
L 437.158636 199.4128 
L 432.407565 198.230251 
L 427.656494 197.032741 
L 422.905423 195.819994 
L 418.154352 194.591727 
L 413.403281 193.347648 
L 408.652209 192.087459 
L 403.901138 190.810856 
L 399.150067 189.517526 
L 394.398996 188.207148 
L 389.647925 186.879392 
L 384.896854 185.533923 
L 380.145783 184.170394 
L 375.394712 182.78845 
L 370.643641 181.387727 
L 365.89257 179.967852 
L 361.141499 178.528442 
L 356.390428 177.069103 
L 351.639357 175.589431 
L 346.888286 174.089011 
L 342.137215 172.567419 
L 337.386144 171.024215 
L 332.635073 169.458952 
L 327.884002 167.871167 
L 323.132931 166.260385 
L 318.38186 164.62612 
L 313.630789 162.96787 
L 308.879718 161.285119 
L 304.128647 159.577338 
L 299.377576 157.84398 
L 294.626505 156.084485 
L 289.875434 154.298277 
L 285.124363 152.48476 
L 280.373292 150.643323 
L 275.622221 148.773338 
L 270.87115 146.874154 
L 266.120079 144.945105 
L 261.369008 142.985502 
L 256.617936 140.994637 
L 251.866865 138.971778 
L 247.115794 136.916173 
L 242.364723 134.827044 
L 237.613652 132.70359 
L 232.862581 130.544985 
L 228.11151 128.350377 
L 223.360439 126.118884 
L 218.609368 123.849599 
L 213.858297 121.541583 
L 209.107226 119.193866 
L 204.356155 116.805449 
L 199.605084 114.375297 
L 194.854013 111.902339 
L 190.102942 109.385471 
L 185.351871 106.82355 
L 180.6008 104.215392 
L 175.849729 101.559774 
L 171.098658 98.85543 
L 166.347587 96.101047 
L 161.596516 93.295268 
L 156.845445 90.436686 
L 152.094374 87.523843 
L 147.343303 84.555228 
L 142.592232 81.529273 
L 137.841161 78.444354 
L 133.09009 75.298785 
L 128.339019 72.090815 
L 123.587948 68.818627 
L 118.836877 65.480335 
L 114.085806 62.073978 
L 109.334734 58.597519 
L 104.583663 55.048839 
L 99.832592 51.425735 
L 95.081521 47.725915 
L 90.33045 43.946994 
L 85.579379 40.086487 
L 80.828308 36.141806 
L 76.077237 32.110256 
L 71.326166 27.989026 
z
" clip-path="url(#p870fbb96d4)" style="fill: #0000ff; fill-opacity: 0.3"/>
   </g>
   <g id="PolyCollection_3">
    <path d="M 71.326166 27.989026 
L 71.326166 27.989026 
L 76.077237 32.110256 
L 80.828308 36.141806 
L 85.579379 40.086487 
L 90.33045 43.946994 
L 95.081521 47.725915 
L 99.832592 51.425735 
L 104.583663 55.048839 
L 109.334734 58.597519 
L 114.085806 62.073978 
L 118.836877 65.480335 
L 123.587948 68.818627 
L 128.339019 72.090815 
L 133.09009 75.298785 
L 137.841161 78.444354 
L 142.592232 81.529273 
L 147.343303 84.555228 
L 152.094374 87.523843 
L 156.845445 90.436686 
L 161.596516 93.295268 
L 166.347587 96.101047 
L 171.098658 98.85543 
L 175.849729 101.559774 
L 180.6008 104.215392 
L 185.351871 106.82355 
L 190.102942 109.385471 
L 194.854013 111.902339 
L 199.605084 114.375297 
L 204.356155 116.805449 
L 209.107226 119.193866 
L 213.858297 121.541583 
L 218.609368 123.849599 
L 223.360439 126.118884 
L 228.11151 128.350377 
L 232.862581 130.544985 
L 237.613652 132.70359 
L 242.364723 134.827044 
L 247.115794 136.916173 
L 251.866865 138.971778 
L 256.617936 140.994637 
L 261.369008 142.985502 
L 266.120079 144.945105 
L 270.87115 146.874154 
L 275.622221 148.773338 
L 280.373292 150.643323 
L 285.124363 152.48476 
L 289.875434 154.298277 
L 294.626505 156.084485 
L 299.377576 157.84398 
L 304.128647 159.577338 
L 308.879718 161.285119 
L 313.630789 162.96787 
L 318.38186 164.62612 
L 323.132931 166.260385 
L 327.884002 167.871167 
L 332.635073 169.458952 
L 337.386144 171.024215 
L 342.137215 172.567419 
L 346.888286 174.089011 
L 351.639357 175.589431 
L 356.390428 177.069103 
L 361.141499 178.528442 
L 365.89257 179.967852 
L 370.643641 181.387727 
L 375.394712 182.78845 
L 380.145783 184.170394 
L 384.896854 185.533923 
L 389.647925 186.879392 
L 394.398996 188.207148 
L 399.150067 189.517526 
L 403.901138 190.810856 
L 408.652209 192.087459 
L 413.403281 193.347648 
L 418.154352 194.591727 
L 422.905423 195.819994 
L 427.656494 197.032741 
L 432.407565 198.230251 
L 437.158636 199.4128 
L 441.909707 200.580659 
L 446.660778 201.734092 
L 451.411849 202.873357 
L 456.16292 203.998705 
L 460.913991 205.110383 
L 465.665062 206.20863 
L 470.416133 207.293681 
L 475.167204 208.365766 
L 479.918275 209.425109 
L 484.669346 210.471928 
L 489.420417 211.506439 
L 494.171488 212.52885 
L 498.922559 213.539366 
L 503.67363 214.538188 
L 508.424701 215.525511 
L 513.175772 216.501527 
L 517.926843 217.466423 
L 522.677914 218.420383 
L 527.428985 219.363586 
L 532.180056 220.296207 
L 536.931127 221.218418 
L 541.682198 222.130388 
L 541.682198 241.320378 
L 541.682198 241.320378 
L 536.931127 240.393718 
L 532.180056 239.455709 
L 527.428985 238.506154 
L 522.677914 237.544849 
L 517.926843 236.571588 
L 513.175772 235.586158 
L 508.424701 234.588344 
L 503.67363 233.577923 
L 498.922559 232.554669 
L 494.171488 231.518348 
L 489.420417 230.468725 
L 484.669346 229.405554 
L 479.918275 228.328588 
L 475.167204 227.237571 
L 470.416133 226.132242 
L 465.665062 225.012334 
L 460.913991 223.877572 
L 456.16292 222.727676 
L 451.411849 221.562358 
L 446.660778 220.381323 
L 441.909707 219.18427 
L 437.158636 217.970889 
L 432.407565 216.740861 
L 427.656494 215.493863 
L 422.905423 214.22956 
L 418.154352 212.94761 
L 413.403281 211.647662 
L 408.652209 210.329355 
L 403.901138 208.99232 
L 399.150067 207.636179 
L 394.398996 206.260541 
L 389.647925 204.865007 
L 384.896854 203.449166 
L 380.145783 202.012599 
L 375.394712 200.554871 
L 370.643641 199.075539 
L 365.89257 197.574146 
L 361.141499 196.050223 
L 356.390428 194.503288 
L 351.639357 192.932845 
L 346.888286 191.338385 
L 342.137215 189.719384 
L 337.386144 188.075304 
L 332.635073 186.40559 
L 327.884002 184.709672 
L 323.132931 182.986964 
L 318.38186 181.236862 
L 313.630789 179.458744 
L 308.879718 177.651972 
L 304.128647 175.815886 
L 299.377576 173.949807 
L 294.626505 172.053037 
L 289.875434 170.124855 
L 285.124363 168.16452 
L 280.373292 166.171265 
L 275.622221 164.144303 
L 270.87115 162.082819 
L 266.120079 159.985975 
L 261.369008 157.852906 
L 256.617936 155.682717 
L 251.866865 153.474486 
L 247.115794 151.227263 
L 242.364723 148.940063 
L 237.613652 146.611872 
L 232.862581 144.241642 
L 228.11151 141.828287 
L 223.360439 139.370688 
L 218.609368 136.867686 
L 213.858297 134.318085 
L 209.107226 131.720644 
L 204.356155 129.074082 
L 199.605084 126.377072 
L 194.854013 123.62824 
L 190.102942 120.826164 
L 185.351871 117.969371 
L 180.6008 115.056335 
L 175.849729 112.085473 
L 171.098658 109.055144 
L 166.347587 105.963649 
L 161.596516 102.809223 
L 156.845445 99.590036 
L 152.094374 96.304186 
L 147.343303 92.9497 
L 142.592232 89.52453 
L 137.841161 86.026546 
L 133.09009 82.453535 
L 128.339019 78.803196 
L 123.587948 75.073137 
L 118.836877 71.260866 
L 114.085806 67.363794 
L 109.334734 63.379222 
L 104.583663 59.304339 
L 99.832592 55.136219 
L 95.081521 50.871807 
L 90.33045 46.507923 
L 85.579379 42.041245 
L 80.828308 37.468308 
L 76.077237 32.785495 
L 71.326166 27.989026 
z
" clip-path="url(#p870fbb96d4)" style="fill: #bf00bf; fill-opacity: 0.5"/>
   </g>
   <g id="PolyCollection_4">
    <path d="M 71.326166 371.769554 
L 71.326166 27.989026 
L 76.077237 32.785495 
L 80.828308 37.468308 
L 85.579379 42.041245 
L 90.33045 46.507923 
L 95.081521 50.871807 
L 99.832592 55.136219 
L 104.583663 59.304339 
L 109.334734 63.379222 
L 114.085806 67.363794 
L 118.836877 71.260866 
L 123.587948 75.073137 
L 128.339019 78.803196 
L 133.09009 82.453535 
L 137.841161 86.026546 
L 142.592232 89.52453 
L 147.343303 92.9497 
L 152.094374 96.304186 
L 156.845445 99.590036 
L 161.596516 102.809223 
L 166.347587 105.963649 
L 171.098658 109.055144 
L 175.849729 112.085473 
L 180.6008 115.056335 
L 185.351871 117.969371 
L 190.102942 120.826164 
L 194.854013 123.62824 
L 199.605084 126.377072 
L 204.356155 129.074082 
L 209.107226 131.720644 
L 213.858297 134.318085 
L 218.609368 136.867686 
L 223.360439 139.370688 
L 228.11151 141.828287 
L 232.862581 144.241642 
L 237.613652 146.611872 
L 242.364723 148.940063 
L 247.115794 151.227263 
L 251.866865 153.474486 
L 256.617936 155.682717 
L 261.369008 157.852906 
L 266.120079 159.985975 
L 270.87115 162.082819 
L 275.622221 164.144303 
L 280.373292 166.171265 
L 285.124363 168.16452 
L 289.875434 170.124855 
L 294.626505 172.053037 
L 299.377576 173.949807 
L 304.128647 175.815886 
L 308.879718 177.651972 
L 313.630789 179.458744 
L 318.38186 181.236862 
L 323.132931 182.986964 
L 327.884002 184.709672 
L 332.635073 186.40559 
L 337.386144 188.075304 
L 342.137215 189.719384 
L 346.888286 191.338385 
L 351.639357 192.932845 
L 356.390428 194.503288 
L 361.141499 196.050223 
L 365.89257 197.574146 
L 370.643641 199.075539 
L 375.394712 200.554871 
L 380.145783 202.012599 
L 384.896854 203.449166 
L 389.647925 204.865007 
L 394.398996 206.260541 
L 399.150067 207.636179 
L 403.901138 208.99232 
L 408.652209 210.329355 
L 413.403281 211.647662 
L 418.154352 212.94761 
L 422.905423 214.22956 
L 427.656494 215.493863 
L 432.407565 216.740861 
L 437.158636 217.970889 
L 441.909707 219.18427 
L 446.660778 220.381323 
L 451.411849 221.562358 
L 456.16292 222.727676 
L 460.913991 223.877572 
L 465.665062 225.012334 
L 470.416133 226.132242 
L 475.167204 227.237571 
L 479.918275 228.328588 
L 484.669346 229.405554 
L 489.420417 230.468725 
L 494.171488 231.518348 
L 498.922559 232.554669 
L 503.67363 233.577923 
L 508.424701 234.588344 
L 513.175772 235.586158 
L 517.926843 236.571588 
L 522.677914 237.544849 
L 527.428985 238.506154 
L 532.180056 239.455709 
L 536.931127 240.393718 
L 541.682198 241.320378 
L 541.682198 371.769554 
L 541.682198 371.769554 
L 536.931127 371.769554 
L 532.180056 371.769554 
L 527.428985 371.769554 
L 522.677914 371.769554 
L 517.926843 371.769554 
L 513.175772 371.769554 
L 508.424701 371.769554 
L 503.67363 371.769554 
L 498.922559 371.769554 
L 494.171488 371.769554 
L 489.420417 371.769554 
L 484.669346 371.769554 
L 479.918275 371.769554 
L 475.167204 371.769554 
L 470.416133 371.769554 
L 465.665062 371.769554 
L 460.913991 371.769554 
L 456.16292 371.769554 
L 451.411849 371.769554 
L 446.660778 371.769554 
L 441.909707 371.769554 
L 437.158636 371.769554 
L 432.407565 371.769554 
L 427.656494 371.769554 
L 422.905423 371.769554 
L 418.154352 371.769554 
L 413.403281 371.769554 
L 408.652209 371.769554 
L 403.901138 371.769554 
L 399.150067 371.769554 
L 394.398996 371.769554 
L 389.647925 371.769554 
L 384.896854 371.769554 
L 380.145783 371.769554 
L 375.394712 371.769554 
L 370.643641 371.769554 
L 365.89257 371.769554 
L 361.141499 371.769554 
L 356.390428 371.769554 
L 351.639357 371.769554 
L 346.888286 371.769554 
L 342.137215 371.769554 
L 337.386144 371.769554 
L 332.635073 371.769554 
L 327.884002 371.769554 
L 323.132931 371.769554 
L 318.38186 371.769554 
L 313.630789 371.769554 
L 308.879718 371.769554 
L 304.128647 371.769554 
L 299.377576 371.769554 
L 294.626505 371.769554 
L 289.875434 371.769554 
L 285.124363 371.769554 
L 280.373292 371.769554 
L 275.622221 371.769554 
L 270.87115 371.769554 
L 266.120079 371.769554 
L 261.369008 371.769554 
L 256.617936 371.769554 
L 251.866865 371.769554 
L 247.115794 371.769554 
L 242.364723 371.769554 
L 237.613652 371.769554 
L 232.862581 371.769554 
L 228.11151 371.769554 
L 223.360439 371.769554 
L 218.609368 371.769554 
L 213.858297 371.769554 
L 209.107226 371.769554 
L 204.356155 371.769554 
L 199.605084 371.769554 
L 194.854013 371.769554 
L 190.102942 371.769554 
L 185.351871 371.769554 
L 180.6008 371.769554 
L 175.849729 371.769554 
L 171.098658 371.769554 
L 166.347587 371.769554 
L 161.596516 371.769554 
L 156.845445 371.769554 
L 152.094374 371.769554 
L 147.343303 371.769554 
L 142.592232 371.769554 
L 137.841161 371.769554 
L 133.09009 371.769554 
L 128.339019 371.769554 
L 123.587948 371.769554 
L 118.836877 371.769554 
L 114.085806 371.769554 
L 109.334734 371.769554 
L 104.583663 371.769554 
L 99.832592 371.769554 
L 95.081521 371.769554 
L 90.33045 371.769554 
L 85.579379 371.769554 
L 80.828308 371.769554 
L 76.077237 371.769554 
L 71.326166 371.769554 
z
" clip-path="url(#p870fbb96d4)" style="fill: #008000; fill-opacity: 0.75"/>
   </g>
   <g id="matplotlib.axis_1">
    <g id="xtick_1">
     <g id="line2d_1">
      <defs>
       <path id="m5a0ea22dbd" d="M 0 0 
L 0 3.5 
" style="stroke: #000000; stroke-width: 0.8"/>
      </defs>
      <g>
       <use xlink:href="#m5a0ea22dbd" x="129.222641" y="388.95858" style="stroke: #000000; stroke-width: 0.8"/>
      </g>
     </g>
     <g id="text_1">
      <!-- $\mathdefault{1.0}$ -->
      <g transform="translate(122.857602 403.0569) scale(0.1 -0.1)">
       <defs>
        <path id="CMR17-31" d="M 1702 4083 
C 1702 4217 1696 4224 1606 4224 
C 1357 3927 979 3833 621 3820 
C 602 3820 570 3820 563 3808 
C 557 3795 557 3782 557 3648 
C 755 3648 1088 3686 1344 3839 
L 1344 467 
C 1344 243 1331 166 781 166 
L 589 166 
L 589 0 
C 896 6 1216 12 1523 12 
C 1830 12 2150 6 2458 0 
L 2458 166 
L 2266 166 
C 1715 166 1702 236 1702 467 
L 1702 4083 
z
" transform="scale(0.015625)"/>
        <path id="CMMI12-3a" d="M 1178 307 
C 1178 492 1024 620 870 620 
C 685 620 557 467 557 313 
C 557 128 710 0 864 0 
C 1050 0 1178 153 1178 307 
z
" transform="scale(0.015625)"/>
        <path id="CMR17-30" d="M 2688 2038 
C 2688 2430 2682 3099 2413 3613 
C 2176 4063 1798 4224 1466 4224 
C 1158 4224 768 4082 525 3620 
C 269 3137 243 2539 243 2038 
C 243 1671 250 1112 448 623 
C 723 -39 1216 -128 1466 -128 
C 1760 -128 2208 -7 2470 604 
C 2662 1048 2688 1568 2688 2038 
z
M 1466 -26 
C 1056 -26 813 328 723 816 
C 653 1196 653 1749 653 2109 
C 653 2604 653 3015 736 3407 
C 858 3954 1216 4121 1466 4121 
C 1728 4121 2067 3947 2189 3420 
C 2272 3054 2278 2623 2278 2109 
C 2278 1691 2278 1176 2202 797 
C 2067 96 1690 -26 1466 -26 
z
" transform="scale(0.015625)"/>
       </defs>
       <use xlink:href="#CMR17-31" transform="scale(0.996264)"/>
       <use xlink:href="#CMMI12-3a" transform="translate(45.690477 0) scale(0.996264)"/>
       <use xlink:href="#CMR17-30" transform="translate(72.787654 0) scale(0.996264)"/>
      </g>
     </g>
    </g>
    <g id="xtick_2">
     <g id="line2d_2">
      <g>
       <use xlink:href="#m5a0ea22dbd" x="234.873142" y="388.95858" style="stroke: #000000; stroke-width: 0.8"/>
      </g>
     </g>
     <g id="text_2">
      <!-- $\mathdefault{1.2}$ -->
      <g transform="translate(228.508103 403.0569) scale(0.1 -0.1)">
       <defs>
        <path id="CMR17-32" d="M 2669 990 
L 2554 990 
C 2490 537 2438 460 2413 422 
C 2381 371 1920 371 1830 371 
L 602 371 
C 832 620 1280 1073 1824 1596 
C 2214 1966 2669 2400 2669 3033 
C 2669 3788 2067 4224 1395 4224 
C 691 4224 262 3603 262 3027 
C 262 2777 448 2745 525 2745 
C 589 2745 781 2783 781 3007 
C 781 3206 614 3264 525 3264 
C 486 3264 448 3257 422 3244 
C 544 3788 915 4057 1306 4057 
C 1862 4057 2227 3616 2227 3033 
C 2227 2477 1901 1998 1536 1583 
L 262 147 
L 262 0 
L 2515 0 
L 2669 990 
z
" transform="scale(0.015625)"/>
       </defs>
       <use xlink:href="#CMR17-31" transform="scale(0.996264)"/>
       <use xlink:href="#CMMI12-3a" transform="translate(45.690477 0) scale(0.996264)"/>
       <use xlink:href="#CMR17-32" transform="translate(72.787654 0) scale(0.996264)"/>
      </g>
     </g>
    </g>
    <g id="xtick_3">
     <g id="line2d_3">
      <g>
       <use xlink:href="#m5a0ea22dbd" x="340.523644" y="388.95858" style="stroke: #000000; stroke-width: 0.8"/>
      </g>
     </g>
     <g id="text_3">
      <!-- $\mathdefault{1.4}$ -->
      <g transform="translate(334.158604 403.0569) scale(0.1 -0.1)">
       <defs>
        <path id="CMR17-34" d="M 2150 4147 
C 2150 4281 2144 4288 2029 4288 
L 128 1254 
L 128 1088 
L 1779 1088 
L 1779 460 
C 1779 230 1766 166 1318 166 
L 1197 166 
L 1197 0 
C 1402 12 1747 12 1965 12 
C 2182 12 2528 12 2733 0 
L 2733 166 
L 2611 166 
C 2163 166 2150 230 2150 460 
L 2150 1088 
L 2803 1088 
L 2803 1254 
L 2150 1254 
L 2150 4147 
z
M 1798 3723 
L 1798 1254 
L 256 1254 
L 1798 3723 
z
" transform="scale(0.015625)"/>
       </defs>
       <use xlink:href="#CMR17-31" transform="scale(0.996264)"/>
       <use xlink:href="#CMMI12-3a" transform="translate(45.690477 0) scale(0.996264)"/>
       <use xlink:href="#CMR17-34" transform="translate(72.787654 0) scale(0.996264)"/>
      </g>
     </g>
    </g>
    <g id="xtick_4">
     <g id="line2d_4">
      <g>
       <use xlink:href="#m5a0ea22dbd" x="446.174145" y="388.95858" style="stroke: #000000; stroke-width: 0.8"/>
      </g>
     </g>
     <g id="text_4">
      <!-- $\mathdefault{1.6}$ -->
      <g transform="translate(439.809106 403.0569) scale(0.1 -0.1)">
       <defs>
        <path id="CMR17-36" d="M 678 2198 
C 678 3712 1395 4076 1811 4076 
C 1946 4076 2272 4049 2400 3782 
C 2298 3782 2106 3782 2106 3558 
C 2106 3385 2246 3328 2336 3328 
C 2394 3328 2566 3353 2566 3571 
C 2566 3987 2246 4224 1805 4224 
C 1043 4224 243 3411 243 2011 
C 243 257 966 -128 1478 -128 
C 2099 -128 2688 431 2688 1295 
C 2688 2101 2170 2688 1517 2688 
C 1126 2688 838 2430 678 1979 
L 678 2198 
z
M 1478 25 
C 691 25 691 1212 691 1450 
C 691 1914 909 2585 1504 2585 
C 1613 2585 1926 2585 2138 2140 
C 2253 1889 2253 1624 2253 1302 
C 2253 954 2253 696 2118 438 
C 1978 173 1773 25 1478 25 
z
" transform="scale(0.015625)"/>
       </defs>
       <use xlink:href="#CMR17-31" transform="scale(0.996264)"/>
       <use xlink:href="#CMMI12-3a" transform="translate(45.690477 0) scale(0.996264)"/>
       <use xlink:href="#CMR17-36" transform="translate(72.787654 0) scale(0.996264)"/>
      </g>
     </g>
    </g>
    <g id="xtick_5">
     <g id="line2d_5">
      <g>
       <use xlink:href="#m5a0ea22dbd" x="551.824647" y="388.95858" style="stroke: #000000; stroke-width: 0.8"/>
      </g>
     </g>
     <g id="text_5">
      <!-- $\mathdefault{1.8}$ -->
      <g transform="translate(545.459607 403.0569) scale(0.1 -0.1)">
       <defs>
        <path id="CMR17-38" d="M 1741 2289 
C 2144 2494 2554 2803 2554 3298 
C 2554 3884 1990 4224 1472 4224 
C 890 4224 378 3800 378 3215 
C 378 3054 416 2777 666 2533 
C 730 2469 998 2276 1171 2154 
C 883 2006 211 1652 211 945 
C 211 282 838 -128 1459 -128 
C 2144 -128 2720 366 2720 1022 
C 2720 1607 2330 1877 2074 2051 
L 1741 2289 
z
M 902 2855 
C 851 2887 595 3086 595 3388 
C 595 3781 998 4076 1459 4076 
C 1965 4076 2336 3716 2336 3298 
C 2336 2700 1670 2359 1638 2359 
C 1632 2359 1626 2359 1574 2398 
L 902 2855 
z
M 2080 1536 
C 2176 1466 2483 1253 2483 861 
C 2483 385 2010 25 1472 25 
C 890 25 448 443 448 951 
C 448 1459 838 1884 1280 2083 
L 2080 1536 
z
" transform="scale(0.015625)"/>
       </defs>
       <use xlink:href="#CMR17-31" transform="scale(0.996264)"/>
       <use xlink:href="#CMMI12-3a" transform="translate(45.690477 0) scale(0.996264)"/>
       <use xlink:href="#CMR17-38" transform="translate(72.787654 0) scale(0.996264)"/>
      </g>
     </g>
    </g>
    <g id="text_6">
     <!-- Specific Volume $V$ [m$^{3}$/kg] -->
     <g transform="translate(237.450352 418.653625) scale(0.12 -0.12)">
      <defs>
       <path id="NimbusSanL-Regu-53" d="M 3814 3295 
C 3808 4204 3181 4736 2106 4736 
C 1082 4736 448 4211 448 3372 
C 448 2806 749 2450 1363 2291 
L 2522 1986 
C 3110 1833 3379 1598 3379 1236 
C 3379 988 3245 733 3046 593 
C 2861 466 2566 396 2189 396 
C 1683 396 1338 517 1114 784 
C 941 988 864 1210 870 1496 
L 307 1496 
C 314 1070 397 790 582 536 
C 902 102 1440 -128 2150 -128 
C 2707 -128 3162 0 3462 230 
C 3776 479 3974 892 3974 1293 
C 3974 1865 3616 2284 2982 2456 
L 1811 2768 
C 1248 2920 1043 3098 1043 3454 
C 1043 3925 1459 4236 2086 4236 
C 2829 4236 3245 3899 3251 3295 
L 3814 3295 
z
" transform="scale(0.015625)"/>
       <path id="NimbusSanL-Regu-70" d="M 346 -1408 
L 883 -1408 
L 883 371 
C 1165 25 1478 -128 1914 -128 
C 2778 -128 3347 568 3347 1632 
C 3347 2752 2797 3456 1907 3456 
C 1453 3456 1088 3251 838 2854 
L 838 3359 
L 346 3359 
L 346 -1408 
z
M 1818 2956 
C 2406 2956 2790 2440 2790 1644 
C 2790 887 2400 371 1818 371 
C 1254 371 883 880 883 1663 
C 883 2447 1254 2956 1818 2956 
z
" transform="scale(0.015625)"/>
       <path id="NimbusSanL-Regu-65" d="M 3283 1484 
C 3283 1998 3245 2311 3149 2565 
C 2931 3123 2419 3456 1792 3456 
C 858 3456 256 2734 256 1619 
C 256 545 838 -128 1779 -128 
C 2547 -128 3078 307 3213 1018 
L 2675 1018 
C 2528 588 2227 364 1798 364 
C 1459 364 1171 514 992 787 
C 864 974 819 1161 813 1484 
L 3283 1484 
z
M 826 1920 
C 870 2552 1248 2963 1786 2963 
C 2310 2963 2714 2519 2714 1959 
C 2714 1946 2714 1933 2707 1920 
L 826 1920 
z
" transform="scale(0.015625)"/>
       <path id="NimbusSanL-Regu-63" d="M 3014 2237 
C 2989 2561 2918 2771 2790 2956 
C 2560 3270 2157 3456 1690 3456 
C 787 3456 198 2740 198 1632 
C 198 555 774 -128 1683 -128 
C 2483 -128 2989 352 3053 1167 
L 2515 1167 
C 2426 632 2150 364 1696 364 
C 1107 364 755 842 755 1632 
C 755 2466 1101 2963 1683 2963 
C 2131 2963 2413 2701 2477 2237 
L 3014 2237 
z
" transform="scale(0.015625)"/>
       <path id="NimbusSanL-Regu-69" d="M 960 3358 
L 429 3358 
L 429 0 
L 960 0 
L 960 3358 
z
M 960 4672 
L 422 4672 
L 422 3999 
L 960 3999 
L 960 4672 
z
" transform="scale(0.015625)"/>
       <path id="NimbusSanL-Regu-2" d="M 1613 3328 
L 1056 3328 
L 1056 3860 
C 1056 4087 1184 4204 1427 4204 
C 1472 4204 1491 4204 1613 4198 
L 1613 4639 
C 1491 4665 1421 4672 1312 4672 
C 819 4672 525 4390 525 3905 
L 525 3328 
L 77 3328 
L 77 2892 
L 525 2892 
L 525 0 
L 1056 0 
L 1056 2892 
L 1613 2892 
L 1613 3328 
z
M 2790 3328 
L 2259 3328 
L 2259 0 
L 2790 0 
L 2790 3328 
z
M 2790 4672 
L 2259 4672 
L 2259 3999 
L 2790 3999 
L 2790 4672 
z
" transform="scale(0.015625)"/>
       <path id="NimbusSanL-Regu-56" d="M 2509 0 
L 4128 4672 
L 3494 4672 
L 2202 717 
L 832 4672 
L 192 4672 
L 1869 0 
L 2509 0 
z
" transform="scale(0.015625)"/>
       <path id="NimbusSanL-Regu-6f" d="M 1741 3456 
C 800 3456 230 2784 230 1663 
C 230 543 794 -128 1747 -128 
C 2688 -128 3264 543 3264 1638 
C 3264 2791 2707 3456 1741 3456 
z
M 1747 2963 
C 2349 2963 2707 2472 2707 1644 
C 2707 861 2336 364 1747 364 
C 1152 364 787 855 787 1663 
C 787 2466 1152 2963 1747 2963 
z
" transform="scale(0.015625)"/>
       <path id="NimbusSanL-Regu-6c" d="M 973 4672 
L 435 4672 
L 435 0 
L 973 0 
L 973 4672 
z
" transform="scale(0.015625)"/>
       <path id="NimbusSanL-Regu-75" d="M 3085 19 
L 3085 3328 
L 2554 3328 
L 2554 1454 
C 2554 780 2195 339 1638 339 
C 1216 339 947 591 947 988 
L 947 3328 
L 416 3328 
L 416 780 
C 416 230 832 -128 1485 -128 
C 1978 -128 2291 44 2605 484 
L 2605 19 
L 3085 19 
z
" transform="scale(0.015625)"/>
       <path id="NimbusSanL-Regu-6d" d="M 448 3328 
L 448 0 
L 986 0 
L 986 2089 
C 986 2597 1338 2988 1773 2988 
C 2170 2988 2394 2744 2394 2315 
L 2394 0 
L 2931 0 
L 2931 2109 
C 2931 2597 3283 2988 3718 2988 
C 4109 2988 4339 2738 4339 2315 
L 4339 0 
L 4877 0 
L 4877 2520 
C 4877 3123 4531 3456 3904 3456 
C 3456 3456 3187 3321 2874 2943 
C 2675 3302 2406 3456 1971 3456 
C 1523 3456 1229 3289 941 2886 
L 941 3328 
L 448 3328 
z
" transform="scale(0.015625)"/>
       <path id="CMMI12-56" d="M 3962 3644 
C 4179 3987 4378 4140 4704 4166 
C 4768 4172 4819 4172 4819 4287 
C 4819 4313 4806 4352 4749 4352 
C 4634 4352 4358 4339 4243 4339 
C 4058 4339 3866 4352 3686 4352 
C 3635 4352 3571 4352 3571 4230 
C 3571 4172 3629 4166 3654 4166 
C 3891 4146 3917 4032 3917 3956 
C 3917 3860 3827 3714 3821 3708 
L 1811 540 
L 1363 3968 
C 1363 4153 1696 4166 1766 4166 
C 1862 4166 1920 4166 1920 4287 
C 1920 4352 1850 4352 1830 4352 
C 1722 4352 1594 4339 1485 4339 
L 1126 4339 
C 659 4339 467 4352 461 4352 
C 422 4352 346 4352 346 4236 
C 346 4166 390 4166 493 4166 
C 819 4166 838 4108 858 3949 
L 1370 25 
C 1389 -109 1389 -128 1478 -128 
C 1555 -128 1587 -109 1651 -7 
L 3962 3644 
z
" transform="scale(0.015625)"/>
       <path id="NimbusSanL-Regu-5b" d="M 1600 4672 
L 410 4672 
L 410 -1357 
L 1600 -1357 
L 1600 -896 
L 941 -896 
L 941 4211 
L 1600 4211 
L 1600 4672 
z
" transform="scale(0.015625)"/>
       <path id="CMR17-33" d="M 1414 2176 
C 1984 2176 2234 1673 2234 1094 
C 2234 322 1824 25 1453 25 
C 1114 25 563 193 390 691 
C 422 678 454 678 486 678 
C 640 678 755 780 755 947 
C 755 1132 614 1216 486 1216 
C 378 1216 211 1164 211 927 
C 211 335 787 -128 1466 -128 
C 2176 -128 2720 432 2720 1087 
C 2720 1718 2208 2176 1600 2246 
C 2086 2347 2554 2776 2554 3353 
C 2554 3856 2048 4224 1472 4224 
C 890 4224 378 3862 378 3347 
C 378 3123 544 3084 627 3084 
C 762 3084 877 3167 877 3334 
C 877 3500 762 3584 627 3584 
C 602 3584 570 3584 544 3571 
C 730 3999 1235 4076 1459 4076 
C 1683 4076 2106 3966 2106 3347 
C 2106 3167 2080 2851 1862 2574 
C 1670 2329 1453 2316 1242 2297 
C 1210 2297 1062 2284 1037 2284 
C 992 2278 966 2272 966 2227 
C 966 2182 973 2176 1101 2176 
L 1414 2176 
z
" transform="scale(0.015625)"/>
       <path id="NimbusSanL-Regu-2f" d="M 1466 4672 
L -51 -128 
L 301 -128 
L 1818 4672 
L 1466 4672 
z
" transform="scale(0.015625)"/>
       <path id="NimbusSanL-Regu-6b" d="M 902 4672 
L 371 4672 
L 371 0 
L 902 0 
L 902 1307 
L 1421 1820 
L 2554 0 
L 3213 0 
L 1843 2198 
L 3008 3358 
L 2323 3358 
L 902 1935 
L 902 4672 
z
" transform="scale(0.015625)"/>
       <path id="NimbusSanL-Regu-67" d="M 2637 3359 
L 2637 2873 
C 2368 3270 2042 3456 1613 3456 
C 762 3456 186 2714 186 1632 
C 186 1084 333 638 608 320 
C 858 38 1216 -128 1568 -128 
C 1990 -128 2285 51 2586 473 
L 2586 300 
C 2586 -155 2528 -441 2394 -634 
C 2253 -841 1978 -960 1651 -960 
C 1408 -960 1190 -894 1043 -774 
C 922 -674 870 -581 838 -375 
L 294 -375 
C 352 -1031 845 -1408 1632 -1408 
C 2131 -1408 2560 -1248 2778 -980 
C 3034 -661 3130 -222 3130 568 
L 3130 3359 
L 2637 3359 
z
M 1670 2963 
C 2246 2963 2586 2479 2586 1644 
C 2586 848 2240 364 1677 364 
C 1094 364 742 855 742 1663 
C 742 2466 1101 2963 1670 2963 
z
" transform="scale(0.015625)"/>
       <path id="NimbusSanL-Regu-5d" d="M 147 -1357 
L 1338 -1357 
L 1338 4672 
L 147 4672 
L 147 4211 
L 806 4211 
L 806 -896 
L 147 -896 
L 147 -1357 
z
" transform="scale(0.015625)"/>
      </defs>
      <use xlink:href="#NimbusSanL-Regu-53" transform="scale(0.996264)"/>
      <use xlink:href="#NimbusSanL-Regu-70" transform="translate(66.450031 0) scale(0.996264)"/>
      <use xlink:href="#NimbusSanL-Regu-65" transform="translate(121.841708 0) scale(0.996264)"/>
      <use xlink:href="#NimbusSanL-Regu-63" transform="translate(177.233385 0) scale(0.996264)"/>
      <use xlink:href="#NimbusSanL-Regu-69" transform="translate(227.046586 0) scale(0.996264)"/>
      <use xlink:href="#NimbusSanL-Regu-2" transform="translate(249.16337 0) scale(0.996264)"/>
      <use xlink:href="#NimbusSanL-Regu-63" transform="translate(298.97657 0) scale(0.996264)"/>
      <use xlink:href="#NimbusSanL-Regu-56" transform="translate(376.484941 0) scale(0.996264)"/>
      <use xlink:href="#NimbusSanL-Regu-6f" transform="translate(434.965528 0) scale(0.996264)"/>
      <use xlink:href="#NimbusSanL-Regu-6c" transform="translate(490.357205 0) scale(0.996264)"/>
      <use xlink:href="#NimbusSanL-Regu-75" transform="translate(512.47399 0) scale(0.996264)"/>
      <use xlink:href="#NimbusSanL-Regu-6d" transform="translate(567.865667 0) scale(0.996264)"/>
      <use xlink:href="#NimbusSanL-Regu-65" transform="translate(650.854097 0) scale(0.996264)"/>
      <use xlink:href="#CMMI12-56" transform="translate(733.940944 0) scale(0.996264)"/>
      <use xlink:href="#NimbusSanL-Regu-5b" transform="translate(840.183434 0) scale(0.996264)"/>
      <use xlink:href="#NimbusSanL-Regu-6d" transform="translate(867.878603 0) scale(0.996264)"/>
      <use xlink:href="#CMR17-33" transform="translate(950.867034 36.153639) scale(0.697382)"/>
      <use xlink:href="#NimbusSanL-Regu-2f" transform="translate(983.348348 0) scale(0.996264)"/>
      <use xlink:href="#NimbusSanL-Regu-6b" transform="translate(1011.043517 0) scale(0.996264)"/>
      <use xlink:href="#NimbusSanL-Regu-67" transform="translate(1060.856718 0) scale(0.996264)"/>
      <use xlink:href="#NimbusSanL-Regu-5d" transform="translate(1116.248395 0) scale(0.996264)"/>
     </g>
    </g>
   </g>
   <g id="matplotlib.axis_2">
    <g id="ytick_1">
     <g id="line2d_6">
      <defs>
       <path id="ma58347af91" d="M 0 0 
L -3.5 0 
" style="stroke: #000000; stroke-width: 0.8"/>
      </defs>
      <g>
       <use xlink:href="#ma58347af91" x="47.808365" y="371.769554" style="stroke: #000000; stroke-width: 0.8"/>
      </g>
     </g>
     <g id="text_7">
      <!-- $\mathdefault{0}$ -->
      <g transform="translate(35.827029 375.318714) scale(0.1 -0.1)">
       <use xlink:href="#CMR17-30" transform="scale(0.996264)"/>
      </g>
     </g>
    </g>
    <g id="ytick_2">
     <g id="line2d_7">
      <g>
       <use xlink:href="#ma58347af91" x="47.808365" y="303.013448" style="stroke: #000000; stroke-width: 0.8"/>
      </g>
     </g>
     <g id="text_8">
      <!-- $\mathdefault{20}$ -->
      <g transform="translate(30.845694 306.562608) scale(0.1 -0.1)">
       <use xlink:href="#CMR17-32" transform="scale(0.996264)"/>
       <use xlink:href="#CMR17-30" transform="translate(45.690477 0) scale(0.996264)"/>
      </g>
     </g>
    </g>
    <g id="ytick_3">
     <g id="line2d_8">
      <g>
       <use xlink:href="#ma58347af91" x="47.808365" y="234.257343" style="stroke: #000000; stroke-width: 0.8"/>
      </g>
     </g>
     <g id="text_9">
      <!-- $\mathdefault{40}$ -->
      <g transform="translate(30.845694 237.806503) scale(0.1 -0.1)">
       <use xlink:href="#CMR17-34" transform="scale(0.996264)"/>
       <use xlink:href="#CMR17-30" transform="translate(45.690477 0) scale(0.996264)"/>
      </g>
     </g>
    </g>
    <g id="ytick_4">
     <g id="line2d_9">
      <g>
       <use xlink:href="#ma58347af91" x="47.808365" y="165.501237" style="stroke: #000000; stroke-width: 0.8"/>
      </g>
     </g>
     <g id="text_10">
      <!-- $\mathdefault{60}$ -->
      <g transform="translate(30.845694 169.050397) scale(0.1 -0.1)">
       <use xlink:href="#CMR17-36" transform="scale(0.996264)"/>
       <use xlink:href="#CMR17-30" transform="translate(45.690477 0) scale(0.996264)"/>
      </g>
     </g>
    </g>
    <g id="ytick_5">
     <g id="line2d_10">
      <g>
       <use xlink:href="#ma58347af91" x="47.808365" y="96.745132" style="stroke: #000000; stroke-width: 0.8"/>
      </g>
     </g>
     <g id="text_11">
      <!-- $\mathdefault{80}$ -->
      <g transform="translate(30.845694 100.294292) scale(0.1 -0.1)">
       <use xlink:href="#CMR17-38" transform="scale(0.996264)"/>
       <use xlink:href="#CMR17-30" transform="translate(45.690477 0) scale(0.996264)"/>
      </g>
     </g>
    </g>
    <g id="ytick_6">
     <g id="line2d_11">
      <g>
       <use xlink:href="#ma58347af91" x="47.808365" y="27.989026" style="stroke: #000000; stroke-width: 0.8"/>
      </g>
     </g>
     <g id="text_12">
      <!-- $\mathdefault{100}$ -->
      <g transform="translate(25.864359 31.538186) scale(0.1 -0.1)">
       <use xlink:href="#CMR17-31" transform="scale(0.996264)"/>
       <use xlink:href="#CMR17-30" transform="translate(45.690477 0) scale(0.996264)"/>
       <use xlink:href="#CMR17-30" transform="translate(91.380954 0) scale(0.996264)"/>
      </g>
     </g>
    </g>
    <g id="text_13">
     <!-- Pressure $P$ [kPa] -->
     <g transform="translate(19.317984 245.088015) rotate(-90) scale(0.12 -0.12)">
      <defs>
       <path id="NimbusSanL-Regu-50" d="M 1178 1984 
L 2643 1984 
C 3008 1984 3296 2092 3546 2316 
C 3827 2572 3949 2873 3949 3302 
C 3949 4179 3430 4672 2509 4672 
L 582 4672 
L 582 0 
L 1178 0 
L 1178 1984 
z
M 1178 2508 
L 1178 4147 
L 2419 4147 
C 2989 4147 3328 3839 3328 3327 
C 3328 2816 2989 2508 2419 2508 
L 1178 2508 
z
" transform="scale(0.015625)"/>
       <path id="NimbusSanL-Regu-72" d="M 442 3328 
L 442 0 
L 979 0 
L 979 1727 
C 979 2203 1101 2514 1357 2698 
C 1523 2819 1683 2857 2054 2863 
L 2054 3404 
C 1965 3449 1920 3456 1850 3456 
C 1504 3456 1242 3251 934 2750 
L 934 3328 
L 442 3328 
z
" transform="scale(0.015625)"/>
       <path id="NimbusSanL-Regu-73" d="M 2803 2428 
C 2797 3084 2362 3456 1587 3456 
C 806 3456 301 3052 301 2434 
C 301 1912 570 1663 1363 1472 
L 1862 1351 
C 2234 1262 2381 1129 2381 887 
C 2381 574 2067 364 1600 364 
C 1312 364 1069 447 934 587 
C 851 683 813 778 781 1014 
L 218 1014 
C 243 243 678 -128 1555 -128 
C 2400 -128 2938 288 2938 931 
C 2938 1428 2656 1702 1990 1861 
L 1478 1982 
C 1043 2084 858 2224 858 2459 
C 858 2765 1133 2963 1568 2963 
C 1997 2963 2227 2778 2240 2428 
L 2803 2428 
z
" transform="scale(0.015625)"/>
       <path id="CMMI12-50" d="M 1894 2022 
L 2970 2022 
C 3853 2022 4736 2673 4736 3400 
C 4736 3898 4314 4352 3507 4352 
L 1530 4352 
C 1408 4352 1350 4352 1350 4230 
C 1350 4166 1408 4166 1504 4166 
C 1894 4166 1894 4115 1894 4045 
C 1894 4032 1894 3994 1869 3898 
L 1005 471 
C 947 249 934 185 486 185 
C 365 185 301 185 301 70 
C 301 0 358 0 397 0 
C 518 0 646 12 768 12 
L 1517 12 
C 1638 12 1773 0 1894 0 
C 1946 0 2016 0 2016 121 
C 2016 185 1958 185 1862 185 
C 1478 185 1472 230 1472 293 
C 1472 325 1478 369 1485 401 
L 1894 2022 
z
M 2355 3917 
C 2413 4153 2438 4166 2688 4166 
L 3322 4166 
C 3802 4166 4198 4013 4198 3534 
C 4198 3369 4115 2826 3821 2533 
C 3712 2418 3405 2176 2822 2176 
L 1920 2176 
L 2355 3917 
z
" transform="scale(0.015625)"/>
       <path id="NimbusSanL-Regu-61" d="M 3424 332 
C 3366 320 3341 320 3309 320 
C 3123 320 3021 415 3021 581 
L 3021 2542 
C 3021 3135 2586 3456 1760 3456 
C 1274 3456 870 3315 646 3065 
C 493 2893 429 2702 416 2370 
L 954 2370 
C 998 2778 1242 2963 1741 2963 
C 2221 2963 2490 2784 2490 2466 
L 2490 2326 
C 2490 2103 2355 2007 1933 1956 
C 1178 1861 1062 1835 858 1753 
C 467 1593 269 1294 269 861 
C 269 256 691 -128 1370 -128 
C 1792 -128 2131 19 2509 364 
C 2547 25 2714 -128 3059 -128 
C 3168 -128 3251 -116 3424 -71 
L 3424 332 
z
M 2490 1071 
C 2490 893 2438 785 2278 638 
C 2061 441 1798 339 1485 339 
C 1069 339 826 536 826 874 
C 826 1224 1062 1402 1632 1485 
C 2195 1562 2310 1587 2490 1670 
L 2490 1071 
z
" transform="scale(0.015625)"/>
      </defs>
      <use xlink:href="#NimbusSanL-Regu-50" transform="scale(0.996264)"/>
      <use xlink:href="#NimbusSanL-Regu-72" transform="translate(66.450031 0) scale(0.996264)"/>
      <use xlink:href="#NimbusSanL-Regu-65" transform="translate(99.625261 0) scale(0.996264)"/>
      <use xlink:href="#NimbusSanL-Regu-73" transform="translate(155.016938 0) scale(0.996264)"/>
      <use xlink:href="#NimbusSanL-Regu-73" transform="translate(204.830138 0) scale(0.996264)"/>
      <use xlink:href="#NimbusSanL-Regu-75" transform="translate(254.643339 0) scale(0.996264)"/>
      <use xlink:href="#NimbusSanL-Regu-72" transform="translate(310.035016 0) scale(0.996264)"/>
      <use xlink:href="#NimbusSanL-Regu-65" transform="translate(343.210246 0) scale(0.996264)"/>
      <use xlink:href="#CMMI12-50" transform="translate(426.297092 0) scale(0.996264)"/>
      <use xlink:href="#NimbusSanL-Regu-5b" transform="translate(530.418082 0) scale(0.996264)"/>
      <use xlink:href="#NimbusSanL-Regu-6b" transform="translate(558.113252 0) scale(0.996264)"/>
      <use xlink:href="#NimbusSanL-Regu-50" transform="translate(607.926453 0) scale(0.996264)"/>
      <use xlink:href="#NimbusSanL-Regu-61" transform="translate(670.39237 0) scale(0.996264)"/>
      <use xlink:href="#NimbusSanL-Regu-5d" transform="translate(725.784047 0) scale(0.996264)"/>
     </g>
    </g>
   </g>
   <g id="line2d_12">
    <path d="M 71.326166 27.989026 
L 76.077237 27.989026 
L 80.828308 27.989026 
L 85.579379 27.989026 
L 90.33045 27.989026 
L 95.081521 27.989026 
L 99.832592 27.989026 
L 104.583663 27.989026 
L 109.334734 27.989026 
L 114.085806 27.989026 
L 118.836877 27.989026 
L 123.587948 27.989026 
L 128.339019 27.989026 
L 133.09009 27.989026 
L 137.841161 27.989026 
L 142.592232 27.989026 
L 147.343303 27.989026 
L 152.094374 27.989026 
L 156.845445 27.989026 
L 161.596516 27.989026 
L 166.347587 27.989026 
L 171.098658 27.989026 
L 175.849729 27.989026 
L 180.6008 27.989026 
L 185.351871 27.989026 
L 190.102942 27.989026 
L 194.854013 27.989026 
L 199.605084 27.989026 
L 204.356155 27.989026 
L 209.107226 27.989026 
L 213.858297 27.989026 
L 218.609368 27.989026 
L 223.360439 27.989026 
L 228.11151 27.989026 
L 232.862581 27.989026 
L 237.613652 27.989026 
L 242.364723 27.989026 
L 247.115794 27.989026 
L 251.866865 27.989026 
L 256.617936 27.989026 
L 261.369008 27.989026 
L 266.120079 27.989026 
L 270.87115 27.989026 
L 275.622221 27.989026 
L 280.373292 27.989026 
L 285.124363 27.989026 
L 289.875434 27.989026 
L 294.626505 27.989026 
L 299.377576 27.989026 
L 304.128647 27.989026 
L 308.879718 27.989026 
L 313.630789 27.989026 
L 318.38186 27.989026 
L 323.132931 27.989026 
L 327.884002 27.989026 
L 332.635073 27.989026 
L 337.386144 27.989026 
L 342.137215 27.989026 
L 346.888286 27.989026 
L 351.639357 27.989026 
L 356.390428 27.989026 
L 361.141499 27.989026 
L 365.89257 27.989026 
L 370.643641 27.989026 
L 375.394712 27.989026 
L 380.145783 27.989026 
L 384.896854 27.989026 
L 389.647925 27.989026 
L 394.398996 27.989026 
L 399.150067 27.989026 
L 403.901138 27.989026 
L 408.652209 27.989026 
L 413.403281 27.989026 
L 418.154352 27.989026 
L 422.905423 27.989026 
L 427.656494 27.989026 
L 432.407565 27.989026 
L 437.158636 27.989026 
L 441.909707 27.989026 
L 446.660778 27.989026 
L 451.411849 27.989026 
L 456.16292 27.989026 
L 460.913991 27.989026 
L 465.665062 27.989026 
L 470.416133 27.989026 
L 475.167204 27.989026 
L 479.918275 27.989026 
L 484.669346 27.989026 
L 489.420417 27.989026 
L 494.171488 27.989026 
L 498.922559 27.989026 
L 503.67363 27.989026 
L 508.424701 27.989026 
L 513.175772 27.989026 
L 517.926843 27.989026 
L 522.677914 27.989026 
L 527.428985 27.989026 
L 532.180056 27.989026 
L 536.931127 27.989026 
L 541.682198 27.989026 
" clip-path="url(#p870fbb96d4)" style="fill: none; stroke: #ff0000; stroke-width: 1.5; stroke-linecap: square"/>
   </g>
   <g id="line2d_13">
    <path d="M 71.326166 27.989026 
L 76.077237 31.426832 
L 80.828308 34.796562 
L 85.579379 38.100218 
L 90.33045 41.339726 
L 95.081521 44.516936 
L 99.832592 47.633628 
L 104.583663 50.691514 
L 109.334734 53.692243 
L 114.085806 56.637404 
L 118.836877 59.528524 
L 123.587948 62.367079 
L 128.339019 65.154489 
L 133.09009 67.892123 
L 137.841161 70.581304 
L 142.592232 73.223306 
L 147.343303 75.819361 
L 152.094374 78.370655 
L 156.845445 80.878338 
L 161.596516 83.343518 
L 166.347587 85.767266 
L 171.098658 88.150619 
L 175.849729 90.494577 
L 180.6008 92.800109 
L 185.351871 95.068154 
L 190.102942 97.299617 
L 194.854013 99.495376 
L 199.605084 101.656282 
L 204.356155 103.783158 
L 209.107226 105.876802 
L 213.858297 107.937986 
L 218.609368 109.96746 
L 223.360439 111.965949 
L 228.11151 113.934158 
L 232.862581 115.87277 
L 237.613652 117.782448 
L 242.364723 119.663834 
L 247.115794 121.517552 
L 251.866865 123.344209 
L 256.617936 125.144393 
L 261.369008 126.918674 
L 266.120079 128.667609 
L 270.87115 130.391737 
L 275.622221 132.09158 
L 280.373292 133.76765 
L 285.124363 135.420441 
L 289.875434 137.050435 
L 294.626505 138.6581 
L 299.377576 140.243892 
L 304.128647 141.808255 
L 308.879718 143.351619 
L 313.630789 144.874406 
L 318.38186 146.377022 
L 323.132931 147.859868 
L 327.884002 149.32333 
L 332.635073 150.767786 
L 337.386144 152.193604 
L 342.137215 153.601142 
L 346.888286 154.99075 
L 351.639357 156.362768 
L 356.390428 157.717527 
L 361.141499 159.055352 
L 365.89257 160.376559 
L 370.643641 161.681454 
L 375.394712 162.970338 
L 380.145783 164.243504 
L 384.896854 165.501237 
L 389.647925 166.743817 
L 394.398996 167.971516 
L 399.150067 169.1846 
L 403.901138 170.383328 
L 408.652209 171.567952 
L 413.403281 172.738722 
L 418.154352 173.895878 
L 422.905423 175.039656 
L 427.656494 176.170288 
L 432.407565 177.287998 
L 437.158636 178.393007 
L 441.909707 179.48553 
L 446.660778 180.565777 
L 451.411849 181.633955 
L 456.16292 182.690264 
L 460.913991 183.734901 
L 465.665062 184.768058 
L 470.416133 185.789924 
L 475.167204 186.800683 
L 479.918275 187.800515 
L 484.669346 188.789596 
L 489.420417 189.768098 
L 494.171488 190.736191 
L 498.922559 191.694039 
L 503.67363 192.641805 
L 508.424701 193.579647 
L 513.175772 194.507719 
L 517.926843 195.426174 
L 522.677914 196.335161 
L 527.428985 197.234824 
L 532.180056 198.125308 
L 536.931127 199.006751 
L 541.682198 199.87929 
" clip-path="url(#p870fbb96d4)" style="fill: none; stroke: #0000ff; stroke-width: 1.5; stroke-linecap: square"/>
   </g>
   <g id="line2d_14">
    <path d="M 71.326166 27.989026 
L 76.077237 32.785495 
L 80.828308 37.468308 
L 85.579379 42.041245 
L 90.33045 46.507923 
L 95.081521 50.871807 
L 99.832592 55.136219 
L 104.583663 59.304339 
L 109.334734 63.379222 
L 114.085806 67.363794 
L 118.836877 71.260866 
L 123.587948 75.073137 
L 128.339019 78.803196 
L 133.09009 82.453535 
L 137.841161 86.026546 
L 142.592232 89.52453 
L 147.343303 92.9497 
L 152.094374 96.304186 
L 156.845445 99.590036 
L 161.596516 102.809223 
L 166.347587 105.963649 
L 171.098658 109.055144 
L 175.849729 112.085473 
L 180.6008 115.056335 
L 185.351871 117.969371 
L 190.102942 120.826164 
L 194.854013 123.62824 
L 199.605084 126.377072 
L 204.356155 129.074082 
L 209.107226 131.720644 
L 213.858297 134.318085 
L 218.609368 136.867686 
L 223.360439 139.370688 
L 228.11151 141.828287 
L 232.862581 144.241642 
L 237.613652 146.611872 
L 242.364723 148.940063 
L 247.115794 151.227263 
L 251.866865 153.474486 
L 256.617936 155.682717 
L 261.369008 157.852906 
L 266.120079 159.985975 
L 270.87115 162.082819 
L 275.622221 164.144303 
L 280.373292 166.171265 
L 285.124363 168.16452 
L 289.875434 170.124855 
L 294.626505 172.053037 
L 299.377576 173.949807 
L 304.128647 175.815886 
L 308.879718 177.651972 
L 313.630789 179.458744 
L 318.38186 181.236862 
L 323.132931 182.986964 
L 327.884002 184.709672 
L 332.635073 186.40559 
L 337.386144 188.075304 
L 342.137215 189.719384 
L 346.888286 191.338385 
L 351.639357 192.932845 
L 356.390428 194.503288 
L 361.141499 196.050223 
L 365.89257 197.574146 
L 370.643641 199.075539 
L 375.394712 200.554871 
L 380.145783 202.012599 
L 384.896854 203.449166 
L 389.647925 204.865007 
L 394.398996 206.260541 
L 399.150067 207.636179 
L 403.901138 208.99232 
L 408.652209 210.329355 
L 413.403281 211.647662 
L 418.154352 212.94761 
L 422.905423 214.22956 
L 427.656494 215.493863 
L 432.407565 216.740861 
L 437.158636 217.970889 
L 441.909707 219.18427 
L 446.660778 220.381323 
L 451.411849 221.562358 
L 456.16292 222.727676 
L 460.913991 223.877572 
L 465.665062 225.012334 
L 470.416133 226.132242 
L 475.167204 227.237571 
L 479.918275 228.328588 
L 484.669346 229.405554 
L 489.420417 230.468725 
L 494.171488 231.518348 
L 498.922559 232.554669 
L 503.67363 233.577923 
L 508.424701 234.588344 
L 513.175772 235.586158 
L 517.926843 236.571588 
L 522.677914 237.544849 
L 527.428985 238.506154 
L 532.180056 239.455709 
L 536.931127 240.393718 
L 541.682198 241.320378 
" clip-path="url(#p870fbb96d4)" style="fill: none; stroke: #008000; stroke-width: 1.5; stroke-linecap: square"/>
   </g>
   <g id="line2d_15">
    <path d="M 71.326166 27.989026 
L 76.077237 32.110256 
L 80.828308 36.141806 
L 85.579379 40.086487 
L 90.33045 43.946994 
L 95.081521 47.725915 
L 99.832592 51.425735 
L 104.583663 55.048839 
L 109.334734 58.597519 
L 114.085806 62.073978 
L 118.836877 65.480335 
L 123.587948 68.818627 
L 128.339019 72.090815 
L 133.09009 75.298785 
L 137.841161 78.444354 
L 142.592232 81.529273 
L 147.343303 84.555228 
L 152.094374 87.523843 
L 156.845445 90.436686 
L 161.596516 93.295268 
L 166.347587 96.101047 
L 171.098658 98.85543 
L 175.849729 101.559774 
L 180.6008 104.215392 
L 185.351871 106.82355 
L 190.102942 109.385471 
L 194.854013 111.902339 
L 199.605084 114.375297 
L 204.356155 116.805449 
L 209.107226 119.193866 
L 213.858297 121.541583 
L 218.609368 123.849599 
L 223.360439 126.118884 
L 228.11151 128.350377 
L 232.862581 130.544985 
L 237.613652 132.70359 
L 242.364723 134.827044 
L 247.115794 136.916173 
L 251.866865 138.971778 
L 256.617936 140.994637 
L 261.369008 142.985502 
L 266.120079 144.945105 
L 270.87115 146.874154 
L 275.622221 148.773338 
L 280.373292 150.643323 
L 285.124363 152.48476 
L 289.875434 154.298277 
L 294.626505 156.084485 
L 299.377576 157.84398 
L 304.128647 159.577338 
L 308.879718 161.285119 
L 313.630789 162.96787 
L 318.38186 164.62612 
L 323.132931 166.260385 
L 327.884002 167.871167 
L 332.635073 169.458952 
L 337.386144 171.024215 
L 342.137215 172.567419 
L 346.888286 174.089011 
L 351.639357 175.589431 
L 356.390428 177.069103 
L 361.141499 178.528442 
L 365.89257 179.967852 
L 370.643641 181.387727 
L 375.394712 182.78845 
L 380.145783 184.170394 
L 384.896854 185.533923 
L 389.647925 186.879392 
L 394.398996 188.207148 
L 399.150067 189.517526 
L 403.901138 190.810856 
L 408.652209 192.087459 
L 413.403281 193.347648 
L 418.154352 194.591727 
L 422.905423 195.819994 
L 427.656494 197.032741 
L 432.407565 198.230251 
L 437.158636 199.4128 
L 441.909707 200.580659 
L 446.660778 201.734092 
L 451.411849 202.873357 
L 456.16292 203.998705 
L 460.913991 205.110383 
L 465.665062 206.20863 
L 470.416133 207.293681 
L 475.167204 208.365766 
L 479.918275 209.425109 
L 484.669346 210.471928 
L 489.420417 211.506439 
L 494.171488 212.52885 
L 498.922559 213.539366 
L 503.67363 214.538188 
L 508.424701 215.525511 
L 513.175772 216.501527 
L 517.926843 217.466423 
L 522.677914 218.420383 
L 527.428985 219.363586 
L 532.180056 220.296207 
L 536.931127 221.218418 
L 541.682198 222.130388 
" clip-path="url(#p870fbb96d4)" style="fill: none; stroke: #bf00bf; stroke-width: 1.5; stroke-linecap: square"/>
   </g>
   <g id="line2d_16">
    <path d="M 71.326166 371.769554 
L 71.326166 27.989026 
" clip-path="url(#p870fbb96d4)" style="fill: none; stroke-dasharray: 2,3.3; stroke-dashoffset: 0; stroke: #000000; stroke-width: 2"/>
   </g>
   <g id="patch_3">
    <path d="M 47.808365 388.95858 
L 47.808365 10.8 
" style="fill: none; stroke: #000000; stroke-width: 0.8; stroke-linejoin: miter; stroke-linecap: square"/>
   </g>
   <g id="patch_4">
    <path d="M 565.2 388.95858 
L 565.2 10.8 
" style="fill: none; stroke: #000000; stroke-width: 0.8; stroke-linejoin: miter; stroke-linecap: square"/>
   </g>
   <g id="patch_5">
    <path d="M 47.808365 388.95858 
L 565.2 388.95858 
" style="fill: none; stroke: #000000; stroke-width: 0.8; stroke-linejoin: miter; stroke-linecap: square"/>
   </g>
   <g id="patch_6">
    <path d="M 47.808365 10.8 
L 565.2 10.8 
" style="fill: none; stroke: #000000; stroke-width: 0.8; stroke-linejoin: miter; stroke-linecap: square"/>
   </g>
   <g id="legend_1">
    <g id="line2d_17">
     <path d="M 56.808365 170.33466 
L 66.808365 170.33466 
L 76.808365 170.33466 
" style="fill: none; stroke: #ff0000; stroke-width: 1.5; stroke-linecap: square"/>
    </g>
    <g id="text_14">
     <!-- Isobaric -->
     <g transform="translate(84.808365 173.83466) scale(0.1 -0.1)">
      <defs>
       <path id="NimbusSanL-Regu-49" d="M 1242 4672 
L 640 4672 
L 640 0 
L 1242 0 
L 1242 4672 
z
" transform="scale(0.015625)"/>
       <path id="NimbusSanL-Regu-62" d="M 346 4672 
L 346 19 
L 826 19 
L 826 447 
C 1082 57 1421 -128 1888 -128 
C 2771 -128 3347 594 3347 1702 
C 3347 2784 2797 3456 1914 3456 
C 1453 3456 1126 3283 877 2905 
L 877 4672 
L 346 4672 
z
M 1811 2956 
C 2406 2956 2790 2440 2790 1644 
C 2790 887 2394 371 1811 371 
C 1248 371 877 880 877 1663 
C 877 2447 1248 2956 1811 2956 
z
" transform="scale(0.015625)"/>
      </defs>
      <use xlink:href="#NimbusSanL-Regu-49" transform="scale(0.996264)"/>
      <use xlink:href="#NimbusSanL-Regu-73" transform="translate(27.69517 0) scale(0.996264)"/>
      <use xlink:href="#NimbusSanL-Regu-6f" transform="translate(77.50837 0) scale(0.996264)"/>
      <use xlink:href="#NimbusSanL-Regu-62" transform="translate(132.900047 0) scale(0.996264)"/>
      <use xlink:href="#NimbusSanL-Regu-61" transform="translate(188.291724 0) scale(0.996264)"/>
      <use xlink:href="#NimbusSanL-Regu-72" transform="translate(243.683401 0) scale(0.996264)"/>
      <use xlink:href="#NimbusSanL-Regu-69" transform="translate(278.352008 0) scale(0.996264)"/>
      <use xlink:href="#NimbusSanL-Regu-63" transform="translate(300.468793 0) scale(0.996264)"/>
     </g>
    </g>
    <g id="line2d_18">
     <path d="M 56.808365 184.554967 
L 66.808365 184.554967 
L 76.808365 184.554967 
" style="fill: none; stroke: #0000ff; stroke-width: 1.5; stroke-linecap: square"/>
    </g>
    <g id="text_15">
     <!-- Isothermal -->
     <g transform="translate(84.808365 188.054967) scale(0.1 -0.1)">
      <defs>
       <path id="NimbusSanL-Regu-74" d="M 1626 3328 
L 1075 3328 
L 1075 4249 
L 544 4249 
L 544 3328 
L 90 3328 
L 90 2892 
L 544 2892 
L 544 402 
C 544 64 774 -128 1190 -128 
C 1318 -128 1446 -116 1626 -84 
L 1626 364 
C 1555 345 1472 339 1370 339 
C 1139 339 1075 402 1075 634 
L 1075 2892 
L 1626 2892 
L 1626 3328 
z
" transform="scale(0.015625)"/>
       <path id="NimbusSanL-Regu-68" d="M 448 4672 
L 448 0 
L 979 0 
L 979 1853 
C 979 2539 1338 2988 1888 2988 
C 2061 2988 2234 2930 2362 2834 
C 2515 2725 2579 2565 2579 2328 
L 2579 0 
L 3110 0 
L 3110 2539 
C 3110 3103 2707 3456 2054 3456 
C 1581 3456 1293 3308 979 2898 
L 979 4672 
L 448 4672 
z
" transform="scale(0.015625)"/>
      </defs>
      <use xlink:href="#NimbusSanL-Regu-49" transform="scale(0.996264)"/>
      <use xlink:href="#NimbusSanL-Regu-73" transform="translate(27.69517 0) scale(0.996264)"/>
      <use xlink:href="#NimbusSanL-Regu-6f" transform="translate(77.50837 0) scale(0.996264)"/>
      <use xlink:href="#NimbusSanL-Regu-74" transform="translate(132.900047 0) scale(0.996264)"/>
      <use xlink:href="#NimbusSanL-Regu-68" transform="translate(160.595217 0) scale(0.996264)"/>
      <use xlink:href="#NimbusSanL-Regu-65" transform="translate(215.986894 0) scale(0.996264)"/>
      <use xlink:href="#NimbusSanL-Regu-72" transform="translate(271.378571 0) scale(0.996264)"/>
      <use xlink:href="#NimbusSanL-Regu-6d" transform="translate(307.044415 0) scale(0.996264)"/>
      <use xlink:href="#NimbusSanL-Regu-61" transform="translate(390.032845 0) scale(0.996264)"/>
      <use xlink:href="#NimbusSanL-Regu-6c" transform="translate(445.424522 0) scale(0.996264)"/>
     </g>
    </g>
    <g id="line2d_19">
     <path d="M 56.808365 198.775273 
L 66.808365 198.775273 
L 76.808365 198.775273 
" style="fill: none; stroke: #008000; stroke-width: 1.5; stroke-linecap: square"/>
    </g>
    <g id="text_16">
     <!-- Adiabatic -->
     <g transform="translate(84.808365 202.275273) scale(0.1 -0.1)">
      <defs>
       <path id="NimbusSanL-Regu-41" d="M 3034 1408 
L 3514 0 
L 4179 0 
L 2541 4672 
L 1773 4672 
L 109 0 
L 742 0 
L 1235 1408 
L 3034 1408 
z
M 2867 1907 
L 1382 1907 
L 2150 4032 
L 2867 1907 
z
" transform="scale(0.015625)"/>
       <path id="NimbusSanL-Regu-64" d="M 3168 4672 
L 2637 4672 
L 2637 2937 
C 2413 3276 2054 3456 1606 3456 
C 736 3456 166 2759 166 1695 
C 166 568 723 -128 1626 -128 
C 2086 -128 2406 44 2694 460 
L 2694 19 
L 3168 19 
L 3168 4672 
z
M 1696 2956 
C 2272 2956 2637 2447 2637 1651 
C 2637 880 2266 371 1702 371 
C 1114 371 723 887 723 1663 
C 723 2440 1114 2956 1696 2956 
z
" transform="scale(0.015625)"/>
      </defs>
      <use xlink:href="#NimbusSanL-Regu-41" transform="scale(0.996264)"/>
      <use xlink:href="#NimbusSanL-Regu-64" transform="translate(66.450031 0) scale(0.996264)"/>
      <use xlink:href="#NimbusSanL-Regu-69" transform="translate(121.841708 0) scale(0.996264)"/>
      <use xlink:href="#NimbusSanL-Regu-61" transform="translate(143.958492 0) scale(0.996264)"/>
      <use xlink:href="#NimbusSanL-Regu-62" transform="translate(199.350169 0) scale(0.996264)"/>
      <use xlink:href="#NimbusSanL-Regu-61" transform="translate(254.741846 0) scale(0.996264)"/>
      <use xlink:href="#NimbusSanL-Regu-74" transform="translate(310.133523 0) scale(0.996264)"/>
      <use xlink:href="#NimbusSanL-Regu-69" transform="translate(337.828693 0) scale(0.996264)"/>
      <use xlink:href="#NimbusSanL-Regu-63" transform="translate(359.945477 0) scale(0.996264)"/>
     </g>
    </g>
    <g id="line2d_20">
     <path d="M 56.808365 213.179947 
L 66.808365 213.179947 
L 76.808365 213.179947 
" style="fill: none; stroke: #bf00bf; stroke-width: 1.5; stroke-linecap: square"/>
    </g>
    <g id="text_17">
     <!-- Polytropic (n=1.2) -->
     <g transform="translate(84.808365 216.679947) scale(0.1 -0.1)">
      <defs>
       <path id="NimbusSanL-Regu-79" d="M 2483 3328 
L 1555 724 
L 698 3328 
L 128 3328 
L 1261 -29 
L 1056 -558 
C 973 -794 851 -884 627 -884 
C 550 -884 461 -871 346 -845 
L 346 -1325 
C 454 -1383 563 -1408 704 -1408 
C 877 -1408 1062 -1351 1203 -1248 
C 1370 -1127 1466 -986 1568 -718 
L 3059 3328 
L 2483 3328 
z
" transform="scale(0.015625)"/>
       <path id="NimbusSanL-Regu-28" d="M 1510 4672 
C 870 3833 467 2668 467 1663 
C 467 652 870 -513 1510 -1351 
L 1862 -1351 
C 1299 -436 986 639 986 1663 
C 986 2681 1299 3763 1862 4672 
L 1510 4672 
z
" transform="scale(0.015625)"/>
       <path id="NimbusSanL-Regu-6e" d="M 448 3328 
L 448 0 
L 986 0 
L 986 1835 
C 986 2539 1344 2988 1894 2988 
C 2317 2988 2586 2732 2586 2328 
L 2586 0 
L 3117 0 
L 3117 2539 
C 3117 3097 2701 3456 2054 3456 
C 1555 3456 1235 3263 941 2796 
L 941 3328 
L 448 3328 
z
" transform="scale(0.015625)"/>
       <path id="NimbusSanL-Regu-3d" d="M 3418 2240 
L 320 2240 
L 320 1792 
L 3418 1792 
L 3418 2240 
z
M 3418 1152 
L 320 1152 
L 320 704 
L 3418 704 
L 3418 1152 
z
" transform="scale(0.015625)"/>
       <path id="NimbusSanL-Regu-31" d="M 1658 3232 
L 1658 0 
L 2221 0 
L 2221 4537 
L 1850 4537 
C 1651 3840 1523 3744 653 3635 
L 653 3232 
L 1658 3232 
z
" transform="scale(0.015625)"/>
       <path id="NimbusSanL-Regu-2e" d="M 1222 665 
L 557 665 
L 557 0 
L 1222 0 
L 1222 665 
z
" transform="scale(0.015625)"/>
       <path id="NimbusSanL-Regu-32" d="M 3238 556 
L 851 556 
C 909 928 1114 1165 1670 1493 
L 2310 1839 
C 2944 2185 3270 2653 3270 3211 
C 3270 3589 3117 3942 2848 4185 
C 2579 4428 2246 4544 1818 4544 
C 1242 4544 813 4339 563 3955 
C 403 3711 333 3429 320 2967 
L 883 2967 
C 902 3275 941 3461 1018 3608 
C 1165 3884 1459 4051 1798 4051 
C 2310 4051 2694 3685 2694 3198 
C 2694 2839 2483 2531 2080 2300 
L 1491 1967 
C 544 1428 269 999 218 0 
L 3238 0 
L 3238 556 
z
" transform="scale(0.015625)"/>
       <path id="NimbusSanL-Regu-29" d="M 595 -1351 
C 1235 -513 1638 652 1638 1657 
C 1638 2668 1235 3833 595 4672 
L 243 4672 
C 806 3756 1120 2681 1120 1657 
C 1120 639 806 -442 243 -1351 
L 595 -1351 
z
" transform="scale(0.015625)"/>
      </defs>
      <use xlink:href="#NimbusSanL-Regu-50" transform="scale(0.996264)"/>
      <use xlink:href="#NimbusSanL-Regu-6f" transform="translate(61.468681 0) scale(0.996264)"/>
      <use xlink:href="#NimbusSanL-Regu-6c" transform="translate(116.860358 0) scale(0.996264)"/>
      <use xlink:href="#NimbusSanL-Regu-79" transform="translate(138.977142 0) scale(0.996264)"/>
      <use xlink:href="#NimbusSanL-Regu-74" transform="translate(188.790342 0) scale(0.996264)"/>
      <use xlink:href="#NimbusSanL-Regu-72" transform="translate(216.485512 0) scale(0.996264)"/>
      <use xlink:href="#NimbusSanL-Regu-6f" transform="translate(249.660742 0) scale(0.996264)"/>
      <use xlink:href="#NimbusSanL-Regu-70" transform="translate(305.052419 0) scale(0.996264)"/>
      <use xlink:href="#NimbusSanL-Regu-69" transform="translate(360.444096 0) scale(0.996264)"/>
      <use xlink:href="#NimbusSanL-Regu-63" transform="translate(382.56088 0) scale(0.996264)"/>
      <use xlink:href="#NimbusSanL-Regu-28" transform="translate(460.06925 0) scale(0.996264)"/>
      <use xlink:href="#NimbusSanL-Regu-6e" transform="translate(493.24448 0) scale(0.996264)"/>
      <use xlink:href="#NimbusSanL-Regu-3d" transform="translate(548.636157 0) scale(0.996264)"/>
      <use xlink:href="#NimbusSanL-Regu-31" transform="translate(606.81765 0) scale(0.996264)"/>
      <use xlink:href="#NimbusSanL-Regu-2e" transform="translate(662.209327 0) scale(0.996264)"/>
      <use xlink:href="#NimbusSanL-Regu-32" transform="translate(689.904496 0) scale(0.996264)"/>
      <use xlink:href="#NimbusSanL-Regu-29" transform="translate(745.296173 0) scale(0.996264)"/>
     </g>
    </g>
    <g id="line2d_21">
     <path d="M 56.808365 227.400254 
L 66.808365 227.400254 
L 76.808365 227.400254 
" style="fill: none; stroke-dasharray: 2,3.3; stroke-dashoffset: 0; stroke: #000000; stroke-width: 2"/>
    </g>
    <g id="text_18">
     <!-- Isochoric -->
     <g transform="translate(84.808365 230.900254) scale(0.1 -0.1)">
      <use xlink:href="#NimbusSanL-Regu-49" transform="scale(0.996264)"/>
      <use xlink:href="#NimbusSanL-Regu-73" transform="translate(27.69517 0) scale(0.996264)"/>
      <use xlink:href="#NimbusSanL-Regu-6f" transform="translate(77.50837 0) scale(0.996264)"/>
      <use xlink:href="#NimbusSanL-Regu-63" transform="translate(132.900047 0) scale(0.996264)"/>
      <use xlink:href="#NimbusSanL-Regu-68" transform="translate(182.713248 0) scale(0.996264)"/>
      <use xlink:href="#NimbusSanL-Regu-6f" transform="translate(238.104925 0) scale(0.996264)"/>
      <use xlink:href="#NimbusSanL-Regu-72" transform="translate(293.496601 0) scale(0.996264)"/>
      <use xlink:href="#NimbusSanL-Regu-69" transform="translate(328.165209 0) scale(0.996264)"/>
      <use xlink:href="#NimbusSanL-Regu-63" transform="translate(350.281993 0) scale(0.996264)"/>
     </g>
    </g>
   </g>
  </g>
 </g>
 <defs>
  <clipPath id="p870fbb96d4">
   <rect x="47.808365" y="10.8" width="517.391635" height="378.15858"/>
  </clipPath>
 </defs>
</svg>
